<?xml version="1.0" encoding="utf-8"?>
<!-- Generator: Adobe Illustrator 16.0.0, SVG Export Plug-In . SVG Version: 6.00 Build 0)  -->
<!DOCTYPE svg PUBLIC "-//W3C//DTD SVG 1.1//EN" "http://www.w3.org/Graphics/SVG/1.1/DTD/svg11.dtd">
<svg version="1.1" id="Layer_1" xmlns="http://www.w3.org/2000/svg" xmlns:xlink="http://www.w3.org/1999/xlink" x="0px" y="0px"
	 width="200px" height="200px" viewBox="0 0 200 200" enable-background="new 0 0 200 200" xml:space="preserve">
<g>
	<path fill="#73C167" d="M58.991,191.125c-2.433,0-4.72-0.948-6.44-2.671c-1.72-1.719-2.667-4.006-2.667-6.438
		c0-2.431,0.948-4.717,2.67-6.437l75.575-75.578L52.551,24.425c-3.548-3.551-3.549-9.329-0.001-12.88
		c1.722-1.721,4.008-2.668,6.44-2.668c2.432,0,4.719,0.947,6.44,2.666l82.016,82.019c3.551,3.547,3.552,9.325,0.002,12.88
		l-82.017,82.014C63.711,190.177,61.424,191.125,58.991,191.125z"/>
	<path fill="#73C167" d="M58.991,12.126c1.499,0,2.998,0.572,4.143,1.715l82.015,82.018c2.289,2.287,2.289,5.993,0,8.285
		l-82.015,82.013c-1.144,1.146-2.643,1.718-4.142,1.718c-1.499,0-2.998-0.572-4.142-1.718c-1.145-1.145-1.716-2.644-1.716-4.142
		s0.572-2.994,1.717-4.138l77.874-77.876L54.85,22.127c-2.288-2.29-2.288-5.995,0-8.285C55.994,12.698,57.492,12.126,58.991,12.126
		 M58.991,5.626L58.991,5.626c-3.3,0-6.403,1.285-8.737,3.619c-4.816,4.821-4.815,12.66-0.002,17.477l73.28,73.28l-73.278,73.281
		c-2.334,2.332-3.621,5.435-3.621,8.733c0,3.301,1.286,6.403,3.62,8.738c2.333,2.334,5.437,3.621,8.738,3.621
		s6.405-1.287,8.74-3.623l82.013-82.011c4.819-4.825,4.817-12.666-0.002-17.48L67.729,9.246C65.393,6.911,62.29,5.626,58.991,5.626
		L58.991,5.626z"/>
</g>
</svg>
