<?xml version="1.0" encoding="utf-8"?>
<!-- Generator: Adobe Illustrator 16.0.0, SVG Export Plug-In . SVG Version: 6.00 Build 0)  -->
<!DOCTYPE svg PUBLIC "-//W3C//DTD SVG 1.1//EN" "http://www.w3.org/Graphics/SVG/1.1/DTD/svg11.dtd">
<svg version="1.1" id="Layer_1" xmlns="http://www.w3.org/2000/svg" xmlns:xlink="http://www.w3.org/1999/xlink" x="0px" y="0px"
	 width="200px" height="200px" viewBox="0 0 200 200" enable-background="new 0 0 200 200" xml:space="preserve">
<g>
	<path fill="#73C167" d="M141.008,191.124c-2.433,0-4.72-0.949-6.44-2.671l-82.014-82.012c-3.551-3.556-3.55-9.333,0.001-12.882
		l82.015-82.017c1.72-1.72,4.007-2.667,6.439-2.667c2.432,0,4.719,0.947,6.438,2.667c3.549,3.554,3.549,9.331,0.002,12.881
		l-75.578,75.578l75.575,75.578c1.721,1.719,2.669,4.005,2.669,6.436c0,2.433-0.947,4.72-2.667,6.439
		C145.728,190.176,143.44,191.124,141.008,191.124z"/>
	<path fill="#73C167" d="M141.009,12.126c1.499,0,2.997,0.571,4.142,1.715c2.287,2.291,2.287,5.996,0,8.285l-77.875,77.875
		l77.874,77.876c1.145,1.144,1.717,2.64,1.717,4.138s-0.57,2.997-1.715,4.142s-2.644,1.718-4.143,1.718
		c-1.498,0-2.997-0.573-4.141-1.718l-82.016-82.013c-2.289-2.292-2.289-5.998,0-8.285l82.016-82.018
		C138.011,12.698,139.51,12.126,141.009,12.126 M141.009,5.626L141.009,5.626c-3.301,0-6.403,1.285-8.737,3.619L50.255,91.263
		c-4.816,4.813-4.819,12.652-0.003,17.474l82.02,82.017c2.331,2.334,5.435,3.621,8.736,3.621c3.301,0,6.405-1.287,8.74-3.623
		c2.332-2.332,3.617-5.436,3.617-8.736c0-3.3-1.286-6.402-3.623-8.736l-73.275-73.277l73.279-73.278
		c4.814-4.818,4.814-12.656,0.004-17.474C147.411,6.911,144.309,5.626,141.009,5.626L141.009,5.626z"/>
</g>
</svg>
