<?xml version="1.0" standalone="no"?>
<!DOCTYPE svg PUBLIC "-//W3C//DTD SVG 1.1//EN" "http://www.w3.org/Graphics/SVG/1.1/DTD/svg11.dtd" >
<svg xmlns="http://www.w3.org/2000/svg" xmlns:xlink="http://www.w3.org/1999/xlink" version="1.1">
<metadata></metadata>
<defs>
<font id="thesansarabic_boldbold" horiz-adv-x="315" >
<font-face units-per-em="1000" ascent="740" descent="-260" />
<missing-glyph horiz-adv-x="218" />
<glyph unicode="&#xfe92;&#xfeae;" horiz-adv-x="751" arabic-form="final" d="M76 -254q-44 0 -84 10l10 105q41 -12 81 -12q54 0 81 31.5t27 108.5v481h457v-366h103v-104h-235v366h-193v-370q0 -53 -10.5 -94t-36.5 -78t-76.5 -57.5t-123.5 -20.5zM517 -135q0 29 19.5 48.5t48.5 19.5t48.5 -19t19.5 -49q0 -29 -19.5 -48.5t-48.5 -19.5t-48.5 19.5 t-19.5 48.5z" />
<glyph unicode="&#xfe92;&#xfee6;" horiz-adv-x="1029" arabic-form="final" d="M925 470v-366h104v-104h-236v366h-193v-295q0 -301 -283 -301q-124 0 -193.5 69.5t-69.5 214.5q0 90 23 179l137 25q-28 -94 -28 -192q0 -105 40.5 -149t101.5 -44q69 0 104.5 43.5t35.5 146.5v407h457zM245 400q0 28 20.5 48.5t48.5 20.5t48.5 -20.5t20.5 -48.5 t-20.5 -48.5t-48.5 -20.5t-48.5 20.5t-20.5 48.5zM789 -135q0 29 19.5 48.5t48.5 19.5t48.5 -19t19.5 -49q0 -29 -19.5 -48.5t-48.5 -19.5t-48.5 19.5t-19.5 48.5z" />
<glyph unicode="&#xfe98;&#xfeae;" horiz-adv-x="751" arabic-form="final" d="M76 -254q-44 0 -84 10l10 105q41 -12 81 -12q54 0 81 31.5t27 108.5v481h457v-366h103v-104h-235v366h-193v-370q0 -53 -10.5 -94t-36.5 -78t-76.5 -57.5t-123.5 -20.5zM435 603q0 26 19 45.5t46 19.5t46 -18.5t19 -46.5q0 -27 -18.5 -46t-46.5 -19t-46.5 19t-18.5 46z M595 603q0 26 19 45.5t46 19.5q26 0 45.5 -19t19.5 -46q0 -26 -19 -45.5t-46 -19.5t-46 19t-19 46z" />
<glyph unicode="&#xfe9c;&#xfeae;" horiz-adv-x="751" arabic-form="final" d="M76 -254q-44 0 -84 10l10 105q41 -12 81 -12q54 0 81 31.5t27 108.5v481h457v-366h103v-104h-235v366h-193v-370q0 -53 -10.5 -94t-36.5 -78t-76.5 -57.5t-123.5 -20.5zM433 598q0 26 19 45.5t46 19.5q26 0 45.5 -19t19.5 -46q0 -26 -19.5 -45.5t-45.5 -19.5 q-27 0 -46 19t-19 46zM598 598q0 26 19.5 45.5t45.5 19.5q27 0 46 -19t19 -46q0 -26 -19 -45.5t-46 -19.5q-26 0 -45.5 19t-19.5 46zM516 729q0 26 19 45.5t46 19.5t46 -19t19 -46q0 -26 -19 -45.5t-46 -19.5t-46 19t-19 46z" />
<glyph unicode="&#xfe9c;&#xfee6;" horiz-adv-x="1029" arabic-form="final" d="M925 470v-366h104v-104h-236v366h-193v-295q0 -301 -283 -301q-124 0 -193.5 69.5t-69.5 214.5q0 90 23 179l137 25q-28 -94 -28 -192q0 -105 40.5 -149t101.5 -44q69 0 104.5 43.5t35.5 146.5v407h457zM245 400q0 28 20.5 48.5t48.5 20.5t48.5 -20.5t20.5 -48.5 t-20.5 -48.5t-48.5 -20.5t-48.5 20.5t-20.5 48.5zM708 598q0 26 19 45.5t46 19.5q26 0 45.5 -19t19.5 -46q0 -26 -19.5 -45.5t-45.5 -19.5q-27 0 -46 19t-19 46zM873 598q0 26 19.5 45.5t45.5 19.5q27 0 46 -19t19 -46q0 -26 -19 -45.5t-46 -19.5q-26 0 -45.5 19t-19.5 46z M791 729q0 26 19 45.5t46 19.5t46 -19t19 -46q0 -26 -19 -45.5t-46 -19.5t-46 19t-19 46z" />
<glyph unicode="&#xfee8;&#xfeae;" horiz-adv-x="751" arabic-form="final" d="M76 -254q-44 0 -84 10l10 105q41 -12 81 -12q54 0 81 31.5t27 108.5v481h457v-366h103v-104h-235v366h-193v-370q0 -53 -10.5 -94t-36.5 -78t-76.5 -57.5t-123.5 -20.5zM510 600q0 28 20.5 48.5t48.5 20.5t48.5 -20.5t20.5 -48.5t-20.5 -48.5t-48.5 -20.5t-48.5 20.5 t-20.5 48.5z" />
<glyph unicode="&#xfee8;&#xfee6;" horiz-adv-x="1029" arabic-form="final" d="M925 470v-366h104v-104h-236v366h-193v-295q0 -301 -283 -301q-124 0 -193.5 69.5t-69.5 214.5q0 90 23 179l137 25q-28 -94 -28 -192q0 -105 40.5 -149t101.5 -44q69 0 104.5 43.5t35.5 146.5v407h457zM245 400q0 28 20.5 48.5t48.5 20.5t48.5 -20.5t20.5 -48.5 t-20.5 -48.5t-48.5 -20.5t-48.5 20.5t-20.5 48.5zM791 600q0 28 20.5 48.5t48.5 20.5t48.5 -20.5t20.5 -48.5t-20.5 -48.5t-48.5 -20.5t-48.5 20.5t-20.5 48.5z" />
<glyph unicode="&#xfef4;&#xfeae;" horiz-adv-x="760" arabic-form="final" d="M76 -254q-44 0 -84 10l10 105q41 -12 81 -12q54 0 81 31.5t27 108.5v481h466v-366h103v-104h-235v366h-202v-370q0 -53 -10.5 -94t-36.5 -78t-76.5 -57.5t-123.5 -20.5zM443 -138q0 27 19 46t46 19q26 0 45.5 -19t19.5 -46q0 -26 -19 -45.5t-46 -19.5t-46 19t-19 46z M603 -138q0 27 19 46t46 19q26 0 45.5 -19t19.5 -46q0 -26 -19 -45.5t-46 -19.5t-46 19t-19 46z" />
<glyph unicode="&#xfef4;&#xfee6;" horiz-adv-x="1029" arabic-form="final" d="M925 470v-366h104v-104h-236v366h-193v-295q0 -301 -283 -301q-124 0 -193.5 69.5t-69.5 214.5q0 90 23 179l137 25q-28 -94 -28 -192q0 -105 40.5 -149t101.5 -44q69 0 104.5 43.5t35.5 146.5v407h457zM245 400q0 28 20.5 48.5t48.5 20.5t48.5 -20.5t20.5 -48.5 t-20.5 -48.5t-48.5 -20.5t-48.5 20.5t-20.5 48.5zM713 -138q0 27 19 46t46 19q26 0 45.5 -19t19.5 -46q0 -26 -19 -45.5t-46 -19.5t-46 19t-19 46zM873 -138q0 27 19 46t46 19q26 0 45.5 -19t19.5 -46q0 -26 -19 -45.5t-46 -19.5t-46 19t-19 46z" />
<glyph unicode="&#xfedf;&#xfee0;&#xfeea;" horiz-adv-x="1278" arabic-form="isolated" d="M318 0q-267 0 -267 232q0 106 67 178.5t197 72.5q53 0 105.5 -8.5t78.5 -17.5l26 -9v-344h202v528h132v-528h206v601h132v-705h-879zM397 104v257q-38 18 -95 18q-55 0 -87 -37.5t-32 -97.5q0 -140 150 -140h64z" />
<glyph unicode="&#xfedf;&#xfe82;" horiz-adv-x="608" arabic-form="isolated" d="M177 712l146 -533h-135l-143 515zM527 0h-440v104h308v601h132v-705zM-18 764v77l86 26q35 -35 80 -35q42 0 87 35v-78q-42 -29 -94 -29q-47 0 -80 28z" />
<glyph unicode="&#xfee0;&#xfe82;" horiz-adv-x="630" arabic-form="final" d="M87 0v104h308v601h132v-601h103v-104h-543zM177 712l146 -533h-135l-143 515zM-18 764v77l86 26q35 -35 80 -35q42 0 87 35v-78q-42 -29 -94 -29q-47 0 -80 28z" />
<glyph unicode="&#xfedf;&#xfe84;" horiz-adv-x="608" arabic-form="isolated" d="M215 552l108 -373h-135l-108 373h135zM527 0h-440v104h308v601h132v-705zM14 595v68q38 0 53 -3q-18 11 -18 38q0 39 35.5 67.5t103.5 28.5q17 0 59 -6l-13 -67q-21 6 -53 6q-46 0 -46 -30q0 -34 67 -34h63v-68h-251z" />
<glyph unicode="&#xfee0;&#xfe84;" horiz-adv-x="630" arabic-form="final" d="M87 0v104h308v601h132v-601h103v-104h-543zM215 552l108 -373h-135l-108 373h135zM14 595v68q38 0 53 -3q-18 11 -18 38q0 39 35.5 67.5t103.5 28.5q17 0 59 -6l-13 -67q-21 6 -53 6q-46 0 -46 -30q0 -34 67 -34h63v-68h-251z" />
<glyph unicode="&#xfedf;&#xfe88;" horiz-adv-x="608" arabic-form="isolated" d="M177 712l146 -533h-135l-143 515zM527 0h-440v104h308v601h132v-705zM126 -254v71q34 0 53 -6q-19 14 -19 38q0 42 36.5 70t104.5 28q33 0 57 -6l-13 -71q-21 6 -51 6q-45 0 -45 -28q0 -31 65 -31h62v-71h-250z" />
<glyph unicode="&#xfee0;&#xfe88;" horiz-adv-x="630" arabic-form="final" d="M87 0v104h308v601h132v-601h103v-104h-543zM177 712l146 -533h-135l-143 515zM126 -254v71q34 0 53 -6q-19 14 -19 38q0 42 36.5 70t104.5 28q33 0 57 -6l-13 -71q-21 6 -51 6q-45 0 -45 -28q0 -31 65 -31h62v-71h-250z" />
<glyph unicode="&#xfedf;&#xfe8e;" horiz-adv-x="608" arabic-form="isolated" d="M177 712l146 -533h-135l-143 515zM527 0h-440v104h308v601h132v-705z" />
<glyph unicode="&#xfee0;&#xfe8e;" horiz-adv-x="630" arabic-form="final" d="M630 0h-543v104h308v601h132v-601h103v-104zM177 712l146 -533h-135l-143 515z" />
<glyph unicode="&#x66e;" d="M235 0h-250q-18 0 -39 15t-21 37q0 21 21 36.5t39 15.5h118v366h132v-470z" />
<glyph unicode="&#x66e;" horiz-adv-x="338" d="M-15 0q-18 0 -39 15t-21 37q0 21 21 36.5t39 15.5h118v366h132v-366h103v-104h-353z" />
<glyph unicode="&#x66e;" horiz-adv-x="810" d="M425 0q-196 0 -281.5 76t-85.5 220q0 86 26 157l142 23q-35 -73 -35 -165q0 -109 55.5 -158t193.5 -49h135v366h132v-366h103v-104h-385z" />
<glyph unicode="&#x66f;" horiz-adv-x="612" d="M548 0h-563q-18 0 -39 15t-21 37q0 21 21 36.5t39 15.5h77q16 0 30 -2t20 -4l6 -1q-56 41 -56 143t68.5 172.5t191.5 70.5q114 0 170 -60.5t56 -169.5v-253zM419 104v133q0 142 -107 142q-55 0 -87 -37.5t-32 -97.5q0 -71 36.5 -105.5t113.5 -34.5h76z" />
<glyph unicode="&#x66f;" horiz-adv-x="608" d="M609 0h-624q-18 0 -39 15t-21 37q0 21 21 36.5t39 15.5h60l62 -5q-47 47 -47 135q0 109 71 179t184 70q109 0 170.5 -58.5t61.5 -174.5q0 -45 -15 -86.5t-43 -64.5q42 5 77 5h43v-104zM303 104q49 0 80.5 36t31.5 103q0 136 -110 136q-47 0 -79.5 -34t-32.5 -100 q0 -141 110 -141z" />
<glyph unicode="&#x66f;" horiz-adv-x="919" d="M816 448v-344h103v-104h-103v-239q-194 -11 -322 -11q-234 0 -337 74t-103 232q0 88 23 177l137 25q-28 -94 -28 -189q0 -118 71 -167t255 -49l176 6v141h-79q-267 0 -267 232q0 107 67.5 179t197.5 72q52 0 104.5 -8.5t78.5 -17.5zM688 104v257q-38 18 -95 18 q-55 0 -87 -37.5t-32 -97.5q0 -140 150 -140h64z" />
<glyph unicode="&#x672;" d="M80 0v675h132v-571h103v-104h-235zM-36 767v84q37 4 62 -7t40 -24t25 -13q-25 16 -25 40q0 42 37 72.5t110 30.5q17 0 59 -6l-13 -70q-30 6 -54 6q-49 0 -49 -34q0 -37 72 -37h61v-72h-175q-32 0 -75 19.5t-75 10.5z" />
<glyph unicode="&#x673;" d="M80 0v675h132v-571h103v-104h-235zM-36 -233v84q37 4 62 -7t40 -24t25 -13q-25 16 -25 40q0 42 37 72.5t110 30.5q17 0 59 -6l-13 -70q-30 6 -54 6q-49 0 -49 -34q0 -37 72 -37h61v-72h-175q-32 0 -75 19.5t-75 10.5z" />
<glyph unicode="&#x675;" d="M80 0v675h132v-571h103v-104h-235zM140 725v72q32 0 60 -6q-25 13 -25 44q0 42 37 72.5t110 30.5q17 0 59 -6l-13 -70q-30 6 -54 6q-49 0 -49 -34q0 -37 72 -37h61v-72h-258z" />
<glyph unicode="&#x676;" horiz-adv-x="628" d="M212 -252q-33 0 -71 3t-59 7l-22 3l8 108q78 -17 156 -17q173 0 173 133v15h-79q-267 0 -267 232q0 106 67 178.5t197 72.5q53 0 105.5 -8.5t78.5 -17.5l26 -9v-344h103v-104h-103v-2q0 -111 -77 -180.5t-236 -69.5zM397 104v257q-38 18 -95 18q-55 0 -87 -37.5 t-32 -97.5q0 -140 150 -140h64zM327 544v72q32 0 60 -6q-25 13 -25 44q0 42 37 72.5t110 30.5q17 0 59 -6l-13 -70q-30 6 -54 6q-49 0 -49 -34q0 -37 72 -37h61v-72h-258z" />
<glyph unicode="&#x678;" horiz-adv-x="1020" d="M634 0h-209q-196 0 -281.5 76t-85.5 220q0 86 26 157l142 23q-35 -73 -35 -165q0 -109 55.5 -158t193.5 -49h67v360q94 19 202 19q125 0 177.5 -56t52.5 -165v-158h81v-104h-209v248q0 72 -24.5 101.5t-86.5 29.5l-66 -6v-373zM564 547v72q32 0 60 -6q-25 13 -25 44 q0 42 37 72.5t110 30.5q17 0 59 -6l-13 -70q-30 6 -54 6q-49 0 -49 -34q0 -37 72 -37h61v-72h-258z" />
<glyph unicode="&#x67c;" d="M172 -33q0 -50 -31 -81.5t-79 -31.5q-103 0 -103 104q0 24 8 45q-16 6 -29 19t-13 30q0 21 21 36.5t39 15.5h118v366h132v-470h-67q4 -20 4 -33zM20 603q0 26 19 45.5t46 19.5t46 -18.5t19 -46.5q0 -27 -18.5 -46t-46.5 -19t-46.5 19t-18.5 46zM180 603q0 26 19 45.5 t46 19.5q26 0 45.5 -19t19.5 -46q0 -26 -19 -45.5t-46 -19.5t-46 19t-19 46zM93 -38q0 36 -24 38h-3q-12 0 -20.5 -9t-8.5 -27q0 -39 28 -39q12 0 20 10t8 27z" />
<glyph unicode="&#x67c;" horiz-adv-x="338" d="M274 -33q0 -50 -31 -81.5t-79 -31.5q-103 0 -103 104q0 24 6 42h-82q-18 0 -39 15t-21 37q0 21 21 36.5t39 15.5h118v366h132v-366h103v-104h-68q4 -20 4 -33zM21 603q0 26 19 45.5t46 19.5t46 -18.5t19 -46.5q0 -27 -18.5 -46t-46.5 -19t-46.5 19t-18.5 46zM181 603 q0 26 19 45.5t46 19.5q26 0 45.5 -19t19.5 -46q0 -26 -19 -45.5t-46 -19.5t-46 19t-19 46zM195 -38q0 38 -27 38q-12 0 -20.5 -9t-8.5 -27q0 -39 28 -39q12 0 20 10t8 27z" />
<glyph unicode="&#x67c;" horiz-adv-x="810" d="M603 -33q0 -50 -31 -81.5t-79 -31.5q-103 0 -103 104q0 24 6 42q-180 6 -259 81.5t-79 214.5q0 86 26 157l142 23q-35 -73 -35 -165q0 -109 55.5 -158t193.5 -49h135v366h132v-366h103v-104h-211q4 -20 4 -33zM265 603q0 26 19 45.5t46 19.5t46 -18.5t19 -46.5 q0 -27 -18.5 -46t-46.5 -19t-46.5 19t-18.5 46zM425 603q0 26 19 45.5t46 19.5q26 0 45.5 -19t19.5 -46q0 -26 -19 -45.5t-46 -19.5t-46 19t-19 46zM524 -38q0 38 -27 38h-3q-26 -2 -26 -36q0 -39 28 -39q12 0 20 10t8 27z" />
<glyph unicode="&#x67d;" d="M235 0h-250q-18 0 -39 15t-21 37q0 21 21 36.5t39 15.5h118v366h132v-470zM164 663q27 0 45.5 -19t18.5 -45q0 -27 -18.5 -45.5t-45.5 -18.5q-26 0 -45 18.5t-19 45.5q0 26 19 45t45 19zM82 792q27 0 45.5 -19t18.5 -45q0 -27 -18.5 -45.5t-45.5 -18.5t-45.5 18.5 t-18.5 45.5q0 26 18.5 45t45.5 19zM246 792q26 0 45 -19t19 -45q0 -27 -19 -45.5t-45 -18.5q-27 0 -45.5 18.5t-18.5 45.5q0 26 18.5 45t45.5 19z" />
<glyph unicode="&#x67d;" horiz-adv-x="338" d="M-15 0q-18 0 -39 15t-21 37q0 21 21 36.5t39 15.5h118v366h132v-366h103v-104h-353zM82 792q27 0 45.5 -19t18.5 -45q0 -27 -18.5 -45.5t-45.5 -18.5t-45.5 18.5t-18.5 45.5q0 26 18.5 45t45.5 19zM246 792q26 0 45 -19t19 -45q0 -27 -19 -45.5t-45 -18.5 q-27 0 -45.5 18.5t-18.5 45.5q0 26 18.5 45t45.5 19zM164 663q27 0 45.5 -19t18.5 -45q0 -27 -18.5 -45.5t-45.5 -18.5q-26 0 -45 18.5t-19 45.5q0 26 19 45t45 19z" />
<glyph unicode="&#x67d;" horiz-adv-x="810" d="M810 0h-385q-196 0 -281.5 76t-85.5 220q0 86 26 157l142 23q-35 -73 -35 -165q0 -109 55.5 -158t193.5 -49h135v366h132v-366h103v-104zM328 792q27 0 45.5 -19t18.5 -45q0 -27 -18.5 -45.5t-45.5 -18.5t-45.5 18.5t-18.5 45.5q0 26 18.5 45t45.5 19zM492 792 q26 0 45 -19t19 -45q0 -27 -19 -45.5t-45 -18.5q-27 0 -45.5 18.5t-18.5 45.5q0 26 18.5 45t45.5 19zM410 663q27 0 45.5 -19t18.5 -45q0 -27 -18.5 -45.5t-45.5 -18.5q-26 0 -45 18.5t-19 45.5q0 26 19 45t45 19z" />
<glyph unicode="&#x681;" horiz-adv-x="528" d="M453 0h-468q-18 0 -39 15t-21 37q0 21 21 36.5t39 15.5h349q5 40 5 76q0 98 -45 145t-150 47q-52 0 -112 -10v103q60 11 124 11q165 0 239.5 -72t74.5 -219q0 -83 -17 -185zM61 550v72q32 0 60 -6q-25 13 -25 44q0 42 37 72.5t110 30.5q17 0 59 -6l-13 -70q-30 6 -54 6 q-49 0 -49 -34q0 -37 72 -37h61v-72h-258z" />
<glyph unicode="&#x681;" horiz-adv-x="529" d="M529 0h-544q-18 0 -39 15t-21 37q0 21 21 36.5t39 15.5h349q5 40 5 76q0 98 -45 145t-150 47q-52 0 -112 -10v103q60 11 124 11q165 0 239.5 -72t74.5 -219q0 -42 -4 -81h63v-104zM61 550v72q32 0 60 -6q-25 13 -25 44q0 42 37 72.5t110 30.5q17 0 59 -6l-13 -70 q-30 6 -54 6q-49 0 -49 -34q0 -37 72 -37h61v-72h-258z" />
<glyph unicode="&#x681;" horiz-adv-x="605" d="M348 0q-188 0 -188 -108q0 -48 42 -78t127 -30q79 0 172 18l9 -102q-105 -20 -194 -20q-143 0 -215 54.5t-72 148.5q0 100 80 160.5t244 60.5h56q5 40 5 76q0 98 -45 145t-150 47q-57 0 -115 -8v103q68 9 127 9q165 0 239.5 -72t74.5 -219q0 -42 -4 -81h64v-104h-257z M127 550v72q32 0 60 -6q-25 13 -25 44q0 42 37 72.5t110 30.5q17 0 59 -6l-13 -70q-30 6 -54 6q-49 0 -49 -34q0 -37 72 -37h61v-72h-258z" />
<glyph unicode="&#x682;" horiz-adv-x="528" d="M453 0h-468q-18 0 -39 15t-21 37q0 21 21 36.5t39 15.5h349q5 40 5 76q0 98 -45 145t-150 47q-52 0 -112 -10v103q60 11 124 11q165 0 239.5 -72t74.5 -219q0 -83 -17 -185zM184 538q-28 0 -46 18t-18 46q0 27 18 45.5t46 18.5q27 0 45.5 -18t18.5 -46q0 -27 -18.5 -45.5 t-45.5 -18.5zM184 693q-27 0 -45.5 19t-18.5 45q0 27 18.5 45.5t45.5 18.5q26 0 45 -18.5t19 -45.5q0 -26 -19 -45t-45 -19z" />
<glyph unicode="&#x682;" horiz-adv-x="529" d="M-15 0q-18 0 -39 15t-21 37q0 21 21 36.5t39 15.5h349q5 40 5 76q0 98 -45 145t-150 47q-52 0 -112 -10v103q60 11 124 11q165 0 239.5 -72t74.5 -219q0 -42 -4 -81h63v-104h-544zM184 538q-28 0 -46 18t-18 46q0 27 18 45.5t46 18.5q27 0 45.5 -18t18.5 -46 q0 -27 -18.5 -45.5t-45.5 -18.5zM184 693q-27 0 -45.5 19t-18.5 45q0 27 18.5 45.5t45.5 18.5q26 0 45 -18.5t19 -45.5q0 -26 -19 -45t-45 -19z" />
<glyph unicode="&#x682;" horiz-adv-x="605" d="M316 -320q-143 0 -215 54.5t-72 148.5q0 100 80 160.5t244 60.5h56q5 40 5 76q0 98 -45 145t-150 47q-57 0 -115 -8v103q68 9 127 9q165 0 239.5 -72t74.5 -219q0 -42 -4 -81h64v-104h-257q-188 0 -188 -108q0 -48 42 -78t127 -30q79 0 172 18l9 -102q-105 -20 -194 -20z M280 538q-28 0 -46 18t-18 46q0 27 18 45.5t46 18.5q27 0 45.5 -18t18.5 -46q0 -27 -18.5 -45.5t-45.5 -18.5zM280 693q-27 0 -45.5 19t-18.5 45q0 27 18.5 45.5t45.5 18.5q26 0 45 -18.5t19 -45.5q0 -26 -19 -45t-45 -19z" />
<glyph unicode="&#x685;" horiz-adv-x="528" d="M453 0h-468q-18 0 -39 15t-21 37q0 21 21 36.5t39 15.5h349q5 40 5 76q0 98 -45 145t-150 47q-52 0 -112 -10v103q60 11 124 11q165 0 239.5 -72t74.5 -219q0 -83 -17 -185zM36 598q0 26 19 45.5t46 19.5q26 0 45.5 -19t19.5 -46q0 -26 -19.5 -45.5t-45.5 -19.5 q-27 0 -46 19t-19 46zM201 598q0 26 19.5 45.5t45.5 19.5q27 0 46 -19t19 -46q0 -26 -19 -45.5t-46 -19.5q-26 0 -45.5 19t-19.5 46zM119 729q0 26 19 45.5t46 19.5t46 -19t19 -46q0 -26 -19 -45.5t-46 -19.5t-46 19t-19 46z" />
<glyph unicode="&#x685;" horiz-adv-x="529" d="M-15 0q-18 0 -39 15t-21 37q0 21 21 36.5t39 15.5h349q5 40 5 76q0 98 -45 145t-150 47q-52 0 -112 -10v103q60 11 124 11q165 0 239.5 -72t74.5 -219q0 -42 -4 -81h63v-104h-544zM119 729q0 26 19 45.5t46 19.5t46 -19t19 -46q0 -26 -19 -45.5t-46 -19.5t-46 19t-19 46z M201 598q0 26 19.5 45.5t45.5 19.5q27 0 46 -19t19 -46q0 -26 -19 -45.5t-46 -19.5q-26 0 -45.5 19t-19.5 46zM36 598q0 26 19 45.5t46 19.5q26 0 45.5 -19t19.5 -46q0 -26 -19.5 -45.5t-45.5 -19.5q-27 0 -46 19t-19 46z" />
<glyph unicode="&#x685;" horiz-adv-x="605" d="M348 0q-188 0 -188 -108q0 -48 42 -78t127 -30q79 0 172 18l9 -102q-105 -20 -194 -20q-143 0 -215 54.5t-72 148.5q0 100 80 160.5t244 60.5h56q5 40 5 76q0 98 -45 145t-150 47q-57 0 -115 -8v103q68 9 127 9q165 0 239.5 -72t74.5 -219q0 -42 -4 -81h64v-104h-257z M215 729q0 26 19 45.5t46 19.5t46 -19t19 -46q0 -26 -19 -45.5t-46 -19.5t-46 19t-19 46zM297 598q0 26 19.5 45.5t45.5 19.5q27 0 46 -19t19 -46q0 -26 -19 -45.5t-46 -19.5q-26 0 -45.5 19t-19.5 46zM132 598q0 26 19 45.5t46 19.5q26 0 45.5 -19t19.5 -46 q0 -26 -19.5 -45.5t-45.5 -19.5q-27 0 -46 19t-19 46z" />
<glyph unicode="&#x689;" horiz-adv-x="527" d="M46 0v104h296q-5 112 -62 181t-174 99l32 110q159 -42 241.5 -134.5t91.5 -255.5h56v-104h-150q4 -20 4 -33q0 -50 -31 -81.5t-79 -31.5q-103 0 -103 104q0 24 6 42h-128zM302 -38q0 36 -24 38h-3q-12 0 -20.5 -9t-8.5 -27q0 -39 28 -39q12 0 20 10t8 27z" />
<glyph unicode="&#x68a;" horiz-adv-x="527" d="M46 0v104h296q-5 112 -62 181t-174 99l32 110q159 -42 241.5 -134.5t91.5 -255.5h56v-104h-481zM181 -135q0 29 19.5 48.5t48.5 19.5t48.5 -19t19.5 -49q0 -29 -19.5 -48.5t-48.5 -19.5t-48.5 19.5t-19.5 48.5z" />
<glyph unicode="&#x68b;" horiz-adv-x="527" d="M46 0v104h296q-5 112 -62 181t-174 99l32 110q159 -42 241.5 -134.5t91.5 -255.5h56v-104h-481zM180 842v-77q0 -21 -9 -57h1q18 31 49.5 50.5t66.5 19.5q48 0 74 -25t26 -72q0 -56 -40 -88.5t-113 -32.5h-128v282h73zM181 -135q0 29 19.5 48.5t48.5 19.5t48.5 -19 t19.5 -49q0 -29 -19.5 -48.5t-48.5 -19.5t-48.5 19.5t-19.5 48.5zM314 674q0 46 -35 46q-30 0 -59.5 -31.5t-39.5 -71.5h64q70 0 70 57z" />
<glyph unicode="&#x68f;" horiz-adv-x="527" d="M46 0v104h296q-5 112 -62 181t-174 99l32 110q159 -42 241.5 -134.5t91.5 -255.5h56v-104h-481zM119 792q27 0 45.5 -19t18.5 -45q0 -27 -18.5 -45.5t-45.5 -18.5t-45.5 18.5t-18.5 45.5q0 26 18.5 45t45.5 19zM283 792q26 0 45 -19t19 -45q0 -27 -19 -45.5t-45 -18.5 q-27 0 -45.5 18.5t-18.5 45.5q0 26 18.5 45t45.5 19zM201 663q27 0 45.5 -19t18.5 -45q0 -27 -18.5 -45.5t-45.5 -18.5q-26 0 -45 18.5t-19 45.5q0 26 19 45t45 19z" />
<glyph unicode="&#x690;" horiz-adv-x="527" d="M46 0v104h296q-5 112 -62 181t-174 99l32 110q159 -42 241.5 -134.5t91.5 -255.5h56v-104h-481zM114 696q-26 0 -44.5 18.5t-18.5 44.5t18.5 44.5t44.5 18.5t44.5 -18.5t18.5 -44.5q0 -25 -18.5 -44t-44.5 -19zM271 696q-26 0 -44.5 18.5t-18.5 44.5t18.5 44.5t44.5 18.5 t44.5 -18.5t18.5 -44.5q0 -25 -19 -44t-44 -19zM114 540q-26 0 -44.5 18.5t-18.5 44.5t18.5 44.5t44.5 18.5t44.5 -18.5t18.5 -44.5q0 -25 -18.5 -44t-44.5 -19zM271 540q-26 0 -44.5 18.5t-18.5 44.5t18.5 44.5t44.5 18.5t44.5 -18.5t18.5 -44.5q0 -25 -19 -44t-44 -19z " />
<glyph unicode="&#x692;" horiz-adv-x="426" d="M76 -254q-44 0 -84 10l10 105q41 -12 81 -12q54 0 81 31.5t27 108.5v481h132v-366h103v-104h-103v-4q0 -53 -10.5 -94t-36.5 -78t-76.5 -57.5t-123.5 -20.5zM412 648l-154 -135l-153 134l50 60l104 -82l103 82z" />
<glyph unicode="&#x693;" horiz-adv-x="426" d="M373 -200q0 -50 -31.5 -81.5t-79.5 -31.5q-82 0 -98 68q-39 -9 -88 -9q-44 0 -84 10l10 105q41 -12 81 -12q54 0 81 31.5t27 108.5v481h132v-366h103v-104h-103v-4q0 -55 -11 -98q61 -19 61 -98zM294 -205q0 38 -28 38q-11 0 -19.5 -9t-8.5 -28q0 -38 28 -38q12 0 20 10 t8 27z" />
<glyph unicode="&#x694;" horiz-adv-x="426" d="M76 -254q-44 0 -84 10l10 105q41 -12 81 -12q54 0 81 31.5t27 108.5v481h132v-366h103v-104h-103v-4q0 -53 -10.5 -94t-36.5 -78t-76.5 -57.5t-123.5 -20.5zM267 -256q0 28 18 46t46 18q27 0 45.5 -18t18.5 -46t-18.5 -46t-45.5 -18q-28 0 -46 18.5t-18 45.5z" />
<glyph unicode="&#x695;" horiz-adv-x="426" d="M76 -188q-44 0 -84 10l10 105q38 -11 81 -11q54 0 81 29.5t27 106.5v418h132v-366h103v-104h-107q-26 -188 -243 -188zM405 -173l-112 -148l-186 15l4 66l144 2l93 109z" />
<glyph unicode="&#x696;" horiz-adv-x="481" d="M131 -254q-44 0 -84 10l10 105q41 -12 81 -12q54 0 81 31.5t27 108.5v481h132v-366h103v-104h-103v-4q0 -53 -10.5 -94t-36.5 -78t-76.5 -57.5t-123.5 -20.5zM69 -24q0 28 18 46t46 18q27 0 45.5 -18t18.5 -46t-18.5 -46t-45.5 -18q-28 0 -46 18.5t-18 45.5zM328 -256 q0 28 18 46t46 18q27 0 45.5 -18t18.5 -46t-18.5 -46t-45.5 -18q-28 0 -46 18.5t-18 45.5z" />
<glyph unicode="&#x697;" horiz-adv-x="426" d="M76 -254q-44 0 -84 10l10 105q41 -12 81 -12q54 0 81 31.5t27 108.5v481h132v-366h103v-104h-103v-4q0 -53 -10.5 -94t-36.5 -78t-76.5 -57.5t-123.5 -20.5zM111 603q0 26 19 45.5t46 19.5t46 -18.5t19 -46.5q0 -27 -18.5 -46t-46.5 -19t-46.5 19t-18.5 46zM271 603 q0 26 19 45.5t46 19.5q26 0 45.5 -19t19.5 -46q0 -26 -19 -45.5t-46 -19.5t-46 19t-19 46z" />
<glyph unicode="&#x699;" horiz-adv-x="426" d="M76 -254q-44 0 -84 10l10 105q41 -12 81 -12q54 0 81 31.5t27 108.5v481h132v-366h103v-104h-103v-4q0 -53 -10.5 -94t-36.5 -78t-76.5 -57.5t-123.5 -20.5zM175 696q-26 0 -44.5 18.5t-18.5 44.5t18.5 44.5t44.5 18.5t44.5 -18.5t18.5 -44.5q0 -25 -19 -44t-44 -19z M332 696q-26 0 -44.5 18.5t-18.5 44.5t18.5 44.5t44.5 18.5t44.5 -18.5t18.5 -44.5q0 -25 -18.5 -44t-44.5 -19zM175 540q-26 0 -44.5 18.5t-18.5 44.5t18.5 44.5t44.5 18.5t44.5 -18.5t18.5 -44.5q0 -25 -19 -44t-44 -19zM332 540q-26 0 -44.5 18.5t-18.5 44.5t18.5 44.5 t44.5 18.5t44.5 -18.5t18.5 -44.5q0 -25 -18.5 -44t-44.5 -19z" />
<glyph unicode="&#x69a;" horiz-adv-x="875" d="M20 0h-35q-18 0 -39 15t-21 37q0 21 21 36.5t39 15.5h36q50 0 70 26t20 98v182h132v-185q0 -72 13.5 -100.5t55.5 -28.5q41 0 61 29t20 99v226h127v-251q0 -58 24.5 -76.5t94.5 -18.5h27q6 60 6 120q0 138 -29 268l129 18q32 -135 32 -277q0 -123 -14 -233h-165 q-82 0 -124 14.5t-63 54.5q-16 -34 -55.5 -55.5t-95.5 -21.5q-49 0 -85.5 21t-48.5 57q-30 -70 -133 -70zM381 -135q0 29 19.5 48.5t48.5 19.5t48.5 -19t19.5 -49q0 -29 -19.5 -48.5t-48.5 -19.5t-48.5 19.5t-19.5 48.5zM380 600q0 28 20.5 48.5t48.5 20.5t48.5 -20.5 t20.5 -48.5t-20.5 -48.5t-48.5 -20.5t-48.5 20.5t-20.5 48.5z" />
<glyph unicode="&#x69a;" horiz-adv-x="901" d="M20 0h-35q-18 0 -39 15t-21 37q0 21 21 36.5t39 15.5h36q50 0 70 26t20 98v182h132v-185q0 -72 13.5 -100.5t55.5 -28.5q41 0 61 29t20 99v226h127v-251q0 -58 24.5 -76.5t94.5 -18.5h27q6 60 6 120q0 138 -29 268l129 18q32 -135 32 -277q0 -70 -4 -129h101v-104h-276 q-82 0 -124 14.5t-63 54.5q-16 -34 -55.5 -55.5t-95.5 -21.5q-49 0 -85.5 21t-48.5 57q-30 -70 -133 -70zM380 600q0 28 20.5 48.5t48.5 20.5t48.5 -20.5t20.5 -48.5t-20.5 -48.5t-48.5 -20.5t-48.5 20.5t-20.5 48.5zM381 -135q0 29 19.5 48.5t48.5 19.5t48.5 -19t19.5 -49 q0 -29 -19.5 -48.5t-48.5 -19.5t-48.5 19.5t-19.5 48.5z" />
<glyph unicode="&#x69a;" horiz-adv-x="1238" d="M962 0q-86 0 -127.5 16t-59.5 53q-14 -36 -48.5 -55.5t-74.5 -19.5q-56 0 -79 31q1 -131 -72 -193t-190 -62q-257 0 -257 284q0 90 23 179l137 25q-28 -94 -28 -192q0 -193 136 -193q126 0 126 189v348h132v-185q0 -70 17 -99.5t56 -29.5q42 0 60 30.5t18 97.5v226h126 v-251q0 -58 24.5 -76.5t94.5 -18.5h27q6 60 6 120q0 138 -29 268l129 18q32 -128 32 -277q0 -70 -4 -129h101v-104h-276zM717 600q0 28 20.5 48.5t48.5 20.5t48.5 -20.5t20.5 -48.5t-20.5 -48.5t-48.5 -20.5t-48.5 20.5t-20.5 48.5zM714 -135q0 29 19.5 48.5t48.5 19.5 t48.5 -19t19.5 -49q0 -29 -19.5 -48.5t-48.5 -19.5t-48.5 19.5t-19.5 48.5z" />
<glyph unicode="&#x69b;" horiz-adv-x="875" d="M20 0h-35q-18 0 -39 15t-21 37q0 21 21 36.5t39 15.5h36q50 0 70 26t20 98v182h132v-185q0 -72 13.5 -100.5t55.5 -28.5q41 0 61 29t20 99v226h127v-251q0 -58 24.5 -76.5t94.5 -18.5h27q6 60 6 120q0 138 -29 268l129 18q32 -135 32 -277q0 -123 -14 -233h-165 q-82 0 -124 14.5t-63 54.5q-16 -34 -55.5 -55.5t-95.5 -21.5q-49 0 -85.5 21t-48.5 57q-30 -70 -133 -70zM385 -226q0 26 19 45.5t46 19.5q26 0 45.5 -19t19.5 -46q0 -26 -19.5 -45.5t-45.5 -19.5q-28 0 -46.5 19t-18.5 46zM465 -101q0 26 18.5 44.5t44.5 18.5t44.5 -18.5 t18.5 -44.5t-18 -44.5t-45 -18.5q-26 0 -44.5 18.5t-18.5 44.5zM309 -101q0 26 18.5 44.5t44.5 18.5t44.5 -18.5t18.5 -44.5t-18 -44.5t-45 -18.5q-26 0 -44.5 18.5t-18.5 44.5z" />
<glyph unicode="&#x69b;" horiz-adv-x="901" d="M20 0h-35q-18 0 -39 15t-21 37q0 21 21 36.5t39 15.5h36q50 0 70 26t20 98v182h132v-185q0 -72 13.5 -100.5t55.5 -28.5q41 0 61 29t20 99v226h127v-251q0 -58 24.5 -76.5t94.5 -18.5h27q6 60 6 120q0 138 -29 268l129 18q32 -135 32 -277q0 -70 -4 -129h101v-104h-276 q-82 0 -124 14.5t-63 54.5q-16 -34 -55.5 -55.5t-95.5 -21.5q-49 0 -85.5 21t-48.5 57q-30 -70 -133 -70zM385 -226q0 26 19 45.5t46 19.5q26 0 45.5 -19t19.5 -46q0 -26 -19.5 -45.5t-45.5 -19.5q-28 0 -46.5 19t-18.5 46zM465 -101q0 26 18.5 44.5t44.5 18.5t44.5 -18.5 t18.5 -44.5t-18 -44.5t-45 -18.5q-26 0 -44.5 18.5t-18.5 44.5zM309 -101q0 26 18.5 44.5t44.5 18.5t44.5 -18.5t18.5 -44.5t-18 -44.5t-45 -18.5q-26 0 -44.5 18.5t-18.5 44.5z" />
<glyph unicode="&#x69b;" horiz-adv-x="1238" d="M311 -230q-257 0 -257 284q0 90 23 179l137 25q-28 -94 -28 -192q0 -193 136 -193q126 0 126 189v348h132v-185q0 -70 17 -99.5t56 -29.5q42 0 60 30.5t18 97.5v226h126v-251q0 -58 24.5 -76.5t94.5 -18.5h27q6 60 6 120q0 138 -29 268l129 18q32 -128 32 -277 q0 -70 -4 -129h101v-104h-276q-86 0 -127.5 16t-59.5 53q-14 -36 -48.5 -55.5t-74.5 -19.5q-56 0 -79 31q1 -131 -72 -193t-190 -62zM726 -226q0 26 19 45.5t46 19.5q26 0 45.5 -19t19.5 -46q0 -26 -19.5 -45.5t-45.5 -19.5q-28 0 -46.5 19t-18.5 46zM806 -101 q0 26 18.5 44.5t44.5 18.5t44.5 -18.5t18.5 -44.5t-18 -44.5t-45 -18.5q-26 0 -44.5 18.5t-18.5 44.5zM650 -101q0 26 18.5 44.5t44.5 18.5t44.5 -18.5t18.5 -44.5t-18 -44.5t-45 -18.5q-26 0 -44.5 18.5t-18.5 44.5z" />
<glyph unicode="&#x69c;" horiz-adv-x="875" d="M20 0h-35q-18 0 -39 15t-21 37q0 21 21 36.5t39 15.5h36q50 0 70 26t20 98v182h132v-185q0 -72 13.5 -100.5t55.5 -28.5q41 0 61 29t20 99v226h127v-251q0 -58 24.5 -76.5t94.5 -18.5h27q6 60 6 120q0 138 -29 268l129 18q32 -135 32 -277q0 -123 -14 -233h-165 q-82 0 -124 14.5t-63 54.5q-16 -34 -55.5 -55.5t-95.5 -21.5q-49 0 -85.5 21t-48.5 57q-30 -70 -133 -70zM385 -226q0 26 19 45.5t46 19.5q26 0 45.5 -19t19.5 -46q0 -26 -19.5 -45.5t-45.5 -19.5q-28 0 -46.5 19t-18.5 46zM465 -101q0 26 18.5 44.5t44.5 18.5t44.5 -18.5 t18.5 -44.5t-18 -44.5t-45 -18.5q-26 0 -44.5 18.5t-18.5 44.5zM309 -101q0 26 18.5 44.5t44.5 18.5t44.5 -18.5t18.5 -44.5t-18 -44.5t-45 -18.5q-26 0 -44.5 18.5t-18.5 44.5zM302 598q0 26 19 45.5t46 19.5q26 0 45.5 -19t19.5 -46q0 -26 -19.5 -45.5t-45.5 -19.5 q-27 0 -46 19t-19 46zM467 598q0 26 19.5 45.5t45.5 19.5q27 0 46 -19t19 -46q0 -26 -19 -45.5t-46 -19.5q-26 0 -45.5 19t-19.5 46zM385 729q0 26 19 45.5t46 19.5t46 -19t19 -46q0 -26 -19 -45.5t-46 -19.5t-46 19t-19 46z" />
<glyph unicode="&#x69c;" horiz-adv-x="901" d="M625 0q-82 0 -124 14.5t-63 54.5q-16 -34 -55.5 -55.5t-95.5 -21.5q-49 0 -85.5 21t-48.5 57q-30 -70 -133 -70h-35q-18 0 -39 15t-21 37q0 21 21 36.5t39 15.5h36q50 0 70 26t20 98v182h132v-185q0 -72 13.5 -100.5t55.5 -28.5q41 0 61 29t20 99v226h127v-251 q0 -58 24.5 -76.5t94.5 -18.5h27q6 60 6 120q0 138 -29 268l129 18q32 -135 32 -277q0 -70 -4 -129h101v-104h-276zM385 729q0 26 19 45.5t46 19.5t46 -19t19 -46q0 -26 -19 -45.5t-46 -19.5t-46 19t-19 46zM385 -226q0 26 19 45.5t46 19.5q26 0 45.5 -19t19.5 -46 q0 -26 -19.5 -45.5t-45.5 -19.5q-28 0 -46.5 19t-18.5 46zM467 598q0 26 19.5 45.5t45.5 19.5q27 0 46 -19t19 -46q0 -26 -19 -45.5t-46 -19.5q-26 0 -45.5 19t-19.5 46zM302 598q0 26 19 45.5t46 19.5q26 0 45.5 -19t19.5 -46q0 -26 -19.5 -45.5t-45.5 -19.5q-27 0 -46 19 t-19 46zM309 -101q0 26 18.5 44.5t44.5 18.5t44.5 -18.5t18.5 -44.5t-18 -44.5t-45 -18.5q-26 0 -44.5 18.5t-18.5 44.5zM465 -101q0 26 18.5 44.5t44.5 18.5t44.5 -18.5t18.5 -44.5t-18 -44.5t-45 -18.5q-26 0 -44.5 18.5t-18.5 44.5z" />
<glyph unicode="&#x69c;" horiz-adv-x="1238" d="M311 -230q-257 0 -257 284q0 90 23 179l137 25q-28 -94 -28 -192q0 -193 136 -193q126 0 126 189v348h132v-185q0 -70 17 -99.5t56 -29.5q42 0 60 30.5t18 97.5v226h126v-251q0 -58 24.5 -76.5t94.5 -18.5h27q6 60 6 120q0 138 -29 268l129 18q32 -128 32 -277 q0 -70 -4 -129h101v-104h-276q-86 0 -127.5 16t-59.5 53q-14 -36 -48.5 -55.5t-74.5 -19.5q-56 0 -79 31q1 -131 -72 -193t-190 -62zM728 729q0 26 19 45.5t46 19.5t46 -19t19 -46q0 -26 -19 -45.5t-46 -19.5t-46 19t-19 46zM726 -226q0 26 19 45.5t46 19.5q26 0 45.5 -19 t19.5 -46q0 -26 -19.5 -45.5t-45.5 -19.5q-28 0 -46.5 19t-18.5 46zM645 598q0 26 19 45.5t46 19.5q26 0 45.5 -19t19.5 -46q0 -26 -19.5 -45.5t-45.5 -19.5q-27 0 -46 19t-19 46zM810 598q0 26 19.5 45.5t45.5 19.5q27 0 46 -19t19 -46q0 -26 -19 -45.5t-46 -19.5 q-26 0 -45.5 19t-19.5 46zM806 -101q0 26 18.5 44.5t44.5 18.5t44.5 -18.5t18.5 -44.5t-18 -44.5t-45 -18.5q-26 0 -44.5 18.5t-18.5 44.5zM650 -101q0 26 18.5 44.5t44.5 18.5t44.5 -18.5t18.5 -44.5t-18 -44.5t-45 -18.5q-26 0 -44.5 18.5t-18.5 44.5z" />
<glyph unicode="&#x69d;" horiz-adv-x="736" d="M383 0h-398q-18 0 -39 15t-21 37q0 21 21 36.5t39 15.5h118v366h132v-25q0 -84 -12 -148h2q32 88 101.5 137t151.5 49q103 0 157 -60t54 -167q0 -116 -74 -186t-232 -70zM234 104h161q88 0 123.5 38.5t35.5 105.5q0 130 -103 130q-78 0 -139.5 -82t-77.5 -192zM181 -138 q0 27 19 46t46 19q26 0 45.5 -19t19.5 -46q0 -26 -19 -45.5t-46 -19.5t-46 19t-19 46zM341 -138q0 27 19 46t46 19q26 0 45.5 -19t19.5 -46q0 -26 -19 -45.5t-46 -19.5t-46 19t-19 46z" />
<glyph unicode="&#x69d;" horiz-adv-x="754" d="M754 0h-769q-18 0 -39 15t-21 37q0 21 21 36.5t39 15.5h118v366h132v-25q0 -84 -12 -148h2q32 88 101.5 137t151.5 49q103 0 157 -60t54 -167q0 -92 -43 -152h108v-104zM234 104h170q150 4 150 144q0 130 -103 130q-78 0 -139.5 -82t-77.5 -192zM341 -138q0 27 19 46 t46 19q26 0 45.5 -19t19.5 -46q0 -26 -19 -45.5t-46 -19.5t-46 19t-19 46zM181 -138q0 27 19 46t46 19q26 0 45.5 -19t19.5 -46q0 -26 -19 -45.5t-46 -19.5t-46 19t-19 46z" />
<glyph unicode="&#x69d;" horiz-adv-x="1095" d="M574 0q-12 -116 -83 -173t-180 -57q-257 0 -257 284q0 90 23 179l137 25q-28 -94 -28 -192q0 -193 136 -193q126 0 126 189v408h132v-25q0 -84 -12 -148h2q32 88 101.5 137t151.5 49q103 0 157 -60t54 -167q0 -92 -43 -152h104v-104h-351h-16h-154zM578 104h162 q87 0 122.5 38t35.5 106q0 130 -102 130q-78 0 -140 -82t-78 -192zM781 -138q0 27 19 46t46 19q26 0 45.5 -19t19.5 -46q0 -26 -19 -45.5t-46 -19.5t-46 19t-19 46zM621 -138q0 27 19 46t46 19q26 0 45.5 -19t19.5 -46q0 -26 -19 -45.5t-46 -19.5t-46 19t-19 46z" />
<glyph unicode="&#x69e;" horiz-adv-x="736" d="M383 0h-398q-18 0 -39 15t-21 37q0 21 21 36.5t39 15.5h118v366h132v-25q0 -84 -12 -148h2q32 88 101.5 137t151.5 49q103 0 157 -60t54 -167q0 -116 -74 -186t-232 -70zM234 104h161q88 0 123.5 38.5t35.5 105.5q0 130 -103 130q-78 0 -139.5 -82t-77.5 -192zM246 598 q0 26 19 45.5t46 19.5q26 0 45.5 -19t19.5 -46q0 -26 -19.5 -45.5t-45.5 -19.5q-27 0 -46 19t-19 46zM411 598q0 26 19.5 45.5t45.5 19.5q27 0 46 -19t19 -46q0 -26 -19 -45.5t-46 -19.5q-26 0 -45.5 19t-19.5 46zM329 729q0 26 19 45.5t46 19.5t46 -19t19 -46 q0 -26 -19 -45.5t-46 -19.5t-46 19t-19 46z" />
<glyph unicode="&#x69e;" horiz-adv-x="754" d="M-15 0q-18 0 -39 15t-21 37q0 21 21 36.5t39 15.5h118v366h132v-25q0 -84 -12 -148h2q32 88 101.5 137t151.5 49q103 0 157 -60t54 -167q0 -92 -43 -152h108v-104h-769zM234 104h161q88 0 123.5 38.5t35.5 105.5q0 130 -103 130q-78 0 -139.5 -82t-77.5 -192zM329 729 q0 26 19 45.5t46 19.5t46 -19t19 -46q0 -26 -19 -45.5t-46 -19.5t-46 19t-19 46zM246 598q0 26 19 45.5t46 19.5q26 0 45.5 -19t19.5 -46q0 -26 -19.5 -45.5t-45.5 -19.5q-27 0 -46 19t-19 46zM411 598q0 26 19.5 45.5t45.5 19.5q27 0 46 -19t19 -46q0 -26 -19 -45.5 t-46 -19.5q-26 0 -45.5 19t-19.5 46z" />
<glyph unicode="&#x69e;" horiz-adv-x="1095" d="M311 -230q-257 0 -257 284q0 90 23 179l137 25q-28 -94 -28 -192q0 -193 136 -193q126 0 126 189v408h132v-25q0 -84 -12 -148h2q32 88 101.5 137t151.5 49q103 0 157 -60t54 -167q0 -92 -43 -152h104v-104h-521q-12 -116 -83 -173t-180 -57zM578 104h162q87 0 122.5 38 t35.5 106q0 130 -102 130q-78 0 -140 -82t-78 -192zM665 729q0 26 19 45.5t46 19.5t46 -19t19 -46q0 -26 -19 -45.5t-46 -19.5t-46 19t-19 46zM582 598q0 26 19 45.5t46 19.5q26 0 45.5 -19t19.5 -46q0 -26 -19.5 -45.5t-45.5 -19.5q-27 0 -46 19t-19 46zM747 598 q0 26 19.5 45.5t45.5 19.5q27 0 46 -19t19 -46q0 -26 -19 -45.5t-46 -19.5q-26 0 -45.5 19t-19.5 46z" />
<glyph unicode="&#x69f;" horiz-adv-x="736" d="M383 0h-398q-18 0 -39 15t-21 37q0 21 21 36.5t39 15.5h118v601h132v-260q0 -84 -12 -148h2q32 88 101.5 137t151.5 49q103 0 157 -60t54 -167q0 -116 -74 -186t-232 -70zM234 104h161q88 0 123.5 38.5t35.5 105.5q0 130 -103 130q-78 0 -139.5 -82t-77.5 -192zM306 598 q0 26 19 45.5t46 19.5q26 0 45.5 -19t19.5 -46q0 -26 -19.5 -45.5t-45.5 -19.5q-27 0 -46 19t-19 46zM471 598q0 26 19.5 45.5t45.5 19.5q27 0 46 -19t19 -46q0 -26 -19 -45.5t-46 -19.5q-26 0 -45.5 19t-19.5 46zM389 729q0 26 19 45.5t46 19.5t46 -19t19 -46 q0 -26 -19 -45.5t-46 -19.5t-46 19t-19 46z" />
<glyph unicode="&#x69f;" horiz-adv-x="754" d="M754 0h-769q-18 0 -39 15t-21 37q0 21 21 36.5t39 15.5h118v601h132v-260q0 -84 -12 -148h2q32 88 101.5 137t151.5 49q103 0 157 -60t54 -167q0 -92 -43 -152h108v-104zM234 104h170q150 4 150 144q0 130 -103 130q-78 0 -139.5 -82t-77.5 -192zM389 729q0 26 19 45.5 t46 19.5t46 -19t19 -46q0 -26 -19 -45.5t-46 -19.5t-46 19t-19 46zM306 598q0 26 19 45.5t46 19.5q26 0 45.5 -19t19.5 -46q0 -26 -19.5 -45.5t-45.5 -19.5q-27 0 -46 19t-19 46zM471 598q0 26 19.5 45.5t45.5 19.5q27 0 46 -19t19 -46q0 -26 -19 -45.5t-46 -19.5 q-26 0 -45.5 19t-19.5 46z" />
<glyph unicode="&#x69f;" horiz-adv-x="787" d="M14 0v104h122v601h132v-260q0 -84 -12 -148h2q32 88 101.5 137t151.5 49q103 0 157 -60t54 -167q0 -92 -43 -152h108v-104h-355h-16h-402zM267 104h161q88 0 123.5 38.5t35.5 105.5q0 130 -103 130q-78 0 -139.5 -82t-77.5 -192zM422 729q0 26 19 45.5t46 19.5t46 -19 t19 -46q0 -26 -19 -45.5t-46 -19.5t-46 19t-19 46zM339 598q0 26 19 45.5t46 19.5q26 0 45.5 -19t19.5 -46q0 -26 -19.5 -45.5t-45.5 -19.5q-27 0 -46 19t-19 46zM504 598q0 26 19.5 45.5t45.5 19.5q27 0 46 -19t19 -46q0 -26 -19 -45.5t-46 -19.5q-26 0 -45.5 19t-19.5 46z " />
<glyph unicode="&#x6a0;" horiz-adv-x="534" d="M502 0h-517q-18 0 -39 15t-21 37q0 21 21 36.5t39 15.5h156q-34 20 -55.5 60t-21.5 89q0 99 67.5 164.5t193.5 65.5q30 0 61 -4.5t47 -9.5l16 -5l-23 -105q-46 21 -104 21q-56 0 -91 -35t-35 -92q0 -67 57 -108t171 -41h78v-104zM150 598q0 26 19 45.5t46 19.5 q26 0 45.5 -19t19.5 -46q0 -26 -19.5 -45.5t-45.5 -19.5q-27 0 -46 19t-19 46zM315 598q0 26 19.5 45.5t45.5 19.5q27 0 46 -19t19 -46q0 -26 -19 -45.5t-46 -19.5q-26 0 -45.5 19t-19.5 46zM233 729q0 26 19 45.5t46 19.5t46 -19t19 -46q0 -26 -19 -45.5t-46 -19.5t-46 19 t-19 46z" />
<glyph unicode="&#x6a0;" horiz-adv-x="609" d="M9 0h-24q-18 0 -39 15t-21 37q0 21 21 36.5t39 15.5h29q139 0 234 31q-4 4 -23 22t-25 23t-23 20.5t-25.5 21.5t-25 17.5t-28.5 17.5t-28 13t-32 11l11 94q154 111 289 111q105 0 157.5 -46.5t52.5 -117.5q0 -107 -102 -192q54 -26 111 -26h52v-104h-67q-112 0 -205 62 q-139 -62 -328 -62zM171 329q24 -10 50.5 -27.5t43.5 -32t46 -40.5t44 -38q63 50 63 114q0 37 -24.5 60.5t-70.5 23.5q-62 0 -152 -60zM257 729q0 26 19 45.5t46 19.5t46 -19t19 -46q0 -26 -19 -45.5t-46 -19.5t-46 19t-19 46zM174 598q0 26 19 45.5t46 19.5q26 0 45.5 -19 t19.5 -46q0 -26 -19.5 -45.5t-45.5 -19.5q-27 0 -46 19t-19 46zM339 598q0 26 19.5 45.5t45.5 19.5q27 0 46 -19t19 -46q0 -26 -19 -45.5t-46 -19.5q-26 0 -45.5 19t-19.5 46z" />
<glyph unicode="&#x6a0;" horiz-adv-x="634" d="M317 -255q-143 0 -213.5 49t-70.5 127q0 30 8.5 55t27.5 47t36 37t50 33t51 27t56 26q-34 32 -47 43.5t-42 34.5t-55 36t-55 21l11 94q65 47 142 79t146 32q105 0 158 -46.5t53 -117.5q0 -108 -114 -186q61 -32 123 -32h52v-104h-67q-122 0 -222 74q-106 -52 -131 -70 q-46 -33 -46 -70q0 -86 163 -86q34 0 71.5 3t57.5 7l21 3l8 -100q-87 -16 -172 -16zM196 329q18 -7 36 -17.5t37.5 -26t31.5 -25.5t35.5 -31t32.5 -29q73 48 73 105q0 37 -24 60.5t-70 23.5q-64 0 -152 -60zM282 729q0 26 19 45.5t46 19.5t46 -19t19 -46q0 -26 -19 -45.5 t-46 -19.5t-46 19t-19 46zM199 598q0 26 19 45.5t46 19.5q26 0 45.5 -19t19.5 -46q0 -26 -19.5 -45.5t-45.5 -19.5q-27 0 -46 19t-19 46zM364 598q0 26 19.5 45.5t45.5 19.5q27 0 46 -19t19 -46q0 -26 -19 -45.5t-46 -19.5q-26 0 -45.5 19t-19.5 46z" />
<glyph unicode="&#x6a1;" horiz-adv-x="612" d="M548 0h-563q-18 0 -39 15t-21 37q0 21 21 36.5t39 15.5h77q16 0 30 -2t20 -4l6 -1q-56 41 -56 143t68.5 172.5t191.5 70.5q114 0 170 -60.5t56 -169.5v-253zM419 104v133q0 142 -107 142q-55 0 -87 -37.5t-32 -97.5q0 -71 36.5 -105.5t113.5 -34.5h76z" />
<glyph unicode="&#x6a1;" horiz-adv-x="609" d="M609 0h-624q-18 0 -39 15t-21 37q0 21 21 36.5t39 15.5h60l62 -5q-47 47 -47 135q0 109 71 179t184 70q109 0 170.5 -58.5t61.5 -174.5q0 -45 -15 -86.5t-43 -64.5q42 5 77 5h43v-104zM303 104q49 0 80.5 36t31.5 103q0 136 -110 136q-47 0 -79.5 -34t-32.5 -100 q0 -141 110 -141z" />
<glyph unicode="&#x6a1;" horiz-adv-x="954" d="M954 104v-104h-529q-196 0 -281.5 76t-85.5 220q0 86 26 157l142 23q-35 -73 -35 -165q0 -107 53.5 -157t173.5 -50h32q-44 41 -44 130q0 109 70.5 179t183.5 70q110 0 171.5 -58.5t61.5 -174.5q0 -45 -15 -86.5t-43 -64.5q42 5 76 5h43zM760 243q0 136 -109 136 q-47 0 -80 -34t-33 -100q0 -141 111 -141q49 0 80 36t31 103z" />
<glyph unicode="&#x6a2;" horiz-adv-x="612" d="M548 0h-563q-18 0 -39 15t-21 37q0 21 21 36.5t39 15.5h77q16 0 30 -2t20 -4l6 -1q-56 41 -56 143t68.5 172.5t191.5 70.5q114 0 170 -60.5t56 -169.5v-253zM419 104v133q0 142 -107 142q-55 0 -87 -37.5t-32 -97.5q0 -71 36.5 -105.5t113.5 -34.5h76zM252 -135 q0 29 19.5 48.5t48.5 19.5t48.5 -19t19.5 -49q0 -29 -19.5 -48.5t-48.5 -19.5t-48.5 19.5t-19.5 48.5z" />
<glyph unicode="&#x6a2;" horiz-adv-x="609" d="M609 0h-624q-18 0 -39 15t-21 37q0 21 21 36.5t39 15.5h60l62 -5q-47 47 -47 135q0 109 71 179t184 70q109 0 170.5 -58.5t61.5 -174.5q0 -45 -15 -86.5t-43 -64.5q42 5 77 5h43v-104zM303 104q49 0 80.5 36t31.5 103q0 136 -110 136q-47 0 -79.5 -34t-32.5 -100 q0 -141 110 -141zM242 -135q0 29 19.5 48.5t48.5 19.5t48.5 -19t19.5 -49q0 -29 -19.5 -48.5t-48.5 -19.5t-48.5 19.5t-19.5 48.5z" />
<glyph unicode="&#x6a2;" horiz-adv-x="954" d="M954 104v-104h-529q-196 0 -281.5 76t-85.5 220q0 86 26 157l142 23q-35 -73 -35 -165q0 -107 53.5 -157t173.5 -50h32q-44 41 -44 130q0 109 70.5 179t183.5 70q110 0 171.5 -58.5t61.5 -174.5q0 -45 -15 -86.5t-43 -64.5q42 5 76 5h43zM760 243q0 136 -109 136 q-47 0 -80 -34t-33 -100q0 -141 111 -141q49 0 80 36t31 103zM583 -135q0 29 19.5 48.5t48.5 19.5t48.5 -19t19.5 -49q0 -29 -19.5 -48.5t-48.5 -19.5t-48.5 19.5t-19.5 48.5z" />
<glyph unicode="&#x6a3;" horiz-adv-x="612" d="M548 0h-563q-18 0 -39 15t-21 37q0 21 21 36.5t39 15.5h77q16 0 30 -2t20 -4l6 -1q-56 41 -56 143t68.5 172.5t191.5 70.5q114 0 170 -60.5t56 -169.5v-253zM419 104v133q0 142 -107 142q-55 0 -87 -37.5t-32 -97.5q0 -71 36.5 -105.5t113.5 -34.5h76zM252 -135 q0 29 19.5 48.5t48.5 19.5t48.5 -19t19.5 -49q0 -29 -19.5 -48.5t-48.5 -19.5t-48.5 19.5t-19.5 48.5zM240 600q0 28 20.5 48.5t48.5 20.5t48.5 -20.5t20.5 -48.5t-20.5 -48.5t-48.5 -20.5t-48.5 20.5t-20.5 48.5z" />
<glyph unicode="&#x6a3;" horiz-adv-x="609" d="M609 0h-624q-18 0 -39 15t-21 37q0 21 21 36.5t39 15.5h60l62 -5q-47 47 -47 135q0 109 71 179t184 70q109 0 170.5 -58.5t61.5 -174.5q0 -45 -15 -86.5t-43 -64.5q42 5 77 5h43v-104zM303 104q49 0 80.5 36t31.5 103q0 136 -110 136q-47 0 -79.5 -34t-32.5 -100 q0 -141 110 -141zM242 -135q0 29 19.5 48.5t48.5 19.5t48.5 -19t19.5 -49q0 -29 -19.5 -48.5t-48.5 -19.5t-48.5 19.5t-19.5 48.5zM237 604q0 28 20.5 48.5t48.5 20.5t48.5 -20.5t20.5 -48.5t-20.5 -48.5t-48.5 -20.5t-48.5 20.5t-20.5 48.5z" />
<glyph unicode="&#x6a3;" horiz-adv-x="954" d="M954 104v-104h-529q-196 0 -281.5 76t-85.5 220q0 86 26 157l142 23q-35 -73 -35 -165q0 -107 53.5 -157t173.5 -50h32q-44 41 -44 130q0 109 70.5 179t183.5 70q110 0 171.5 -58.5t61.5 -174.5q0 -45 -15 -86.5t-43 -64.5q42 5 76 5h43zM760 243q0 136 -109 136 q-47 0 -80 -34t-33 -100q0 -141 111 -141q49 0 80 36t31 103zM583 600q0 28 20.5 48.5t48.5 20.5t48.5 -20.5t20.5 -48.5t-20.5 -48.5t-48.5 -20.5t-48.5 20.5t-20.5 48.5zM427 -135q0 29 19.5 48.5t48.5 19.5t48.5 -19t19.5 -49q0 -29 -19.5 -48.5t-48.5 -19.5t-48.5 19.5 t-19.5 48.5z" />
<glyph unicode="&#x6a5;" horiz-adv-x="612" d="M548 0h-563q-18 0 -39 15t-21 37q0 21 21 36.5t39 15.5h77q16 0 30 -2t20 -4l6 -1q-56 41 -56 143t68.5 172.5t191.5 70.5q114 0 170 -60.5t56 -169.5v-253zM419 104v133q0 142 -107 142q-55 0 -87 -37.5t-32 -97.5q0 -71 36.5 -105.5t113.5 -34.5h76zM254 -226 q0 26 19 45.5t46 19.5q26 0 45.5 -19t19.5 -46q0 -26 -19.5 -45.5t-45.5 -19.5q-28 0 -46.5 19t-18.5 46zM334 -101q0 26 18.5 44.5t44.5 18.5t44.5 -18.5t18.5 -44.5t-18 -44.5t-45 -18.5q-26 0 -44.5 18.5t-18.5 44.5zM178 -101q0 26 18.5 44.5t44.5 18.5t44.5 -18.5 t18.5 -44.5t-18 -44.5t-45 -18.5q-26 0 -44.5 18.5t-18.5 44.5z" />
<glyph unicode="&#x6a5;" horiz-adv-x="609" d="M609 0h-624q-18 0 -39 15t-21 37q0 21 21 36.5t39 15.5h60l62 -5q-47 47 -47 135q0 109 71 179t184 70q109 0 170.5 -58.5t61.5 -174.5q0 -45 -15 -86.5t-43 -64.5q42 5 77 5h43v-104zM303 104q49 0 80.5 36t31.5 103q0 136 -110 136q-47 0 -79.5 -34t-32.5 -100 q0 -141 110 -141zM246 -226q0 26 19 45.5t46 19.5q26 0 45.5 -19t19.5 -46q0 -26 -19.5 -45.5t-45.5 -19.5q-28 0 -46.5 19t-18.5 46zM326 -101q0 26 18.5 44.5t44.5 18.5t44.5 -18.5t18.5 -44.5t-18 -44.5t-45 -18.5q-26 0 -44.5 18.5t-18.5 44.5zM170 -101q0 26 18.5 44.5 t44.5 18.5t44.5 -18.5t18.5 -44.5t-18 -44.5t-45 -18.5q-26 0 -44.5 18.5t-18.5 44.5z" />
<glyph unicode="&#x6a5;" horiz-adv-x="954" d="M954 104v-104h-529q-196 0 -281.5 76t-85.5 220q0 86 26 157l142 23q-35 -73 -35 -165q0 -107 53.5 -157t173.5 -50h32q-44 41 -44 130q0 109 70.5 179t183.5 70q110 0 171.5 -58.5t61.5 -174.5q0 -45 -15 -86.5t-43 -64.5q42 5 76 5h43zM760 243q0 136 -109 136 q-47 0 -80 -34t-33 -100q0 -141 111 -141q49 0 80 36t31 103zM595 -226q0 26 19 45.5t46 19.5q26 0 45.5 -19t19.5 -46q0 -26 -19.5 -45.5t-45.5 -19.5q-28 0 -46.5 19t-18.5 46zM675 -101q0 26 18.5 44.5t44.5 18.5t44.5 -18.5t18.5 -44.5t-18 -44.5t-45 -18.5 q-26 0 -44.5 18.5t-18.5 44.5zM519 -101q0 26 18.5 44.5t44.5 18.5t44.5 -18.5t18.5 -44.5t-18 -44.5t-45 -18.5q-26 0 -44.5 18.5t-18.5 44.5z" />
<glyph unicode="&#x6a7;" horiz-adv-x="612" d="M548 0h-563q-18 0 -39 15t-21 37q0 21 21 36.5t39 15.5h77q16 0 30 -2t20 -4l6 -1q-56 41 -56 143t68.5 172.5t191.5 70.5q114 0 170 -60.5t56 -169.5v-253zM419 104v133q0 142 -107 142q-55 0 -87 -37.5t-32 -97.5q0 -71 36.5 -105.5t113.5 -34.5h76zM240 600 q0 28 20.5 48.5t48.5 20.5t48.5 -20.5t20.5 -48.5t-20.5 -48.5t-48.5 -20.5t-48.5 20.5t-20.5 48.5z" />
<glyph unicode="&#x6a7;" horiz-adv-x="609" d="M609 0h-624q-18 0 -39 15t-21 37q0 21 21 36.5t39 15.5h60l62 -5q-47 47 -47 135q0 109 71 179t184 70q109 0 170.5 -58.5t61.5 -174.5q0 -45 -15 -86.5t-43 -64.5q42 5 77 5h43v-104zM303 104q49 0 80.5 36t31.5 103q0 136 -110 136q-47 0 -79.5 -34t-32.5 -100 q0 -141 110 -141zM237 604q0 28 20.5 48.5t48.5 20.5t48.5 -20.5t20.5 -48.5t-20.5 -48.5t-48.5 -20.5t-48.5 20.5t-20.5 48.5z" />
<glyph unicode="&#x6a7;" horiz-adv-x="919" d="M816 448v-344h103v-104h-103v-239q-194 -11 -322 -11q-234 0 -337 74t-103 232q0 88 23 177l137 25q-28 -94 -28 -189q0 -118 71 -167t255 -49l176 6v141h-79q-267 0 -267 232q0 107 67.5 179t197.5 72q52 0 104.5 -8.5t78.5 -17.5zM688 104v257q-38 18 -95 18 q-55 0 -87 -37.5t-32 -97.5q0 -140 150 -140h64zM529 600q0 28 20.5 48.5t48.5 20.5t48.5 -20.5t20.5 -48.5t-20.5 -48.5t-48.5 -20.5t-48.5 20.5t-20.5 48.5z" />
<glyph unicode="&#x6a8;" horiz-adv-x="612" d="M548 0h-563q-18 0 -39 15t-21 37q0 21 21 36.5t39 15.5h77q16 0 30 -2t20 -4l6 -1q-56 41 -56 143t68.5 172.5t191.5 70.5q114 0 170 -60.5t56 -169.5v-253zM419 104v133q0 142 -107 142q-55 0 -87 -37.5t-32 -97.5q0 -71 36.5 -105.5t113.5 -34.5h76zM162 598 q0 26 19 45.5t46 19.5q26 0 45.5 -19t19.5 -46q0 -26 -19.5 -45.5t-45.5 -19.5q-27 0 -46 19t-19 46zM327 598q0 26 19.5 45.5t45.5 19.5q27 0 46 -19t19 -46q0 -26 -19 -45.5t-46 -19.5q-26 0 -45.5 19t-19.5 46zM245 729q0 26 19 45.5t46 19.5t46 -19t19 -46 q0 -26 -19 -45.5t-46 -19.5t-46 19t-19 46z" />
<glyph unicode="&#x6a8;" horiz-adv-x="609" d="M609 0h-624q-18 0 -39 15t-21 37q0 21 21 36.5t39 15.5h60l62 -5q-47 47 -47 135q0 109 71 179t184 70q109 0 170.5 -58.5t61.5 -174.5q0 -45 -15 -86.5t-43 -64.5q42 5 77 5h43v-104zM303 104q49 0 80.5 36t31.5 103q0 136 -110 136q-47 0 -79.5 -34t-32.5 -100 q0 -141 110 -141zM158 598q0 26 19 45.5t46 19.5q26 0 45.5 -19t19.5 -46q0 -26 -19.5 -45.5t-45.5 -19.5q-27 0 -46 19t-19 46zM323 598q0 26 19.5 45.5t45.5 19.5q27 0 46 -19t19 -46q0 -26 -19 -45.5t-46 -19.5q-26 0 -45.5 19t-19.5 46zM241 729q0 26 19 45.5t46 19.5 t46 -19t19 -46q0 -26 -19 -45.5t-46 -19.5t-46 19t-19 46z" />
<glyph unicode="&#x6a8;" horiz-adv-x="919" d="M816 448v-344h103v-104h-103v-239q-194 -11 -322 -11q-234 0 -337 74t-103 232q0 88 23 177l137 25q-28 -94 -28 -189q0 -118 71 -167t255 -49l176 6v141h-79q-267 0 -267 232q0 107 67.5 179t197.5 72q52 0 104.5 -8.5t78.5 -17.5zM688 104v257q-38 18 -95 18 q-55 0 -87 -37.5t-32 -97.5q0 -140 150 -140h64zM550 729q0 26 19 45.5t46 19.5t46 -19t19 -46q0 -26 -19 -45.5t-46 -19.5t-46 19t-19 46zM632 598q0 26 19.5 45.5t45.5 19.5q27 0 46 -19t19 -46q0 -26 -19 -45.5t-46 -19.5q-26 0 -45.5 19t-19.5 46zM467 598q0 26 19 45.5 t46 19.5q26 0 45.5 -19t19.5 -46q0 -26 -19.5 -45.5t-45.5 -19.5q-27 0 -46 19t-19 46z" />
<glyph unicode="&#x6aa;" horiz-adv-x="1041" d="M972 0h-987q-18 0 -39 15t-21 37q0 21 21 36.5t39 15.5h846q0 43 -11 72t-31.5 47.5t-59.5 28t-85 13t-118 3.5h-504v114l226 249h156l-238 -259h287q67 0 112.5 -1t97 -4.5t85 -10t69 -17.5t57.5 -27.5t42.5 -39t31.5 -52t17.5 -68t6.5 -85.5v-67z" />
<glyph unicode="&#x6aa;" horiz-adv-x="1025" d="M-15 0q-18 0 -39 15t-21 37q0 21 21 36.5t39 15.5h846q0 43 -11 72t-31.5 47.5t-59.5 28t-85 13t-118 3.5h-504v114l226 249h156l-238 -259h287q72 0 120.5 -1.5t102.5 -5.5t88.5 -12t70 -21.5t57 -33t40 -47t27.5 -64t12 -83.5h54v-104h-1040z" />
<glyph unicode="&#x6aa;" horiz-adv-x="1533" d="M425 0q-196 0 -281.5 76t-85.5 220q0 86 26 157l142 23q-35 -73 -35 -165q0 -109 55.5 -158t191.5 -49h901q0 43 -11 72t-32 47.5t-60 28t-84.5 13t-117.5 3.5h-604v114l226 249h156l-238 -259h387q72 0 120.5 -1.5t102.5 -5.5t88.5 -12t70 -21.5t57 -33t40 -47t27.5 -64 t12 -83.5h54v-104h-1108z" />
<glyph unicode="&#x6ab;" horiz-adv-x="465" d="M412 542q0 -50 -31.5 -81.5t-79.5 -31.5q-81 0 -98 67l-63 -40q128 -44 192 -137t64 -252v-67h-411q-18 0 -39 15t-21 37q0 21 21 36.5t39 15.5h276q-7 118 -65.5 185.5t-173.5 96.5v114l421 262v-125l-52 -24q21 -27 21 -71zM333 537q0 38 -28 38q-11 0 -19.5 -9 t-8.5 -28q0 -38 28 -38q12 0 20 10t8 27z" />
<glyph unicode="&#x6ab;" horiz-adv-x="455" d="M412 542q0 -50 -31.5 -81.5t-79.5 -31.5q-81 0 -98 67l-63 -40q120 -42 184 -126.5t71 -225.5h60v-104h-470q-18 0 -39 15t-21 37q0 21 21 36.5t39 15.5h276q-7 118 -65.5 185.5t-173.5 96.5v114l421 262v-125l-52 -24q21 -27 21 -71zM333 537q0 38 -28 38 q-11 0 -19.5 -9t-8.5 -28q0 -38 28 -38q12 0 20 10t8 27z" />
<glyph unicode="&#x6ab;" horiz-adv-x="849" d="M806 545q0 -50 -31.5 -81.5t-79.5 -31.5q-80 0 -97 64l-64 -40q120 -42 184 -126.5t71 -225.5h60v-104h-424q-196 0 -281.5 76t-85.5 220q0 86 26 157l142 23q-35 -73 -35 -165q0 -109 55.5 -158t193.5 -49h214q-6 118 -64.5 185.5t-173.5 96.5v114l421 262v-125l-51 -24 q20 -26 20 -68zM727 540q0 38 -28 38q-11 0 -19.5 -9t-8.5 -28q0 -38 28 -38q12 0 20 10t8 27z" />
<glyph unicode="&#x6ac;" horiz-adv-x="465" d="M396 0h-411q-18 0 -39 15t-21 37q0 21 21 36.5t39 15.5h281q-7 227 -244 282v97l396 248v-131l-244 -147q107 -48 164.5 -139.5t57.5 -246.5v-67zM112 721q0 28 20.5 48.5t48.5 20.5t48.5 -20.5t20.5 -48.5t-20.5 -48.5t-48.5 -20.5t-48.5 20.5t-20.5 48.5z" />
<glyph unicode="&#x6ac;" horiz-adv-x="455" d="M-15 0q-18 0 -39 15t-21 37q0 21 21 36.5t39 15.5h281q-7 227 -244 282v97l396 248v-131l-244 -147q101 -46 157.5 -129t63.5 -220h60v-104h-470zM112 721q0 28 20.5 48.5t48.5 20.5t48.5 -20.5t20.5 -48.5t-20.5 -48.5t-48.5 -20.5t-48.5 20.5t-20.5 48.5z" />
<glyph unicode="&#x6ac;" horiz-adv-x="884" d="M425 0q-196 0 -281.5 76t-85.5 220q0 86 26 157l142 23q-35 -73 -35 -165q0 -109 55.5 -158t193.5 -49h208v601h133v-601h103v-104h-459zM310 408v72q32 0 60 -6q-25 13 -25 44q0 42 37 72.5t110 30.5q17 0 59 -6l-13 -70q-30 6 -54 6q-49 0 -49 -34q0 -37 72 -37h61v-72 h-258zM389 733q0 28 20.5 48.5t48.5 20.5t48.5 -20.5t20.5 -48.5t-20.5 -48.5t-48.5 -20.5t-48.5 20.5t-20.5 48.5z" />
<glyph unicode="&#x6ae;" horiz-adv-x="465" d="M396 0h-411q-18 0 -39 15t-21 37q0 21 21 36.5t39 15.5h281q-7 227 -244 282v97l396 248v-131l-244 -147q107 -48 164.5 -139.5t57.5 -246.5v-67zM142 -226q0 26 19 45.5t46 19.5q26 0 45.5 -19t19.5 -46q0 -26 -19.5 -45.5t-45.5 -19.5q-28 0 -46.5 19t-18.5 46z M222 -101q0 26 18.5 44.5t44.5 18.5t44.5 -18.5t18.5 -44.5t-18 -44.5t-45 -18.5q-26 0 -44.5 18.5t-18.5 44.5zM66 -101q0 26 18.5 44.5t44.5 18.5t44.5 -18.5t18.5 -44.5t-18 -44.5t-45 -18.5q-26 0 -44.5 18.5t-18.5 44.5z" />
<glyph unicode="&#x6ae;" horiz-adv-x="455" d="M-15 0q-18 0 -39 15t-21 37q0 21 21 36.5t39 15.5h281q-7 227 -244 282v97l396 248v-131l-244 -147q101 -46 157.5 -129t63.5 -220h60v-104h-470zM162 -226q0 26 19 45.5t46 19.5q26 0 45.5 -19t19.5 -46q0 -26 -19.5 -45.5t-45.5 -19.5q-28 0 -46.5 19t-18.5 46z M242 -101q0 26 18.5 44.5t44.5 18.5t44.5 -18.5t18.5 -44.5t-18 -44.5t-45 -18.5q-26 0 -44.5 18.5t-18.5 44.5zM86 -101q0 26 18.5 44.5t44.5 18.5t44.5 -18.5t18.5 -44.5t-18 -44.5t-45 -18.5q-26 0 -44.5 18.5t-18.5 44.5z" />
<glyph unicode="&#x6ae;" horiz-adv-x="884" d="M425 0q-196 0 -281.5 76t-85.5 220q0 86 26 157l142 23q-35 -73 -35 -165q0 -109 55.5 -158t193.5 -49h208v601h133v-601h103v-104h-459zM310 408v72q32 0 60 -6q-25 13 -25 44q0 42 37 72.5t110 30.5q17 0 59 -6l-13 -70q-30 6 -54 6q-49 0 -49 -34q0 -37 72 -37h61v-72 h-258zM393 -226q0 26 19 45.5t46 19.5q26 0 45.5 -19t19.5 -46q0 -26 -19.5 -45.5t-45.5 -19.5q-28 0 -46.5 19t-18.5 46zM473 -101q0 26 18.5 44.5t44.5 18.5t44.5 -18.5t18.5 -44.5t-18 -44.5t-45 -18.5q-26 0 -44.5 18.5t-18.5 44.5zM317 -101q0 26 18.5 44.5t44.5 18.5 t44.5 -18.5t18.5 -44.5t-18 -44.5t-45 -18.5q-26 0 -44.5 18.5t-18.5 44.5z" />
<glyph unicode="&#x6b0;" horiz-adv-x="465" d="M412 542q0 -50 -31.5 -81.5t-79.5 -31.5q-81 0 -98 67l-63 -40q128 -44 192 -137t64 -252v-67h-411q-18 0 -39 15t-21 37q0 21 21 36.5t39 15.5h276q-7 118 -65.5 185.5t-173.5 96.5v114l421 262v-125l-52 -24q21 -27 21 -71zM22 553v101l421 264v-101zM333 537 q0 38 -28 38q-11 0 -19.5 -9t-8.5 -28q0 -38 28 -38q12 0 20 10t8 27z" />
<glyph unicode="&#x6b0;" horiz-adv-x="455" d="M412 542q0 -50 -31.5 -81.5t-79.5 -31.5q-81 0 -98 67l-63 -40q120 -42 184 -126.5t71 -225.5h60v-104h-470q-18 0 -39 15t-21 37q0 21 21 36.5t39 15.5h276q-7 118 -65.5 185.5t-173.5 96.5v114l421 262v-125l-52 -24q21 -27 21 -71zM22 553v101l421 264v-101zM333 537 q0 38 -28 38q-11 0 -19.5 -9t-8.5 -28q0 -38 28 -38q12 0 20 10t8 27z" />
<glyph unicode="&#x6b0;" horiz-adv-x="849" d="M806 545q0 -50 -31.5 -81.5t-79.5 -31.5q-80 0 -97 64l-64 -40q120 -42 184 -126.5t71 -225.5h60v-104h-424q-196 0 -281.5 76t-85.5 220q0 86 26 157l142 23q-35 -73 -35 -165q0 -109 55.5 -158t193.5 -49h214q-6 118 -64.5 185.5t-173.5 96.5v114l421 262v-125l-51 -24 q20 -26 20 -68zM416 551v102l421 264v-101zM727 540q0 38 -28 38q-11 0 -19.5 -9t-8.5 -28q0 -38 28 -38q12 0 20 10t8 27z" />
<glyph unicode="&#x6b2;" horiz-adv-x="465" d="M396 0h-411q-18 0 -39 15t-21 37q0 21 21 36.5t39 15.5h281q-7 227 -244 282v89l396 249v-124l-244 -147q107 -48 164.5 -139.5t57.5 -246.5v-67zM22 533v113l396 248v-113zM74 -138q0 27 19 46t46 19q26 0 45.5 -19t19.5 -46q0 -26 -19 -45.5t-46 -19.5t-46 19t-19 46z M234 -138q0 27 19 46t46 19q26 0 45.5 -19t19.5 -46q0 -26 -19 -45.5t-46 -19.5t-46 19t-19 46z" />
<glyph unicode="&#x6b2;" horiz-adv-x="455" d="M455 0h-470q-18 0 -39 15t-21 37q0 21 21 36.5t39 15.5h281q-7 227 -244 282v89l396 249v-124l-244 -147q101 -46 157.5 -129t63.5 -220h60v-104zM22 533v113l396 248v-113zM80 -138q0 27 19 46t46 19q26 0 45.5 -19t19.5 -46q0 -26 -19 -45.5t-46 -19.5t-46 19t-19 46z M240 -138q0 27 19 46t46 19q26 0 45.5 -19t19.5 -46q0 -26 -19 -45.5t-46 -19.5t-46 19t-19 46z" />
<glyph unicode="&#x6b2;" horiz-adv-x="849" d="M425 0q-196 0 -281.5 76t-85.5 220q0 86 26 157l142 23q-35 -73 -35 -165q0 -109 55.5 -158t193.5 -49h220q-4 116 -64.5 185t-179.5 97v89l396 249v-124l-245 -147q209 -94 222 -349h60v-104h-424zM416 553v113l396 249v-114zM332 -138q0 27 19 46t46 19q26 0 45.5 -19 t19.5 -46q0 -26 -19 -45.5t-46 -19.5t-46 19t-19 46zM492 -138q0 27 19 46t46 19q26 0 45.5 -19t19.5 -46q0 -26 -19 -45.5t-46 -19.5t-46 19t-19 46z" />
<glyph unicode="&#x6b4;" horiz-adv-x="465" d="M396 0h-411q-18 0 -39 15t-21 37q0 21 21 36.5t39 15.5h281q-7 227 -244 282v78l396 248v-112l-252 -151q230 -85 230 -382v-67zM22 510v102l396 248v-102zM220 783q-24 0 -40.5 16.5t-16.5 41.5q0 24 16.5 41t40.5 17t40.5 -17t16.5 -41t-16.5 -41t-40.5 -17zM96 838 q-24 0 -40.5 16.5t-16.5 41.5q0 24 16.5 41t40.5 17t40.5 -17t16.5 -41t-16.5 -41t-40.5 -17zM67 699q-23 0 -40 16.5t-17 41.5q0 24 17 41t40 17q24 0 40.5 -17t16.5 -41t-16.5 -41t-40.5 -17z" />
<glyph unicode="&#x6b4;" horiz-adv-x="455" d="M-15 0q-18 0 -39 15t-21 37q0 21 21 36.5t39 15.5h281q-7 227 -244 282v78l396 248v-112l-252 -151q215 -79 229 -345h60v-104h-470zM22 510v102l396 248v-102zM96 838q-24 0 -40.5 16.5t-16.5 41.5q0 24 16.5 41t40.5 17t40.5 -17t16.5 -41t-16.5 -41t-40.5 -17z M220 783q-24 0 -40.5 16.5t-16.5 41.5q0 24 16.5 41t40.5 17t40.5 -17t16.5 -41t-16.5 -41t-40.5 -17zM67 699q-23 0 -40 16.5t-17 41.5q0 24 17 41t40 17q24 0 40.5 -17t16.5 -41t-16.5 -41t-40.5 -17z" />
<glyph unicode="&#x6b4;" horiz-adv-x="849" d="M849 0h-424q-196 0 -281.5 76t-85.5 220q0 86 26 157l142 23q-35 -73 -35 -165q0 -109 55.5 -158t193.5 -49h220q-4 116 -64.5 185t-179.5 97v78l396 248v-112l-245 -147q209 -94 222 -349h60v-104zM416 523v101l396 249v-102zM461 720q-24 0 -40.5 16.5t-16.5 41.5 q0 24 16.5 41t40.5 17t40.5 -17t16.5 -41t-16.5 -41t-40.5 -17zM490 859q-24 0 -40.5 17t-16.5 41t16.5 41t40.5 17t40.5 -17t16.5 -41t-16.5 -41t-40.5 -17zM614 804q-24 0 -40.5 16.5t-16.5 41.5q0 24 16.5 41t40.5 17q23 0 40 -17t17 -41t-17 -41t-40 -17z" />
<glyph unicode="&#x6b5;" d="M235 0h-250q-18 0 -39 15t-21 37q0 21 21 36.5t39 15.5h118v601h132v-705zM323 871l-154 -135l-153 134l50 60l104 -82l103 82z" />
<glyph unicode="&#x6b5;" horiz-adv-x="338" d="M-15 0q-18 0 -39 15t-21 37q0 21 21 36.5t39 15.5h118v601h132v-601h103v-104h-353zM323 871l-154 -135l-153 134l50 60l104 -82l103 82z" />
<glyph unicode="&#x6b5;" horiz-adv-x="679" d="M448 66v639h132v-601h99v-104h-104q-32 -230 -264 -230q-257 0 -257 284q0 90 23 179l137 25q-28 -94 -28 -192q0 -193 136 -193q126 0 126 193zM662 871l-154 -135l-153 134l50 60l104 -82l103 82z" />
<glyph unicode="&#x6b6;" d="M235 0h-250q-18 0 -39 15t-21 37q0 21 21 36.5t39 15.5h118v601h132v-705zM101 822q0 28 20.5 48.5t48.5 20.5t48.5 -20.5t20.5 -48.5t-20.5 -48.5t-48.5 -20.5t-48.5 20.5t-20.5 48.5z" />
<glyph unicode="&#x6b6;" horiz-adv-x="338" d="M-15 0q-18 0 -39 15t-21 37q0 21 21 36.5t39 15.5h118v601h132v-601h103v-104h-353zM101 822q0 28 20.5 48.5t48.5 20.5t48.5 -20.5t20.5 -48.5t-20.5 -48.5t-48.5 -20.5t-48.5 20.5t-20.5 48.5z" />
<glyph unicode="&#x6b6;" horiz-adv-x="679" d="M448 66v639h132v-601h99v-104h-104q-32 -230 -264 -230q-257 0 -257 284q0 90 23 179l137 25q-28 -94 -28 -192q0 -193 136 -193q126 0 126 193zM439 822q0 28 20.5 48.5t48.5 20.5t48.5 -20.5t20.5 -48.5t-20.5 -48.5t-48.5 -20.5t-48.5 20.5t-20.5 48.5z" />
<glyph unicode="&#x6b7;" d="M235 0h-250q-18 0 -39 15t-21 37q0 21 21 36.5t39 15.5h118v564h132v-668zM24 764q0 26 19 45.5t46 19.5q26 0 45.5 -19t19.5 -46q0 -26 -19.5 -45.5t-45.5 -19.5q-27 0 -46 19t-19 46zM189 764q0 26 19.5 45.5t45.5 19.5q27 0 46 -19t19 -46q0 -26 -19 -45.5t-46 -19.5 q-26 0 -45.5 19t-19.5 46zM107 895q0 26 19 45.5t46 19.5t46 -19t19 -46q0 -26 -19 -45.5t-46 -19.5t-46 19t-19 46z" />
<glyph unicode="&#x6b7;" horiz-adv-x="338" d="M-15 0q-18 0 -39 15t-21 37q0 21 21 36.5t39 15.5h118v564h132v-564h103v-104h-353zM107 895q0 26 19 45.5t46 19.5t46 -19t19 -46q0 -26 -19 -45.5t-46 -19.5t-46 19t-19 46zM189 764q0 26 19.5 45.5t45.5 19.5q27 0 46 -19t19 -46q0 -26 -19 -45.5t-46 -19.5 q-26 0 -45.5 19t-19.5 46zM24 764q0 26 19 45.5t46 19.5q26 0 45.5 -19t19.5 -46q0 -26 -19.5 -45.5t-45.5 -19.5q-27 0 -46 19t-19 46z" />
<glyph unicode="&#x6b7;" horiz-adv-x="679" d="M448 66v602h132v-564h99v-104h-104q-32 -230 -264 -230q-257 0 -257 284q0 90 23 179l137 25q-28 -94 -28 -192q0 -193 136 -193q126 0 126 193zM448 895q0 26 19 45.5t46 19.5t46 -19t19 -46q0 -26 -19 -45.5t-46 -19.5t-46 19t-19 46zM530 764q0 26 19.5 45.5 t45.5 19.5q27 0 46 -19t19 -46q0 -26 -19 -45.5t-46 -19.5q-26 0 -45.5 19t-19.5 46zM365 764q0 26 19 45.5t46 19.5q26 0 45.5 -19t19.5 -46q0 -26 -19.5 -45.5t-45.5 -19.5q-27 0 -46 19t-19 46z" />
<glyph unicode="&#x6b8;" d="M235 0h-250q-18 0 -39 15t-21 37q0 21 21 36.5t39 15.5h118v601h132v-705zM102 -226q0 26 19 45.5t46 19.5q26 0 45.5 -19t19.5 -46q0 -26 -19.5 -45.5t-45.5 -19.5q-28 0 -46.5 19t-18.5 46zM182 -101q0 26 18.5 44.5t44.5 18.5t44.5 -18.5t18.5 -44.5t-18 -44.5 t-45 -18.5q-26 0 -44.5 18.5t-18.5 44.5zM26 -101q0 26 18.5 44.5t44.5 18.5t44.5 -18.5t18.5 -44.5t-18 -44.5t-45 -18.5q-26 0 -44.5 18.5t-18.5 44.5z" />
<glyph unicode="&#x6b8;" horiz-adv-x="338" d="M-15 0q-18 0 -39 15t-21 37q0 21 21 36.5t39 15.5h118v601h132v-601h103v-104h-353zM102 -226q0 26 19 45.5t46 19.5q26 0 45.5 -19t19.5 -46q0 -26 -19.5 -45.5t-45.5 -19.5q-28 0 -46.5 19t-18.5 46zM182 -101q0 26 18.5 44.5t44.5 18.5t44.5 -18.5t18.5 -44.5 t-18 -44.5t-45 -18.5q-26 0 -44.5 18.5t-18.5 44.5zM26 -101q0 26 18.5 44.5t44.5 18.5t44.5 -18.5t18.5 -44.5t-18 -44.5t-45 -18.5q-26 0 -44.5 18.5t-18.5 44.5z" />
<glyph unicode="&#x6b8;" horiz-adv-x="679" d="M448 146v559h132v-549q0 -20 -2 -52h101v-104h-124q-57 -151 -244 -151q-257 0 -257 285q0 90 23 179l137 25q-28 -96 -28 -192q0 -193 136 -193q60 0 93 44t33 149zM320 -188q26 0 44 -18t18 -44t-18 -44t-44 -18t-44 18t-18 44t18 44t44 18zM459 -151q26 0 44 -18 t18 -44q0 -25 -18.5 -43.5t-43.5 -18.5t-43.5 18.5t-18.5 43.5t18.5 43.5t43.5 18.5zM181 -151q26 0 44 -18t18 -44q0 -25 -18.5 -43.5t-43.5 -18.5t-43.5 18.5t-18.5 43.5t18.5 43.5t43.5 18.5z" />
<glyph unicode="&#x6b9;" d="M235 0h-250q-18 0 -39 15t-21 37q0 21 21 36.5t39 15.5h118v366h132v-470zM100 600q0 28 20.5 48.5t48.5 20.5t48.5 -20.5t20.5 -48.5t-20.5 -48.5t-48.5 -20.5t-48.5 20.5t-20.5 48.5zM92 -135q0 29 19.5 48.5t48.5 19.5t48.5 -19t19.5 -49q0 -29 -19.5 -48.5 t-48.5 -19.5t-48.5 19.5t-19.5 48.5z" />
<glyph unicode="&#x6b9;" horiz-adv-x="338" d="M338 0h-353q-18 0 -39 15t-21 37q0 21 21 36.5t39 15.5h118v366h132v-366h103v-104zM100 600q0 28 20.5 48.5t48.5 20.5t48.5 -20.5t20.5 -48.5t-20.5 -48.5t-48.5 -20.5t-48.5 20.5t-20.5 48.5zM100 -135q0 29 19.5 48.5t48.5 19.5t48.5 -19t19.5 -49q0 -29 -19.5 -48.5 t-48.5 -19.5t-48.5 19.5t-19.5 48.5z" />
<glyph unicode="&#x6b9;" horiz-adv-x="703" d="M600 470v-332q0 -6 -0.5 -17.5t-0.5 -16.5h104v-104h-125q-59 -154 -261 -154q-124 0 -193.5 68t-69.5 207q0 74 17 142l134 19q-19 -68 -19 -149q0 -182 142 -182q140 0 140 178v341h132zM244 400q0 28 20.5 48.5t48.5 20.5t48.5 -20.5t20.5 -48.5t-20.5 -48.5 t-48.5 -20.5t-48.5 20.5t-20.5 48.5zM260 -252q0 29 19.5 48.5t48.5 19.5t48.5 -19t19.5 -49q0 -29 -19.5 -48.5t-48.5 -19.5t-48.5 19.5t-19.5 48.5z" />
<glyph unicode="&#x6bc;" d="M172 -33q0 -50 -31 -81.5t-79 -31.5q-103 0 -103 104q0 24 8 45q-16 6 -29 19t-13 30q0 21 21 36.5t39 15.5h118v366h132v-470h-67q4 -20 4 -33zM100 600q0 28 20.5 48.5t48.5 20.5t48.5 -20.5t20.5 -48.5t-20.5 -48.5t-48.5 -20.5t-48.5 20.5t-20.5 48.5zM93 -38 q0 38 -27 38h-3q-26 -2 -26 -36q0 -39 28 -39q12 0 20 10t8 27z" />
<glyph unicode="&#x6bc;" horiz-adv-x="338" d="M274 -33q0 -50 -31 -81.5t-79 -31.5q-103 0 -103 104q0 24 6 42h-82q-18 0 -39 15t-21 37q0 21 21 36.5t39 15.5h118v366h132v-366h103v-104h-68q4 -20 4 -33zM100 600q0 28 20.5 48.5t48.5 20.5t48.5 -20.5t20.5 -48.5t-20.5 -48.5t-48.5 -20.5t-48.5 20.5t-20.5 48.5z M195 -38q0 38 -27 38h-3q-26 -2 -26 -36q0 -39 28 -39q12 0 20 10t8 27z" />
<glyph unicode="&#x6bc;" horiz-adv-x="703" d="M601 -200q0 -50 -31.5 -81.5t-79.5 -31.5q-96 0 -102 92q-26 -9 -71 -9q-124 0 -193.5 69.5t-69.5 214.5q0 90 23 179l137 25q-28 -94 -28 -192q0 -105 40.5 -149t101.5 -44q69 0 104.5 43.5t35.5 146.5v407h132v-366h103v-104h-108q-10 -64 -43 -107q49 -24 49 -93z M382 409q0 -26 -19 -45t-46 -19q-26 0 -45 19t-19 45q0 27 19 46t45 19q27 0 46 -18.5t19 -46.5zM522 -205q0 38 -28 38q-11 0 -19.5 -9t-8.5 -28q0 -38 28 -38q12 0 20 10t8 27z" />
<glyph unicode="&#x6bd;" d="M235 0h-250q-18 0 -39 15t-21 37q0 21 21 36.5t39 15.5h118v366h132v-470zM100 -226q0 26 19 45.5t46 19.5q26 0 45.5 -19t19.5 -46q0 -26 -19.5 -45.5t-45.5 -19.5q-28 0 -46.5 19t-18.5 46zM180 -101q0 26 18.5 44.5t44.5 18.5t44.5 -18.5t18.5 -44.5t-18 -44.5 t-45 -18.5q-26 0 -44.5 18.5t-18.5 44.5zM24 -101q0 26 18.5 44.5t44.5 18.5t44.5 -18.5t18.5 -44.5t-18 -44.5t-45 -18.5q-26 0 -44.5 18.5t-18.5 44.5z" />
<glyph unicode="&#x6bd;" horiz-adv-x="338" d="M-15 0q-18 0 -39 15t-21 37q0 21 21 36.5t39 15.5h118v366h132v-366h103v-104h-353zM102 -226q0 26 19 45.5t46 19.5q26 0 45.5 -19t19.5 -46q0 -26 -19.5 -45.5t-45.5 -19.5q-28 0 -46.5 19t-18.5 46zM182 -101q0 26 18.5 44.5t44.5 18.5t44.5 -18.5t18.5 -44.5 t-18 -44.5t-45 -18.5q-26 0 -44.5 18.5t-18.5 44.5zM26 -101q0 26 18.5 44.5t44.5 18.5t44.5 -18.5t18.5 -44.5t-18 -44.5t-45 -18.5q-26 0 -44.5 18.5t-18.5 44.5z" />
<glyph unicode="&#x6bd;" horiz-adv-x="703" d="M600 470v-366h103v-104h-108q-30 -230 -278 -230q-124 0 -193.5 69.5t-69.5 214.5q0 90 23 179l137 25q-28 -94 -28 -192q0 -105 40.5 -149t101.5 -44q69 0 104.5 43.5t35.5 146.5v407h132zM191 505q0 26 19 45.5t46 19.5t46 -19t19 -46q0 -26 -19 -45.5t-46 -19.5 t-46 19t-19 46zM273 374q0 26 19.5 45.5t45.5 19.5q27 0 46 -19t19 -46q0 -26 -19 -45.5t-46 -19.5q-26 0 -45.5 19t-19.5 46zM108 374q0 26 19 45.5t46 19.5q26 0 45.5 -19t19.5 -46q0 -26 -19.5 -45.5t-45.5 -19.5q-27 0 -46 19t-19 46z" />
<glyph unicode="&#x6bf;" horiz-adv-x="528" d="M453 0h-468q-18 0 -39 15t-21 37q0 21 21 36.5t39 15.5h349q5 40 5 76q0 98 -45 145t-150 47q-52 0 -112 -10v103q60 11 124 11q165 0 239.5 -72t74.5 -219q0 -83 -17 -185zM120 -226q0 26 19 45.5t46 19.5q26 0 45.5 -19t19.5 -46q0 -26 -19.5 -45.5t-45.5 -19.5 q-28 0 -46.5 19t-18.5 46zM200 -101q0 26 18.5 44.5t44.5 18.5t44.5 -18.5t18.5 -44.5t-18 -44.5t-45 -18.5q-26 0 -44.5 18.5t-18.5 44.5zM44 -101q0 26 18.5 44.5t44.5 18.5t44.5 -18.5t18.5 -44.5t-18 -44.5t-45 -18.5q-26 0 -44.5 18.5t-18.5 44.5zM116 600 q0 28 20.5 48.5t48.5 20.5t48.5 -20.5t20.5 -48.5t-20.5 -48.5t-48.5 -20.5t-48.5 20.5t-20.5 48.5z" />
<glyph unicode="&#x6bf;" horiz-adv-x="529" d="M-15 0q-18 0 -39 15t-21 37q0 21 21 36.5t39 15.5h349q5 40 5 76q0 98 -45 145t-150 47q-52 0 -112 -10v103q60 11 124 11q165 0 239.5 -72t74.5 -219q0 -42 -4 -81h63v-104h-544zM121 600q0 28 20.5 48.5t48.5 20.5t48.5 -20.5t20.5 -48.5t-20.5 -48.5t-48.5 -20.5 t-48.5 20.5t-20.5 48.5zM138 -226q0 26 19 45.5t46 19.5q26 0 45.5 -19t19.5 -46q0 -26 -19.5 -45.5t-45.5 -19.5q-28 0 -46.5 19t-18.5 46zM218 -101q0 26 18.5 44.5t44.5 18.5t44.5 -18.5t18.5 -44.5t-18 -44.5t-45 -18.5q-26 0 -44.5 18.5t-18.5 44.5zM62 -101 q0 26 18.5 44.5t44.5 18.5t44.5 -18.5t18.5 -44.5t-18 -44.5t-45 -18.5q-26 0 -44.5 18.5t-18.5 44.5z" />
<glyph unicode="&#x6bf;" horiz-adv-x="633" d="M633 0h-285q-188 0 -188 -112q0 -39 26.5 -65t78.5 -35l-29 -106q-97 16 -152 66.5t-55 131.5q0 102 80 163t244 61h85q5 40 5 76q0 98 -45 145t-150 47q-57 0 -115 -8v103q68 9 127 9q165 0 239.5 -72t74.5 -219q0 -42 -4 -81h63v-104zM225 600q0 28 20.5 48.5 t48.5 20.5t48.5 -20.5t20.5 -48.5t-20.5 -48.5t-48.5 -20.5t-48.5 20.5t-20.5 48.5zM356 -226q0 26 19 45.5t46 19.5q26 0 45.5 -19t19.5 -46q0 -26 -19.5 -45.5t-45.5 -19.5q-28 0 -46.5 19t-18.5 46zM436 -101q0 26 18.5 44.5t44.5 18.5t44.5 -18.5t18.5 -44.5t-18 -44.5 t-45 -18.5q-26 0 -44.5 18.5t-18.5 44.5zM280 -101q0 26 18.5 44.5t44.5 18.5t44.5 -18.5t18.5 -44.5t-18 -44.5t-45 -18.5q-26 0 -44.5 18.5t-18.5 44.5z" />
<glyph unicode="&#x6c4;" horiz-adv-x="628" d="M212 -292q-33 0 -72.5 3t-62.5 7l-23 3l8 108q84 -17 162 -17h6q-9 20 -9 48q0 45 28 73.5t72 28.5q49 0 71 -28q5 27 5 56v16h-64q-150 0 -216 57.5t-66 168.5q0 106 67 178.5t197 72.5q53 0 105.5 -8.5t78.5 -17.5l26 -9v-344h103v-104h-103v-2q0 -290 -313 -290z M397 109v252q-38 18 -95 18q-55 0 -87 -37.5t-32 -97.5q0 -69 37.5 -102t122.5 -33h54zM344 -136q0 37 -27 37q-11 0 -19.5 -9.5t-8.5 -27.5q0 -37 28 -37q11 0 19 10t8 27z" />
<glyph unicode="&#x6ca;" horiz-adv-x="628" d="M212 -252q-33 0 -71 3t-59 7l-22 3l8 108q78 -17 156 -17q173 0 173 133v15h-79q-267 0 -267 232q0 106 67 178.5t197 72.5q53 0 105.5 -8.5t78.5 -17.5l26 -9v-344h103v-104h-103v-2q0 -111 -77 -180.5t-236 -69.5zM397 104v257q-38 18 -95 18q-55 0 -87 -37.5 t-32 -97.5q0 -140 150 -140h64zM165 603q0 26 19 45.5t46 19.5t46 -18.5t19 -46.5q0 -27 -18.5 -46t-46.5 -19t-46.5 19t-18.5 46zM325 603q0 26 19 45.5t46 19.5q26 0 45.5 -19t19.5 -46q0 -26 -19 -45.5t-46 -19.5t-46 19t-19 46z" />
<glyph unicode="&#x6cd;" horiz-adv-x="1073" d="M688 0h-209q-105 0 -176.5 21t-111.5 63t-57 97.5t-17 133.5l-93 -15v111l223 32v-90q0 -74 9 -118t36 -75.5t74.5 -43.5t126.5 -12h67v360q94 19 202 19q126 0 178 -56t52 -165v-158h81v-104h-208v248q0 72 -24.5 101.5t-87.5 29.5l-65 -6v-373z" />
<glyph unicode="&#x6ce;" d="M235 0h-250q-18 0 -39 15t-21 37q0 21 21 36.5t39 15.5h118v366h132v-470zM324 695l-154 -135l-153 134l50 60l104 -82l103 82zM22 -138q0 27 19 46t46 19q26 0 45.5 -19t19.5 -46q0 -26 -19 -45.5t-46 -19.5t-46 19t-19 46zM182 -138q0 27 19 46t46 19q26 0 45.5 -19 t19.5 -46q0 -26 -19 -45.5t-46 -19.5t-46 19t-19 46z" />
<glyph unicode="&#x6ce;" horiz-adv-x="338" d="M-15 0q-18 0 -39 15t-21 37q0 21 21 36.5t39 15.5h118v366h132v-366h103v-104h-353zM322 695l-154 -135l-153 134l50 60l104 -82l103 82zM25 -138q0 27 19 46t46 19q26 0 45.5 -19t19.5 -46q0 -26 -19 -45.5t-46 -19.5t-46 19t-19 46zM185 -138q0 27 19 46t46 19 q26 0 45.5 -19t19.5 -46q0 -26 -19 -45.5t-46 -19.5t-46 19t-19 46z" />
<glyph unicode="&#x6ce;" horiz-adv-x="1020" d="M634 0h-209q-196 0 -281.5 76t-85.5 220q0 86 26 157l142 23q-35 -73 -35 -165q0 -109 55.5 -158t193.5 -49h67v360q94 19 202 19q125 0 177.5 -56t52.5 -165v-158h81v-104h-209v248q0 72 -24.5 101.5t-86.5 29.5l-66 -6v-373zM522 695l-154 -135l-153 134l50 60l104 -82 l103 82z" />
<glyph unicode="&#x6cf;" horiz-adv-x="628" d="M212 -252q-33 0 -71 3t-59 7l-22 3l8 108q78 -17 156 -17q173 0 173 133v15h-79q-267 0 -267 232q0 106 67 178.5t197 72.5q53 0 105.5 -8.5t78.5 -17.5l26 -9v-344h103v-104h-103v-2q0 -111 -77 -180.5t-236 -69.5zM397 104v257q-38 18 -95 18q-55 0 -87 -37.5 t-32 -97.5q0 -140 150 -140h64zM240 600q0 28 20.5 48.5t48.5 20.5t48.5 -20.5t20.5 -48.5t-20.5 -48.5t-48.5 -20.5t-48.5 20.5t-20.5 48.5z" />
<glyph unicode="&#x6d1;" d="M235 0h-250q-18 0 -39 15t-21 37q0 21 21 36.5t39 15.5h118v366h132v-470zM97 -226q0 26 19 45.5t46 19.5q26 0 45.5 -19t19.5 -46q0 -26 -19.5 -45.5t-45.5 -19.5q-28 0 -46.5 19t-18.5 46zM177 -101q0 26 18.5 44.5t44.5 18.5t44.5 -18.5t18.5 -44.5t-18 -44.5 t-45 -18.5q-26 0 -44.5 18.5t-18.5 44.5zM21 -101q0 26 18.5 44.5t44.5 18.5t44.5 -18.5t18.5 -44.5t-18 -44.5t-45 -18.5q-26 0 -44.5 18.5t-18.5 44.5z" />
<glyph unicode="&#x6d1;" horiz-adv-x="338" d="M-15 0q-18 0 -39 15t-21 37q0 21 21 36.5t39 15.5h118v366h132v-366h103v-104h-353zM104 -226q0 26 19 45.5t46 19.5q26 0 45.5 -19t19.5 -46q0 -26 -19.5 -45.5t-45.5 -19.5q-28 0 -46.5 19t-18.5 46zM184 -101q0 26 18.5 44.5t44.5 18.5t44.5 -18.5t18.5 -44.5 t-18 -44.5t-45 -18.5q-26 0 -44.5 18.5t-18.5 44.5zM28 -101q0 26 18.5 44.5t44.5 18.5t44.5 -18.5t18.5 -44.5t-18 -44.5t-45 -18.5q-26 0 -44.5 18.5t-18.5 44.5z" />
<glyph unicode="&#x6d1;" horiz-adv-x="1020" d="M634 0h-209q-196 0 -281.5 76t-85.5 220q0 86 26 157l142 23q-35 -73 -35 -165q0 -109 55.5 -158t193.5 -49h67v360q94 19 202 19q125 0 177.5 -56t52.5 -165v-158h81v-104h-209v248q0 72 -24.5 101.5t-86.5 29.5l-66 -6v-373zM350 -226q0 26 19 45.5t46 19.5 q26 0 45.5 -19t19.5 -46q0 -26 -19.5 -45.5t-45.5 -19.5q-28 0 -46.5 19t-18.5 46zM430 -101q0 26 18.5 44.5t44.5 18.5t44.5 -18.5t18.5 -44.5t-18 -44.5t-45 -18.5q-26 0 -44.5 18.5t-18.5 44.5zM274 -101q0 26 18.5 44.5t44.5 18.5t44.5 -18.5t18.5 -44.5t-18 -44.5 t-45 -18.5q-26 0 -44.5 18.5t-18.5 44.5z" />
<glyph unicode="&#x6d5;" horiz-adv-x="628" d="M628 0h-310q-267 0 -267 232q0 106 67 178.5t197 72.5q53 0 105.5 -8.5t78.5 -17.5l26 -9v-344h103v-104zM397 104v257q-38 18 -95 18q-55 0 -87 -37.5t-32 -97.5q0 -140 150 -140h64z" />
<glyph unicode="&#x6ee;" horiz-adv-x="527" d="M46 0v104h296q-5 112 -62 181t-174 99l32 110q159 -42 241.5 -134.5t91.5 -255.5h56v-104h-481zM370 619l-50 -59l-104 81l-103 -81l-49 58l153 136z" />
<glyph unicode="&#x6ef;" horiz-adv-x="426" d="M76 -254q-44 0 -84 10l10 105q41 -12 81 -12q54 0 81 31.5t27 108.5v481h132v-366h103v-104h-103v-4q0 -53 -10.5 -94t-36.5 -78t-76.5 -57.5t-123.5 -20.5zM405 572l-50 -59l-104 81l-103 -81l-49 58l153 136z" />
<glyph unicode="&#x6fa;" horiz-adv-x="875" d="M20 0h-35q-18 0 -39 15t-21 37q0 21 21 36.5t39 15.5h36q50 0 70 26t20 98v182h132v-185q0 -72 13.5 -100.5t55.5 -28.5q41 0 61 29t20 99v226h127v-251q0 -58 24.5 -76.5t94.5 -18.5h27q6 60 6 120q0 138 -29 268l129 18q32 -135 32 -277q0 -123 -14 -233h-165 q-82 0 -124 14.5t-63 54.5q-16 -34 -55.5 -55.5t-95.5 -21.5q-49 0 -85.5 21t-48.5 57q-30 -70 -133 -70zM381 -135q0 29 19.5 48.5t48.5 19.5t48.5 -19t19.5 -49q0 -29 -19.5 -48.5t-48.5 -19.5t-48.5 19.5t-19.5 48.5zM303 598q0 26 19 45.5t46 19.5q26 0 45.5 -19 t19.5 -46q0 -26 -19.5 -45.5t-45.5 -19.5q-27 0 -46 19t-19 46zM468 598q0 26 19.5 45.5t45.5 19.5q27 0 46 -19t19 -46q0 -26 -19 -45.5t-46 -19.5q-26 0 -45.5 19t-19.5 46zM386 729q0 26 19 45.5t46 19.5t46 -19t19 -46q0 -26 -19 -45.5t-46 -19.5t-46 19t-19 46z" />
<glyph unicode="&#x6fa;" horiz-adv-x="901" d="M20 0h-35q-18 0 -39 15t-21 37q0 21 21 36.5t39 15.5h36q50 0 70 26t20 98v182h132v-185q0 -72 13.5 -100.5t55.5 -28.5q41 0 61 29t20 99v226h127v-251q0 -58 24.5 -76.5t94.5 -18.5h27q6 60 6 120q0 138 -29 268l129 18q32 -135 32 -277q0 -70 -4 -129h101v-104h-276 q-82 0 -124 14.5t-63 54.5q-16 -34 -55.5 -55.5t-95.5 -21.5q-49 0 -85.5 21t-48.5 57q-30 -70 -133 -70zM381 -135q0 29 19.5 48.5t48.5 19.5t48.5 -19t19.5 -49q0 -29 -19.5 -48.5t-48.5 -19.5t-48.5 19.5t-19.5 48.5zM386 729q0 26 19 45.5t46 19.5t46 -19t19 -46 q0 -26 -19 -45.5t-46 -19.5t-46 19t-19 46zM303 598q0 26 19 45.5t46 19.5q26 0 45.5 -19t19.5 -46q0 -26 -19.5 -45.5t-45.5 -19.5q-27 0 -46 19t-19 46zM468 598q0 26 19.5 45.5t45.5 19.5q27 0 46 -19t19 -46q0 -26 -19 -45.5t-46 -19.5q-26 0 -45.5 19t-19.5 46z" />
<glyph unicode="&#x6fa;" horiz-adv-x="1238" d="M962 0q-86 0 -127.5 16t-59.5 53q-14 -36 -48.5 -55.5t-74.5 -19.5q-56 0 -79 31q1 -131 -72 -193t-190 -62q-257 0 -257 284q0 90 23 179l137 25q-28 -94 -28 -192q0 -193 136 -193q126 0 126 189v348h132v-185q0 -70 17 -99.5t56 -29.5q42 0 60 30.5t18 97.5v226h126 v-251q0 -58 24.5 -76.5t94.5 -18.5h27q6 60 6 120q0 138 -29 268l129 18q32 -128 32 -277q0 -70 -4 -129h101v-104h-276zM714 -135q0 29 19.5 48.5t48.5 19.5t48.5 -19t19.5 -49q0 -29 -19.5 -48.5t-48.5 -19.5t-48.5 19.5t-19.5 48.5zM728 729q0 26 19 45.5t46 19.5t46 -19 t19 -46q0 -26 -19 -45.5t-46 -19.5t-46 19t-19 46zM645 598q0 26 19 45.5t46 19.5q26 0 45.5 -19t19.5 -46q0 -26 -19.5 -45.5t-45.5 -19.5q-27 0 -46 19t-19 46zM810 598q0 26 19.5 45.5t45.5 19.5q27 0 46 -19t19 -46q0 -26 -19 -45.5t-46 -19.5q-26 0 -45.5 19t-19.5 46z " />
<glyph unicode="&#x6fb;" horiz-adv-x="736" d="M383 0h-398q-18 0 -39 15t-21 37q0 21 21 36.5t39 15.5h118v366h132v-25q0 -84 -12 -148h2q32 88 101.5 137t151.5 49q103 0 157 -60t54 -167q0 -116 -74 -186t-232 -70zM234 104h161q88 0 123.5 38.5t35.5 105.5q0 130 -103 130q-78 0 -139.5 -82t-77.5 -192zM378 600 q0 28 20.5 48.5t48.5 20.5t48.5 -20.5t20.5 -48.5t-20.5 -48.5t-48.5 -20.5t-48.5 20.5t-20.5 48.5zM288 -135q0 29 19.5 48.5t48.5 19.5t48.5 -19t19.5 -49q0 -29 -19.5 -48.5t-48.5 -19.5t-48.5 19.5t-19.5 48.5z" />
<glyph unicode="&#x6fb;" horiz-adv-x="754" d="M-15 0q-18 0 -39 15t-21 37q0 21 21 36.5t39 15.5h118v366h132v-25q0 -84 -12 -148h2q32 88 101.5 137t151.5 49q103 0 157 -60t54 -167q0 -92 -43 -152h108v-104h-769zM234 104h170q150 4 150 144q0 130 -103 130q-78 0 -139.5 -82t-77.5 -192zM378 600q0 28 20.5 48.5 t48.5 20.5t48.5 -20.5t20.5 -48.5t-20.5 -48.5t-48.5 -20.5t-48.5 20.5t-20.5 48.5zM288 -135q0 29 19.5 48.5t48.5 19.5t48.5 -19t19.5 -49q0 -29 -19.5 -48.5t-48.5 -19.5t-48.5 19.5t-19.5 48.5z" />
<glyph unicode="&#x6fb;" horiz-adv-x="1095" d="M574 0q-12 -116 -83 -173t-180 -57q-257 0 -257 284q0 90 23 179l137 25q-28 -94 -28 -192q0 -193 136 -193q126 0 126 189v408h132v-25q0 -84 -12 -148h2q32 88 101.5 137t151.5 49q103 0 157 -60t54 -167q0 -92 -43 -152h104v-104h-521zM578 104h171q82 2 115.5 40 t33.5 104q0 130 -102 130q-78 0 -140 -82t-78 -192zM730 600q0 28 20.5 48.5t48.5 20.5t48.5 -20.5t20.5 -48.5t-20.5 -48.5t-48.5 -20.5t-48.5 20.5t-20.5 48.5zM675 -135q0 29 19.5 48.5t48.5 19.5t48.5 -19t19.5 -49q0 -29 -19.5 -48.5t-48.5 -19.5t-48.5 19.5 t-19.5 48.5z" />
<glyph unicode="&#x6fc;" horiz-adv-x="534" d="M502 0h-517q-18 0 -39 15t-21 37q0 21 21 36.5t39 15.5h156q-34 20 -55.5 60t-21.5 89q0 99 67.5 164.5t193.5 65.5q30 0 61 -4.5t47 -9.5l16 -5l-23 -105q-46 21 -104 21q-56 0 -91 -35t-35 -92q0 -67 57 -108t171 -41h78v-104zM229 600q0 28 20.5 48.5t48.5 20.5 t48.5 -20.5t20.5 -48.5t-20.5 -48.5t-48.5 -20.5t-48.5 20.5t-20.5 48.5zM204 -135q0 29 19.5 48.5t48.5 19.5t48.5 -19t19.5 -49q0 -29 -19.5 -48.5t-48.5 -19.5t-48.5 19.5t-19.5 48.5z" />
<glyph unicode="&#x6fc;" horiz-adv-x="609" d="M9 0h-24q-18 0 -39 15t-21 37q0 21 21 36.5t39 15.5h29q139 0 234 31q-4 4 -23 22t-25 23t-23 20.5t-25.5 21.5t-25 17.5t-28.5 17.5t-28 13t-32 11l11 94q154 111 289 111q105 0 157.5 -46.5t52.5 -117.5q0 -107 -102 -192q54 -26 111 -26h52v-104h-67q-112 0 -205 62 q-139 -62 -328 -62zM171 329q24 -10 50.5 -27.5t43.5 -32t46 -40.5t44 -38q63 50 63 114q0 37 -24.5 60.5t-70.5 23.5q-62 0 -152 -60zM253 600q0 28 20.5 48.5t48.5 20.5t48.5 -20.5t20.5 -48.5t-20.5 -48.5t-48.5 -20.5t-48.5 20.5t-20.5 48.5zM255 -135q0 29 19.5 48.5 t48.5 19.5t48.5 -19t19.5 -49q0 -29 -19.5 -48.5t-48.5 -19.5t-48.5 19.5t-19.5 48.5z" />
<glyph unicode="&#x6fc;" horiz-adv-x="634" d="M317 -295q-142 0 -213 57.5t-71 140.5q0 38 14.5 71.5t33.5 55.5t55 46t60 36t67 33q-44 41 -63 58t-59 42t-78 36l11 94q65 47 142 79t146 32q105 0 158 -46.5t53 -117.5q0 -106 -116 -185q61 -33 125 -33h52v-104h-67q-122 0 -223 75q-39 -20 -55 -28t-45.5 -26 t-41.5 -31t-23 -33t-11 -41q0 -46 39 -76.5t124 -30.5q34 0 71.5 3.5t57.5 6.5l21 3l8 -100q-87 -17 -172 -17zM196 329q23 -9 48.5 -26t39.5 -28t46 -39.5t40 -35.5q72 48 72 105q0 37 -24 60.5t-70 23.5q-64 0 -152 -60zM277 600q0 28 20.5 48.5t48.5 20.5t48.5 -20.5 t20.5 -48.5t-20.5 -48.5t-48.5 -20.5t-48.5 20.5t-20.5 48.5zM282 -67q0 29 19.5 48.5t48.5 19.5t48.5 -19t19.5 -49q0 -29 -19.5 -48.5t-48.5 -19.5t-48.5 19.5t-19.5 48.5z" />
<glyph unicode="&#x6ff;" horiz-adv-x="759" d="M695 0h-710q-18 0 -39 15t-21 37q0 21 21 36.5t39 15.5h87l46 -5q-25 24 -25 71q0 74 51.5 121t140.5 47q94 0 139 -59t45 -152v-23h100v12q0 156 -67 227.5t-215 71.5q-97 0 -214 -39l-13 103q122 39 243 39q193 0 292.5 -98.5t99.5 -312.5v-107zM361 100v29 q0 118 -86 118q-35 0 -55 -18.5t-20 -49.5q0 -40 27 -59.5t68 -19.5h66zM442 622l-50 -59l-104 81l-103 -81l-49 58l153 136z" />
<glyph unicode="&#x6ff;" horiz-adv-x="752" d="M752 0h-767q-18 0 -39 15t-21 37q0 21 21 36.5t39 15.5h87l46 -5q-25 24 -25 71q0 74 51.5 121t140.5 47q94 0 139 -59t45 -152v-23h100v12q0 156 -67 227.5t-215 71.5q-97 0 -214 -39l-13 103q122 39 243 39q193 0 292.5 -98.5t99.5 -312.5v-3h57v-104zM442 622l-50 -59 l-104 81l-103 -81l-49 58l153 136zM361 100v29q0 118 -86 118q-35 0 -55 -18.5t-20 -49.5q0 -40 27 -59.5t68 -19.5h66z" />
<glyph unicode="&#x6ff;" horiz-adv-x="793" d="M793 0h-763v104h83l46 -5q-25 24 -25 71q0 75 51.5 121.5t140.5 46.5q94 0 139 -59t45 -152v-23h100v12q0 156 -67 227.5t-215 71.5q-95 0 -214 -39l-13 103q120 39 243 39q193 0 292.5 -98.5t99.5 -312.5v-3h57v-104zM483 622l-50 -59l-104 81l-103 -81l-49 58l153 136z M402 100v29q0 118 -86 118q-35 0 -55 -18.5t-20 -49.5q0 -40 27 -59.5t68 -19.5h66z" />
<glyph unicode="&#x671;" arabic-form="final" d="M80 0v675h132v-571h103v-104h-235zM-12 750v55h44q22 60 63.5 93.5t90.5 33.5q98 0 98 -116v-66h-296zM98 805h117v13q0 62 -36 62q-26 0 -48.5 -21.5t-32.5 -53.5z" />
<glyph unicode="&#x67b;" horiz-adv-x="810" arabic-form="final" d="M425 0q-196 0 -281.5 76t-85.5 220q0 86 26 157l142 23q-35 -73 -35 -165q0 -109 55.5 -158t193.5 -49h135v366h132v-366h103v-104h-385zM409 -291q-25 0 -42 16.5t-17 42.5t17 42.5t42 16.5t42 -16.5t17 -42.5q0 -25 -17 -42t-42 -17zM409 -151q-25 0 -42 16.5t-17 42.5 q0 25 17 42t42 17t42 -17t17 -42t-17 -42t-42 -17z" />
<glyph unicode="&#x67b;" arabic-form="initial" d="M235 0h-250q-18 0 -39 15t-21 37q0 21 21 36.5t39 15.5h118v366h132v-470zM150 -291q-26 0 -42.5 16.5t-16.5 42.5t16.5 42.5t42.5 16.5q25 0 42 -16.5t17 -42.5q0 -25 -17 -42t-42 -17zM150 -151q-26 0 -42.5 16.5t-16.5 42.5q0 25 17 42t42 17t42 -17t17 -42t-17 -42 t-42 -17z" />
<glyph unicode="&#x67b;" horiz-adv-x="338" arabic-form="medial" d="M-15 0q-18 0 -39 15t-21 37q0 21 21 36.5t39 15.5h118v366h132v-366h103v-104h-353zM169 -291q-25 0 -42 16.5t-17 42.5t17 42.5t42 16.5t42 -16.5t17 -42.5q0 -25 -17 -42t-42 -17zM169 -151q-25 0 -42 16.5t-17 42.5q0 25 17 42t42 17t42 -17t17 -42t-17 -42t-42 -17z " />
<glyph unicode="&#x67e;" horiz-adv-x="810" arabic-form="final" d="M810 0h-385q-196 0 -281.5 76t-85.5 220q0 86 26 157l142 23q-35 -73 -35 -165q0 -109 55.5 -158t193.5 -49h135v366h132v-366h103v-104zM358 -226q0 26 19 45.5t46 19.5q26 0 45.5 -19t19.5 -46q0 -26 -19.5 -45.5t-45.5 -19.5q-28 0 -46.5 19t-18.5 46zM282 -101 q0 26 18.5 44.5t44.5 18.5t44.5 -18.5t18.5 -44.5t-18 -44.5t-45 -18.5q-26 0 -44.5 18.5t-18.5 44.5zM438 -101q0 26 18.5 44.5t44.5 18.5t44.5 -18.5t18.5 -44.5t-18 -44.5t-45 -18.5q-26 0 -44.5 18.5t-18.5 44.5z" />
<glyph unicode="&#x67e;" arabic-form="initial" d="M235 0h-250q-18 0 -39 15t-21 37q0 21 21 36.5t39 15.5h118v366h132v-470zM97 -226q0 26 19 45.5t46 19.5q26 0 45.5 -19t19.5 -46q0 -26 -19.5 -45.5t-45.5 -19.5q-28 0 -46.5 19t-18.5 46zM177 -101q0 26 18.5 44.5t44.5 18.5t44.5 -18.5t18.5 -44.5t-18 -44.5 t-45 -18.5q-26 0 -44.5 18.5t-18.5 44.5zM21 -101q0 26 18.5 44.5t44.5 18.5t44.5 -18.5t18.5 -44.5t-18 -44.5t-45 -18.5q-26 0 -44.5 18.5t-18.5 44.5z" />
<glyph unicode="&#x67e;" horiz-adv-x="338" arabic-form="medial" d="M-15 0q-18 0 -39 15t-21 37q0 21 21 36.5t39 15.5h118v366h132v-366h103v-104h-353zM104 -226q0 26 19 45.5t46 19.5q26 0 45.5 -19t19.5 -46q0 -26 -19.5 -45.5t-45.5 -19.5q-28 0 -46.5 19t-18.5 46zM184 -101q0 26 18.5 44.5t44.5 18.5t44.5 -18.5t18.5 -44.5 t-18 -44.5t-45 -18.5q-26 0 -44.5 18.5t-18.5 44.5zM28 -101q0 26 18.5 44.5t44.5 18.5t44.5 -18.5t18.5 -44.5t-18 -44.5t-45 -18.5q-26 0 -44.5 18.5t-18.5 44.5z" />
<glyph unicode="&#x680;" horiz-adv-x="810" arabic-form="final" d="M425 0q-196 0 -281.5 76t-85.5 220q0 86 26 157l142 23q-35 -73 -35 -165q0 -109 55.5 -158t193.5 -49h135v366h132v-366h103v-104h-385zM345 -152q-24 0 -41 17t-17 42q0 24 17 41.5t41 17.5q25 0 42 -17t17 -42t-17 -42t-42 -17zM484 -152q-24 0 -41 17t-17 42 q0 24 17 41.5t41 17.5q25 0 42 -17t17 -42t-17 -42t-42 -17zM345 -291q-24 0 -41 16.5t-17 41.5t17 42t41 17q25 0 42 -17t17 -42q0 -24 -17 -41t-42 -17zM484 -291q-24 0 -41 16.5t-17 41.5t17 42t41 17q25 0 42 -17t17 -42q0 -24 -17 -41t-42 -17z" />
<glyph unicode="&#x680;" arabic-form="initial" d="M235 0h-250q-18 0 -39 15t-21 37q0 21 21 36.5t39 15.5h118v366h132v-470zM99 -291q-24 0 -41 16.5t-17 41.5t17 42t41 17q25 0 42 -17t17 -42q0 -24 -17 -41t-42 -17zM99 -152q-24 0 -41 17t-17 42q0 24 17 41.5t41 17.5q25 0 42 -17t17 -42t-17 -42t-42 -17zM238 -291 q-24 0 -41 16.5t-17 41.5t17 42t41 17q25 0 42 -17t17 -42q0 -24 -17 -41t-42 -17zM238 -152q-24 0 -41 17t-17 42q0 24 17 41.5t41 17.5q25 0 42 -17t17 -42t-17 -42t-42 -17z" />
<glyph unicode="&#x680;" horiz-adv-x="338" arabic-form="medial" d="M-15 0q-18 0 -39 15t-21 37q0 21 21 36.5t39 15.5h118v366h132v-366h103v-104h-353zM99 -152q-24 0 -41 17t-17 42q0 24 17 41.5t41 17.5q25 0 42 -17t17 -42t-17 -42t-42 -17zM238 -152q-24 0 -41 17t-17 42q0 24 17 41.5t41 17.5q25 0 42 -17t17 -42t-17 -42t-42 -17z M99 -291q-24 0 -41 16.5t-17 41.5t17 42t41 17q25 0 42 -17t17 -42q0 -24 -17 -41t-42 -17zM238 -291q-24 0 -41 16.5t-17 41.5t17 42t41 17q25 0 42 -17t17 -42q0 -24 -17 -41t-42 -17z" />
<glyph unicode="&#x67a;" horiz-adv-x="810" arabic-form="final" d="M425 0q-196 0 -281.5 76t-85.5 220q0 86 26 157l142 23q-35 -73 -35 -165q0 -109 55.5 -158t193.5 -49h135v366h132v-366h103v-104h-385zM410 538q-28 0 -46 18t-18 46q0 27 18 45.5t46 18.5q27 0 45.5 -18t18.5 -46q0 -27 -18.5 -45.5t-45.5 -18.5zM410 693 q-27 0 -45.5 19t-18.5 45q0 27 18.5 45.5t45.5 18.5q26 0 45 -18.5t19 -45.5q0 -26 -19 -45t-45 -19z" />
<glyph unicode="&#x67a;" arabic-form="initial" d="M235 0h-250q-18 0 -39 15t-21 37q0 21 21 36.5t39 15.5h118v366h132v-470zM169 538q-28 0 -46 18t-18 46q0 27 18 45.5t46 18.5q27 0 45.5 -18t18.5 -46q0 -27 -18.5 -45.5t-45.5 -18.5zM169 693q-27 0 -45.5 19t-18.5 45q0 27 18.5 45.5t45.5 18.5q26 0 45 -18.5 t19 -45.5q0 -26 -19 -45t-45 -19z" />
<glyph unicode="&#x67a;" horiz-adv-x="338" arabic-form="medial" d="M338 0h-353q-18 0 -39 15t-21 37q0 21 21 36.5t39 15.5h118v366h132v-366h103v-104zM169 538q-28 0 -46 18t-18 46q0 27 18 45.5t46 18.5q27 0 45.5 -18t18.5 -46q0 -27 -18.5 -45.5t-45.5 -18.5zM169 693q-27 0 -45.5 19t-18.5 45q0 27 18.5 45.5t45.5 18.5 q26 0 45 -18.5t19 -45.5q0 -26 -19 -45t-45 -19z" />
<glyph unicode="&#x67f;" horiz-adv-x="810" arabic-form="final" d="M425 0q-196 0 -281.5 76t-85.5 220q0 86 26 157l142 23q-35 -73 -35 -165q0 -109 55.5 -158t193.5 -49h135v366h132v-366h103v-104h-385zM331 696q-26 0 -44.5 18.5t-18.5 44.5t18.5 44.5t44.5 18.5t44.5 -18.5t18.5 -44.5q0 -25 -19 -44t-44 -19zM488 696 q-26 0 -44.5 18.5t-18.5 44.5t18.5 44.5t44.5 18.5t44.5 -18.5t18.5 -44.5q0 -25 -18.5 -44t-44.5 -19zM331 540q-26 0 -44.5 18.5t-18.5 44.5t18.5 44.5t44.5 18.5t44.5 -18.5t18.5 -44.5q0 -25 -19 -44t-44 -19zM488 540q-26 0 -44.5 18.5t-18.5 44.5t18.5 44.5t44.5 18.5 t44.5 -18.5t18.5 -44.5q0 -25 -18.5 -44t-44.5 -19z" />
<glyph unicode="&#x67f;" arabic-form="initial" d="M235 0h-250q-18 0 -39 15t-21 37q0 21 21 36.5t39 15.5h118v366h132v-470zM247 540q-26 0 -44.5 18.5t-18.5 44.5t18.5 44.5t44.5 18.5t44.5 -18.5t18.5 -44.5q0 -25 -19 -44t-44 -19zM90 540q-26 0 -44.5 18.5t-18.5 44.5t18.5 44.5t44.5 18.5t44.5 -18.5t18.5 -44.5 q0 -25 -18.5 -44t-44.5 -19zM247 696q-26 0 -44.5 18.5t-18.5 44.5t18.5 44.5t44.5 18.5t44.5 -18.5t18.5 -44.5q0 -25 -19 -44t-44 -19zM90 696q-26 0 -44.5 18.5t-18.5 44.5t18.5 44.5t44.5 18.5t44.5 -18.5t18.5 -44.5q0 -25 -18.5 -44t-44.5 -19z" />
<glyph unicode="&#x67f;" horiz-adv-x="338" arabic-form="medial" d="M-15 0q-18 0 -39 15t-21 37q0 21 21 36.5t39 15.5h118v366h132v-366h103v-104h-353zM90 696q-26 0 -44.5 18.5t-18.5 44.5t18.5 44.5t44.5 18.5t44.5 -18.5t18.5 -44.5q0 -25 -18.5 -44t-44.5 -19zM247 696q-26 0 -44.5 18.5t-18.5 44.5t18.5 44.5t44.5 18.5t44.5 -18.5 t18.5 -44.5q0 -25 -19 -44t-44 -19zM90 540q-26 0 -44.5 18.5t-18.5 44.5t18.5 44.5t44.5 18.5t44.5 -18.5t18.5 -44.5q0 -25 -18.5 -44t-44.5 -19zM247 540q-26 0 -44.5 18.5t-18.5 44.5t18.5 44.5t44.5 18.5t44.5 -18.5t18.5 -44.5q0 -25 -19 -44t-44 -19z" />
<glyph unicode="&#x679;" horiz-adv-x="810" arabic-form="final" d="M810 0h-385q-196 0 -281.5 76t-85.5 220q0 86 26 157l142 23q-35 -73 -35 -165q0 -109 55.5 -158t193.5 -49h135v366h132v-366h103v-104zM365 812v-77q0 -21 -9 -57h1q18 31 49.5 50.5t66.5 19.5q48 0 74 -25t26 -72q0 -56 -40 -88.5t-113 -32.5h-128v282h73zM499 644 q0 46 -35 46q-30 0 -59.5 -31.5t-39.5 -71.5h64q70 0 70 57z" />
<glyph unicode="&#x679;" arabic-form="initial" d="M235 0h-250q-18 0 -39 15t-21 37q0 21 21 36.5t39 15.5h118v366h132v-470zM234 674q0 46 -35 46q-30 0 -59.5 -31.5t-39.5 -71.5h64q70 0 70 57zM100 842v-77q0 -21 -9 -57h1q18 31 49.5 50.5t66.5 19.5q48 0 74 -25t26 -72q0 -56 -40 -88.5t-113 -32.5h-128v282h73z" />
<glyph unicode="&#x679;" horiz-adv-x="338" arabic-form="medial" d="M-15 0q-18 0 -39 15t-21 37q0 21 21 36.5t39 15.5h118v366h132v-366h103v-104h-353zM108 842v-77q0 -21 -9 -57h1q18 31 49.5 50.5t66.5 19.5q48 0 74 -25t26 -72q0 -56 -40 -88.5t-113 -32.5h-128v282h73zM242 674q0 46 -35 46q-30 0 -59.5 -31.5t-39.5 -71.5h64 q70 0 70 57z" />
<glyph unicode="&#x6a4;" horiz-adv-x="954" arabic-form="final" d="M954 104v-104h-529q-196 0 -281.5 76t-85.5 220q0 86 26 157l142 23q-35 -73 -35 -165q0 -107 53.5 -157t173.5 -50h32q-44 41 -44 130q0 109 70.5 179t183.5 70q110 0 171.5 -58.5t61.5 -174.5q0 -45 -15 -86.5t-43 -64.5q42 5 76 5h43zM760 243q0 136 -109 136 q-47 0 -80 -34t-33 -100q0 -141 111 -141q49 0 80 36t31 103zM504 598q0 26 19 45.5t46 19.5q26 0 45.5 -19t19.5 -46q0 -26 -19.5 -45.5t-45.5 -19.5q-27 0 -46 19t-19 46zM669 598q0 26 19.5 45.5t45.5 19.5q27 0 46 -19t19 -46q0 -26 -19 -45.5t-46 -19.5q-26 0 -45.5 19 t-19.5 46zM587 729q0 26 19 45.5t46 19.5t46 -19t19 -46q0 -26 -19 -45.5t-46 -19.5t-46 19t-19 46z" />
<glyph unicode="&#x6a4;" horiz-adv-x="612" arabic-form="initial" d="M548 0h-563q-18 0 -39 15t-21 37q0 21 21 36.5t39 15.5h77q16 0 30 -2t20 -4l6 -1q-56 41 -56 143t68.5 172.5t191.5 70.5q114 0 170 -60.5t56 -169.5v-253zM419 104v133q0 142 -107 142q-55 0 -87 -37.5t-32 -97.5q0 -71 36.5 -105.5t113.5 -34.5h76zM162 598 q0 26 19 45.5t46 19.5q26 0 45.5 -19t19.5 -46q0 -26 -19.5 -45.5t-45.5 -19.5q-27 0 -46 19t-19 46zM327 598q0 26 19.5 45.5t45.5 19.5q27 0 46 -19t19 -46q0 -26 -19 -45.5t-46 -19.5q-26 0 -45.5 19t-19.5 46zM245 729q0 26 19 45.5t46 19.5t46 -19t19 -46 q0 -26 -19 -45.5t-46 -19.5t-46 19t-19 46z" />
<glyph unicode="&#x6a4;" horiz-adv-x="609" arabic-form="medial" d="M609 0h-624q-18 0 -39 15t-21 37q0 21 21 36.5t39 15.5h60l62 -5q-47 47 -47 135q0 109 71 179t184 70q109 0 170.5 -58.5t61.5 -174.5q0 -45 -15 -86.5t-43 -64.5q42 5 77 5h43v-104zM303 104q49 0 80.5 36t31.5 103q0 136 -110 136q-47 0 -79.5 -34t-32.5 -100 q0 -141 110 -141zM158 598q0 26 19 45.5t46 19.5q26 0 45.5 -19t19.5 -46q0 -26 -19.5 -45.5t-45.5 -19.5q-27 0 -46 19t-19 46zM323 598q0 26 19.5 45.5t45.5 19.5q27 0 46 -19t19 -46q0 -26 -19 -45.5t-46 -19.5q-26 0 -45.5 19t-19.5 46zM241 729q0 26 19 45.5t46 19.5 t46 -19t19 -46q0 -26 -19 -45.5t-46 -19.5t-46 19t-19 46z" />
<glyph unicode="&#x6a6;" horiz-adv-x="954" arabic-form="final" d="M954 104v-104h-529q-196 0 -281.5 76t-85.5 220q0 86 26 157l142 23q-35 -73 -35 -165q0 -107 53.5 -157t173.5 -50h32q-44 41 -44 130q0 109 70.5 179t183.5 70q110 0 171.5 -58.5t61.5 -174.5q0 -45 -15 -86.5t-43 -64.5q42 5 76 5h43zM760 243q0 136 -109 136 q-47 0 -80 -34t-33 -100q0 -141 111 -141q49 0 80 36t31 103zM731 540q-26 0 -44.5 18.5t-18.5 44.5t18.5 44.5t44.5 18.5t44.5 -18.5t18.5 -44.5q0 -25 -19 -44t-44 -19zM574 540q-26 0 -44.5 18.5t-18.5 44.5t18.5 44.5t44.5 18.5t44.5 -18.5t18.5 -44.5q0 -25 -18.5 -44 t-44.5 -19zM731 696q-26 0 -44.5 18.5t-18.5 44.5t18.5 44.5t44.5 18.5t44.5 -18.5t18.5 -44.5q0 -25 -19 -44t-44 -19zM574 696q-26 0 -44.5 18.5t-18.5 44.5t18.5 44.5t44.5 18.5t44.5 -18.5t18.5 -44.5q0 -25 -18.5 -44t-44.5 -19z" />
<glyph unicode="&#x6a6;" horiz-adv-x="612" arabic-form="initial" d="M548 0h-563q-18 0 -39 15t-21 37q0 21 21 36.5t39 15.5h77q16 0 30 -2t20 -4l6 -1q-56 41 -56 143t68.5 172.5t191.5 70.5q114 0 170 -60.5t56 -169.5v-253zM419 104v133q0 142 -107 142q-55 0 -87 -37.5t-32 -97.5q0 -71 36.5 -105.5t113.5 -34.5h76zM388 540 q-26 0 -44.5 18.5t-18.5 44.5t18.5 44.5t44.5 18.5t44.5 -18.5t18.5 -44.5q0 -25 -18.5 -44t-44.5 -19zM231 540q-26 0 -44.5 18.5t-18.5 44.5t18.5 44.5t44.5 18.5t44.5 -18.5t18.5 -44.5q0 -25 -19 -44t-44 -19zM388 696q-26 0 -44.5 18.5t-18.5 44.5t18.5 44.5t44.5 18.5 t44.5 -18.5t18.5 -44.5q0 -25 -18.5 -44t-44.5 -19zM231 696q-26 0 -44.5 18.5t-18.5 44.5t18.5 44.5t44.5 18.5t44.5 -18.5t18.5 -44.5q0 -25 -19 -44t-44 -19z" />
<glyph unicode="&#x6a6;" horiz-adv-x="609" arabic-form="medial" d="M609 0h-624q-18 0 -39 15t-21 37q0 21 21 36.5t39 15.5h60l62 -5q-47 47 -47 135q0 109 71 179t184 70q109 0 170.5 -58.5t61.5 -174.5q0 -45 -15 -86.5t-43 -64.5q42 5 77 5h43v-104zM303 104q49 0 80.5 36t31.5 103q0 136 -110 136q-47 0 -79.5 -34t-32.5 -100 q0 -141 110 -141zM386 540q-26 0 -44.5 18.5t-18.5 44.5t18.5 44.5t44.5 18.5t44.5 -18.5t18.5 -44.5q0 -25 -18.5 -44t-44.5 -19zM229 540q-26 0 -44.5 18.5t-18.5 44.5t18.5 44.5t44.5 18.5t44.5 -18.5t18.5 -44.5q0 -25 -19 -44t-44 -19zM386 696q-26 0 -44.5 18.5 t-18.5 44.5t18.5 44.5t44.5 18.5t44.5 -18.5t18.5 -44.5q0 -25 -18.5 -44t-44.5 -19zM229 696q-26 0 -44.5 18.5t-18.5 44.5t18.5 44.5t44.5 18.5t44.5 -18.5t18.5 -44.5q0 -25 -19 -44t-44 -19z" />
<glyph unicode="&#x684;" horiz-adv-x="633" arabic-form="final" d="M348 0q-188 0 -188 -112q0 -39 26.5 -65t78.5 -35l-29 -106q-97 16 -152 66.5t-55 131.5q0 102 80 163t244 61h85q5 40 5 76q0 98 -45 145t-150 47q-57 0 -115 -8v103q68 9 127 9q165 0 239.5 -72t74.5 -219q0 -42 -4 -81h63v-104h-285zM380 -291q-26 0 -42.5 16.5 t-16.5 42.5t16.5 42.5t42.5 16.5q25 0 42 -16.5t17 -42.5q0 -25 -17 -42t-42 -17zM380 -151q-26 0 -42.5 16.5t-16.5 42.5q0 25 17 42t42 17t42 -17t17 -42t-17 -42t-42 -17z" />
<glyph unicode="&#x684;" horiz-adv-x="528" arabic-form="initial" d="M453 0h-468q-18 0 -39 15t-21 37q0 21 21 36.5t39 15.5h349q5 40 5 76q0 98 -45 145t-150 47q-52 0 -112 -10v103q60 11 124 11q165 0 239.5 -72t74.5 -219q0 -83 -17 -185zM191 -291q-25 0 -42 16.5t-17 42.5t17 42.5t42 16.5t42 -16.5t17 -42.5q0 -25 -17 -42t-42 -17z M191 -151q-25 0 -42 16.5t-17 42.5q0 25 17 42t42 17t42 -17t17 -42t-17 -42t-42 -17z" />
<glyph unicode="&#x684;" horiz-adv-x="529" arabic-form="medial" d="M529 0h-544q-18 0 -39 15t-21 37q0 21 21 36.5t39 15.5h349q5 40 5 76q0 98 -45 145t-150 47q-52 0 -112 -10v103q60 11 124 11q165 0 239.5 -72t74.5 -219q0 -42 -4 -81h63v-104zM191 -291q-25 0 -42 16.5t-17 42.5t17 42.5t42 16.5t42 -16.5t17 -42.5q0 -25 -17 -42 t-42 -17zM191 -151q-25 0 -42 16.5t-17 42.5q0 25 17 42t42 17t42 -17t17 -42t-17 -42t-42 -17z" />
<glyph unicode="&#x683;" horiz-adv-x="633" arabic-form="final" d="M633 0h-285q-188 0 -188 -112q0 -39 26.5 -65t78.5 -35l-29 -106q-97 16 -152 66.5t-55 131.5q0 102 80 163t244 61h85q5 40 5 76q0 98 -45 145t-150 47q-57 0 -115 -8v103q68 9 127 9q165 0 239.5 -72t74.5 -219q0 -42 -4 -81h63v-104zM434 -138q0 27 19 46t46 19 q26 0 45.5 -19t19.5 -46q0 -26 -19 -45.5t-46 -19.5t-46 19t-19 46zM274 -138q0 27 19 46t46 19q26 0 45.5 -19t19.5 -46q0 -26 -19 -45.5t-46 -19.5t-46 19t-19 46z" />
<glyph unicode="&#x683;" horiz-adv-x="528" arabic-form="initial" d="M453 0h-468q-18 0 -39 15t-21 37q0 21 21 36.5t39 15.5h349q5 40 5 76q0 98 -45 145t-150 47q-52 0 -112 -10v103q60 11 124 11q165 0 239.5 -72t74.5 -219q0 -83 -17 -185zM78 -138q0 27 19 46t46 19q26 0 45.5 -19t19.5 -46q0 -26 -19 -45.5t-46 -19.5t-46 19t-19 46z M238 -138q0 27 19 46t46 19q26 0 45.5 -19t19.5 -46q0 -26 -19 -45.5t-46 -19.5t-46 19t-19 46z" />
<glyph unicode="&#x683;" horiz-adv-x="529" arabic-form="medial" d="M529 0h-544q-18 0 -39 15t-21 37q0 21 21 36.5t39 15.5h349q5 40 5 76q0 98 -45 145t-150 47q-52 0 -112 -10v103q60 11 124 11q165 0 239.5 -72t74.5 -219q0 -42 -4 -81h63v-104zM238 -138q0 27 19 46t46 19q26 0 45.5 -19t19.5 -46q0 -26 -19 -45.5t-46 -19.5t-46 19 t-19 46zM78 -138q0 27 19 46t46 19q26 0 45.5 -19t19.5 -46q0 -26 -19 -45.5t-46 -19.5t-46 19t-19 46z" />
<glyph unicode="&#x686;" horiz-adv-x="633" arabic-form="final" d="M633 0h-285q-188 0 -188 -112q0 -39 26.5 -65t78.5 -35l-29 -106q-97 16 -152 66.5t-55 131.5q0 102 80 163t244 61h85q5 40 5 76q0 98 -45 145t-150 47q-57 0 -115 -8v103q68 9 127 9q165 0 239.5 -72t74.5 -219q0 -42 -4 -81h63v-104zM356 -226q0 26 19 45.5t46 19.5 q26 0 45.5 -19t19.5 -46q0 -26 -19.5 -45.5t-45.5 -19.5q-28 0 -46.5 19t-18.5 46zM436 -101q0 26 18.5 44.5t44.5 18.5t44.5 -18.5t18.5 -44.5t-18 -44.5t-45 -18.5q-26 0 -44.5 18.5t-18.5 44.5zM280 -101q0 26 18.5 44.5t44.5 18.5t44.5 -18.5t18.5 -44.5t-18 -44.5 t-45 -18.5q-26 0 -44.5 18.5t-18.5 44.5z" />
<glyph unicode="&#x686;" horiz-adv-x="528" arabic-form="initial" d="M453 0h-468q-18 0 -39 15t-21 37q0 21 21 36.5t39 15.5h349q5 40 5 76q0 98 -45 145t-150 47q-52 0 -112 -10v103q60 11 124 11q165 0 239.5 -72t74.5 -219q0 -83 -17 -185zM152 -226q0 26 19 45.5t46 19.5q26 0 45.5 -19t19.5 -46q0 -26 -19.5 -45.5t-45.5 -19.5 q-28 0 -46.5 19t-18.5 46zM232 -101q0 26 18.5 44.5t44.5 18.5t44.5 -18.5t18.5 -44.5t-18 -44.5t-45 -18.5q-26 0 -44.5 18.5t-18.5 44.5zM76 -101q0 26 18.5 44.5t44.5 18.5t44.5 -18.5t18.5 -44.5t-18 -44.5t-45 -18.5q-26 0 -44.5 18.5t-18.5 44.5z" />
<glyph unicode="&#x686;" horiz-adv-x="529" arabic-form="medial" d="M-15 0q-18 0 -39 15t-21 37q0 21 21 36.5t39 15.5h349q5 40 5 76q0 98 -45 145t-150 47q-52 0 -112 -10v103q60 11 124 11q165 0 239.5 -72t74.5 -219q0 -42 -4 -81h63v-104h-544zM152 -226q0 26 19 45.5t46 19.5q26 0 45.5 -19t19.5 -46q0 -26 -19.5 -45.5t-45.5 -19.5 q-28 0 -46.5 19t-18.5 46zM232 -101q0 26 18.5 44.5t44.5 18.5t44.5 -18.5t18.5 -44.5t-18 -44.5t-45 -18.5q-26 0 -44.5 18.5t-18.5 44.5zM76 -101q0 26 18.5 44.5t44.5 18.5t44.5 -18.5t18.5 -44.5t-18 -44.5t-45 -18.5q-26 0 -44.5 18.5t-18.5 44.5z" />
<glyph unicode="&#x687;" horiz-adv-x="633" arabic-form="final" d="M633 0h-285q-188 0 -188 -112q0 -39 26.5 -65t78.5 -35l-29 -106q-97 16 -152 66.5t-55 131.5q0 102 80 163t244 61h85q5 40 5 76q0 98 -45 145t-150 47q-57 0 -115 -8v103q68 9 127 9q165 0 239.5 -72t74.5 -219q0 -42 -4 -81h63v-104zM342 -152q-24 0 -41 17t-17 42 q0 24 17 41.5t41 17.5q25 0 42 -17t17 -42t-17 -42t-42 -17zM481 -152q-24 0 -41 17t-17 42q0 24 17 41.5t41 17.5q25 0 42 -17t17 -42t-17 -42t-42 -17zM342 -291q-24 0 -41 16.5t-17 41.5t17 42t41 17q25 0 42 -17t17 -42q0 -24 -17 -41t-42 -17zM481 -291q-24 0 -41 16.5 t-17 41.5t17 42t41 17q25 0 42 -17t17 -42q0 -24 -17 -41t-42 -17z" />
<glyph unicode="&#x687;" horiz-adv-x="528" arabic-form="initial" d="M453 0h-468q-18 0 -39 15t-21 37q0 21 21 36.5t39 15.5h349q5 40 5 76q0 98 -45 145t-150 47q-52 0 -112 -10v103q60 11 124 11q165 0 239.5 -72t74.5 -219q0 -83 -17 -185zM160 -291q-24 0 -41 16.5t-17 41.5t17 42t41 17q25 0 42 -17t17 -42q0 -24 -17 -41t-42 -17z M160 -152q-24 0 -41 17t-17 42q0 24 17 41.5t41 17.5q25 0 42 -17t17 -42t-17 -42t-42 -17zM299 -291q-24 0 -41 16.5t-17 41.5t17 42t41 17q25 0 42 -17t17 -42q0 -24 -17 -41t-42 -17zM299 -152q-24 0 -41 17t-17 42q0 24 17 41.5t41 17.5q25 0 42 -17t17 -42t-17 -42 t-42 -17z" />
<glyph unicode="&#x687;" horiz-adv-x="529" arabic-form="medial" d="M529 0h-544q-18 0 -39 15t-21 37q0 21 21 36.5t39 15.5h349q5 40 5 76q0 98 -45 145t-150 47q-52 0 -112 -10v103q60 11 124 11q165 0 239.5 -72t74.5 -219q0 -42 -4 -81h63v-104zM160 -152q-24 0 -41 17t-17 42q0 24 17 41.5t41 17.5q25 0 42 -17t17 -42t-17 -42 t-42 -17zM299 -152q-24 0 -41 17t-17 42q0 24 17 41.5t41 17.5q25 0 42 -17t17 -42t-17 -42t-42 -17zM160 -291q-24 0 -41 16.5t-17 41.5t17 42t41 17q25 0 42 -17t17 -42q0 -24 -17 -41t-42 -17zM299 -291q-24 0 -41 16.5t-17 41.5t17 42t41 17q25 0 42 -17t17 -42 q0 -24 -17 -41t-42 -17z" />
<glyph unicode="&#x68d;" horiz-adv-x="527" arabic-form="final" d="M46 0v104h296q-5 112 -62 181t-174 99l32 110q159 -42 241.5 -134.5t91.5 -255.5h56v-104h-481zM273 -138q0 27 19 46t46 19q26 0 45.5 -19t19.5 -46q0 -26 -19 -45.5t-46 -19.5t-46 19t-19 46zM113 -138q0 27 19 46t46 19q26 0 45.5 -19t19.5 -46q0 -26 -19 -45.5 t-46 -19.5t-46 19t-19 46z" />
<glyph unicode="&#x68c;" horiz-adv-x="527" arabic-form="final" d="M46 0v104h296q-5 112 -62 181t-174 99l32 110q159 -42 241.5 -134.5t91.5 -255.5h56v-104h-481zM9 603q0 26 19 45.5t46 19.5t46 -18.5t19 -46.5q0 -27 -18.5 -46t-46.5 -19t-46.5 19t-18.5 46zM169 603q0 26 19 45.5t46 19.5q26 0 45.5 -19t19.5 -46q0 -26 -19 -45.5 t-46 -19.5t-46 19t-19 46z" />
<glyph unicode="&#x68e;" horiz-adv-x="527" arabic-form="final" d="M46 0v104h296q-5 112 -62 181t-174 99l32 110q159 -42 241.5 -134.5t91.5 -255.5h56v-104h-481zM137 729q0 26 19 45.5t46 19.5t46 -19t19 -46q0 -26 -19 -45.5t-46 -19.5t-46 19t-19 46zM219 598q0 26 19.5 45.5t45.5 19.5q27 0 46 -19t19 -46q0 -26 -19 -45.5 t-46 -19.5q-26 0 -45.5 19t-19.5 46zM54 598q0 26 19 45.5t46 19.5q26 0 45.5 -19t19.5 -46q0 -26 -19.5 -45.5t-45.5 -19.5q-27 0 -46 19t-19 46z" />
<glyph unicode="&#x688;" horiz-adv-x="527" arabic-form="final" d="M46 0v104h296q-5 112 -62 181t-174 99l32 110q159 -42 241.5 -134.5t91.5 -255.5h56v-104h-481zM180 842v-77q0 -21 -9 -57h1q18 31 49.5 50.5t66.5 19.5q48 0 74 -25t26 -72q0 -56 -40 -88.5t-113 -32.5h-128v282h73zM314 674q0 46 -35 46q-30 0 -59.5 -31.5 t-39.5 -71.5h64q70 0 70 57z" />
<glyph unicode="&#x698;" horiz-adv-x="426" arabic-form="final" d="M76 -254q-44 0 -84 10l10 105q41 -12 81 -12q54 0 81 31.5t27 108.5v481h132v-366h103v-104h-103v-4q0 -53 -10.5 -94t-36.5 -78t-76.5 -57.5t-123.5 -20.5zM190 729q0 26 19 45.5t46 19.5t46 -19t19 -46q0 -26 -19 -45.5t-46 -19.5t-46 19t-19 46zM107 598q0 26 19 45.5 t46 19.5q26 0 45.5 -19t19.5 -46q0 -26 -19.5 -45.5t-45.5 -19.5q-27 0 -46 19t-19 46zM272 598q0 26 19.5 45.5t45.5 19.5q27 0 46 -19t19 -46q0 -26 -19 -45.5t-46 -19.5q-26 0 -45.5 19t-19.5 46z" />
<glyph unicode="&#x691;" horiz-adv-x="426" arabic-form="final" d="M76 -254q-44 0 -84 10l10 105q41 -12 81 -12q54 0 81 31.5t27 108.5v481h132v-366h103v-104h-103v-4q0 -53 -10.5 -94t-36.5 -78t-76.5 -57.5t-123.5 -20.5zM189 842v-77q0 -21 -9 -57h1q18 31 49.5 50.5t66.5 19.5q48 0 74 -25t26 -72q0 -56 -40 -88.5t-113 -32.5h-128 v282h73zM323 674q0 46 -35 46q-30 0 -59.5 -31.5t-39.5 -71.5h64q70 0 70 57z" />
<glyph unicode="&#x6a9;" horiz-adv-x="849" arabic-form="final" d="M425 0q-196 0 -281.5 76t-85.5 220q0 86 26 157l142 23q-35 -73 -35 -165q0 -109 55.5 -158t193.5 -49h220q-4 116 -64.5 185t-179.5 97v97l396 248v-131l-245 -147q209 -94 222 -349h60v-104h-424z" />
<glyph unicode="&#x6a9;" horiz-adv-x="465" arabic-form="initial" d="M396 0h-411q-18 0 -39 15t-21 37q0 21 21 36.5t39 15.5h281q-7 227 -244 282v97l396 248v-131l-244 -147q107 -48 164.5 -139.5t57.5 -246.5v-67z" />
<glyph unicode="&#x6a9;" horiz-adv-x="455" arabic-form="medial" d="M-15 0q-18 0 -39 15t-21 37q0 21 21 36.5t39 15.5h281q-7 227 -244 282v97l396 248v-131l-244 -147q101 -46 157.5 -129t63.5 -220h60v-104h-470z" />
<glyph unicode="&#x6af;" horiz-adv-x="849" arabic-form="final" d="M425 0q-196 0 -281.5 76t-85.5 220q0 86 26 157l142 23q-35 -73 -35 -165q0 -109 55.5 -158t193.5 -49h220q-4 116 -64.5 185t-179.5 97v89l396 249v-124l-245 -147q209 -94 222 -349h60v-104h-424zM416 553v113l396 249v-114z" />
<glyph unicode="&#x6af;" horiz-adv-x="465" arabic-form="initial" d="M396 0h-411q-18 0 -39 15t-21 37q0 21 21 36.5t39 15.5h281q-7 227 -244 282v89l396 249v-124l-244 -147q107 -48 164.5 -139.5t57.5 -246.5v-67zM22 533v113l396 248v-113z" />
<glyph unicode="&#x6af;" horiz-adv-x="455" arabic-form="medial" d="M-15 0q-18 0 -39 15t-21 37q0 21 21 36.5t39 15.5h281q-7 227 -244 282v89l396 249v-124l-244 -147q101 -46 157.5 -129t63.5 -220h60v-104h-470zM22 533v113l396 248v-113z" />
<glyph unicode="&#x6b3;" horiz-adv-x="849" arabic-form="final" d="M849 0h-424q-196 0 -281.5 76t-85.5 220q0 86 26 157l142 23q-35 -73 -35 -165q0 -109 55.5 -158t193.5 -49h220q-4 116 -64.5 185t-179.5 97v89l396 249v-124l-245 -147q209 -94 222 -349h60v-104zM416 553v113l396 249v-114zM450 -291q-26 0 -42.5 16.5t-16.5 42.5 t16.5 42.5t42.5 16.5q25 0 42 -16.5t17 -42.5q0 -25 -17 -42t-42 -17zM450 -151q-26 0 -42.5 16.5t-16.5 42.5q0 25 17 42t42 17t42 -17t17 -42t-17 -42t-42 -17z" />
<glyph unicode="&#x6b3;" horiz-adv-x="465" arabic-form="initial" d="M396 0h-411q-18 0 -39 15t-21 37q0 21 21 36.5t39 15.5h281q-7 227 -244 282v89l396 249v-124l-244 -147q107 -48 164.5 -139.5t57.5 -246.5v-67zM22 533v113l396 248v-113zM195 -291q-25 0 -42 16.5t-17 42.5t17 42.5t42 16.5t42 -16.5t17 -42.5q0 -25 -17 -42t-42 -17z M195 -151q-25 0 -42 16.5t-17 42.5q0 25 17 42t42 17t42 -17t17 -42t-17 -42t-42 -17z" />
<glyph unicode="&#x6b3;" horiz-adv-x="455" arabic-form="medial" d="M-15 0q-18 0 -39 15t-21 37q0 21 21 36.5t39 15.5h281q-7 227 -244 282v89l396 249v-124l-244 -147q101 -46 157.5 -129t63.5 -220h60v-104h-470zM22 533v113l396 248v-113zM195 -291q-25 0 -42 16.5t-17 42.5t17 42.5t42 16.5t42 -16.5t17 -42.5q0 -25 -17 -42t-42 -17z M195 -151q-25 0 -42 16.5t-17 42.5q0 25 17 42t42 17t42 -17t17 -42t-17 -42t-42 -17z" />
<glyph unicode="&#x6b1;" horiz-adv-x="849" arabic-form="final" d="M425 0q-196 0 -281.5 76t-85.5 220q0 86 26 157l142 23q-35 -73 -35 -165q0 -109 55.5 -158t193.5 -49h220q-4 116 -64.5 185t-179.5 97v89l396 249v-124l-245 -147q209 -94 222 -349h60v-104h-424zM416 553v113l396 249v-114zM439 769q-24 0 -41.5 17t-17.5 42 q0 24 17 41.5t42 17.5t42 -17t17 -42t-17 -42t-42 -17zM577 835q-25 0 -42 17t-17 42q0 24 17 41.5t42 17.5q24 0 41.5 -17t17.5 -42t-17.5 -42t-41.5 -17z" />
<glyph unicode="&#x6b1;" horiz-adv-x="465" arabic-form="initial" d="M396 0h-411q-18 0 -39 15t-21 37q0 21 21 36.5t39 15.5h281q-7 227 -244 282v89l396 226v-124l-248 -136q226 -87 226 -374v-67zM22 535v113l396 225v-113zM202 801q-25 0 -42 17t-17 42q0 24 17 41.5t42 17.5q24 0 41.5 -17t17.5 -42t-17.5 -42t-41.5 -17zM64 735 q-24 0 -41.5 17t-17.5 42q0 24 17 41.5t42 17.5t42 -17t17 -42t-17 -42t-42 -17z" />
<glyph unicode="&#x6b1;" horiz-adv-x="455" arabic-form="medial" d="M455 0h-470q-18 0 -39 15t-21 37q0 21 21 36.5t39 15.5h281q-7 227 -244 282v89l396 226v-124l-248 -136q210 -81 225 -337h60v-104zM22 535v113l396 225v-113zM64 735q-24 0 -41.5 17t-17.5 42q0 24 17 41.5t42 17.5t42 -17t17 -42t-17 -42t-42 -17zM202 801 q-25 0 -42 17t-17 42q0 24 17 41.5t42 17.5q24 0 41.5 -17t17.5 -42t-17.5 -42t-41.5 -17z" />
<glyph unicode="&#x6ba;" horiz-adv-x="703" arabic-form="final" d="M600 470v-366h103v-104h-108q-30 -230 -278 -230q-124 0 -193.5 69.5t-69.5 214.5q0 90 23 179l137 25q-28 -94 -28 -192q0 -105 40.5 -149t101.5 -44q69 0 104.5 43.5t35.5 146.5v407h132z" />
<glyph unicode="&#x6bb;" horiz-adv-x="703" arabic-form="final" d="M600 470v-366h103v-104h-108q-30 -230 -278 -230q-124 0 -193.5 69.5t-69.5 214.5q0 90 23 179l137 25q-28 -94 -28 -192q0 -105 40.5 -149t101.5 -44q69 0 104.5 43.5t35.5 146.5v407h132zM202 638v-77q0 -21 -9 -57h1q18 31 49.5 50.5t66.5 19.5q48 0 74 -25t26 -72 q0 -56 -40 -88.5t-113 -32.5h-128v282h73zM336 470q0 46 -35 46q-30 0 -59.5 -31.5t-39.5 -71.5h64q70 0 70 57z" />
<glyph unicode="&#x6bb;" arabic-form="initial" d="M235 0h-250q-18 0 -39 15t-21 37q0 21 21 36.5t39 15.5h118v366h132v-470zM239 674q0 46 -35 46q-30 0 -59.5 -31.5t-39.5 -71.5h64q70 0 70 57zM105 842v-77q0 -21 -9 -57h1q18 31 49.5 50.5t66.5 19.5q48 0 74 -25t26 -72q0 -56 -40 -88.5t-113 -32.5h-128v282h73z" />
<glyph unicode="&#x6bb;" horiz-adv-x="338" arabic-form="medial" d="M338 0h-353q-18 0 -39 15t-21 37q0 21 21 36.5t39 15.5h118v366h132v-366h103v-104zM114 842v-77q0 -21 -9 -57h1q18 31 49.5 50.5t66.5 19.5q48 0 74 -25t26 -72q0 -56 -40 -88.5t-113 -32.5h-128v282h73zM248 674q0 46 -35 46q-30 0 -59.5 -31.5t-39.5 -71.5h64 q70 0 70 57z" />
<glyph unicode="&#x6c0;" horiz-adv-x="628" arabic-form="final" d="M628 0h-310q-267 0 -267 232q0 106 67 178.5t197 72.5q53 0 105.5 -8.5t78.5 -17.5l26 -9v-344h103v-104zM397 104v257q-38 18 -95 18q-55 0 -87 -37.5t-32 -97.5q0 -140 150 -140h64zM164 550v72q32 0 60 -6q-25 13 -25 44q0 42 37 72.5t110 30.5q17 0 59 -6l-13 -70 q-30 6 -54 6q-49 0 -49 -34q0 -37 72 -37h61v-72h-258z" />
<glyph unicode="&#x6c1;" horiz-adv-x="602" arabic-form="isolated" d="M537 0h-219q-267 0 -267 231q0 108 68 180t192 72q114 0 170 -60.5t56 -169.5v-253zM409 104v133q0 142 -107 142q-55 0 -87 -37.5t-32 -97.5q0 -71 36.5 -105.5t113.5 -34.5h76z" />
<glyph unicode="&#x6c1;" horiz-adv-x="524" arabic-form="final" d="M524 104v-104h-15q-105 0 -162 53.5t-57 157.5v30q-111 -23 -195 -153l-83 68q139 200 356 200l49 -2v-111q0 -75 26 -107t79 -32h2z" />
<glyph unicode="&#x6c1;" arabic-form="initial" d="M235 0h-250q-18 0 -39 15t-21 37q0 21 21 36.5t39 15.5h118v366h132v-470zM89 -242q-28 0 -44.5 18.5t-16.5 47.5q0 39 34.5 75t105.5 54l21 -46q-50 -26 -50 -54q0 -9 4.5 -20t4.5 -19q0 -23 -16 -39.5t-43 -16.5z" />
<glyph unicode="&#x6c1;" horiz-adv-x="690" arabic-form="medial" d="M690 104v-104h-95v-260h-121q-144 0 -219.5 67.5t-75.5 189.5q0 52 8 84l-2 1q-44 -82 -146 -82h-54q-18 0 -39 15t-21 37q0 21 21 36.5t39 15.5h55q70 0 103 49t33 131v86h127v-343q0 -183 164 -184v261h223zM63 -267q-30 0 -47.5 20.5t-17.5 51.5q0 81 100 149l37 -37 q-36 -35 -36 -63q0 -11 11 -28.5t11 -36.5q0 -22 -16.5 -39t-41.5 -17z" />
<glyph unicode="&#x6be;" horiz-adv-x="793" arabic-form="final" d="M793 0h-763v104h83l46 -5q-25 24 -25 71q0 75 51.5 121.5t140.5 46.5q94 0 139 -59t45 -152v-23h100v12q0 156 -67 227.5t-215 71.5q-95 0 -214 -39l-13 103q120 39 243 39q193 0 292.5 -98.5t99.5 -312.5v-3h57v-104zM402 100v29q0 118 -86 118q-35 0 -55 -18.5 t-20 -49.5q0 -40 27 -59.5t68 -19.5h66z" />
<glyph unicode="&#x6be;" horiz-adv-x="759" arabic-form="initial" d="M695 0h-710q-18 0 -39 15t-21 37q0 21 21 36.5t39 15.5h87l46 -5q-25 24 -25 71q0 74 51.5 121t140.5 47q94 0 139 -59t45 -152v-23h100v12q0 156 -67 227.5t-215 71.5q-97 0 -214 -39l-13 103q122 39 243 39q193 0 292.5 -98.5t99.5 -312.5v-107zM361 100v29 q0 118 -86 118q-35 0 -55 -18.5t-20 -49.5q0 -40 27 -59.5t68 -19.5h66z" />
<glyph unicode="&#x6be;" horiz-adv-x="752" arabic-form="medial" d="M-15 0q-18 0 -39 15t-21 37q0 21 21 36.5t39 15.5h87l46 -5q-25 24 -25 71q0 74 51.5 121t140.5 47q94 0 139 -59t45 -152v-23h100v12q0 156 -67 227.5t-215 71.5q-97 0 -214 -39l-13 103q122 39 243 39q193 0 292.5 -98.5t99.5 -312.5v-3h57v-104h-767zM361 100v29 q0 118 -86 118q-35 0 -55 -18.5t-20 -49.5q0 -40 27 -59.5t68 -19.5h66z" />
<glyph unicode="&#x6d2;" horiz-adv-x="754" arabic-form="final" d="M657 -320h-630q-9 84 12.5 160t70 135t130 94t183.5 35h331v-104h-348q-118 0 -185 -68t-67 -148h503v-104z" />
<glyph unicode="&#x6d3;" horiz-adv-x="756" arabic-form="final" d="M659 -320h-630q-9 84 12.5 160t70 135t130 94t183.5 35h331v-104h-348q-118 0 -185 -68t-67 -148h503v-104zM54 154v72q32 0 60 -6q-25 13 -25 44q0 42 37 72.5t110 30.5q17 0 59 -6l-13 -70q-30 6 -54 6q-49 0 -49 -34q0 -37 72 -37h61v-72h-258z" />
<glyph unicode="&#x6ad;" horiz-adv-x="930" arabic-form="final" d="M425 0q-196 0 -281.5 76t-85.5 220q0 86 26 157l142 23q-35 -73 -35 -165q0 -109 55.5 -158t193.5 -49h255v601h132v-601h103v-104h-505zM317 322v72q32 0 60 -6q-25 13 -25 44q0 42 37 72.5t110 30.5q17 0 59 -6l-13 -70q-30 6 -54 6q-49 0 -49 -34q0 -37 72 -37h61v-72 h-258zM394 772q0 26 19 45.5t46 19.5t46 -19t19 -46q0 -26 -19 -45.5t-46 -19.5t-46 19t-19 46zM311 641q0 26 19 45.5t46 19.5q26 0 45.5 -19t19.5 -46q0 -26 -19.5 -45.5t-45.5 -19.5q-27 0 -46 19t-19 46zM476 641q0 26 19.5 45.5t45.5 19.5q27 0 46 -19t19 -46 q0 -26 -19 -45.5t-46 -19.5q-26 0 -45.5 19t-19.5 46z" />
<glyph unicode="&#x6ad;" horiz-adv-x="465" arabic-form="initial" d="M396 0h-411q-18 0 -39 15t-21 37q0 21 21 36.5t39 15.5h281q-8 233 -244 288v97l396 216v-128l-244 -130q108 -48 165 -137t57 -243v-67zM189 684q0 -26 -18.5 -44t-43.5 -18q-26 0 -44 18t-18 44t18 44t44 18t44 -18t18 -44zM335 746q0 -26 -18 -44t-44 -18 q-25 0 -43.5 18t-18.5 44t18 44t44 18t44 -18t18 -44zM211 832q0 -26 -18 -44t-44 -18q-25 0 -43.5 18t-18.5 44t18.5 44t43.5 18q26 0 44 -18t18 -44z" />
<glyph unicode="&#x6ad;" horiz-adv-x="455" arabic-form="medial" d="M455 0h-470q-18 0 -39 15t-21 37q0 21 21 36.5t39 15.5h281q-8 233 -244 288v97l396 216v-128l-244 -130q102 -46 158 -126t63 -217h60v-104zM335 746q0 -26 -18 -44t-44 -18q-25 0 -43.5 18t-18.5 44t18 44t44 18t44 -18t18 -44zM189 684q0 -26 -18.5 -44t-43.5 -18 q-26 0 -44 18t-18 44t18 44t44 18t44 -18t18 -44zM211 832q0 -26 -18 -44t-44 -18q-25 0 -43.5 18t-18.5 44t18.5 44t43.5 18q26 0 44 -18t18 -44z" />
<glyph unicode="&#x6c7;" horiz-adv-x="628" arabic-form="final" d="M212 -252q-33 0 -71 3t-59 7l-22 3l8 108q78 -17 156 -17q173 0 173 133v15h-79q-267 0 -267 232q0 106 67 178.5t197 72.5q53 0 105.5 -8.5t78.5 -17.5l26 -9v-344h103v-104h-103v-2q0 -111 -77 -180.5t-236 -69.5zM397 104v257q-38 18 -95 18q-55 0 -87 -37.5 t-32 -97.5q0 -140 150 -140h64zM166 585v51l71 9q-5 11 -5 26q0 36 28.5 59.5t68.5 23.5q34 0 58 -18.5t24 -52.5q0 -66 -101 -79zM292 651l20 2q42 4 42 29t-29 25q-17 0 -26.5 -10.5t-9.5 -26.5z" />
<glyph unicode="&#x6c6;" horiz-adv-x="628" arabic-form="final" d="M212 -252q-33 0 -71 3t-59 7l-22 3l8 108q78 -17 156 -17q173 0 173 133v15h-79q-267 0 -267 232q0 106 67 178.5t197 72.5q53 0 105.5 -8.5t78.5 -17.5l26 -9v-344h103v-104h-103v-2q0 -111 -77 -180.5t-236 -69.5zM397 104v257q-38 18 -95 18q-55 0 -87 -37.5 t-32 -97.5q0 -140 150 -140h64zM463 695l-154 -135l-153 134l50 60l104 -82l103 82z" />
<glyph unicode="&#x6c8;" horiz-adv-x="628" arabic-form="final" d="M212 -252q-33 0 -71 3t-59 7l-22 3l8 108q78 -17 156 -17q173 0 173 133v15h-79q-267 0 -267 232q0 106 67 178.5t197 72.5q53 0 105.5 -8.5t78.5 -17.5l26 -9v-344h103v-104h-103v-2q0 -111 -77 -180.5t-236 -69.5zM397 104v257q-38 18 -95 18q-55 0 -87 -37.5 t-32 -97.5q0 -140 150 -140h64zM340 619l-85 -14v236h85v-222z" />
<glyph unicode="&#x677;" horiz-adv-x="605" arabic-form="isolated" d="M37 518v65l49 10q-8 18 -8 40q0 47 34 77t83 30q46 0 72 -24t26 -62q0 -80 -111 -105zM153 607l21 4q27 6 38.5 14.5t11.5 23.5q0 30 -33 30q-19 0 -32 -12.5t-13 -32.5q0 -8 2 -15t4 -9zM338 562v62q38 0 57 -4q-22 12 -22 42q0 37 33 64.5t99 27.5q15 0 50 -5l-11 -61 q-1 0 -17 2t-27 2q-46 0 -46 -33q0 -35 66 -35h50v-62h-232zM212 -252q-33 0 -71 3t-59 7l-22 3l8 108q78 -17 156 -17q173 0 173 133v15h-79q-267 0 -267 232q0 106 67 178.5t197 72.5q53 0 105.5 -8.5t78.5 -17.5l26 -9v-450q0 -111 -77 -180.5t-236 -69.5zM397 104v257 q-38 18 -95 18q-55 0 -87 -37.5t-32 -97.5q0 -140 150 -140h64z" />
<glyph unicode="&#x6cb;" horiz-adv-x="628" arabic-form="final" d="M212 -252q-33 0 -71 3t-59 7l-22 3l8 108q78 -17 156 -17q173 0 173 133v15h-79q-267 0 -267 232q0 106 67 178.5t197 72.5q53 0 105.5 -8.5t78.5 -17.5l26 -9v-344h103v-104h-103v-2q0 -111 -77 -180.5t-236 -69.5zM397 104v257q-38 18 -95 18q-55 0 -87 -37.5 t-32 -97.5q0 -140 150 -140h64zM246 729q0 26 19 45.5t46 19.5t46 -19t19 -46q0 -26 -19 -45.5t-46 -19.5t-46 19t-19 46zM328 598q0 26 19.5 45.5t45.5 19.5q27 0 46 -19t19 -46q0 -26 -19 -45.5t-46 -19.5q-26 0 -45.5 19t-19.5 46zM163 598q0 26 19 45.5t46 19.5 q26 0 45.5 -19t19.5 -46q0 -26 -19.5 -45.5t-45.5 -19.5q-27 0 -46 19t-19 46z" />
<glyph unicode="&#x6c5;" horiz-adv-x="605" arabic-form="isolated" d="M146 -111v82q168 0 233 -72q18 37 18 91v15l-79 1q-142 4 -204.5 60t-62.5 166q0 106 67 178.5t197 72.5q53 0 105.5 -8.5t78.5 -17.5l26 -9v-450q0 -290 -313 -290q-33 0 -72.5 3t-62.5 7l-23 3l8 108q84 -17 162 -17q53 0 93 20q-20 32 -60.5 45t-110.5 12zM397 108 v253q-38 18 -95 18q-55 0 -87 -37.5t-32 -97.5q0 -68 35.5 -100.5t114.5 -34.5z" />
<glyph unicode="&#x6c5;" horiz-adv-x="628" arabic-form="final" d="M146 -111v82q168 0 233 -72q18 37 18 91v15l-79 1q-142 4 -204.5 60t-62.5 166q0 106 67 178.5t197 72.5q53 0 105.5 -8.5t78.5 -17.5l26 -9v-344h103v-104h-103v-2q0 -290 -313 -290q-33 0 -72.5 3t-62.5 7l-23 3l8 108q84 -17 162 -17q53 0 93 20q-20 32 -60.5 45 t-110.5 12zM397 108v253q-38 18 -95 18q-55 0 -87 -37.5t-32 -97.5q0 -68 35.5 -100.5t114.5 -34.5z" />
<glyph unicode="&#x6c9;" horiz-adv-x="628" arabic-form="final" d="M212 -252q-33 0 -71 3t-59 7l-22 3l8 108q78 -17 156 -17q173 0 173 133v15h-79q-267 0 -267 232q0 106 67 178.5t197 72.5q53 0 105.5 -8.5t78.5 -17.5l26 -9v-344h103v-104h-103v-2q0 -111 -77 -180.5t-236 -69.5zM397 104v257q-38 18 -95 18q-55 0 -87 -37.5 t-32 -97.5q0 -140 150 -140h64zM459 619l-50 -59l-104 81l-103 -81l-49 58l153 136z" />
<glyph unicode="&#x6d0;" horiz-adv-x="1020" arabic-form="final" d="M634 0h-209q-196 0 -281.5 76t-85.5 220q0 86 26 157l142 23q-35 -73 -35 -165q0 -109 55.5 -158t193.5 -49h67v360q94 19 202 19q125 0 177.5 -56t52.5 -165v-158h81v-104h-209v248q0 72 -24.5 101.5t-86.5 29.5l-66 -6v-373zM392 -291q-26 0 -42.5 16.5t-16.5 42.5 t16.5 42.5t42.5 16.5q25 0 42 -16.5t17 -42.5q0 -25 -17 -42t-42 -17zM392 -151q-26 0 -42.5 16.5t-16.5 42.5q0 25 17 42t42 17t42 -17t17 -42t-17 -42t-42 -17z" />
<glyph unicode="&#x6d0;" arabic-form="initial" d="M235 0h-250q-18 0 -39 15t-21 37q0 21 21 36.5t39 15.5h118v366h132v-470zM158 -291q-26 0 -42.5 16.5t-16.5 42.5t16.5 42.5t42.5 16.5q25 0 42 -16.5t17 -42.5q0 -25 -17 -42t-42 -17zM158 -151q-26 0 -42.5 16.5t-16.5 42.5q0 25 17 42t42 17t42 -17t17 -42t-17 -42 t-42 -17z" />
<glyph unicode="&#x6d0;" horiz-adv-x="338" arabic-form="medial" d="M-15 0q-18 0 -39 15t-21 37q0 21 21 36.5t39 15.5h118v366h132v-366h103v-104h-353zM170 -291q-26 0 -42.5 16.5t-16.5 42.5t16.5 42.5t42.5 16.5q25 0 42 -16.5t17 -42.5q0 -25 -17 -42t-42 -17zM170 -151q-26 0 -42.5 16.5t-16.5 42.5q0 25 17 42t42 17t42 -17t17 -42 t-17 -42t-42 -17z" />
<glyph unicode="&#x649;" arabic-form="initial" d="M235 0h-250q-18 0 -39 15t-21 37q0 21 21 36.5t39 15.5h118v366h132v-470z" />
<glyph unicode="&#x649;" horiz-adv-x="338" arabic-form="medial" d="M-15 0q-18 0 -39 15t-21 37q0 21 21 36.5t39 15.5h118v366h132v-366h103v-104h-353z" />
<glyph unicode="&#xfbea;" horiz-adv-x="609" arabic-form="isolated" d="M80 0v705h132v-601h185v366h132v-470h-449zM323 517v72q32 0 60 -6q-25 13 -25 44q0 42 37 72.5t110 30.5q17 0 59 -6l-13 -70q-30 6 -54 6q-49 0 -49 -34q0 -37 72 -37h61v-72h-258z" />
<glyph unicode="&#xfbeb;" horiz-adv-x="632" arabic-form="final" d="M80 0v705h132v-601h185v366h132v-366h103v-104h-552zM323 517v72q32 0 60 -6q-25 13 -25 44q0 42 37 72.5t110 30.5q17 0 59 -6l-13 -70q-30 6 -54 6q-49 0 -49 -34q0 -37 72 -37h61v-72h-258z" />
<glyph unicode="&#xfbf2;" horiz-adv-x="919" arabic-form="isolated" d="M212 -252q-33 0 -71 3t-59 7l-22 3l8 108q78 -17 156 -17q173 0 173 133v15h-79q-267 0 -267 232q0 106 67 178.5t197 72.5q53 0 105.5 -8.5t78.5 -17.5l26 -9v-344h181v366h132v-470h-313v-2q0 -111 -77 -180.5t-236 -69.5zM397 104v257q-38 18 -95 18q-55 0 -87 -37.5 t-32 -97.5q0 -140 150 -140h64zM633 517v72q32 0 60 -6q-25 13 -25 44q0 42 37 72.5t110 30.5q17 0 59 -6l-13 -70q-30 6 -54 6q-49 0 -49 -34q0 -37 72 -37h61v-72h-258zM463 695l-154 -135l-153 134l50 60l104 -82l103 82z" />
<glyph unicode="&#xfbf3;" horiz-adv-x="941" arabic-form="final" d="M212 -252q-33 0 -71 3t-59 7l-22 3l8 108q78 -17 156 -17q173 0 173 133v15h-79q-267 0 -267 232q0 106 67 178.5t197 72.5q53 0 105.5 -8.5t78.5 -17.5l26 -9v-344h181v366h132v-366h103v-104h-416v-2q0 -111 -77 -180.5t-236 -69.5zM397 104v257q-38 18 -95 18 q-55 0 -87 -37.5t-32 -97.5q0 -140 150 -140h64zM633 517v72q32 0 60 -6q-25 13 -25 44q0 42 37 72.5t110 30.5q17 0 59 -6l-13 -70q-30 6 -54 6q-49 0 -49 -34q0 -37 72 -37h61v-72h-258zM463 695l-154 -135l-153 134l50 60l104 -82l103 82z" />
<glyph unicode="&#x6cc;" horiz-adv-x="1020" arabic-form="final" d="M634 0h-209q-196 0 -281.5 76t-85.5 220q0 86 26 157l142 23q-35 -73 -35 -165q0 -109 55.5 -158t193.5 -49h67v360q94 19 202 19q125 0 177.5 -56t52.5 -165v-158h81v-104h-209v248q0 72 -24.5 101.5t-86.5 29.5l-66 -6v-373z" />
<glyph unicode="&#x6cc;" arabic-form="initial" d="M235 0h-250q-18 0 -39 15t-21 37q0 21 21 36.5t39 15.5h118v366h132v-470zM21 -138q0 27 19 46t46 19q26 0 45.5 -19t19.5 -46q0 -26 -19 -45.5t-46 -19.5t-46 19t-19 46zM181 -138q0 27 19 46t46 19q26 0 45.5 -19t19.5 -46q0 -26 -19 -45.5t-46 -19.5t-46 19t-19 46z " />
<glyph unicode="&#x6cc;" horiz-adv-x="338" arabic-form="medial" d="M-15 0q-18 0 -39 15t-21 37q0 21 21 36.5t39 15.5h118v366h132v-366h103v-104h-353zM183 -138q0 27 19 46t46 19q26 0 45.5 -19t19.5 -46q0 -26 -19 -45.5t-46 -19.5t-46 19t-19 46zM23 -138q0 27 19 46t46 19q26 0 45.5 -19t19.5 -46q0 -26 -19 -45.5t-46 -19.5t-46 19 t-19 46z" />
<glyph unicode="&#xfc08;" horiz-adv-x="1137" arabic-form="isolated" d="M1057 0h-531q-243 0 -264 194h-22q-44 0 -57 -28.5t-2 -98.5l52 -327h-128l-50 317q-17 112 28.5 176.5t160.5 64.5h24q18 82 83 133.5t168 51.5q114 0 170 -60.5t56 -169.5v-149h59h3h118v366h132v-470zM617 104v133q0 142 -107 142q-55 0 -87 -37.5t-32 -97.5 q0 -71 36.5 -105.5t113.5 -34.5h76zM917 -135q0 29 19.5 48.5t48.5 19.5t48.5 -19t19.5 -49q0 -29 -19.5 -48.5t-48.5 -19.5t-48.5 19.5t-19.5 48.5z" />
<glyph unicode="&#xfc0e;" horiz-adv-x="1137" arabic-form="isolated" d="M1057 0h-250h-3h-278q-243 0 -264 194h-22q-44 0 -57 -28.5t-2 -98.5l52 -327h-128l-50 317q-17 112 28.5 176.5t160.5 64.5h24q18 82 83 133.5t168 51.5q114 0 170 -60.5t56 -169.5v-149h59h3h118v366h132v-470zM617 104v133q0 142 -107 142q-55 0 -87 -37.5t-32 -97.5 q0 -71 36.5 -105.5t113.5 -34.5h76zM840 603q0 26 19 45.5t46 19.5t46 -18.5t19 -46.5q0 -27 -18.5 -46t-46.5 -19t-46.5 19t-18.5 46zM1000 603q0 26 19 45.5t46 19.5q26 0 45.5 -19t19.5 -46q0 -26 -19 -45.5t-46 -19.5t-46 19t-19 46z" />
<glyph unicode="&#xfc32;" horiz-adv-x="1632" arabic-form="isolated" d="M634 0h-209q-196 0 -281.5 76t-85.5 220q0 86 26 157l142 23q-35 -73 -35 -165q0 -109 55.5 -158t193.5 -49h67v360q94 19 202 19q125 0 177.5 -56t52.5 -165v-158h143q16 0 30 -2t20 -4l6 -1q-56 41 -56 143t68.5 172.5t191.5 70.5q114 0 170 -60.5t56 -169.5v-253h-563 h-3h-191v248q0 72 -24.5 101.5t-86.5 29.5l-66 -6v-373zM1439 104v133q0 142 -107 142q-55 0 -87 -37.5t-32 -97.5q0 -71 36.5 -105.5t113.5 -34.5h76zM1260 600q0 28 20.5 48.5t48.5 20.5t48.5 -20.5t20.5 -48.5t-20.5 -48.5t-48.5 -20.5t-48.5 20.5t-20.5 48.5zM251 -138 q0 27 19 46t46 19q26 0 45.5 -19t19.5 -46q0 -26 -19 -45.5t-46 -19.5t-46 19t-19 46zM411 -138q0 27 19 46t46 19q26 0 45.5 -19t19.5 -46q0 -26 -19 -45.5t-46 -19.5t-46 19t-19 46z" />
<glyph unicode="&#xfc42;" horiz-adv-x="1137" arabic-form="isolated" d="M526 0q-243 0 -264 194h-22q-44 0 -57 -28.5t-2 -98.5l52 -327h-128l-50 317q-17 112 28.5 176.5t160.5 64.5h24q18 82 83 133.5t168 51.5q114 0 170 -60.5t56 -169.5v-149h59h3h118v601h132v-705h-250h-3h-278zM617 104v133q0 142 -107 142q-55 0 -87 -37.5t-32 -97.5 q0 -71 36.5 -105.5t113.5 -34.5h76z" />
<glyph unicode="&#xfc43;" horiz-adv-x="1335" arabic-form="isolated" d="M634 0h-209q-196 0 -281.5 76t-85.5 220q0 86 26 157l142 23q-35 -73 -35 -165q0 -109 55.5 -158t193.5 -49h67v360q94 19 202 19q125 0 177.5 -56t52.5 -165v-158h63h3h118v601h132v-705h-444v248q0 72 -24.5 101.5t-86.5 29.5l-66 -6v-373z" />
<glyph unicode="&#xfc44;" horiz-adv-x="1335" arabic-form="isolated" d="M634 0h-209q-196 0 -281.5 76t-85.5 220q0 86 26 157l142 23q-35 -73 -35 -165q0 -109 55.5 -158t193.5 -49h67v360q94 19 202 19q125 0 177.5 -56t52.5 -165v-158h63h3h118v601h132v-705h-444v248q0 72 -24.5 101.5t-86.5 29.5l-66 -6v-373zM411 -138q0 27 19 46t46 19 q26 0 45.5 -19t19.5 -46q0 -26 -19 -45.5t-46 -19.5t-46 19t-19 46zM251 -138q0 27 19 46t46 19q26 0 45.5 -19t19.5 -46q0 -26 -19 -45.5t-46 -19.5t-46 19t-19 46z" />
<glyph unicode="&#xfc48;" horiz-adv-x="1434" arabic-form="isolated" d="M526 0q-243 0 -264 194h-22q-44 0 -57 -28.5t-2 -98.5l52 -327h-128l-50 317q-17 112 28.5 176.5t160.5 64.5h24q18 82 83 133.5t168 51.5q114 0 170 -60.5t56 -169.5v-149h139q16 0 30 -2t20 -4l6 -1q-56 41 -56 143t68.5 172.5t191.5 70.5q114 0 170 -60.5t56 -169.5 v-253h-563h-3h-278zM617 104v133q0 142 -107 142q-55 0 -87 -37.5t-32 -97.5q0 -71 36.5 -105.5t113.5 -34.5h76zM1241 104v133q0 142 -107 142q-55 0 -87 -37.5t-32 -97.5q0 -71 36.5 -105.5t113.5 -34.5h76z" />
<glyph unicode="&#xfc4e;" horiz-adv-x="1137" arabic-form="isolated" d="M526 0q-243 0 -264 194h-22q-44 0 -57 -28.5t-2 -98.5l52 -327h-128l-50 317q-17 112 28.5 176.5t160.5 64.5h24q18 82 83 133.5t168 51.5q114 0 170 -60.5t56 -169.5v-149h59h3h118v366h132v-470h-531zM617 104v133q0 142 -107 142q-55 0 -87 -37.5t-32 -97.5 q0 -71 36.5 -105.5t113.5 -34.5h76zM922 600q0 28 20.5 48.5t48.5 20.5t48.5 -20.5t20.5 -48.5t-20.5 -48.5t-48.5 -20.5t-48.5 20.5t-20.5 48.5z" />
<glyph unicode="&#xfc50;" horiz-adv-x="1335" arabic-form="isolated" d="M634 0h-209q-196 0 -281.5 76t-85.5 220q0 86 26 157l142 23q-35 -73 -35 -165q0 -109 55.5 -158t193.5 -49h67v360q94 19 202 19q125 0 177.5 -56t52.5 -165v-158h184v366h132v-470h-250h-3h-191v248q0 72 -24.5 101.5t-86.5 29.5l-66 -6v-373zM1120 600q0 28 20.5 48.5 t48.5 20.5t48.5 -20.5t20.5 -48.5t-20.5 -48.5t-48.5 -20.5t-48.5 20.5t-20.5 48.5zM251 -138q0 27 19 46t46 19q26 0 45.5 -19t19.5 -46q0 -26 -19 -45.5t-46 -19.5t-46 19t-19 46zM411 -138q0 27 19 46t46 19q26 0 45.5 -19t19.5 -46q0 -26 -19 -45.5t-46 -19.5t-46 19 t-19 46z" />
<glyph unicode="&#xfc58;" horiz-adv-x="1137" arabic-form="isolated" d="M526 0q-243 0 -264 194h-22q-44 0 -57 -28.5t-2 -98.5l52 -327h-128l-50 317q-17 112 28.5 176.5t160.5 64.5h24q18 82 83 133.5t168 51.5q114 0 170 -60.5t56 -169.5v-149h59h3h118v366h132v-470h-250h-3h-278zM617 104v133q0 142 -107 142q-55 0 -87 -37.5t-32 -97.5 q0 -71 36.5 -105.5t113.5 -34.5h76zM1003 -138q0 27 19 46t46 19q26 0 45.5 -19t19.5 -46q0 -26 -19 -45.5t-46 -19.5t-46 19t-19 46zM843 -138q0 27 19 46t46 19q26 0 45.5 -19t19.5 -46q0 -26 -19 -45.5t-46 -19.5t-46 19t-19 46z" />
<glyph unicode="&#xfc5e;" horiz-adv-x="452" arabic-form="isolated" d="M119 793l-28 132l54 11l17 -84l39 8q-6 15 -6 30q0 40 26.5 65t66.5 25q37 0 56 -18.5t19 -49.5q0 -70 -88 -87zM253 870l22 4q34 7 34 36q0 23 -25 23q-16 0 -26 -10.5t-10 -28.5zM238 690q-16 -37 -58 -37q-46 0 -58 56l-9 40l51 11l7 -33q4 -22 19 -22q23 0 18 31 l-7 35l50 11l8 -35q6 -25 20 -25q25 0 18 36l-7 34l50 11l7 -35q9 -44 -10.5 -70t-57.5 -26q-25 0 -41 18z" />
<glyph unicode="&#xfc5f;" horiz-adv-x="432" arabic-form="isolated" d="M118 673v49l211 30v-49zM118 752v49l211 31v-50zM214 871q-18 -34 -57 -34q-47 0 -58 59l-7 40l51 8l6 -33q3 -23 19 -23q23 0 19 31l-6 35l51 8l6 -36q3 -25 20 -25q25 0 18 36l-6 36l51 7l6 -40q7 -39 -13 -64t-56 -25q-27 0 -44 20z" />
<glyph unicode="&#xfc60;" horiz-adv-x="416" arabic-form="isolated" d="M97 895v50l207 35v-50zM211 784q-19 -34 -57 -34q-49 0 -58 58l-7 41l51 8l5 -34q4 -22 20 -22q23 0 18 31l-5 34l50 8l6 -35q4 -26 20 -26q25 0 18 37l-6 36l51 8l7 -42q6 -39 -13.5 -63.5t-55.5 -24.5q-29 0 -44 20z" />
<glyph unicode="&#xfc61;" horiz-adv-x="423" arabic-form="isolated" d="M217 695q-14 -37 -58 -37q-46 0 -58 56l-8 40l50 11l7 -33q6 -22 19 -22q25 0 18 31l-7 35l50 11l8 -35q6 -25 21 -25q26 0 17 36l-8 37l51 9l8 -35q9 -45 -11 -71t-58 -26q-24 0 -41 18zM87 795v52l68 15q-6 14 -6 32q0 38 29 62t70 24q36 0 57 -20t21 -48 q0 -64 -93 -84zM210 874l18 3q41 9 41 31q0 25 -27 25q-17 0 -27 -10.5t-10 -27.5z" />
<glyph unicode="&#xfc62;" horiz-adv-x="419" arabic-form="isolated" d="M106 742v49l211 35v-50zM205 871q-18 -34 -57 -34q-48 0 -57 59l-7 40l51 8l5 -33q3 -23 20 -23q10 0 15 9t3 22l-6 35l51 8l6 -36q4 -25 20 -25q25 0 18 36l-6 36l51 7l7 -40q6 -39 -14 -64t-56 -25q-27 0 -44 20z" />
<glyph unicode="&#xfc63;" horiz-adv-x="407" arabic-form="isolated" d="M218 888l-53 -10v102h53v-92zM207 764q-15 -37 -58 -37q-47 0 -58 56l-9 40l51 10l7 -33q4 -21 19 -21q23 0 18 30l-7 36l50 10l7 -35q6 -25 21 -25q25 0 18 37l-8 36l50 10l8 -36q9 -44 -10.5 -70t-57.5 -26q-27 0 -41 18z" />
<glyph unicode="&#xfc9f;" horiz-adv-x="973" arabic-form="initial" d="M372 0q-100 0 -147 19t-77 58q-30 -77 -142 -77h-21q-18 0 -39 15t-21 37q0 21 21 36.5t39 15.5h7q48 0 73.5 31t25.5 105q0 102 68.5 172.5t191.5 70.5q114 0 170 -60.5t56 -169.5v-149h62h3h118v366h132v-470h-520zM448 104v133q0 142 -107 142q-55 0 -87 -37.5 t-32 -97.5q0 -71 36.5 -105.5t113.5 -34.5h76zM753 -135q0 29 19.5 48.5t48.5 19.5t48.5 -19t19.5 -49q0 -29 -19.5 -48.5t-48.5 -19.5t-48.5 19.5t-19.5 48.5z" />
<glyph unicode="&#xfca4;" horiz-adv-x="973" arabic-form="initial" d="M372 0q-100 0 -147 19t-77 58q-30 -77 -142 -77h-21q-18 0 -39 15t-21 37q0 21 21 36.5t39 15.5h7q48 0 73.5 31t25.5 105q0 102 68.5 172.5t191.5 70.5q114 0 170 -60.5t56 -169.5v-149h183v366h132v-470h-250h-3h-267zM448 104v133q0 142 -107 142q-55 0 -87 -37.5 t-32 -97.5q0 -71 36.5 -105.5t113.5 -34.5h76zM676 603q0 26 19 45.5t46 19.5t46 -18.5t19 -46.5q0 -27 -18.5 -46t-46.5 -19t-46.5 19t-18.5 46zM836 603q0 26 19 45.5t46 19.5q26 0 45.5 -19t19.5 -46q0 -26 -19 -45.5t-46 -19.5t-46 19t-19 46z" />
<glyph unicode="&#xfcc9;" horiz-adv-x="845" arabic-form="initial" d="M-15 0q-18 0 -39 15t-21 37q0 21 21 36.5t39 15.5h349q5 40 5 76q0 98 -45 145t-150 47q-52 0 -112 -10v103q60 11 124 11q165 0 239.5 -72t74.5 -219q0 -42 -4 -81h45h3h118v601h132v-705h-250h-3h-526zM117 -135q0 29 19.5 48.5t48.5 19.5t48.5 -19t19.5 -49 q0 -29 -19.5 -48.5t-48.5 -19.5t-48.5 19.5t-19.5 48.5z" />
<glyph unicode="&#xfcca;" horiz-adv-x="845" arabic-form="initial" d="M-15 0q-18 0 -39 15t-21 37q0 21 21 36.5t39 15.5h349q5 40 5 76q0 98 -45 145t-150 47q-52 0 -112 -10v103q60 11 124 11q165 0 239.5 -72t74.5 -219q0 -42 -4 -81h166v601h132v-705h-250h-3h-526z" />
<glyph unicode="&#xfccb;" horiz-adv-x="845" arabic-form="initial" d="M-15 0q-18 0 -39 15t-21 37q0 21 21 36.5t39 15.5h349q5 40 5 76q0 98 -45 145t-150 47q-52 0 -112 -10v103q60 11 124 11q165 0 239.5 -72t74.5 -219q0 -42 -4 -81h45h3h118v601h132v-705h-779zM116 600q0 28 20.5 48.5t48.5 20.5t48.5 -20.5t20.5 -48.5t-20.5 -48.5 t-48.5 -20.5t-48.5 20.5t-20.5 48.5z" />
<glyph unicode="&#xfccc;" horiz-adv-x="973" arabic-form="initial" d="M372 0q-100 0 -147 19t-77 58q-30 -77 -142 -77h-21q-18 0 -39 15t-21 37q0 21 21 36.5t39 15.5h7q48 0 73.5 31t25.5 105q0 102 68.5 172.5t191.5 70.5q114 0 170 -60.5t56 -169.5v-149h62h3h118v601h132v-705h-520zM448 104v133q0 142 -107 142q-55 0 -87 -37.5 t-32 -97.5q0 -71 36.5 -105.5t113.5 -34.5h76z" />
<glyph unicode="&#xfcd1;" horiz-adv-x="1270" arabic-form="initial" d="M372 0q-100 0 -147 19t-77 58q-30 -77 -142 -77h-21q-18 0 -39 15t-21 37q0 21 21 36.5t39 15.5h7q48 0 73.5 31t25.5 105q0 102 68.5 172.5t191.5 70.5q114 0 170 -60.5t56 -169.5v-149h62h3h77q16 0 30 -2t20 -4l6 -1q-56 41 -56 143t68.5 172.5t191.5 70.5 q114 0 170 -60.5t56 -169.5v-253h-833zM448 104v133q0 142 -107 142q-55 0 -87 -37.5t-32 -97.5q0 -71 36.5 -105.5t113.5 -34.5h76zM1076 104v133q0 142 -107 142q-55 0 -87 -37.5t-32 -97.5q0 -71 36.5 -105.5t113.5 -34.5h76z" />
<glyph unicode="&#xfcd5;" horiz-adv-x="973" arabic-form="initial" d="M372 0q-100 0 -147 19t-77 58q-30 -77 -142 -77h-21q-18 0 -39 15t-21 37q0 21 21 36.5t39 15.5h7q48 0 73.5 31t25.5 105q0 102 68.5 172.5t191.5 70.5q114 0 170 -60.5t56 -169.5v-149h183v366h132v-470h-250h-3h-267zM448 104v133q0 142 -107 142q-55 0 -87 -37.5 t-32 -97.5q0 -71 36.5 -105.5t113.5 -34.5h76zM757 600q0 28 20.5 48.5t48.5 20.5t48.5 -20.5t20.5 -48.5t-20.5 -48.5t-48.5 -20.5t-48.5 20.5t-20.5 48.5z" />
<glyph unicode="&#xfcdd;" horiz-adv-x="973" arabic-form="initial" d="M372 0q-100 0 -147 19t-77 58q-30 -77 -142 -77h-21q-18 0 -39 15t-21 37q0 21 21 36.5t39 15.5h7q48 0 73.5 31t25.5 105q0 102 68.5 172.5t191.5 70.5q114 0 170 -60.5t56 -169.5v-149h183v366h132v-470h-250h-3h-267zM448 104v133q0 142 -107 142q-55 0 -87 -37.5 t-32 -97.5q0 -71 36.5 -105.5t113.5 -34.5h76zM838 -138q0 27 19 46t46 19q26 0 45.5 -19t19.5 -46q0 -26 -19 -45.5t-46 -19.5t-46 19t-19 46zM678 -138q0 27 19 46t46 19q26 0 45.5 -19t19.5 -46q0 -26 -19 -45.5t-46 -19.5t-46 19t-19 46z" />
<glyph unicode="&#xfcf2;" horiz-adv-x="335" arabic-form="medial" d="M-15 0v104h356v-104h-356zM57 895v50l207 35v-50zM171 784q-19 -34 -57 -34q-49 0 -58 58l-7 41l51 8l5 -34q4 -22 20 -22q23 0 18 31l-5 34l50 8l6 -35q4 -26 20 -26q25 0 18 37l-6 36l51 8l7 -42q6 -39 -13.5 -63.5t-55.5 -24.5q-29 0 -44 20z" />
<glyph unicode="&#xfcf3;" horiz-adv-x="335" arabic-form="medial" d="M-15 0v104h356v-104h-356zM176 695q-14 -37 -58 -37q-46 0 -58 56l-8 40l50 11l7 -33q5 -22 19 -22q25 0 18 31l-7 35l50 11l8 -35q6 -25 21 -25q26 0 17 36l-8 37l51 9l8 -35q9 -45 -11 -71t-58 -26q-24 0 -41 18zM46 795v52l68 15q-6 14 -6 32q0 38 29 62t70 24 q36 0 57 -20t21 -48q0 -64 -93 -84zM169 874l18 3q41 9 41 31q0 25 -27 25q-17 0 -27 -10.5t-10 -27.5z" />
<glyph unicode="&#xfcf4;" horiz-adv-x="335" arabic-form="medial" d="M-15 0v104h356v-104h-356zM61 742v49l211 35v-50zM160 871q-18 -34 -57 -34q-48 0 -57 59l-7 40l51 8l5 -33q3 -23 20 -23q10 0 15 9t3 22l-6 35l51 8l6 -36q4 -25 20 -25q25 0 18 36l-6 36l51 7l7 -40q6 -39 -14 -64t-56 -25q-27 0 -44 20z" />
<glyph unicode="&#xfd3c;" horiz-adv-x="293" arabic-form="final" d="M80 0v705h132v-705h-132zM32 770v57l223 32v-57zM32 868v56l223 32v-56z" />
<glyph unicode="&#xfd3d;" arabic-form="isolated" d="M80 0v705h132v-601h103v-104h-235zM32 770v57l223 32v-57zM32 868v56l223 32v-56z" />
<glyph unicode="&#xfd88;" horiz-adv-x="1502" arabic-form="initial" d="M910 0q-100 0 -147 19t-77 58q-30 -77 -142 -77h-21h-3h-535q-18 0 -39 15t-21 37q0 21 21 36.5t39 15.5h349q5 40 5 76q0 98 -45 145t-150 47q-52 0 -112 -10v103q60 11 124 11q165 0 239.5 -72t74.5 -219q0 -42 -4 -81h54h3h11q46 1 70.5 32.5t24.5 103.5 q0 102 68.5 172.5t191.5 70.5q114 0 170 -60.5t56 -169.5v-149h175v601h132v-705h-250h-3h-259zM986 104v133q0 142 -107 142q-55 0 -87 -37.5t-32 -97.5q0 -71 36.5 -105.5t113.5 -34.5h76z" />
<glyph unicode="&#xfe70;" horiz-adv-x="395" arabic-form="isolated" d="M85 794v57l223 32v-57zM85 892v56l223 32v-56z" />
<glyph unicode="&#xfe71;" horiz-adv-x="283" arabic-form="medial" d="M-15 0v104h299v-104h-299zM31 794v57l223 32v-57zM31 892v56l223 32v-56z" />
<glyph unicode="&#xfe72;" horiz-adv-x="471" arabic-form="isolated" d="M139 795l-29 129l49 11l17 -81l34 8q-6 14 -6 32q0 38 29 62t70 24q36 0 57 -20t21 -48q0 -35 -23.5 -54.5t-69.5 -29.5zM266 874l17 3q41 9 41 31q0 25 -27 25q-17 0 -26.5 -10.5t-9.5 -27.5z" />
<glyph unicode="&#xfe74;" horiz-adv-x="395" arabic-form="isolated" d="M86 -320v56l224 32v-56zM86 -225v56l224 32v-56z" />
<glyph unicode="&#xfe76;" horiz-adv-x="394" arabic-form="isolated" d="M85 886v62l224 32v-62z" />
<glyph unicode="&#xfe77;" horiz-adv-x="283" arabic-form="medial" d="M-15 0v104h299v-104h-299zM30 886v62l224 32v-62z" />
<glyph unicode="&#xfe78;" horiz-adv-x="422" arabic-form="isolated" d="M87 806v51l71 9q-5 11 -5 26q0 36 28.5 59.5t68.5 23.5q34 0 58 -18.5t24 -52.5q0 -66 -101 -79zM213 872l20 2q42 4 42 29t-29 25q-17 0 -26.5 -10.5t-9.5 -26.5z" />
<glyph unicode="&#xfe79;" horiz-adv-x="335" arabic-form="medial" d="M-15 0v104h356v-104h-356zM42 806v51l71 9q-5 11 -5 26q0 36 28.5 59.5t68.5 23.5q34 0 58 -18.5t24 -52.5q0 -66 -101 -79zM168 872l20 2q42 4 42 29t-29 25q-17 0 -26.5 -10.5t-9.5 -26.5z" />
<glyph unicode="&#xfe7a;" horiz-adv-x="394" arabic-form="isolated" d="M85 -319v62l224 32v-62z" />
<glyph unicode="&#xfe7b;" horiz-adv-x="283" arabic-form="medial" d="M-15 0v104h299v-104h-299zM30 -311v62l224 32v-62z" />
<glyph unicode="&#xfe7c;" horiz-adv-x="454" arabic-form="isolated" d="M229 850q-22 -39 -67 -39q-58 0 -68 68l-8 51l59 10l7 -48q5 -27 24 -27q13 1 20 10t5 23l-8 50l56 10l8 -49q5 -30 26 -30q29 0 24 39l-8 54l58 8l9 -51q7 -42 -16 -72t-68 -30q-35 0 -53 23z" />
<glyph unicode="&#xfe7d;" horiz-adv-x="335" arabic-form="medial" d="M-15 0v104h356v-104h-356zM165 850q-22 -39 -67 -39q-58 0 -68 68l-8 51l59 10l7 -48q5 -27 24 -27q13 1 20 10t5 23l-8 50l56 10l8 -49q5 -30 26 -30q29 0 24 39l-8 54l58 8l9 -51q7 -42 -16 -72t-68 -30q-35 0 -53 23z" />
<glyph unicode="&#xfe7e;" horiz-adv-x="356" arabic-form="isolated" d="M144 899q0 -16 9.5 -25t24.5 -9q33 0 33 35q0 15 -9 24.5t-24 9.5t-24.5 -10t-9.5 -25zM88 897q0 35 27 57.5t65 22.5q39 0 63.5 -20.5t24.5 -56.5q0 -35 -27 -57t-66 -22q-38 0 -62.5 20t-24.5 56z" />
<glyph unicode="&#xfe7f;" horiz-adv-x="283" arabic-form="medial" d="M-15 0v104h299v-104h-299zM108 899q0 -16 9.5 -25t24.5 -9q33 0 33 35q0 15 -9 24.5t-24 9.5t-24.5 -10t-9.5 -25zM52 897q0 35 27 57.5t65 22.5q39 0 63.5 -20.5t24.5 -56.5q0 -35 -27 -57t-66 -22q-38 0 -62.5 20t-24.5 56z" />
<glyph unicode="&#x622;" arabic-form="final" d="M80 0v705h132v-601h103v-104h-235zM18 760v77l86 26q35 -35 80 -35q42 0 87 35v-78q-42 -29 -94 -29q-47 0 -80 28z" />
<glyph unicode="&#x623;" arabic-form="final" d="M80 0v675h132v-571h103v-104h-235zM10 725v72q32 0 60 -6q-25 13 -25 44q0 42 37 72.5t110 30.5q17 0 59 -6l-13 -70q-30 6 -54 6q-49 0 -49 -34q0 -37 72 -37h61v-72h-258z" />
<glyph unicode="&#x624;" horiz-adv-x="628" arabic-form="final" d="M212 -252q-33 0 -71 3t-59 7l-22 3l8 108q78 -17 156 -17q173 0 173 133v15h-79q-267 0 -267 232q0 106 67 178.5t197 72.5q53 0 105.5 -8.5t78.5 -17.5l26 -9v-344h103v-104h-103v-2q0 -111 -77 -180.5t-236 -69.5zM397 104v257q-38 18 -95 18q-55 0 -87 -37.5 t-32 -97.5q0 -140 150 -140h64zM172 544v72q32 0 60 -6q-25 13 -25 44q0 42 37 72.5t110 30.5q17 0 59 -6l-13 -70q-30 6 -54 6q-49 0 -49 -34q0 -37 72 -37h61v-72h-258z" />
<glyph unicode="&#x625;" arabic-form="final" d="M80 0v705h132v-601h103v-104h-235zM12 -262v71q34 0 53 -6q-19 14 -19 38q0 42 36.5 70t104.5 28q33 0 57 -6l-13 -71q-21 6 -51 6q-45 0 -45 -28q0 -31 65 -31h62v-71h-250z" />
<glyph unicode="&#x626;" horiz-adv-x="1020" arabic-form="final" d="M634 0h-209q-196 0 -281.5 76t-85.5 220q0 86 26 157l142 23q-35 -73 -35 -165q0 -109 55.5 -158t193.5 -49h67v360q94 19 202 19q125 0 177.5 -56t52.5 -165v-158h81v-104h-209v248q0 72 -24.5 101.5t-86.5 29.5l-66 -6v-373zM47 543v72q32 0 60 -6q-25 13 -25 44 q0 42 37 72.5t110 30.5q17 0 59 -6l-13 -70q-30 6 -54 6q-49 0 -49 -34q0 -37 72 -37h61v-72h-258z" />
<glyph unicode="&#x626;" arabic-form="initial" d="M235 0h-250q-18 0 -39 15t-21 37q0 21 21 36.5t39 15.5h118v366h132v-470zM25 517v72q32 0 60 -6q-25 13 -25 44q0 42 37 72.5t110 30.5q17 0 59 -6l-13 -70q-30 6 -54 6q-49 0 -49 -34q0 -37 72 -37h61v-72h-258z" />
<glyph unicode="&#x626;" horiz-adv-x="338" arabic-form="medial" d="M-15 0q-18 0 -39 15t-21 37q0 21 21 36.5t39 15.5h118v366h132v-366h103v-104h-353zM25 517v72q32 0 60 -6q-25 13 -25 44q0 42 37 72.5t110 30.5q17 0 59 -6l-13 -70q-30 6 -54 6q-49 0 -49 -34q0 -37 72 -37h61v-72h-258z" />
<glyph unicode="&#x627;" arabic-form="final" d="M80 0v705h132v-601h103v-104h-235z" />
<glyph unicode="&#x628;" horiz-adv-x="810" arabic-form="final" d="M425 0q-196 0 -281.5 76t-85.5 220q0 86 26 157l142 23q-35 -73 -35 -165q0 -109 55.5 -158t193.5 -49h135v366h132v-366h103v-104h-385zM335 -135q0 29 19.5 48.5t48.5 19.5t48.5 -19t19.5 -49q0 -29 -19.5 -48.5t-48.5 -19.5t-48.5 19.5t-19.5 48.5z" />
<glyph unicode="&#x628;" arabic-form="initial" d="M235 0h-250q-18 0 -39 15t-21 37q0 21 21 36.5t39 15.5h118v366h132v-470zM95 -135q0 29 19.5 48.5t48.5 19.5t48.5 -19t19.5 -49q0 -29 -19.5 -48.5t-48.5 -19.5t-48.5 19.5t-19.5 48.5z" />
<glyph unicode="&#x628;" horiz-adv-x="338" arabic-form="medial" d="M338 0h-353q-18 0 -39 15t-21 37q0 21 21 36.5t39 15.5h118v366h132v-366h103v-104zM100 -135q0 29 19.5 48.5t48.5 19.5t48.5 -19t19.5 -49q0 -29 -19.5 -48.5t-48.5 -19.5t-48.5 19.5t-19.5 48.5z" />
<glyph unicode="&#x629;" horiz-adv-x="628" arabic-form="final" d="M628 0h-310q-267 0 -267 232q0 106 67 178.5t197 72.5q53 0 105.5 -8.5t78.5 -17.5l26 -9v-344h103v-104zM397 104v257q-38 18 -95 18q-55 0 -87 -37.5t-32 -97.5q0 -140 150 -140h64zM158 603q0 26 19 45.5t46 19.5t46 -18.5t19 -46.5q0 -27 -18.5 -46t-46.5 -19 t-46.5 19t-18.5 46zM318 603q0 26 19 45.5t46 19.5q26 0 45.5 -19t19.5 -46q0 -26 -19 -45.5t-46 -19.5t-46 19t-19 46z" />
<glyph unicode="&#x62a;" horiz-adv-x="810" arabic-form="final" d="M810 0h-385q-196 0 -281.5 76t-85.5 220q0 86 26 157l142 23q-35 -73 -35 -165q0 -109 55.5 -158t193.5 -49h135v366h132v-366h103v-104zM265 603q0 26 19 45.5t46 19.5t46 -18.5t19 -46.5q0 -27 -18.5 -46t-46.5 -19t-46.5 19t-18.5 46zM425 603q0 26 19 45.5t46 19.5 q26 0 45.5 -19t19.5 -46q0 -26 -19 -45.5t-46 -19.5t-46 19t-19 46z" />
<glyph unicode="&#x62a;" arabic-form="initial" d="M235 0h-250q-18 0 -39 15t-21 37q0 21 21 36.5t39 15.5h118v366h132v-470zM19 603q0 26 19 45.5t46 19.5t46 -18.5t19 -46.5q0 -27 -18.5 -46t-46.5 -19t-46.5 19t-18.5 46zM179 603q0 26 19 45.5t46 19.5q26 0 45.5 -19t19.5 -46q0 -26 -19 -45.5t-46 -19.5t-46 19 t-19 46z" />
<glyph unicode="&#x62a;" horiz-adv-x="338" arabic-form="medial" d="M338 0h-353q-18 0 -39 15t-21 37q0 21 21 36.5t39 15.5h118v366h132v-366h103v-104zM24 603q0 26 19 45.5t46 19.5t46 -18.5t19 -46.5q0 -27 -18.5 -46t-46.5 -19t-46.5 19t-18.5 46zM184 603q0 26 19 45.5t46 19.5q26 0 45.5 -19t19.5 -46q0 -26 -19 -45.5t-46 -19.5 t-46 19t-19 46z" />
<glyph unicode="&#x62b;" horiz-adv-x="810" arabic-form="final" d="M425 0q-196 0 -281.5 76t-85.5 220q0 86 26 157l142 23q-35 -73 -35 -165q0 -109 55.5 -158t193.5 -49h135v366h132v-366h103v-104h-385zM344 729q0 26 19 45.5t46 19.5t46 -19t19 -46q0 -26 -19 -45.5t-46 -19.5t-46 19t-19 46zM426 598q0 26 19.5 45.5t45.5 19.5 q27 0 46 -19t19 -46q0 -26 -19 -45.5t-46 -19.5q-26 0 -45.5 19t-19.5 46zM261 598q0 26 19 45.5t46 19.5q26 0 45.5 -19t19.5 -46q0 -26 -19.5 -45.5t-45.5 -19.5q-27 0 -46 19t-19 46z" />
<glyph unicode="&#x62b;" arabic-form="initial" d="M235 0h-250q-18 0 -39 15t-21 37q0 21 21 36.5t39 15.5h118v366h132v-470zM17 598q0 26 19 45.5t46 19.5q26 0 45.5 -19t19.5 -46q0 -26 -19.5 -45.5t-45.5 -19.5q-27 0 -46 19t-19 46zM182 598q0 26 19.5 45.5t45.5 19.5q27 0 46 -19t19 -46q0 -26 -19 -45.5t-46 -19.5 q-26 0 -45.5 19t-19.5 46zM100 729q0 26 19 45.5t46 19.5t46 -19t19 -46q0 -26 -19 -45.5t-46 -19.5t-46 19t-19 46z" />
<glyph unicode="&#x62b;" horiz-adv-x="338" arabic-form="medial" d="M-15 0q-18 0 -39 15t-21 37q0 21 21 36.5t39 15.5h118v366h132v-366h103v-104h-353zM102 730q0 26 19 45.5t46 19.5t46 -19t19 -46q0 -26 -19 -45.5t-46 -19.5t-46 19t-19 46zM184 599q0 26 19.5 45.5t45.5 19.5q27 0 46 -19t19 -46q0 -26 -19 -45.5t-46 -19.5 q-26 0 -45.5 19t-19.5 46zM19 599q0 26 19 45.5t46 19.5q26 0 45.5 -19t19.5 -46q0 -26 -19.5 -45.5t-45.5 -19.5q-27 0 -46 19t-19 46z" />
<glyph unicode="&#x62c;" horiz-adv-x="616" arabic-form="final" d="M616 0h-268q-188 0 -188 -110q0 -45 42 -75.5t123 -30.5l-9 -104q-142 0 -214.5 55.5t-72.5 146.5q0 100 80 161t244 61h68q5 40 5 76q0 98 -45.5 145t-150.5 47q-56 0 -115 -8v103q70 9 128 9q165 0 239.5 -72t74.5 -219q0 -42 -4 -81h63v-104zM346 -135q0 29 19.5 48.5 t48.5 19.5t48.5 -19t19.5 -49q0 -29 -19.5 -48.5t-48.5 -19.5t-48.5 19.5t-19.5 48.5z" />
<glyph unicode="&#x62c;" horiz-adv-x="528" arabic-form="initial" d="M453 0h-468q-18 0 -39 15t-21 37q0 21 21 36.5t39 15.5h349q5 40 5 76q0 98 -45 145t-150 47q-52 0 -112 -10v103q60 11 124 11q165 0 239.5 -72t74.5 -219q0 -83 -17 -185zM117 -135q0 29 19.5 48.5t48.5 19.5t48.5 -19t19.5 -49q0 -29 -19.5 -48.5t-48.5 -19.5 t-48.5 19.5t-19.5 48.5z" />
<glyph unicode="&#x62c;" horiz-adv-x="529" arabic-form="medial" d="M-15 0q-18 0 -39 15t-21 37q0 21 21 36.5t39 15.5h349q5 40 5 76q0 98 -45 145t-150 47q-52 0 -112 -10v103q60 11 124 11q165 0 239.5 -72t74.5 -219q0 -42 -4 -81h63v-104h-544zM117 -135q0 29 19.5 48.5t48.5 19.5t48.5 -19t19.5 -49q0 -29 -19.5 -48.5t-48.5 -19.5 t-48.5 19.5t-19.5 48.5z" />
<glyph unicode="&#x62d;" horiz-adv-x="605" arabic-form="final" d="M348 0q-188 0 -188 -108q0 -48 42 -78t127 -30q79 0 172 18l9 -102q-105 -20 -194 -20q-143 0 -215 54.5t-72 148.5q0 100 80 160.5t244 60.5h56q5 40 5 76q0 98 -45 145t-150 47q-57 0 -115 -8v103q68 9 127 9q165 0 239.5 -72t74.5 -219q0 -42 -4 -81h64v-104h-257z " />
<glyph unicode="&#x62d;" horiz-adv-x="528" arabic-form="initial" d="M453 0h-468q-18 0 -39 15t-21 37q0 21 21 36.5t39 15.5h349q5 40 5 76q0 98 -45 145t-150 47q-52 0 -112 -10v103q60 11 124 11q165 0 239.5 -72t74.5 -219q0 -83 -17 -185z" />
<glyph unicode="&#x62d;" horiz-adv-x="529" arabic-form="medial" d="M-15 0q-18 0 -39 15t-21 37q0 21 21 36.5t39 15.5h349q5 40 5 76q0 98 -45 145t-150 47q-52 0 -112 -10v103q60 11 124 11q165 0 239.5 -72t74.5 -219q0 -42 -4 -81h63v-104h-544z" />
<glyph unicode="&#x62e;" horiz-adv-x="605" arabic-form="final" d="M348 0q-188 0 -188 -108q0 -48 42 -78t127 -30q79 0 172 18l9 -102q-105 -20 -194 -20q-143 0 -215 54.5t-72 148.5q0 100 80 160.5t244 60.5h56q5 40 5 76q0 98 -45 145t-150 47q-57 0 -115 -8v103q68 9 127 9q165 0 239.5 -72t74.5 -219q0 -42 -4 -81h64v-104h-257z M195 600q0 28 20.5 48.5t48.5 20.5t48.5 -20.5t20.5 -48.5t-20.5 -48.5t-48.5 -20.5t-48.5 20.5t-20.5 48.5z" />
<glyph unicode="&#x62e;" horiz-adv-x="528" arabic-form="initial" d="M453 0h-468q-18 0 -39 15t-21 37q0 21 21 36.5t39 15.5h349q5 40 5 76q0 98 -45 145t-150 47q-52 0 -112 -10v103q60 11 124 11q165 0 239.5 -72t74.5 -219q0 -83 -17 -185zM116 600q0 28 20.5 48.5t48.5 20.5t48.5 -20.5t20.5 -48.5t-20.5 -48.5t-48.5 -20.5t-48.5 20.5 t-20.5 48.5z" />
<glyph unicode="&#x62e;" horiz-adv-x="529" arabic-form="medial" d="M-15 0q-18 0 -39 15t-21 37q0 21 21 36.5t39 15.5h349q5 40 5 76q0 98 -45 145t-150 47q-52 0 -112 -10v103q60 11 124 11q165 0 239.5 -72t74.5 -219q0 -42 -4 -81h63v-104h-544zM116 600q0 28 20.5 48.5t48.5 20.5t48.5 -20.5t20.5 -48.5t-20.5 -48.5t-48.5 -20.5 t-48.5 20.5t-20.5 48.5z" />
<glyph unicode="&#x62f;" horiz-adv-x="527" arabic-form="final" d="M46 0v104h296q-5 112 -62 181t-174 99l32 110q159 -42 241.5 -134.5t91.5 -255.5h56v-104h-481z" />
<glyph unicode="&#x630;" horiz-adv-x="527" arabic-form="final" d="M46 0v104h296q-5 112 -62 181t-174 99l32 110q159 -42 241.5 -134.5t91.5 -255.5h56v-104h-481zM124 600q0 28 20.5 48.5t48.5 20.5t48.5 -20.5t20.5 -48.5t-20.5 -48.5t-48.5 -20.5t-48.5 20.5t-20.5 48.5z" />
<glyph unicode="&#x631;" horiz-adv-x="426" arabic-form="final" d="M76 -254q-44 0 -84 10l10 105q41 -12 81 -12q54 0 81 31.5t27 108.5v481h132v-366h103v-104h-103v-4q0 -53 -10.5 -94t-36.5 -78t-76.5 -57.5t-123.5 -20.5z" />
<glyph unicode="&#x632;" horiz-adv-x="426" arabic-form="final" d="M76 -254q-44 0 -84 10l10 105q41 -12 81 -12q54 0 81 31.5t27 108.5v481h132v-366h103v-104h-103v-4q0 -53 -10.5 -94t-36.5 -78t-76.5 -57.5t-123.5 -20.5zM187 600q0 28 20.5 48.5t48.5 20.5t48.5 -20.5t20.5 -48.5t-20.5 -48.5t-48.5 -20.5t-48.5 20.5t-20.5 48.5z " />
<glyph unicode="&#x633;" horiz-adv-x="1238" arabic-form="final" d="M962 0q-86 0 -127.5 16t-59.5 53q-14 -36 -48.5 -55.5t-74.5 -19.5q-56 0 -79 31q1 -131 -72 -193t-190 -62q-257 0 -257 284q0 90 23 179l137 25q-28 -94 -28 -192q0 -193 136 -193q126 0 126 189v348h132v-185q0 -70 17 -99.5t56 -29.5q42 0 60 30.5t18 97.5v226h126 v-251q0 -58 24.5 -76.5t94.5 -18.5h27q6 60 6 120q0 138 -29 268l129 18q32 -128 32 -277q0 -70 -4 -129h101v-104h-276z" />
<glyph unicode="&#x633;" horiz-adv-x="875" arabic-form="initial" d="M20 0h-35q-18 0 -39 15t-21 37q0 21 21 36.5t39 15.5h36q50 0 70 26t20 98v182h132v-185q0 -72 13.5 -100.5t55.5 -28.5q41 0 61 29t20 99v226h127v-251q0 -58 24.5 -76.5t94.5 -18.5h27q6 60 6 120q0 138 -29 268l129 18q32 -135 32 -277q0 -123 -14 -233h-165 q-82 0 -124 14.5t-63 54.5q-16 -34 -55.5 -55.5t-95.5 -21.5q-49 0 -85.5 21t-48.5 57q-30 -70 -133 -70z" />
<glyph unicode="&#x633;" horiz-adv-x="901" arabic-form="medial" d="M625 0q-82 0 -124 14.5t-63 54.5q-16 -34 -55.5 -55.5t-95.5 -21.5q-49 0 -85.5 21t-48.5 57q-30 -70 -133 -70h-35q-18 0 -39 15t-21 37q0 21 21 36.5t39 15.5h36q50 0 70 26t20 98v182h132v-185q0 -72 13.5 -100.5t55.5 -28.5q41 0 61 29t20 99v226h127v-251 q0 -58 24.5 -76.5t94.5 -18.5h27q6 60 6 120q0 138 -29 268l129 18q32 -135 32 -277q0 -70 -4 -129h101v-104h-276z" />
<glyph unicode="&#x634;" horiz-adv-x="1238" arabic-form="final" d="M311 -230q-257 0 -257 284q0 90 23 179l137 25q-28 -94 -28 -192q0 -193 136 -193q126 0 126 189v348h132v-185q0 -70 17 -99.5t56 -29.5q42 0 60 30.5t18 97.5v226h126v-251q0 -58 24.5 -76.5t94.5 -18.5h27q6 60 6 120q0 138 -29 268l129 18q32 -128 32 -277 q0 -70 -4 -129h101v-104h-276q-86 0 -127.5 16t-59.5 53q-14 -36 -48.5 -55.5t-74.5 -19.5q-56 0 -79 31q1 -131 -72 -193t-190 -62zM728 729q0 26 19 45.5t46 19.5t46 -19t19 -46q0 -26 -19 -45.5t-46 -19.5t-46 19t-19 46zM810 598q0 26 19.5 45.5t45.5 19.5q27 0 46 -19 t19 -46q0 -26 -19 -45.5t-46 -19.5q-26 0 -45.5 19t-19.5 46zM645 598q0 26 19 45.5t46 19.5q26 0 45.5 -19t19.5 -46q0 -26 -19.5 -45.5t-45.5 -19.5q-27 0 -46 19t-19 46z" />
<glyph unicode="&#x634;" horiz-adv-x="875" arabic-form="initial" d="M20 0h-35q-18 0 -39 15t-21 37q0 21 21 36.5t39 15.5h36q50 0 70 26t20 98v182h132v-185q0 -72 13.5 -100.5t55.5 -28.5q41 0 61 29t20 99v226h127v-251q0 -58 24.5 -76.5t94.5 -18.5h27q6 60 6 120q0 138 -29 268l129 18q32 -135 32 -277q0 -123 -14 -233h-165 q-82 0 -124 14.5t-63 54.5q-16 -34 -55.5 -55.5t-95.5 -21.5q-49 0 -85.5 21t-48.5 57q-30 -70 -133 -70zM303 598q0 26 19 45.5t46 19.5q26 0 45.5 -19t19.5 -46q0 -26 -19.5 -45.5t-45.5 -19.5q-27 0 -46 19t-19 46zM468 598q0 26 19.5 45.5t45.5 19.5q27 0 46 -19t19 -46 q0 -26 -19 -45.5t-46 -19.5q-26 0 -45.5 19t-19.5 46zM386 729q0 26 19 45.5t46 19.5t46 -19t19 -46q0 -26 -19 -45.5t-46 -19.5t-46 19t-19 46z" />
<glyph unicode="&#x634;" horiz-adv-x="899" arabic-form="medial" d="M625 0q-82 0 -124 14.5t-63 54.5q-16 -34 -55.5 -55.5t-95.5 -21.5q-49 0 -85.5 21t-48.5 57q-30 -70 -133 -70h-35q-18 0 -39 15t-21 37q0 21 21 36.5t39 15.5h36q50 0 70 26t20 98v182h132v-185q0 -72 13.5 -100.5t55.5 -28.5q41 0 61 29t20 99v226h127v-251 q0 -58 24.5 -76.5t94.5 -18.5h27q6 60 6 120q0 138 -29 268l129 18q32 -135 32 -277q0 -70 -4 -129h99v-104h-274zM386 729q0 26 19 45.5t46 19.5t46 -19t19 -46q0 -26 -19 -45.5t-46 -19.5t-46 19t-19 46zM468 598q0 26 19.5 45.5t45.5 19.5q27 0 46 -19t19 -46 q0 -26 -19 -45.5t-46 -19.5q-26 0 -45.5 19t-19.5 46zM303 598q0 26 19 45.5t46 19.5q26 0 45.5 -19t19.5 -46q0 -26 -19.5 -45.5t-45.5 -19.5q-27 0 -46 19t-19 46z" />
<glyph unicode="&#x635;" horiz-adv-x="1095" arabic-form="final" d="M311 -230q-257 0 -257 284q0 90 23 179l137 25q-28 -94 -28 -192q0 -193 136 -193q126 0 126 189v408h132v-25q0 -84 -12 -148h2q32 88 101.5 137t151.5 49q103 0 157 -60t54 -167q0 -92 -43 -152h104v-104h-521q-12 -116 -83 -173t-180 -57zM578 104h171q82 2 115.5 40 t33.5 104q0 130 -102 130q-78 0 -140 -82t-78 -192z" />
<glyph unicode="&#x635;" horiz-adv-x="736" arabic-form="initial" d="M383 0h-398q-18 0 -39 15t-21 37q0 21 21 36.5t39 15.5h118v366h132v-25q0 -84 -12 -148h2q32 88 101.5 137t151.5 49q103 0 157 -60t54 -167q0 -116 -74 -186t-232 -70zM234 104h161q88 0 123.5 38.5t35.5 105.5q0 130 -103 130q-78 0 -139.5 -82t-77.5 -192z" />
<glyph unicode="&#x635;" horiz-adv-x="754" arabic-form="medial" d="M383 0h-398q-18 0 -39 15t-21 37q0 21 21 36.5t39 15.5h118v366h132v-25q0 -84 -12 -148h2q32 88 101.5 137t151.5 49q103 0 157 -60t54 -167q0 -92 -43 -152h108v-104h-355h-16zM234 104h161q88 0 123.5 38.5t35.5 105.5q0 130 -103 130q-78 0 -139.5 -82t-77.5 -192z " />
<glyph unicode="&#x636;" horiz-adv-x="1095" arabic-form="final" d="M311 -230q-257 0 -257 284q0 90 23 179l137 25q-28 -94 -28 -192q0 -193 136 -193q126 0 126 189v408h132v-25q0 -84 -12 -148h2q32 88 101.5 137t151.5 49q103 0 157 -60t54 -167q0 -92 -43 -152h104v-104h-351h-16h-154q-12 -116 -83 -173t-180 -57zM578 104h162 q87 0 122.5 38t35.5 106q0 130 -102 130q-78 0 -140 -82t-78 -192zM730 600q0 28 20.5 48.5t48.5 20.5t48.5 -20.5t20.5 -48.5t-20.5 -48.5t-48.5 -20.5t-48.5 20.5t-20.5 48.5z" />
<glyph unicode="&#x636;" horiz-adv-x="736" arabic-form="initial" d="M383 0h-398q-18 0 -39 15t-21 37q0 21 21 36.5t39 15.5h118v366h132v-25q0 -84 -12 -148h2q32 88 101.5 137t151.5 49q103 0 157 -60t54 -167q0 -116 -74 -186t-232 -70zM234 104h161q88 0 123.5 38.5t35.5 105.5q0 130 -103 130q-78 0 -139.5 -82t-77.5 -192zM378 600 q0 28 20.5 48.5t48.5 20.5t48.5 -20.5t20.5 -48.5t-20.5 -48.5t-48.5 -20.5t-48.5 20.5t-20.5 48.5z" />
<glyph unicode="&#x636;" horiz-adv-x="754" arabic-form="medial" d="M383 0h-398q-18 0 -39 15t-21 37q0 21 21 36.5t39 15.5h118v366h132v-25q0 -84 -12 -148h2q32 88 101.5 137t151.5 49q103 0 157 -60t54 -167q0 -92 -43 -152h108v-104h-355h-16zM234 104h161q88 0 123.5 38.5t35.5 105.5q0 130 -103 130q-78 0 -139.5 -82t-77.5 -192z M378 600q0 28 20.5 48.5t48.5 20.5t48.5 -20.5t20.5 -48.5t-20.5 -48.5t-48.5 -20.5t-48.5 20.5t-20.5 48.5z" />
<glyph unicode="&#x637;" horiz-adv-x="787" arabic-form="final" d="M14 0v104h122v601h132v-260q0 -84 -12 -148h2q32 88 101.5 137t151.5 49q103 0 157 -60t54 -167q0 -92 -43 -152h108v-104h-355h-16h-402zM267 104h170q150 4 150 144q0 130 -103 130q-78 0 -139.5 -82t-77.5 -192z" />
<glyph unicode="&#x637;" horiz-adv-x="736" arabic-form="initial" d="M383 0h-398q-18 0 -39 15t-21 37q0 21 21 36.5t39 15.5h118v601h132v-260q0 -84 -12 -148h2q32 88 101.5 137t151.5 49q103 0 157 -60t54 -167q0 -116 -74 -186t-232 -70zM234 104h161q88 0 123.5 38.5t35.5 105.5q0 130 -103 130q-78 0 -139.5 -82t-77.5 -192z" />
<glyph unicode="&#x637;" horiz-adv-x="754" arabic-form="medial" d="M383 0h-398q-18 0 -39 15t-21 37q0 21 21 36.5t39 15.5h118v601h132v-260q0 -84 -12 -148h2q32 88 101.5 137t151.5 49q103 0 157 -60t54 -167q0 -92 -43 -152h108v-104h-355h-16zM234 104h161q88 0 123.5 38.5t35.5 105.5q0 130 -103 130q-78 0 -139.5 -82t-77.5 -192z " />
<glyph unicode="&#x638;" horiz-adv-x="787" arabic-form="final" d="M14 0v104h122v601h132v-260q0 -84 -12 -148h2q32 88 101.5 137t151.5 49q103 0 157 -60t54 -167q0 -92 -43 -152h108v-104h-773zM267 104h161q88 0 123.5 38.5t35.5 105.5q0 130 -103 130q-78 0 -139.5 -82t-77.5 -192zM422 600q0 28 20.5 48.5t48.5 20.5t48.5 -20.5 t20.5 -48.5t-20.5 -48.5t-48.5 -20.5t-48.5 20.5t-20.5 48.5z" />
<glyph unicode="&#x638;" horiz-adv-x="736" arabic-form="initial" d="M383 0h-398q-18 0 -39 15t-21 37q0 21 21 36.5t39 15.5h118v601h132v-260q0 -84 -12 -148h2q32 88 101.5 137t151.5 49q103 0 157 -60t54 -167q0 -116 -74 -186t-232 -70zM234 104h161q88 0 123.5 38.5t35.5 105.5q0 130 -103 130q-78 0 -139.5 -82t-77.5 -192zM389 600 q0 28 20.5 48.5t48.5 20.5t48.5 -20.5t20.5 -48.5t-20.5 -48.5t-48.5 -20.5t-48.5 20.5t-20.5 48.5z" />
<glyph unicode="&#x638;" horiz-adv-x="754" arabic-form="medial" d="M754 0h-769q-18 0 -39 15t-21 37q0 21 21 36.5t39 15.5h118v601h132v-260q0 -84 -12 -148h2q32 88 101.5 137t151.5 49q103 0 157 -60t54 -167q0 -92 -43 -152h108v-104zM234 104h161q88 0 123.5 38.5t35.5 105.5q0 130 -103 130q-78 0 -139.5 -82t-77.5 -192zM389 600 q0 28 20.5 48.5t48.5 20.5t48.5 -20.5t20.5 -48.5t-20.5 -48.5t-48.5 -20.5t-48.5 20.5t-20.5 48.5z" />
<glyph unicode="&#x639;" horiz-adv-x="634" arabic-form="final" d="M317 -255q-143 0 -213.5 49t-70.5 127q0 30 8.5 55t27.5 47t36 37t50 33t51 27t56 26q-34 32 -47 43.5t-42 34.5t-55 36t-55 21l11 94q65 47 142 79t146 32q105 0 158 -46.5t53 -117.5q0 -108 -114 -186q61 -32 123 -32h52v-104h-67q-122 0 -222 74q-106 -52 -131 -70 q-46 -33 -46 -70q0 -86 163 -86q34 0 71.5 3t57.5 7l21 3l8 -100q-87 -16 -172 -16zM196 329q18 -7 36 -17.5t37.5 -26t31.5 -25.5t35.5 -31t32.5 -29q73 48 73 105q0 37 -24 60.5t-70 23.5q-64 0 -152 -60z" />
<glyph unicode="&#x639;" horiz-adv-x="534" arabic-form="initial" d="M502 0h-517q-18 0 -39 15t-21 37q0 21 21 36.5t39 15.5h156q-34 20 -55.5 60t-21.5 89q0 99 67.5 164.5t193.5 65.5q30 0 61 -4.5t47 -9.5l16 -5l-23 -105q-46 21 -104 21q-56 0 -91 -35t-35 -92q0 -67 57 -108t171 -41h78v-104z" />
<glyph unicode="&#x639;" horiz-adv-x="609" arabic-form="medial" d="M9 0h-24q-18 0 -39 15t-21 37q0 21 21 36.5t39 15.5h29q139 0 234 31q-4 4 -23 22t-25 23t-23 20.5t-25.5 21.5t-25 17.5t-28.5 17.5t-28 13t-32 11l11 94q154 111 289 111q105 0 157.5 -46.5t52.5 -117.5q0 -107 -102 -192q54 -26 111 -26h52v-104h-67q-112 0 -205 62 q-139 -62 -328 -62zM171 329q24 -10 50.5 -27.5t43.5 -32t46 -40.5t44 -38q63 50 63 114q0 37 -24.5 60.5t-70.5 23.5q-62 0 -152 -60z" />
<glyph unicode="&#x63a;" horiz-adv-x="634" arabic-form="final" d="M317 -255q-143 0 -213.5 49t-70.5 127q0 30 8.5 55t27.5 47t36 37t50 33t51 27t56 26q-34 32 -47 43.5t-42 34.5t-55 36t-55 21l11 94q65 47 142 79t146 32q105 0 158 -46.5t53 -117.5q0 -108 -114 -186q61 -32 123 -32h52v-104h-67q-122 0 -222 74q-106 -52 -131 -70 q-46 -33 -46 -70q0 -86 163 -86q34 0 71.5 3t57.5 7l21 3l8 -100q-87 -16 -172 -16zM196 329q18 -7 36 -17.5t37.5 -26t31.5 -25.5t35.5 -31t32.5 -29q73 48 73 105q0 37 -24 60.5t-70 23.5q-64 0 -152 -60zM277 600q0 28 20.5 48.5t48.5 20.5t48.5 -20.5t20.5 -48.5 t-20.5 -48.5t-48.5 -20.5t-48.5 20.5t-20.5 48.5z" />
<glyph unicode="&#x63a;" horiz-adv-x="534" arabic-form="initial" d="M502 0h-517q-18 0 -39 15t-21 37q0 21 21 36.5t39 15.5h156q-34 20 -55.5 60t-21.5 89q0 99 67.5 164.5t193.5 65.5q30 0 61 -4.5t47 -9.5l16 -5l-23 -105q-46 21 -104 21q-56 0 -91 -35t-35 -92q0 -67 57 -108t171 -41h78v-104zM229 600q0 28 20.5 48.5t48.5 20.5 t48.5 -20.5t20.5 -48.5t-20.5 -48.5t-48.5 -20.5t-48.5 20.5t-20.5 48.5z" />
<glyph unicode="&#x63a;" horiz-adv-x="609" arabic-form="medial" d="M9 0h-24q-18 0 -39 15t-21 37q0 21 21 36.5t39 15.5h29q139 0 234 31q-4 4 -23 22t-25 23t-23 20.5t-25.5 21.5t-25 17.5t-28.5 17.5t-28 13t-32 11l11 94q154 111 289 111q105 0 157.5 -46.5t52.5 -117.5q0 -107 -102 -192q54 -26 111 -26h52v-104h-67q-112 0 -205 62 q-139 -62 -328 -62zM171 329q24 -10 50.5 -27.5t43.5 -32t46 -40.5t44 -38q63 50 63 114q0 37 -24.5 60.5t-70.5 23.5q-62 0 -152 -60zM253 600q0 28 20.5 48.5t48.5 20.5t48.5 -20.5t20.5 -48.5t-20.5 -48.5t-48.5 -20.5t-48.5 20.5t-20.5 48.5z" />
<glyph unicode="&#x641;" horiz-adv-x="954" arabic-form="final" d="M954 104v-104h-529q-196 0 -281.5 76t-85.5 220q0 86 26 157l142 23q-35 -73 -35 -165q0 -107 53.5 -157t173.5 -50h32q-44 41 -44 130q0 109 70.5 179t183.5 70q110 0 171.5 -58.5t61.5 -174.5q0 -45 -15 -86.5t-43 -64.5q42 5 76 5h43zM760 243q0 136 -109 136 q-47 0 -80 -34t-33 -100q0 -141 111 -141q49 0 80 36t31 103zM583 600q0 28 20.5 48.5t48.5 20.5t48.5 -20.5t20.5 -48.5t-20.5 -48.5t-48.5 -20.5t-48.5 20.5t-20.5 48.5z" />
<glyph unicode="&#x641;" horiz-adv-x="612" arabic-form="initial" d="M548 0h-563q-18 0 -39 15t-21 37q0 21 21 36.5t39 15.5h77q16 0 30 -2t20 -4l6 -1q-56 41 -56 143t68.5 172.5t191.5 70.5q114 0 170 -60.5t56 -169.5v-253zM419 104v133q0 142 -107 142q-55 0 -87 -37.5t-32 -97.5q0 -71 36.5 -105.5t113.5 -34.5h76zM240 600 q0 28 20.5 48.5t48.5 20.5t48.5 -20.5t20.5 -48.5t-20.5 -48.5t-48.5 -20.5t-48.5 20.5t-20.5 48.5z" />
<glyph unicode="&#x641;" horiz-adv-x="609" arabic-form="medial" d="M609 0h-624q-18 0 -39 15t-21 37q0 21 21 36.5t39 15.5h60l62 -5q-47 47 -47 135q0 109 71 179t184 70q109 0 170.5 -58.5t61.5 -174.5q0 -45 -15 -86.5t-43 -64.5q42 5 77 5h43v-104zM303 104q49 0 80.5 36t31.5 103q0 136 -110 136q-47 0 -79.5 -34t-32.5 -100 q0 -141 110 -141zM237 604q0 28 20.5 48.5t48.5 20.5t48.5 -20.5t20.5 -48.5t-20.5 -48.5t-48.5 -20.5t-48.5 20.5t-20.5 48.5z" />
<glyph unicode="&#x642;" horiz-adv-x="919" arabic-form="final" d="M816 448v-344h103v-104h-103v-239q-194 -11 -322 -11q-234 0 -337 74t-103 232q0 88 23 177l137 25q-28 -94 -28 -189q0 -118 71 -167t255 -49l176 6v141h-79q-267 0 -267 232q0 107 67.5 179t197.5 72q52 0 104.5 -8.5t78.5 -17.5zM688 104v257q-38 18 -95 18 q-55 0 -87 -37.5t-32 -97.5q0 -140 150 -140h64zM449 603q0 26 19 45.5t46 19.5t46 -18.5t19 -46.5q0 -27 -18.5 -46t-46.5 -19t-46.5 19t-18.5 46zM609 603q0 26 19 45.5t46 19.5q26 0 45.5 -19t19.5 -46q0 -26 -19 -45.5t-46 -19.5t-46 19t-19 46z" />
<glyph unicode="&#x642;" horiz-adv-x="612" arabic-form="initial" d="M548 0h-563q-18 0 -39 15t-21 37q0 21 21 36.5t39 15.5h77q16 0 30 -2t20 -4l6 -1q-56 41 -56 143t68.5 172.5t191.5 70.5q114 0 170 -60.5t56 -169.5v-253zM419 104v133q0 142 -107 142q-55 0 -87 -37.5t-32 -97.5q0 -71 36.5 -105.5t113.5 -34.5h76zM164 603 q0 26 19 45.5t46 19.5t46 -18.5t19 -46.5q0 -27 -18.5 -46t-46.5 -19t-46.5 19t-18.5 46zM324 603q0 26 19 45.5t46 19.5q26 0 45.5 -19t19.5 -46q0 -26 -19 -45.5t-46 -19.5t-46 19t-19 46z" />
<glyph unicode="&#x642;" horiz-adv-x="609" arabic-form="medial" d="M609 0h-624q-18 0 -39 15t-21 37q0 21 21 36.5t39 15.5h60l62 -5q-47 47 -47 135q0 109 71 179t184 70q109 0 170.5 -58.5t61.5 -174.5q0 -45 -15 -86.5t-43 -64.5q42 5 77 5h43v-104zM303 104q49 0 80.5 36t31.5 103q0 136 -110 136q-47 0 -79.5 -34t-32.5 -100 q0 -141 110 -141zM161 603q0 26 19 45.5t46 19.5t46 -18.5t19 -46.5q0 -27 -18.5 -46t-46.5 -19t-46.5 19t-18.5 46zM321 603q0 26 19 45.5t46 19.5q26 0 45.5 -19t19.5 -46q0 -26 -19 -45.5t-46 -19.5t-46 19t-19 46z" />
<glyph unicode="&#x643;" horiz-adv-x="884" arabic-form="final" d="M425 0q-196 0 -281.5 76t-85.5 220q0 86 26 157l142 23q-35 -73 -35 -165q0 -109 55.5 -158t193.5 -49h208v601h133v-601h103v-104h-459zM310 408v72q32 0 60 -6q-25 13 -25 44q0 42 37 72.5t110 30.5q17 0 59 -6l-13 -70q-30 6 -54 6q-49 0 -49 -34q0 -37 72 -37h61v-72 h-258z" />
<glyph unicode="&#x643;" horiz-adv-x="465" arabic-form="initial" d="M396 0h-411q-18 0 -39 15t-21 37q0 21 21 36.5t39 15.5h281q-7 227 -244 282v97l396 248v-131l-244 -147q107 -48 164.5 -139.5t57.5 -246.5v-67z" />
<glyph unicode="&#x643;" horiz-adv-x="455" arabic-form="medial" d="M-15 0q-18 0 -39 15t-21 37q0 21 21 36.5t39 15.5h281q-7 227 -244 282v97l396 248v-131l-244 -147q101 -46 157.5 -129t63.5 -220h60v-104h-470z" />
<glyph unicode="&#x644;" horiz-adv-x="679" arabic-form="final" d="M448 66v639h132v-601h99v-104h-104q-32 -230 -264 -230q-257 0 -257 284q0 90 23 179l137 25q-28 -94 -28 -192q0 -193 136 -193q126 0 126 193z" />
<glyph unicode="&#x644;" arabic-form="initial" d="M235 0h-250q-18 0 -39 15t-21 37q0 21 21 36.5t39 15.5h118v601h132v-705z" />
<glyph unicode="&#x644;" horiz-adv-x="338" arabic-form="medial" d="M-15 0q-18 0 -39 15t-21 37q0 21 21 36.5t39 15.5h118v601h132v-601h103v-104h-353z" />
<glyph unicode="&#x645;" horiz-adv-x="822" arabic-form="final" d="M822 0h-296q-243 0 -264 194h-22q-44 0 -57 -28.5t-2 -98.5l52 -327h-128l-50 317q-17 112 28.5 176.5t160.5 64.5h24q18 82 83 133.5t168 51.5q114 0 170 -60.5t56 -169.5v-149h77v-104zM617 104v133q0 142 -107 142q-55 0 -87 -37.5t-32 -97.5q0 -71 36.5 -105.5 t113.5 -34.5h76z" />
<glyph unicode="&#x645;" horiz-adv-x="612" arabic-form="initial" d="M548 0h-563q-18 0 -39 15t-21 37q0 21 21 36.5t39 15.5h77q16 0 30 -2t20 -4l6 -1q-56 41 -56 143t68.5 172.5t191.5 70.5q114 0 170 -60.5t56 -169.5v-253zM419 104v133q0 142 -107 142q-55 0 -87 -37.5t-32 -97.5q0 -71 36.5 -105.5t113.5 -34.5h76z" />
<glyph unicode="&#x645;" horiz-adv-x="657" arabic-form="medial" d="M372 0q-100 0 -147 19t-77 58q-30 -77 -142 -77h-21q-18 0 -39 15t-21 37q0 21 21 36.5t39 15.5h7q48 0 73.5 31t25.5 105q0 102 68.5 172.5t191.5 70.5q114 0 170 -60.5t56 -169.5v-149h80v-104h-285zM448 104v133q0 142 -107 142q-55 0 -87 -37.5t-32 -97.5 q0 -71 36.5 -105.5t113.5 -34.5h76z" />
<glyph unicode="&#x646;" horiz-adv-x="703" arabic-form="final" d="M600 470v-366h103v-104h-108q-30 -230 -278 -230q-124 0 -193.5 69.5t-69.5 214.5q0 90 23 179l137 25q-28 -94 -28 -192q0 -105 40.5 -149t101.5 -44q69 0 104.5 43.5t35.5 146.5v407h132zM244 400q0 28 20.5 48.5t48.5 20.5t48.5 -20.5t20.5 -48.5t-20.5 -48.5 t-48.5 -20.5t-48.5 20.5t-20.5 48.5z" />
<glyph unicode="&#x646;" arabic-form="initial" d="M235 0h-250q-18 0 -39 15t-21 37q0 21 21 36.5t39 15.5h118v366h132v-470zM100 600q0 28 20.5 48.5t48.5 20.5t48.5 -20.5t20.5 -48.5t-20.5 -48.5t-48.5 -20.5t-48.5 20.5t-20.5 48.5z" />
<glyph unicode="&#x646;" horiz-adv-x="338" arabic-form="medial" d="M-15 0q-18 0 -39 15t-21 37q0 21 21 36.5t39 15.5h118v366h132v-366h103v-104h-353zM100 600q0 28 20.5 48.5t48.5 20.5t48.5 -20.5t20.5 -48.5t-20.5 -48.5t-48.5 -20.5t-48.5 20.5t-20.5 48.5z" />
<glyph unicode="&#x647;" horiz-adv-x="628" arabic-form="final" d="M628 0h-310q-267 0 -267 232q0 106 67 178.5t197 72.5q53 0 105.5 -8.5t78.5 -17.5l26 -9v-344h103v-104zM397 104v257q-38 18 -95 18q-55 0 -87 -37.5t-32 -97.5q0 -140 150 -140h64z" />
<glyph unicode="&#x647;" horiz-adv-x="759" arabic-form="initial" d="M695 0h-710q-18 0 -39 15t-21 37q0 21 21 36.5t39 15.5h87l46 -5q-25 24 -25 71q0 74 51.5 121t140.5 47q94 0 139 -59t45 -152v-23h100v12q0 156 -67 227.5t-215 71.5q-97 0 -214 -39l-13 103q122 39 243 39q193 0 292.5 -98.5t99.5 -312.5v-107zM361 100v29 q0 118 -86 118q-35 0 -55 -18.5t-20 -49.5q0 -40 27 -59.5t68 -19.5h66z" />
<glyph unicode="&#x647;" horiz-adv-x="752" arabic-form="medial" d="M-15 0q-18 0 -39 15t-21 37q0 21 21 36.5t39 15.5h87l46 -5q-25 24 -25 71q0 74 51.5 121t140.5 47q94 0 139 -59t45 -152v-23h100v12q0 156 -67 227.5t-215 71.5q-97 0 -214 -39l-13 103q122 39 243 39q193 0 292.5 -98.5t99.5 -312.5v-3h57v-104h-767zM361 100v29 q0 118 -86 118q-35 0 -55 -18.5t-20 -49.5q0 -40 27 -59.5t68 -19.5h66z" />
<glyph unicode="&#x648;" horiz-adv-x="628" arabic-form="final" d="M212 -252q-33 0 -71 3t-59 7l-22 3l8 108q78 -17 156 -17q173 0 173 133v15h-79q-267 0 -267 232q0 106 67 178.5t197 72.5q53 0 105.5 -8.5t78.5 -17.5l26 -9v-344h103v-104h-103v-2q0 -111 -77 -180.5t-236 -69.5zM397 104v257q-38 18 -95 18q-55 0 -87 -37.5 t-32 -97.5q0 -140 150 -140h64z" />
<glyph unicode="&#x649;" horiz-adv-x="1020" arabic-form="final" d="M634 0h-209q-196 0 -281.5 76t-85.5 220q0 86 26 157l142 23q-35 -73 -35 -165q0 -109 55.5 -158t193.5 -49h67v360q94 19 202 19q125 0 177.5 -56t52.5 -165v-158h81v-104h-209v248q0 72 -24.5 101.5t-86.5 29.5l-66 -6v-373z" />
<glyph unicode="&#x64a;" horiz-adv-x="1020" arabic-form="final" d="M634 0h-209q-196 0 -281.5 76t-85.5 220q0 86 26 157l142 23q-35 -73 -35 -165q0 -109 55.5 -158t193.5 -49h67v360q94 19 202 19q125 0 177.5 -56t52.5 -165v-158h81v-104h-209v248q0 72 -24.5 101.5t-86.5 29.5l-66 -6v-373zM251 -138q0 27 19 46t46 19q26 0 45.5 -19 t19.5 -46q0 -26 -19 -45.5t-46 -19.5t-46 19t-19 46zM411 -138q0 27 19 46t46 19q26 0 45.5 -19t19.5 -46q0 -26 -19 -45.5t-46 -19.5t-46 19t-19 46z" />
<glyph unicode="&#x64a;" arabic-form="initial" d="M235 0h-250q-18 0 -39 15t-21 37q0 21 21 36.5t39 15.5h118v366h132v-470zM21 -138q0 27 19 46t46 19q26 0 45.5 -19t19.5 -46q0 -26 -19 -45.5t-46 -19.5t-46 19t-19 46zM181 -138q0 27 19 46t46 19q26 0 45.5 -19t19.5 -46q0 -26 -19 -45.5t-46 -19.5t-46 19t-19 46z " />
<glyph unicode="&#x64a;" horiz-adv-x="338" arabic-form="medial" d="M-15 0q-18 0 -39 15t-21 37q0 21 21 36.5t39 15.5h118v366h132v-366h103v-104h-353zM183 -138q0 27 19 46t46 19q26 0 45.5 -19t19.5 -46q0 -26 -19 -45.5t-46 -19.5t-46 19t-19 46zM23 -138q0 27 19 46t46 19q26 0 45.5 -19t19.5 -46q0 -26 -19 -45.5t-46 -19.5t-46 19 t-19 46z" />
<glyph unicode="&#xd;" horiz-adv-x="500" />
<glyph unicode=" "  horiz-adv-x="218" />
<glyph unicode="&#x09;" horiz-adv-x="218" />
<glyph unicode="&#xa0;" horiz-adv-x="218" />
<glyph unicode="!" horiz-adv-x="321" d="M244 708l-19 -520h-110l-21 520h150zM247 65q0 -32 -22.5 -54t-56.5 -22q-33 0 -55.5 22t-22.5 54t22.5 54t55.5 22q34 0 56.5 -22t22.5 -54z" />
<glyph unicode="&#x22;" horiz-adv-x="405" d="M361 702l-17 -254h-95l-16 254h128zM172 702l-16 -254h-96l-16 254h128z" />
<glyph unicode="#" horiz-adv-x="583" d="M555 411h-88l-15 -143h80v-90h-90l-18 -178h-102l19 178h-132l-19 -178h-102l19 178h-79v90h88l16 143h-80v89h89l18 175h102l-19 -175h132l19 175h102l-19 -175h79v-89zM365 411h-131l-16 -143h132z" />
<glyph unicode="$" horiz-adv-x="494" d="M448 185q0 -69 -44.5 -120.5t-120.5 -68.5v-122h-92v115q-55 1 -121 13l9 116q59 -21 127 -21q107 0 107 75q0 30 -27.5 50t-66.5 34t-78.5 32.5t-67 57.5t-27.5 96q0 67 43.5 115t114.5 62v101h91v-94q54 -2 102 -12l-8 -109q-62 17 -111 17q-51 0 -75.5 -18.5 t-24.5 -48.5q0 -28 28 -47.5t67.5 -34.5t79 -34t67.5 -58t28 -96z" />
<glyph unicode="%" horiz-adv-x="760" d="M722 154q0 -73 -45 -119t-112 -46q-72 0 -110 41t-38 115q0 71 44.5 117t111.5 46q70 0 109.5 -39t39.5 -115zM669 638l-501 -660l-80 57l501 661zM343 534q0 -73 -44.5 -119.5t-112.5 -46.5q-72 0 -110 41.5t-38 114.5q0 71 45 117t112 46q70 0 109 -39t39 -114z M625 148q0 79 -55 79q-25 0 -40.5 -20.5t-15.5 -56.5q0 -81 57 -81q23 0 38.5 21.5t15.5 57.5zM247 527q0 43 -13.5 61.5t-42.5 18.5q-24 0 -39.5 -21t-15.5 -57q0 -81 56 -81q24 0 39.5 21t15.5 58z" />
<glyph unicode="&#x26;" horiz-adv-x="797" d="M755 74l-84 -97q-86 60 -137 100q-110 -88 -260 -88q-111 0 -169 56t-58 142q0 61 32.5 110.5t94.5 97.5q-46 55 -65.5 95t-19.5 83q0 70 53 117.5t146 47.5q85 0 131.5 -40t46.5 -107q0 -100 -119 -193q85 -85 181 -160v-1q65 99 60 221h127q3 -165 -91 -290 q80 -60 131 -94zM340 582q0 26 -15.5 43t-46.5 17q-28 0 -45.5 -17.5t-17.5 -44.5q0 -44 57 -110q68 58 68 112zM440 147q-109 88 -191 172q-69 -59 -69 -116q0 -43 31.5 -74t84.5 -31q79 0 144 49z" />
<glyph unicode="'" horiz-adv-x="216" d="M172 702l-16 -254h-96l-16 254h128z" />
<glyph unicode="(" horiz-adv-x="306" d="M297 -170l-97 -45q-148 233 -148 500q0 269 149 502l93 -43q-116 -207 -116 -454q0 -254 119 -460z" />
<glyph unicode=")" horiz-adv-x="306" d="M256 288q0 -270 -149 -503l-93 43q117 206 117 455q0 250 -118 460l97 44q146 -234 146 -499z" />
<glyph unicode="*" horiz-adv-x="384" d="M350 531l-45 -78l-85 68l16 -108h-91l16 108l-86 -68l-44 78l101 40l-101 40l45 79l85 -68l-16 108h91l-16 -108l85 68l45 -78l-101 -40z" />
<glyph unicode="+" horiz-adv-x="550" d="M511 244h-176v-186h-121v186h-175v107h175v185h121v-185h176v-107z" />
<glyph unicode="," horiz-adv-x="258" d="M128 149q51 0 72 -50q29 -69 -26 -162q-33 -57 -94 -110l-53 47q50 53 58.5 90.5t-17.5 63.5q-29 33 -10 77t70 44z" />
<glyph unicode="-" horiz-adv-x="334" d="M290 226h-246v103h246v-103z" />
<glyph unicode="." horiz-adv-x="258" d="M211 71q0 -34 -24 -58t-58 -24t-58 24t-24 58q0 33 24 57t58 24t58 -24t24 -57z" />
<glyph unicode="/" horiz-adv-x="463" d="M465 757l-350 -918h-126l350 918h126z" />
<glyph unicode="0" horiz-adv-x="589" d="M553 345q0 -171 -76.5 -262.5t-190.5 -91.5q-250 0 -250 339q0 171 76.5 262.5t190.5 91.5q250 0 250 -339zM417 336q0 125 -30 183t-91 58q-124 0 -124 -239q0 -125 30 -182.5t91 -57.5q124 0 124 238z" />
<glyph unicode="1" horiz-adv-x="359" d="M286 0h-132v542l-116 -46l-19 122l166 57h101v-675z" />
<glyph unicode="2" horiz-adv-x="498" d="M458 0h-408v108l101 114q83 90 114 148t31 104q0 42 -25 68t-72 26q-62 0 -125 -38l-19 116q80 39 179 39t151.5 -53t52.5 -136q0 -132 -159 -306l-60 -70v-1q70 4 239 4v-123z" />
<glyph unicode="3" horiz-adv-x="473" d="M429 210q0 -98 -76.5 -159t-197.5 -61q-67 0 -113 13l14 112q38 -14 102 -14q62 0 97.5 28t35.5 73q0 43 -35.5 69t-107.5 26q-38 0 -70 -5v103q193 -5 193 102q0 37 -24 58.5t-71 21.5q-53 0 -111 -28l-10 107q72 29 155 29q94 0 145 -45t51 -117q0 -54 -29.5 -94.5 t-79.5 -58.5v-2q61 -15 96.5 -57.5t35.5 -100.5z" />
<glyph unicode="4" horiz-adv-x="554" d="M536 148h-101v-148h-126v148h-283l-9 102l246 425h172v-410h101v-117zM311 263v295h-1l-172 -297q44 2 173 2z" />
<glyph unicode="5" horiz-adv-x="461" d="M429 229q0 -107 -80 -172t-206 -65q-55 0 -100 10l13 114q36 -13 94 -13q67 0 105.5 31t38.5 82q0 102 -165 102q-39 0 -64 -4v361h333v-122l-213 1v-134q117 1 180.5 -49.5t63.5 -141.5z" />
<glyph unicode="6" horiz-adv-x="578" d="M541 231q0 -108 -70.5 -175t-183.5 -67q-118 0 -176.5 83t-58.5 211q0 194 97.5 297.5t250.5 103.5q54 0 79 -4v-115q-36 9 -81 9q-160 0 -202 -162l-8 -34l1 -1q55 55 145 55q96 0 151.5 -55t55.5 -146zM406 213q0 53 -27 83t-78 30q-49 0 -79 -30.5t-30 -74.5 q0 -57 28 -90t78 -33q49 0 78.5 32t29.5 83z" />
<glyph unicode="7" horiz-adv-x="459" d="M435 565q-117 -259 -180 -565h-143q30 139 82 296t97 256q-76 -2 -269 -2v125h413v-110z" />
<glyph unicode="8" horiz-adv-x="557" d="M514 183q0 -93 -71 -144t-176 -51t-165 48.5t-60 129.5q0 98 122 174q-111 63 -111 158q0 87 66 139t169 52q95 0 153.5 -47t58.5 -119q0 -52 -30.5 -91t-84.5 -76q129 -72 129 -173zM369 512q0 31 -23.5 52.5t-67.5 21.5q-45 0 -70 -20.5t-25 -54.5q0 -31 24 -54.5 t74 -49.5q46 29 67 53t21 52zM380 174q0 36 -28.5 61t-84.5 54q-45 -29 -68 -53.5t-23 -57.5q0 -39 27.5 -61.5t75.5 -22.5q44 0 72.5 21.5t28.5 58.5z" />
<glyph unicode="9" horiz-adv-x="581" d="M530 393q0 -194 -90.5 -298.5t-263.5 -104.5q-51 0 -90 7v116q44 -13 100 -13q148 0 186 143q3 10 7.5 26.5t5.5 21.5l-1 1q-45 -56 -139 -56q-93 0 -148 56t-55 151q0 105 69.5 174t177.5 69q84 0 139.5 -42t78.5 -105.5t23 -145.5zM386 451q0 59 -28 92t-76 33 t-77.5 -32t-29.5 -84q0 -51 27 -81.5t77 -30.5q47 0 77 32t30 71z" />
<glyph unicode=":" horiz-adv-x="298" d="M242 354q0 -34 -23.5 -58t-57.5 -24t-58 24t-24 58q0 33 24 57t58 24t57.5 -24t23.5 -57zM242 71q0 -34 -23.5 -58t-57.5 -24t-58 24t-24 58q0 33 24 57t58 24t57.5 -24t23.5 -57z" />
<glyph unicode=";" horiz-adv-x="298" d="M242 354q0 -34 -23.5 -58t-57.5 -24t-58 24t-24 58q0 33 24 57t58 24t57.5 -24t23.5 -57zM160 149q49 0 72.5 -45t-4.5 -123t-115 -154l-53 47q49 53 57.5 90.5t-16.5 63.5q-29 33 -10 77t69 44z" />
<glyph unicode="&#x3c;" horiz-adv-x="550" d="M466 93l-84 -87l-319 295l318 294l84 -84l-237 -209z" />
<glyph unicode="=" horiz-adv-x="550" d="M497 341h-444v103h444v-103zM497 150h-444v103h444v-103z" />
<glyph unicode="&#x3e;" horiz-adv-x="550" d="M487 300l-318 -294l-84 84l237 209l-238 209l84 87z" />
<glyph unicode="?" horiz-adv-x="451" d="M404 512q0 -39 -14.5 -71t-35 -52t-43.5 -42t-39.5 -41t-23 -50t5.5 -68h-125q-16 45 -12 81.5t19 60.5t36.5 46.5t42 39t35 38.5t14.5 45q0 45 -52.5 72t-144.5 30l16 116q156 -4 238.5 -62.5t82.5 -142.5zM271 65q0 -32 -22.5 -54t-55.5 -22t-55.5 22t-22.5 54t22.5 54 t55.5 22t55.5 -22t22.5 -54z" />
<glyph unicode="@" horiz-adv-x="970" d="M881 413q0 -135 -67 -209t-174 -74q-53 0 -80 27t-25 69h-3q-18 -37 -56.5 -66.5t-84.5 -29.5q-48 0 -74.5 36.5t-26.5 106.5q0 118 59.5 192.5t174.5 74.5q69 0 122 -20l-35 -198q-9 -49 2 -70.5t42 -21.5q50 0 80.5 44t30.5 133q0 97 -61 162t-189 65q-136 0 -228 -95 t-92 -246q0 -129 71 -199.5t213 -70.5q88 0 175 29l19 -100q-102 -34 -210 -34q-185 0 -284.5 97t-99.5 265q0 197 128 326.5t315 129.5q171 0 264.5 -91.5t93.5 -231.5zM538 449q-20 6 -44 6q-48 0 -76.5 -52t-28.5 -109q0 -65 32 -65q30 0 60.5 45t47.5 131z" />
<glyph unicode="A" horiz-adv-x="626" d="M625 0h-144l-46 138h-256l-47 -138h-131l233 675h153zM402 241l-69 201q-18 53 -27 93h-1q-16 -60 -26 -93l-69 -201h192z" />
<glyph unicode="B" horiz-adv-x="580" d="M539 208q0 -88 -67 -149t-205 -61q-17 0 -83 1t-114 1v674q95 5 224 5q109 0 167.5 -43t58.5 -124q0 -51 -27 -91.5t-75 -59.5v-2q54 -11 87.5 -53t33.5 -98zM382 491q0 84 -109 84q-31 0 -73 -2v-177q16 -1 53 -1q129 0 129 96zM400 204q0 94 -143 94q-43 0 -57 -1v-191 q48 -3 72 -3q62 0 95 27.5t33 73.5z" />
<glyph unicode="C" horiz-adv-x="566" d="M526 23q-82 -31 -176 -31q-85 0 -147.5 26.5t-97.5 73t-51 102.5t-16 122q0 166 86.5 265.5t251.5 99.5q76 0 144 -20l-18 -120q-62 24 -132 24q-92 0 -140.5 -62t-48.5 -165q0 -228 197 -228q70 0 128 28z" />
<glyph unicode="D" horiz-adv-x="667" d="M630 349q0 -169 -101.5 -261t-270.5 -92q-46 0 -188 5v673q132 5 218 5q342 0 342 -330zM490 339q0 113 -49.5 172t-161.5 59q-47 0 -79 -3v-455q30 -5 71 -5q100 0 159.5 58t59.5 174z" />
<glyph unicode="E" horiz-adv-x="493" d="M437 0h-367v675h367v-109h-237v-166h225v-106h-225v-182h237v-112z" />
<glyph unicode="F" horiz-adv-x="465" d="M431 564h-231v-173h218v-107h-218v-284h-130v675h361v-111z" />
<glyph unicode="G" horiz-adv-x="675" d="M608 32q-104 -42 -231 -42q-164 0 -252.5 87t-88.5 240q0 168 98 268t277 100q99 0 191 -29l-26 -119q-78 32 -173 32q-114 0 -170 -66t-56 -169q0 -108 55.5 -167.5t159.5 -59.5q47 0 86 12v235h130v-322z" />
<glyph unicode="H" horiz-adv-x="686" d="M617 0h-131v293h-286v-293h-130v675h130v-270h286v270h131v-675z" />
<glyph unicode="I" horiz-adv-x="270" d="M200 0h-130v675h130v-675z" />
<glyph unicode="J" horiz-adv-x="335" d="M266 189q0 -198 -182 -198q-38 0 -84 8v112q27 -10 62 -10q38 0 56 20.5t18 72.5v481h130v-486z" />
<glyph unicode="K" horiz-adv-x="597" d="M588 0h-171l-217 324v-324h-130v675h130v-306l218 306h160l-248 -326z" />
<glyph unicode="L" horiz-adv-x="429" d="M419 0h-349v675h130v-561h219v-114z" />
<glyph unicode="M" horiz-adv-x="881" d="M850 0h-135l-49 326q-11 73 -21 169h-2q-20 -96 -38 -154l-109 -341h-126l-104 317q-28 91 -44 178h-2q-8 -95 -18 -180l-39 -315h-131l103 675h153l114 -349q22 -73 37 -142h2q21 90 37 140l115 351h152z" />
<glyph unicode="N" horiz-adv-x="699" d="M629 0h-172l-209 372q-43 84 -60 132q7 -103 7 -321v-183h-125v675h172l204 -363q34 -60 65 -135q-7 119 -7 328v170h125v-675z" />
<glyph unicode="O" horiz-adv-x="703" d="M670 348q0 -163 -95 -261t-235 -98q-151 0 -229 89.5t-78 248.5q0 163 95 261t235 98q151 0 229 -89.5t78 -248.5zM531 333q0 110 -45 173t-134 63q-79 0 -129.5 -60t-50.5 -166q0 -111 45 -173.5t134 -62.5q79 0 129.5 60t50.5 166z" />
<glyph unicode="P" horiz-adv-x="538" d="M515 471q0 -106 -70.5 -173t-197.5 -67l-47 2v-233h-130v675q93 4 189 4q124 0 190 -54t66 -154zM380 458q0 114 -130 114l-50 -1v-227q25 -5 55 -5q61 0 93 31.5t32 87.5z" />
<glyph unicode="Q" horiz-adv-x="703" d="M702 -66q-58 -9 -106.5 -2t-75 20t-67.5 25t-84 12h-29q-151 0 -229 89.5t-78 248.5q0 163 95 261t235 98q151 0 229 -89.5t78 -248.5q0 -101 -37 -175.5t-102 -107.5q19 0 71.5 -13t99.5 -7v-111zM531 333q0 110 -45 173t-134 63q-79 0 -129.5 -60t-50.5 -166 q0 -111 45 -173.5t134 -62.5q78 0 129 60t51 166z" />
<glyph unicode="R" horiz-adv-x="567" d="M554 0h-161l-182 279h-11v-279h-130v675q71 4 194 4q245 0 245 -190q0 -73 -47 -124.5t-119 -63.5q38 -50 54 -74zM373 476q0 97 -122 97q-31 0 -51 -3v-195q18 -2 47 -2q58 0 92 28t34 75z" />
<glyph unicode="S" horiz-adv-x="503" d="M467 207q0 -95 -72.5 -156.5t-188.5 -61.5q-88 0 -156 18l14 125q69 -29 147 -29q50 0 81.5 21.5t31.5 66.5q0 35 -29.5 57.5t-71 37.5t-83 34.5t-71 60t-29.5 102.5q0 92 67.5 147.5t187.5 55.5q60 0 122 -13l-12 -114q-59 19 -116 19q-55 0 -83 -22t-28 -59 q0 -33 30 -55t72 -38t84.5 -36t72.5 -61t30 -100z" />
<glyph unicode="T" horiz-adv-x="510" d="M495 564h-175v-564h-130v564h-175v111h480v-111z" />
<glyph unicode="U" horiz-adv-x="681" d="M611 262q0 -137 -72 -205t-208 -68q-77 0 -130 19.5t-80.5 55.5t-39 76.5t-11.5 93.5v441h130v-433q0 -70 30.5 -107.5t109.5 -37.5q76 0 109 36t33 121v421h129v-413z" />
<glyph unicode="V" horiz-adv-x="628" d="M625 675l-237 -675h-150l-235 675h142l131 -395q26 -77 39 -130h2q15 60 41 138l133 387h134z" />
<glyph unicode="W" horiz-adv-x="951" d="M927 675l-172 -675h-160l-98 372q-13 52 -26 139h-1q-7 -70 -25 -136l-98 -375h-151l-172 675h139l92 -373q15 -61 25 -137h1q12 80 26 133l103 377h138l104 -375q19 -72 27 -131h1q11 72 25 129l92 377h130z" />
<glyph unicode="X" horiz-adv-x="628" d="M618 0h-164l-145 248l-145 -248h-154l215 345l-202 330h151l137 -234l136 234h148l-199 -329z" />
<glyph unicode="Y" horiz-adv-x="561" d="M559 675l-215 -436v-239h-130v238l-211 437h142l89 -194q25 -56 46 -112h2q14 39 54 125l85 181h138z" />
<glyph unicode="Z" horiz-adv-x="537" d="M493 0h-448v100l243 396q28 43 44 64q-48 -2 -123 -2h-156v117h436v-105l-257 -405q-21 -34 -31 -47q17 2 146 2h146v-120z" />
<glyph unicode="[" horiz-adv-x="328" d="M292 -205h-221v982h221v-101h-101v-778h101v-103z" />
<glyph unicode="\" horiz-adv-x="479" d="M483 -161h-126l-350 918h126z" />
<glyph unicode="]" horiz-adv-x="328" d="M256 -205h-220v103h100v778h-100v101h220v-982z" />
<glyph unicode="^" horiz-adv-x="550" d="M488 383l-92 -46l-131 247l-125 -247l-85 45l164 293h98z" />
<glyph unicode="_" horiz-adv-x="550" d="M550 -246h-550v103h550v-103z" />
<glyph unicode="`" horiz-adv-x="374" d="M281 611l-67 -54l-141 149l82 65z" />
<glyph unicode="a" horiz-adv-x="524" d="M457 0h-122q0 52 5 84l-1 1q-18 -43 -61 -69t-98 -26q-66 0 -104 40t-38 102q0 86 76 129.5t211 43.5v18q0 46 -20 66.5t-69 20.5q-71 0 -150 -34l-21 98q85 34 188 34q111 0 155.5 -43.5t44.5 -131.5v-205q0 -73 4 -128zM325 208v13q-164 0 -164 -75q0 -25 16.5 -41.5 t43.5 -16.5q45 0 74.5 36.5t29.5 83.5z" />
<glyph unicode="b" horiz-adv-x="559" d="M523 274q0 -128 -71.5 -206t-197.5 -78q-100 0 -185 24v716h128v-214q0 -55 -8 -97h1q19 41 59 64.5t91 23.5q89 0 136 -61t47 -172zM389 261q0 140 -85 140q-48 0 -77.5 -47.5t-29.5 -112.5v-140q27 -9 67 -9q125 0 125 169z" />
<glyph unicode="c" horiz-adv-x="425" d="M398 14q-60 -23 -140 -23q-107 0 -165.5 59t-58.5 182q0 122 64.5 198t188.5 76q60 0 109 -17l-20 -110q-47 19 -93 19q-56 0 -85.5 -41t-29.5 -112q0 -144 116 -144q52 0 97 20z" />
<glyph unicode="d" horiz-adv-x="558" d="M488 0h-119q0 42 6 83h-2q-20 -43 -61 -68.5t-96 -25.5q-89 0 -135 62t-46 171q0 128 70.5 206t192.5 78q34 0 63 -4v228h127v-730zM361 258v139q-37 8 -67 8q-125 0 -125 -169q0 -141 85 -141q48 0 77.5 48t29.5 115z" />
<glyph unicode="e" horiz-adv-x="514" d="M476 296q0 -44 -5 -72h-307q0 -134 137 -134q72 0 144 29l14 -97q-86 -32 -180 -32q-245 0 -245 254q0 115 63.5 189t172.5 74q104 0 155 -58.5t51 -152.5zM349 309q1 50 -22 77t-64 27q-40 0 -66.5 -28t-31.5 -76h184z" />
<glyph unicode="f" horiz-adv-x="354" d="M374 730l-9 -105q-26 9 -62 9q-42 0 -61.5 -23t-19.5 -72v-42h116v-99h-116v-398h-127v398h-87v99h87v41q0 101 48.5 150.5t149.5 49.5q46 0 81 -8z" />
<glyph unicode="g" horiz-adv-x="545" d="M520 -53q0 -83 -76 -140.5t-197 -57.5q-100 0 -156.5 38t-56.5 110q0 37 22.5 71t54.5 51q-49 23 -49 76q0 29 16.5 53.5t42.5 35.5q-74 40 -74 136q0 80 57.5 134t161.5 54q39 0 81 -11h169v-100h-68q25 -23 25 -63q0 -82 -54.5 -130.5t-158.5 -48.5q-20 0 -39 4 q-24 -11 -24 -32q0 -17 16.5 -23t60.5 -8l77 -3q169 -6 169 -146zM393 -70q0 61 -78 64l-86 3h-23q-46 -33 -46 -76q0 -34 29 -54t77 -20q60 0 93.5 23t33.5 60zM351 327q0 41 -23.5 64.5t-66.5 23.5t-67.5 -24.5t-24.5 -62.5q0 -40 24 -63t68 -23q42 0 66 22.5t24 62.5z " />
<glyph unicode="h" horiz-adv-x="571" d="M501 0h-127v318q0 41 -14 61.5t-48 20.5q-48 0 -81.5 -47.5t-33.5 -113.5v-239h-128v730h128v-214q0 -62 -9 -101h2q49 92 163 92q148 0 148 -158v-349z" />
<glyph unicode="i" horiz-adv-x="266" d="M213 648q0 -32 -23.5 -54.5t-56.5 -22.5t-56 22.5t-23 54.5t23 55t56 23t56.5 -22.5t23.5 -55.5zM197 0h-128v497h128v-497z" />
<glyph unicode="j" horiz-adv-x="271" d="M217 648q0 -32 -23.5 -54.5t-56.5 -22.5t-56.5 22.5t-23.5 54.5t23.5 55t56.5 23t56.5 -22.5t23.5 -55.5zM201 -37q0 -105 -44 -158t-149 -53q-36 0 -71 10l9 109q31 -12 59 -12q39 0 54 20t15 71v547h127v-534z" />
<glyph unicode="k" horiz-adv-x="523" d="M511 0h-160l-154 246v-246h-128v730h128v-440l145 207h156l-174 -227z" />
<glyph unicode="l" horiz-adv-x="266" d="M197 0h-128v730h128v-730z" />
<glyph unicode="m" horiz-adv-x="866" d="M797 0h-128v314q0 43 -13 64.5t-46 21.5q-44 0 -79 -46t-35 -116v-238h-126v315q0 41 -12.5 63t-46.5 22q-45 0 -79.5 -47t-34.5 -115v-238h-128v497h121q0 -47 -6 -89l1 -1q23 46 66 73t98 27q112 0 137 -99q20 41 62 70t100 29q149 0 149 -165v-342z" />
<glyph unicode="n" horiz-adv-x="571" d="M501 0h-127v318q0 41 -14 61.5t-48 20.5q-48 0 -81.5 -47t-33.5 -113v-240h-128v497h121q0 -53 -7 -89h1q23 45 66.5 72t102.5 27q148 0 148 -158v-349z" />
<glyph unicode="o" horiz-adv-x="553" d="M520 258q0 -117 -71.5 -192.5t-182.5 -75.5q-110 0 -171.5 61t-61.5 189q0 117 70.5 192t183.5 75q110 0 171.5 -62t61.5 -187zM388 251q0 148 -110 148q-47 0 -80 -37t-33 -109q0 -154 111 -154q49 0 80.5 39.5t31.5 112.5z" />
<glyph unicode="p" horiz-adv-x="559" d="M523 275q0 -132 -67.5 -207t-194.5 -75q-36 0 -64 4v-238h-128v738h119q0 -51 -5 -83h2q45 93 156 93q88 0 135 -60.5t47 -171.5zM389 261q0 141 -85 141q-48 0 -77.5 -48t-29.5 -115v-138q30 -9 67 -9q125 0 125 169z" />
<glyph unicode="q" horiz-adv-x="559" d="M489 -241h-127v225q0 59 7 96l-2 1q-20 -43 -59 -67.5t-88 -24.5q-90 0 -137 59.5t-47 173.5q0 129 71 206.5t200 77.5q92 0 182 -15v-732zM362 260v138q-37 7 -67 7q-125 0 -125 -169q0 -141 84 -141q49 0 78.5 48.5t29.5 116.5z" />
<glyph unicode="r" horiz-adv-x="355" d="M341 507l-6 -125q-69 14 -103.5 -31t-34.5 -148v-203h-128v497h121q0 -47 -9 -100h2q46 120 158 110z" />
<glyph unicode="s" horiz-adv-x="417" d="M378 155q0 -74 -60 -119.5t-159 -45.5q-65 0 -111 13l9 107q46 -20 106 -20q36 0 58 14.5t22 39.5q0 24 -21 38.5t-50.5 24t-59 22.5t-50.5 43t-21 77q0 70 54 114.5t157 44.5q43 0 90 -10l-6 -100q-44 13 -90 13q-73 0 -73 -51q0 -23 21 -37.5t51.5 -24.5t60.5 -24 t51 -44t21 -75z" />
<glyph unicode="t" horiz-adv-x="375" d="M344 4q-56 -14 -108 -14q-82 0 -113 34t-31 122v252h-86v99h86v153l127 34v-187h121v-99h-121v-218q0 -47 13 -64.5t46 -17.5t57 7z" />
<glyph unicode="u" horiz-adv-x="570" d="M501 0h-120q0 58 6 89h-1q-51 -99 -169 -99q-148 0 -148 158v349h127v-318q0 -41 14 -61.5t48 -20.5q48 0 81.5 47t33.5 113v240h128v-497z" />
<glyph unicode="v" horiz-adv-x="506" d="M500 497l-172 -497h-152l-171 497h138l80 -240q22 -74 32 -124h2q13 61 30 123l78 241h135z" />
<glyph unicode="w" horiz-adv-x="796" d="M786 497l-156 -497h-139l-72 220q-16 56 -28 112h-1q-12 -57 -34 -125l-63 -207h-132l-152 497h140l53 -188q33 -123 39 -150h1q10 58 36 144l60 194h123l61 -188q30 -100 40 -150h2q12 61 34 144l57 194h131z" />
<glyph unicode="x" horiz-adv-x="528" d="M517 0h-161l-96 167l-96 -167h-153l171 251l-161 246h153l96 -164l97 164h142l-156 -245z" />
<glyph unicode="y" horiz-adv-x="502" d="M499 497l-197 -525q-47 -125 -104 -173t-146 -48q-37 0 -70 7l15 110q32 -10 63 -10q79 0 113 98l16 44l-184 497h143l67 -190q22 -68 39 -137h1q16 67 48 158l59 169h137z" />
<glyph unicode="z" horiz-adv-x="450" d="M403 0h-358v91l200 293q-38 -2 -106 -2h-88v115h348v-91l-196 -290q21 1 113 1h87v-117z" />
<glyph unicode="{" horiz-adv-x="362" d="M330 -205h-21q-97 0 -139.5 53t-42.5 170v135q0 60 -23.5 84.5t-76.5 27.5v96q54 3 77 25.5t23 82.5v87q0 112 42.5 166.5t139.5 54.5h21v-101q-49 0 -66.5 -23.5t-17.5 -94.5v-86q0 -142 -92 -158v-2q92 -13 92 -161v-134q0 -72 17.5 -95.5t66.5 -23.5v-103z" />
<glyph unicode="|" horiz-adv-x="288" d="M193 -241h-102v1000h102v-1000z" />
<glyph unicode="}" horiz-adv-x="360" d="M338 265q-52 -3 -76 -27.5t-24 -84.5v-135q0 -117 -42.5 -170t-138.5 -53h-22v103q50 0 67.5 23.5t17.5 95.5v134q0 148 92 161v2q-92 13 -92 155v89q0 71 -17.5 94.5t-67.5 23.5v101h22q97 0 139 -54.5t42 -166.5v-84q0 -62 23 -85t77 -26v-96z" />
<glyph unicode="~" horiz-adv-x="550" d="M509 566q0 -72 -41 -116t-110 -44q-32 0 -56 10.5t-38.5 26t-26 31t-25 26t-28.5 10.5q-45 0 -47 -80h-95v18q0 72 41 116t110 44q32 0 56 -11t38.5 -26t26 -30.5t25 -26.5t28.5 -11q45 0 47 81h95v-18z" />
<glyph unicode="&#xa1;" horiz-adv-x="321" d="M231 432q0 -32 -22.5 -54t-55.5 -22t-55.5 22t-22.5 54t22.5 54t55.5 22t55.5 -22t22.5 -54zM227 -211h-150l19 520h110z" />
<glyph unicode="&#xa2;" horiz-adv-x="454" d="M409 55q-44 -17 -90 -21v-102h-96v102q-89 11 -136 73.5t-47 161.5q0 96 49 162.5t134 82.5v93h96v-86q48 -3 89 -17l-12 -108q-42 21 -96 21q-59 0 -93.5 -37t-34.5 -104q0 -62 31 -98.5t95 -36.5q52 0 102 25z" />
<glyph unicode="&#xa3;" horiz-adv-x="476" d="M451 0h-409v89q47 33 67.5 68t20.5 83q0 31 -4 61h-97v98h86q-11 68 -11 101q0 91 53 139t151 48q64 0 111 -15l-22 -105q-40 15 -82 15q-82 0 -82 -82q0 -21 10 -101h135v-98h-123q2 -20 2 -49q0 -89 -67 -147q36 6 107 6h154v-111z" />
<glyph unicode="&#xa4;" horiz-adv-x="550" d="M515 118l-98 -71l-77 103q-35 -16 -74 -16q-31 0 -55 9l-69 -95l-99 70l68 85q-34 49 -34 123q0 73 39 123l-72 92l97 69l71 -97q32 13 72 13q36 0 64 -11l70 96l97 -71l-71 -89q29 -44 29 -115q0 -68 -37 -119zM361 334q0 99 -87 99q-36 0 -60.5 -27t-24.5 -75 q0 -47 21 -75.5t65 -28.5q36 0 61 27.5t25 79.5z" />
<glyph unicode="&#xa5;" horiz-adv-x="601" d="M581 675l-186 -366h124v-81h-155v-58h155v-83h-155v-87h-129v87h-155v83h155v58h-155v81h125l-183 366h142l89 -184q28 -57 47 -113h2q21 60 55 126l87 171h137z" />
<glyph unicode="&#xa6;" horiz-adv-x="288" d="M193 391h-102v368h102v-368zM193 -241h-102v378h102v-378z" />
<glyph unicode="&#xa7;" horiz-adv-x="530" d="M458 247q0 -86 -77 -145q37 -45 37 -104q0 -69 -55.5 -117t-169.5 -48q-46 0 -83 10l8 107q40 -12 77 -12q42 0 64 17t22 44q0 25 -23 51t-55.5 52t-64.5 56t-55 73.5t-23 93.5q0 90 76 145q-37 46 -37 104q0 72 51.5 118t158.5 46q49 0 82 -8l-7 -106q-34 10 -71 10 q-77 0 -77 -56q0 -23 23 -50t55.5 -54t65 -58.5t55.5 -75.5t23 -93zM342 230q0 19 -6 36t-21.5 35.5t-27.5 30.5t-38.5 36.5t-40.5 37.5q-32 -25 -32 -64q0 -40 29 -74.5t106 -100.5q31 24 31 63z" />
<glyph unicode="&#xa8;" horiz-adv-x="546" d="M434 648q0 -28 -20 -48.5t-49 -20.5t-49 20.5t-20 48.5q0 29 20 49t49 20t49 -20t20 -49zM232 648q0 -28 -20 -48.5t-49 -20.5t-49 20.5t-20 48.5q0 29 20 49t49 20t49 -20t20 -49z" />
<glyph unicode="&#xa9;" horiz-adv-x="762" d="M722 334q0 -142 -100 -242t-242 -100q-144 0 -243 99.5t-99 241.5t100 242t242 100t242 -99.5t100 -241.5zM625 333q0 102 -71.5 174.5t-173.5 72.5t-174 -72t-72 -174t72 -174.5t174 -72.5t173.5 72t71.5 174zM480 177q-43 -20 -102 -20q-76 0 -118.5 46.5t-42.5 126.5 q0 79 44.5 130.5t131.5 51.5q45 0 82 -15l-14 -85q-26 17 -63 17q-75 0 -75 -97q0 -87 70 -87q41 0 70 14z" />
<glyph unicode="&#xaa;" horiz-adv-x="403" d="M341 325h-97q0 28 4 49l-1 1q-11 -25 -39.5 -42t-61.5 -17q-53 0 -79.5 26.5t-26.5 70.5q0 64 55 97t144 32v15q0 47 -58 47q-54 0 -110 -27l-9 86q61 22 135 22q77 0 110 -32.5t33 -83.5v-159q0 -61 1 -85zM361 176h-311v99h311v-99zM239 467v10q-103 0 -103 -50 q0 -14 10 -23t27 -9q30 0 48 24t18 48z" />
<glyph unicode="&#xab;" horiz-adv-x="534" d="M477 150l-100 -47l-118 189l120 192l96 -46l-92 -145zM252 144l-103 -46l-107 194l110 197l98 -45l-85 -151z" />
<glyph unicode="&#xac;" horiz-adv-x="550" d="M489 95h-113v149h-337v107h450v-256z" />
<glyph unicode="&#xad;" horiz-adv-x="334" d="M290 226h-246v103h246v-103z" />
<glyph unicode="&#xae;" horiz-adv-x="564" d="M516 530q0 -96 -69 -163t-165 -67q-98 0 -166 66.5t-68 163.5q0 96 68.5 163.5t165.5 67.5q98 0 166 -66.5t68 -164.5zM438 530q0 65 -46 111.5t-110 46.5q-65 0 -111 -46t-46 -111t46 -111.5t111 -46.5t110.5 46t45.5 111zM377 420h-72l-38 85h-7v-85h-60v223h93 q79 0 79 -62q0 -50 -45 -63q9 -10 17 -27zM306 573q0 24 -30 24h-16v-51h11q35 0 35 27z" />
<glyph unicode="&#xaf;" horiz-adv-x="395" d="M332 600h-269v92h269v-92z" />
<glyph unicode="&#xb0;" horiz-adv-x="388" d="M340 604q0 -66 -45.5 -104t-108.5 -38q-67 0 -105.5 37.5t-38.5 101.5q0 63 46 102t105 39q74 0 110.5 -39t36.5 -99zM245 604q0 23 -13.5 40.5t-39.5 17.5q-24 0 -39.5 -16.5t-15.5 -43.5t15 -43t39 -16t39 17t15 44z" />
<glyph unicode="&#xb1;" horiz-adv-x="550" d="M511 346h-175v-183h-122v183h-175v106h175v182h122v-182h175v-106zM507 0h-464v107h464v-107z" />
<glyph unicode="&#xb2;" horiz-adv-x="372" d="M337 358h-302v86l72 73q30 31 46 48.5t30 41.5t14 43q0 53 -59 53q-42 0 -84 -20l-15 89q57 24 130 24t114 -30.5t41 -91.5q0 -49 -20 -86t-63 -84l-50 -51q39 2 146 2v-97z" />
<glyph unicode="&#xb3;" horiz-adv-x="364" d="M323 493q0 -65 -52.5 -104t-141.5 -39q-50 0 -101 11l13 80q30 -10 80 -10q38 0 59.5 15t21.5 40q0 31 -37.5 45.5t-106.5 5.5v76q133 0 133 61q0 43 -60 43q-49 0 -86 -17l-11 77q54 19 125 19q150 0 150 -107q0 -69 -62 -97q76 -22 76 -99z" />
<glyph unicode="&#xb4;" horiz-adv-x="393" d="M317 707l-143 -150l-66 53l127 161z" />
<glyph unicode="&#xb5;" horiz-adv-x="582" d="M556 -4q-28 -5 -51 -5q-61 0 -86 25t-27 71h-1q-40 -94 -142 -94q-43 0 -64 23l15 -257h-131v738h128v-322q0 -78 61 -78q51 0 83.5 45t32.5 117v238h127v-318q0 -51 11 -66.5t44 -15.5v-101z" />
<glyph unicode="&#xb6;" horiz-adv-x="595" d="M544 573h-65v-669h-179v102h70v669h174v-102zM293 231q-118 -1 -178.5 62.5t-60.5 160.5q0 100 66.5 160.5t172.5 60.5v-444z" />
<glyph unicode="&#xb7;" horiz-adv-x="269" d="M218 298q0 -34 -24.5 -58.5t-58.5 -24.5q-35 0 -59 24.5t-24 58.5t24.5 58.5t58.5 24.5t58.5 -24.5t24.5 -58.5z" />
<glyph unicode="&#xb8;" horiz-adv-x="400" d="M256 -40q72 -99 -20 -194h-96q38 45 41 79.5t-31 81.5z" />
<glyph unicode="&#xb9;" horiz-adv-x="296" d="M235 358h-123v324l-82 -30l-19 94l119 42h105v-430z" />
<glyph unicode="&#xba;" horiz-adv-x="426" d="M385 506q0 -85 -51.5 -137t-131.5 -52q-74 0 -119 44t-45 138q0 84 51.5 135.5t128.5 51.5t122 -43t45 -137zM371 176h-318v99h318v-99zM281 504q0 92 -69 92q-29 0 -49.5 -23t-20.5 -71q0 -96 67 -96q32 0 52 23.5t20 74.5z" />
<glyph unicode="&#xbb;" horiz-adv-x="534" d="M492 295l-110 -197l-99 45l86 151l-87 149l103 46zM275 295l-121 -192l-96 46l93 145l-94 143l100 47z" />
<glyph unicode="&#xbc;" horiz-adv-x="850" d="M235 358h-123v324l-82 -30l-19 94l119 42h105v-430zM759 754l-651 -904l-79 54l652 905zM819 -22h-63v-90h-108v90h-196l-8 79l147 261h165v-250h63v-90zM647 67v181l-100 -182q27 1 100 1z" />
<glyph unicode="&#xbd;" horiz-adv-x="858" d="M759 754l-651 -904l-79 54l652 905zM235 358h-123v324l-82 -30l-19 94l119 42h105v-430zM816 -112h-301v86l72 73q29 30 45.5 48.5t30 42t13.5 42.5q0 53 -58 53q-42 0 -84 -20l-16 89q58 24 131 24q72 0 113 -30.5t41 -91.5q0 -49 -19.5 -86.5t-62.5 -83.5l-50 -51 q39 2 145 2v-97z" />
<glyph unicode="&#xbe;" horiz-adv-x="868" d="M778 754l-652 -904l-78 54l651 905zM323 493q0 -65 -52.5 -104t-141.5 -39q-50 0 -101 11l13 80q30 -10 80 -10q38 0 59.5 15t21.5 40q0 31 -37.5 45.5t-106.5 5.5v76q133 0 133 61q0 43 -60 43q-49 0 -86 -17l-11 77q54 19 125 19q150 0 150 -107q0 -69 -62 -97 q76 -22 76 -99zM837 -22h-62v-90h-108v90h-197l-7 79l147 261h165v-250h62v-90zM665 67v181l-99 -182q26 1 99 1z" />
<glyph unicode="&#xbf;" horiz-adv-x="451" d="M336 432q0 -32 -22.5 -54t-55.5 -22t-55.5 22t-22.5 54t22.5 54t55.5 22t55.5 -22t22.5 -54zM384 -104l-16 -116q-156 4 -238.5 62.5t-82.5 142.5q0 39 14.5 71t35 52t43.5 42t39.5 41t23 50t-5.5 68h125q16 -45 12 -81.5t-19 -60.5t-36.5 -46.5t-42 -39t-35 -38.5 t-14.5 -45q0 -45 52.5 -72t144.5 -30z" />
<glyph unicode="&#xc0;" horiz-adv-x="626" d="M625 0h-144l-46 138h-256l-47 -138h-131l233 675h153zM402 241l-69 201q-18 53 -27 93h-1q-16 -60 -26 -93l-69 -201h192zM393 786l-21 -70l-215 53l29 92z" />
<glyph unicode="&#xc1;" horiz-adv-x="626" d="M625 0h-144l-46 138h-256l-47 -138h-131l233 675h153zM402 241l-69 201q-18 53 -27 93h-1q-16 -60 -26 -93l-69 -201h192zM459 769l-216 -53l-21 70l208 75z" />
<glyph unicode="&#xc2;" horiz-adv-x="626" d="M625 0h-144l-46 138h-256l-47 -138h-131l233 675h153zM402 241l-69 201q-18 53 -27 93h-1q-16 -60 -26 -93l-69 -201h192zM476 783l-31 -68l-139 56l-133 -55l-28 64l165 85z" />
<glyph unicode="&#xc3;" horiz-adv-x="626" d="M625 0h-144l-46 138h-256l-47 -138h-131l233 675h153zM402 241l-69 201q-18 53 -27 93h-1q-16 -60 -26 -93l-69 -201h192zM499 810q-46 -82 -125 -82q-38 0 -75 23.5t-53 23.5q-33 0 -58 -43l-63 44q46 82 125 82q38 0 75 -23.5t53 -23.5q32 0 58 42z" />
<glyph unicode="&#xc4;" horiz-adv-x="626" d="M625 0h-144l-46 138h-256l-47 -138h-131l233 675h153zM402 241l-69 201q-18 53 -27 93h-1q-16 -60 -26 -93l-69 -201h192zM484 785q0 -28 -19.5 -47t-47.5 -19t-47 19t-19 47t19 47t47 19t47.5 -19t19.5 -47zM269 785q0 -28 -19.5 -47t-47.5 -19t-47.5 19t-19.5 47 t19.5 47t47.5 19t47.5 -19t19.5 -47z" />
<glyph unicode="&#xc5;" horiz-adv-x="626" d="M625 0h-144l-46 138h-256l-47 -138h-131l233 675h153zM402 241l-69 201q-18 53 -27 93h-1q-16 -60 -26 -93l-69 -201h192zM431 824q0 -47 -35 -80t-83 -33q-49 0 -82.5 31.5t-33.5 79.5t34.5 80t82.5 32q49 0 83 -31t34 -79zM361 823q0 20 -14 34t-33 14q-20 0 -34 -14.5 t-14 -33.5t14 -33.5t34 -14.5q19 0 33 14t14 34z" />
<glyph unicode="&#xc6;" horiz-adv-x="785" d="M729 0h-365v149h-197l-72 -149h-133l334 675h426v-109h-233v-166h225v-106h-225v-182h240v-112zM364 251v315h-2q-26 -65 -62 -141l-89 -174h153z" />
<glyph unicode="&#xc7;" horiz-adv-x="566" d="M526 23q-82 -31 -176 -31q-85 0 -147.5 26.5t-97.5 73t-51 102.5t-16 122q0 166 86.5 265.5t251.5 99.5q76 0 144 -20l-18 -120q-62 24 -132 24q-92 0 -140.5 -62t-48.5 -165q0 -228 197 -228q70 0 128 28zM363 -40q72 -99 -20 -194h-96q38 45 41 79.5t-31 81.5z" />
<glyph unicode="&#xc8;" horiz-adv-x="493" d="M437 0h-367v675h367v-109h-237v-166h225v-106h-225v-182h237v-112zM335 786l-21 -70l-215 53l29 92z" />
<glyph unicode="&#xc9;" horiz-adv-x="493" d="M437 0h-367v675h367v-109h-237v-166h225v-106h-225v-182h237v-112zM401 769l-216 -53l-21 70l208 75z" />
<glyph unicode="&#xca;" horiz-adv-x="493" d="M437 0h-367v675h367v-109h-237v-166h225v-106h-225v-182h237v-112zM418 783l-31 -68l-139 56l-133 -55l-28 64l165 85z" />
<glyph unicode="&#xcb;" horiz-adv-x="493" d="M437 0h-367v675h367v-109h-237v-166h225v-106h-225v-182h237v-112zM424 785q0 -28 -19.5 -47t-47.5 -19t-47 19t-19 47t19 47t47 19t47.5 -19t19.5 -47zM209 785q0 -28 -19.5 -47t-47.5 -19t-47.5 19t-19.5 47t19.5 47t47.5 19t47.5 -19t19.5 -47z" />
<glyph unicode="&#xcc;" horiz-adv-x="270" d="M200 0h-130v675h130v-675zM218 786l-21 -70l-215 53l29 92z" />
<glyph unicode="&#xcd;" horiz-adv-x="270" d="M200 0h-130v675h130v-675zM290 769l-216 -53l-21 70l208 75z" />
<glyph unicode="&#xce;" horiz-adv-x="270" d="M200 0h-130v675h130v-675zM302 783l-31 -68l-139 56l-133 -55l-28 64l165 85z" />
<glyph unicode="&#xcf;" horiz-adv-x="270" d="M200 0h-130v675h130v-675zM309 785q0 -28 -19.5 -47t-47.5 -19t-47 19t-19 47t19 47t47 19t47.5 -19t19.5 -47zM94 785q0 -28 -19.5 -47t-47.5 -19t-47.5 19t-19.5 47t19.5 47t47.5 19t47.5 -19t19.5 -47z" />
<glyph unicode="&#xd0;" horiz-adv-x="676" d="M639 349q0 -168 -100 -260.5t-272 -92.5q-45 0 -188 5v295h-75v99h75v279q132 5 219 5q341 0 341 -330zM499 339q0 113 -50 172t-162 59q-47 0 -79 -3v-172h122v-99h-122v-184q30 -5 71 -5q101 0 160.5 58t59.5 174z" />
<glyph unicode="&#xd1;" horiz-adv-x="699" d="M629 0h-172l-209 372q-43 84 -60 132q7 -103 7 -321v-183h-125v675h172l204 -363q34 -60 65 -135q-7 119 -7 328v170h125v-675zM538 810q-46 -82 -125 -82q-38 0 -75 23.5t-53 23.5q-33 0 -58 -43l-63 44q46 82 125 82q38 0 75 -23.5t53 -23.5q32 0 58 42z" />
<glyph unicode="&#xd2;" horiz-adv-x="703" d="M670 348q0 -163 -95 -261t-235 -98q-151 0 -229 89.5t-78 248.5q0 163 95 261t235 98q151 0 229 -89.5t78 -248.5zM531 333q0 110 -45 173t-134 63q-79 0 -129.5 -60t-50.5 -166q0 -111 45 -173.5t134 -62.5q79 0 129.5 60t50.5 166zM433 786l-21 -70l-215 53l29 92z" />
<glyph unicode="&#xd3;" horiz-adv-x="703" d="M670 348q0 -163 -95 -261t-235 -98q-151 0 -229 89.5t-78 248.5q0 163 95 261t235 98q151 0 229 -89.5t78 -248.5zM531 333q0 110 -45 173t-134 63q-79 0 -129.5 -60t-50.5 -166q0 -111 45 -173.5t134 -62.5q79 0 129.5 60t50.5 166zM516 769l-216 -53l-21 70l208 75z " />
<glyph unicode="&#xd4;" horiz-adv-x="703" d="M670 348q0 -163 -95 -261t-235 -98q-151 0 -229 89.5t-78 248.5q0 163 95 261t235 98q151 0 229 -89.5t78 -248.5zM531 333q0 110 -45 173t-134 63q-79 0 -129.5 -60t-50.5 -166q0 -111 45 -173.5t134 -62.5q79 0 129.5 60t50.5 166zM525 783l-31 -68l-139 56l-133 -55 l-28 64l165 85z" />
<glyph unicode="&#xd5;" horiz-adv-x="703" d="M670 348q0 -163 -95 -261t-235 -98q-151 0 -229 89.5t-78 248.5q0 163 95 261t235 98q151 0 229 -89.5t78 -248.5zM531 333q0 110 -45 173t-134 63q-79 0 -129.5 -60t-50.5 -166q0 -111 45 -173.5t134 -62.5q79 0 129.5 60t50.5 166zM540 810q-46 -82 -125 -82 q-38 0 -75 23.5t-53 23.5q-33 0 -58 -43l-63 44q46 82 125 82q38 0 75 -23.5t53 -23.5q33 0 58 42z" />
<glyph unicode="&#xd6;" horiz-adv-x="703" d="M670 348q0 -163 -95 -261t-235 -98q-151 0 -229 89.5t-78 248.5q0 163 95 261t235 98q151 0 229 -89.5t78 -248.5zM531 333q0 110 -45 173t-134 63q-79 0 -129.5 -60t-50.5 -166q0 -111 45 -173.5t134 -62.5q79 0 129.5 60t50.5 166zM532 785q0 -28 -19.5 -47t-47.5 -19 t-47 19t-19 47t19 47t47 19t47.5 -19t19.5 -47zM317 785q0 -28 -19.5 -47t-47.5 -19t-47.5 19t-19.5 47t19.5 47t47.5 19t47.5 -19t19.5 -47z" />
<glyph unicode="&#xd7;" horiz-adv-x="550" d="M503 147l-78 -78l-154 154l-154 -154l-70 70l154 154l-154 154l78 78l154 -154l154 154l70 -70l-154 -154z" />
<glyph unicode="&#xd8;" horiz-adv-x="703" d="M670 345q0 -163 -94 -259.5t-237 -96.5q-49 0 -89 9l-45 -101l-91 41l45 100q-126 80 -126 291q0 162 95 259.5t235 97.5q42 0 82 -8l45 100l91 -40l-43 -97q132 -79 132 -296zM536 336q0 132 -57 187l-177 -415q18 -5 44 -5q81 0 135.5 58.5t54.5 174.5zM394 569h-1 q-20 4 -42 4q-77 0 -130.5 -60t-53.5 -170q0 -123 52 -182z" />
<glyph unicode="&#xd9;" horiz-adv-x="681" d="M611 262q0 -137 -72 -205t-208 -68q-77 0 -130 19.5t-80.5 55.5t-39 76.5t-11.5 93.5v441h130v-433q0 -70 30.5 -107.5t109.5 -37.5q76 0 109 36t33 121v421h129v-413zM401 786l-21 -70l-215 53l29 92z" />
<glyph unicode="&#xda;" horiz-adv-x="681" d="M611 262q0 -137 -72 -205t-208 -68q-77 0 -130 19.5t-80.5 55.5t-39 76.5t-11.5 93.5v441h130v-433q0 -70 30.5 -107.5t109.5 -37.5q76 0 109 36t33 121v421h129v-413zM534 769l-216 -53l-21 70l208 75z" />
<glyph unicode="&#xdb;" horiz-adv-x="681" d="M611 262q0 -137 -72 -205t-208 -68q-77 0 -130 19.5t-80.5 55.5t-39 76.5t-11.5 93.5v441h130v-433q0 -70 30.5 -107.5t109.5 -37.5q76 0 109 36t33 121v421h129v-413zM508 783l-31 -68l-139 56l-133 -55l-28 64l165 85z" />
<glyph unicode="&#xdc;" horiz-adv-x="681" d="M611 262q0 -137 -72 -205t-208 -68q-77 0 -130 19.5t-80.5 55.5t-39 76.5t-11.5 93.5v441h130v-433q0 -70 30.5 -107.5t109.5 -37.5q76 0 109 36t33 121v421h129v-413zM514 785q0 -28 -19.5 -47t-47.5 -19t-47 19t-19 47t19 47t47 19t47.5 -19t19.5 -47zM299 785 q0 -28 -19.5 -47t-47.5 -19t-47.5 19t-19.5 47t19.5 47t47.5 19t47.5 -19t19.5 -47z" />
<glyph unicode="&#xdd;" horiz-adv-x="561" d="M559 675l-215 -436v-239h-130v238l-211 437h142l89 -194q25 -56 46 -112h2q14 39 54 125l85 181h138zM467 769l-216 -53l-21 70l208 75z" />
<glyph unicode="&#xde;" horiz-adv-x="544" d="M528 365q0 -106 -76 -173.5t-202 -67.5q-34 0 -50 2v-126h-130v675h130v-94q44 2 73 2q121 0 188 -55.5t67 -162.5zM394 357q0 55 -34 87.5t-106 32.5q-16 0 -54 -4v-239q23 -4 58 -4q62 0 99 33t37 94z" />
<glyph unicode="&#xdf;" horiz-adv-x="607" d="M576 157q0 -76 -57 -122t-150 -46q-67 0 -106 14l7 105q45 -20 91 -20q42 0 62.5 16t20.5 40t-18.5 42t-44.5 32.5t-52 32t-44.5 49t-18.5 74.5q0 32 11.5 57.5t28 41.5t33.5 31t28.5 34t11.5 42q0 28 -20 43t-55 15q-107 0 -107 -138v-500h-128v494q0 125 66.5 184 t173.5 59q93 0 148 -40t55 -109q0 -35 -12 -61.5t-29 -42t-34 -28.5t-29 -29.5t-12 -37.5q0 -23 18.5 -41.5t45 -33.5t53 -33.5t45 -50t18.5 -73.5z" />
<glyph unicode="&#xe0;" horiz-adv-x="524" d="M457 0h-122q0 52 5 84l-1 1q-18 -43 -61 -69t-98 -26q-66 0 -104 40t-38 102q0 86 76 129.5t211 43.5v18q0 46 -20 66.5t-69 20.5q-71 0 -150 -34l-21 98q85 34 188 34q111 0 155.5 -43.5t44.5 -131.5v-205q0 -73 4 -128zM325 208v13q-164 0 -164 -75q0 -25 16.5 -41.5 t43.5 -16.5q45 0 74.5 36.5t29.5 83.5zM327 611l-67 -54l-141 149l82 65z" />
<glyph unicode="&#xe1;" horiz-adv-x="524" d="M457 0h-122q0 52 5 84l-1 1q-18 -43 -61 -69t-98 -26q-66 0 -104 40t-38 102q0 86 76 129.5t211 43.5v18q0 46 -20 66.5t-69 20.5q-71 0 -150 -34l-21 98q85 34 188 34q111 0 155.5 -43.5t44.5 -131.5v-205q0 -73 4 -128zM325 208v13q-164 0 -164 -75q0 -25 16.5 -41.5 t43.5 -16.5q45 0 74.5 36.5t29.5 83.5zM402 707l-143 -150l-66 53l127 161z" />
<glyph unicode="&#xe2;" horiz-adv-x="524" d="M457 0h-122q0 52 5 84l-1 1q-18 -43 -61 -69t-98 -26q-66 0 -104 40t-38 102q0 86 76 129.5t211 43.5v18q0 46 -20 66.5t-69 20.5q-71 0 -150 -34l-21 98q85 34 188 34q111 0 155.5 -43.5t44.5 -131.5v-205q0 -73 4 -128zM325 208v13q-164 0 -164 -75q0 -25 16.5 -41.5 t43.5 -16.5q45 0 74.5 36.5t29.5 83.5zM418 619l-50 -59l-104 81l-103 -81l-49 58l153 136z" />
<glyph unicode="&#xe3;" horiz-adv-x="524" d="M457 0h-122q0 52 5 84l-1 1q-18 -43 -61 -69t-98 -26q-66 0 -104 40t-38 102q0 86 76 129.5t211 43.5v18q0 46 -20 66.5t-69 20.5q-71 0 -150 -34l-21 98q85 34 188 34q111 0 155.5 -43.5t44.5 -131.5v-205q0 -73 4 -128zM325 208v13q-164 0 -164 -75q0 -25 16.5 -41.5 t43.5 -16.5q45 0 74.5 36.5t29.5 83.5zM444 666q-45 -89 -121 -89q-37 0 -73 25.5t-51 25.5q-30 0 -55 -45l-61 47q45 89 122 89q37 0 72 -25.5t51 -25.5q30 0 55 45z" />
<glyph unicode="&#xe4;" horiz-adv-x="524" d="M457 0h-122q0 52 5 84l-1 1q-18 -43 -61 -69t-98 -26q-66 0 -104 40t-38 102q0 86 76 129.5t211 43.5v18q0 46 -20 66.5t-69 20.5q-71 0 -150 -34l-21 98q85 34 188 34q111 0 155.5 -43.5t44.5 -131.5v-205q0 -73 4 -128zM325 208v13q-164 0 -164 -75q0 -25 16.5 -41.5 t43.5 -16.5q45 0 74.5 36.5t29.5 83.5zM434 648q0 -28 -20 -48.5t-49 -20.5t-49 20.5t-20 48.5q0 29 20 49t49 20t49 -20t20 -49zM232 648q0 -28 -20 -48.5t-49 -20.5t-49 20.5t-20 48.5q0 29 20 49t49 20t49 -20t20 -49z" />
<glyph unicode="&#xe5;" horiz-adv-x="524" d="M457 0h-122q0 52 5 84l-1 1q-18 -43 -61 -69t-98 -26q-66 0 -104 40t-38 102q0 86 76 129.5t211 43.5v18q0 46 -20 66.5t-69 20.5q-71 0 -150 -34l-21 98q85 34 188 34q111 0 155.5 -43.5t44.5 -131.5v-205q0 -73 4 -128zM325 208v13q-164 0 -164 -75q0 -25 16.5 -41.5 t43.5 -16.5q45 0 74.5 36.5t29.5 83.5zM394 668q0 -51 -37.5 -86.5t-90.5 -35.5t-90 34t-37 87q0 52 37.5 87t90.5 35q54 0 90.5 -34.5t36.5 -86.5zM319 667q0 22 -15 37.5t-37 15.5t-37.5 -15.5t-15.5 -37.5t15.5 -37.5t37.5 -15.5t37 15.5t15 37.5z" />
<glyph unicode="&#xe6;" horiz-adv-x="800" d="M762 285q0 -28 -4 -59h-308q-1 -68 33.5 -102t103.5 -34q75 0 144 31l14 -98q-81 -33 -180 -33q-78 0 -129 27t-71 74h-1q-55 -101 -183 -101q-67 0 -105 40t-38 102q0 86 76.5 130t210.5 44v25q0 40 -22.5 59.5t-74.5 19.5q-70 0 -140 -35l-23 101q84 32 185 32 q111 0 156 -62h1q52 62 146 62q104 0 156.5 -62t52.5 -161zM635 312q1 48 -22 75t-64 27q-40 0 -66 -27.5t-31 -74.5h183zM325 208v15q-165 0 -165 -77q0 -25 16 -41.5t43 -16.5q46 0 76 36.5t30 83.5z" />
<glyph unicode="&#xe7;" horiz-adv-x="425" d="M398 14q-60 -23 -140 -23q-107 0 -165.5 59t-58.5 182q0 122 64.5 198t188.5 76q60 0 109 -17l-20 -110q-47 19 -93 19q-56 0 -85.5 -41t-29.5 -112q0 -144 116 -144q52 0 97 20zM278 -40q72 -99 -20 -194h-96q38 45 41 79.5t-31 81.5z" />
<glyph unicode="&#xe8;" horiz-adv-x="514" d="M476 296q0 -44 -5 -72h-307q0 -134 137 -134q72 0 144 29l14 -97q-86 -32 -180 -32q-245 0 -245 254q0 115 63.5 189t172.5 74q104 0 155 -58.5t51 -152.5zM349 309q1 50 -22 77t-64 27q-40 0 -66.5 -28t-31.5 -76h184zM328 611l-67 -54l-141 149l82 65z" />
<glyph unicode="&#xe9;" horiz-adv-x="514" d="M476 296q0 -44 -5 -72h-307q0 -134 137 -134q72 0 144 29l14 -97q-86 -32 -180 -32q-245 0 -245 254q0 115 63.5 189t172.5 74q104 0 155 -58.5t51 -152.5zM349 309q1 50 -22 77t-64 27q-40 0 -66.5 -28t-31.5 -76h184zM401 707l-143 -150l-66 53l127 161z" />
<glyph unicode="&#xea;" horiz-adv-x="514" d="M476 296q0 -44 -5 -72h-307q0 -134 137 -134q72 0 144 29l14 -97q-86 -32 -180 -32q-245 0 -245 254q0 115 63.5 189t172.5 74q104 0 155 -58.5t51 -152.5zM349 309q1 50 -22 77t-64 27q-40 0 -66.5 -28t-31.5 -76h184zM420 619l-50 -59l-104 81l-103 -81l-49 58l153 136 z" />
<glyph unicode="&#xeb;" horiz-adv-x="514" d="M476 296q0 -44 -5 -72h-307q0 -134 137 -134q72 0 144 29l14 -97q-86 -32 -180 -32q-245 0 -245 254q0 115 63.5 189t172.5 74q104 0 155 -58.5t51 -152.5zM349 309q1 50 -22 77t-64 27q-40 0 -66.5 -28t-31.5 -76h184zM436 648q0 -28 -20 -48.5t-49 -20.5t-49 20.5 t-20 48.5q0 29 20 49t49 20t49 -20t20 -49zM234 648q0 -28 -20 -48.5t-49 -20.5t-49 20.5t-20 48.5q0 29 20 49t49 20t49 -20t20 -49z" />
<glyph unicode="&#xec;" horiz-adv-x="266" d="M197 0h-128v497h128v-497zM206 611l-67 -54l-141 149l82 65z" />
<glyph unicode="&#xed;" horiz-adv-x="266" d="M197 0h-128v497h128v-497zM268 707l-143 -150l-66 53l127 161z" />
<glyph unicode="&#xee;" horiz-adv-x="266" d="M197 0h-128v497h128v-497zM270 619l-49 -59l-88 81l-92 -81l-45 58l137 135z" />
<glyph unicode="&#xef;" horiz-adv-x="266" d="M197 0h-128v497h128v-497zM295 648q0 -28 -20.5 -48.5t-48.5 -20.5t-48.5 20.5t-20.5 48.5q0 29 20 49t49 20t49 -20t20 -49zM110 648q0 -28 -20 -48.5t-49 -20.5t-49 20t-20 49t20 49t49 20t49 -20t20 -49z" />
<glyph unicode="&#xf0;" horiz-adv-x="555" d="M518 278q0 -140 -69.5 -214t-178.5 -74t-173 63t-64 187q0 118 68 191.5t173 73.5q56 0 79 -31q-5 10 -14.5 25t-10.5 16q-19 33 -53 69l-92 -41l-52 60l84 37q-29 25 -76 57l125 53q36 -27 69 -60l89 39l51 -60l-86 -37q131 -161 131 -354zM385 260q0 66 -27.5 102.5 t-81.5 36.5q-47 0 -78.5 -38t-31.5 -111t30 -112t83 -39q49 0 77.5 40t28.5 121z" />
<glyph unicode="&#xf1;" horiz-adv-x="571" d="M501 0h-127v318q0 41 -14 61.5t-48 20.5q-48 0 -81.5 -47t-33.5 -113v-240h-128v497h121q0 -53 -7 -89h1q23 45 66.5 72t102.5 27q148 0 148 -158v-349zM468 666q-45 -89 -121 -89q-37 0 -73 25.5t-51 25.5q-30 0 -55 -45l-61 47q45 89 122 89q37 0 72 -25.5t51 -25.5 q30 0 55 45z" />
<glyph unicode="&#xf2;" horiz-adv-x="553" d="M520 258q0 -117 -71.5 -192.5t-182.5 -75.5q-110 0 -171.5 61t-61.5 189q0 117 70.5 192t183.5 75q110 0 171.5 -62t61.5 -187zM388 251q0 148 -110 148q-47 0 -80 -37t-33 -109q0 -154 111 -154q49 0 80.5 39.5t31.5 112.5zM342 611l-67 -54l-141 149l82 65z" />
<glyph unicode="&#xf3;" horiz-adv-x="553" d="M520 258q0 -117 -71.5 -192.5t-182.5 -75.5q-110 0 -171.5 61t-61.5 189q0 117 70.5 192t183.5 75q110 0 171.5 -62t61.5 -187zM388 251q0 148 -110 148q-47 0 -80 -37t-33 -109q0 -154 111 -154q49 0 80.5 39.5t31.5 112.5zM413 707l-143 -150l-66 53l127 161z" />
<glyph unicode="&#xf4;" horiz-adv-x="553" d="M520 258q0 -117 -71.5 -192.5t-182.5 -75.5q-110 0 -171.5 61t-61.5 189q0 117 70.5 192t183.5 75q110 0 171.5 -62t61.5 -187zM388 251q0 148 -110 148q-47 0 -80 -37t-33 -109q0 -154 111 -154q49 0 80.5 39.5t31.5 112.5zM436 619l-50 -59l-104 81l-103 -81l-49 58 l153 136z" />
<glyph unicode="&#xf5;" horiz-adv-x="553" d="M520 258q0 -117 -71.5 -192.5t-182.5 -75.5q-110 0 -171.5 61t-61.5 189q0 117 70.5 192t183.5 75q110 0 171.5 -62t61.5 -187zM388 251q0 148 -110 148q-47 0 -80 -37t-33 -109q0 -154 111 -154q49 0 80.5 39.5t31.5 112.5zM465 666q-45 -89 -121 -89q-37 0 -73 25.5 t-51 25.5q-30 0 -55 -45l-61 47q45 89 122 89q36 0 72 -25.5t51 -25.5q30 0 55 45z" />
<glyph unicode="&#xf6;" horiz-adv-x="553" d="M520 258q0 -117 -71.5 -192.5t-182.5 -75.5q-110 0 -171.5 61t-61.5 189q0 117 70.5 192t183.5 75q110 0 171.5 -62t61.5 -187zM388 251q0 148 -110 148q-47 0 -80 -37t-33 -109q0 -154 111 -154q49 0 80.5 39.5t31.5 112.5zM452 648q0 -28 -20 -48.5t-49 -20.5t-49 20.5 t-20 48.5q0 29 20 49t49 20t49 -20t20 -49zM250 648q0 -28 -20 -48.5t-49 -20.5t-49 20.5t-20 48.5q0 29 20 49t49 20t49 -20t20 -49z" />
<glyph unicode="&#xf7;" horiz-adv-x="550" d="M352 498q0 -32 -23 -55t-55 -23t-55 23t-23 55t23 55t55 23t55 -23t23 -55zM511 244h-472v107h472v-107zM352 97q0 -32 -23 -55t-55 -23t-55 23t-23 55t23 55t55 23t55 -23t23 -55z" />
<glyph unicode="&#xf8;" horiz-adv-x="555" d="M522 258q0 -118 -70.5 -193t-183.5 -75q-45 0 -81 10l-49 -98l-71 32l50 99q-84 60 -84 207q0 117 70.5 192t185.5 75q35 0 68 -6l45 88l70 -33l-45 -87q95 -62 95 -211zM400 251q0 75 -36 107l-121 -261q12 -5 35 -5q56 0 89 41t33 118zM302 405q-14 2 -23 2 q-51 0 -87.5 -38t-36.5 -115q0 -68 29 -103z" />
<glyph unicode="&#xf9;" horiz-adv-x="570" d="M501 0h-120q0 58 6 89h-1q-51 -99 -169 -99q-148 0 -148 158v349h127v-318q0 -41 14 -61.5t48 -20.5q48 0 81.5 47t33.5 113v240h128v-497zM341 611l-67 -54l-141 149l82 65z" />
<glyph unicode="&#xfa;" horiz-adv-x="570" d="M501 0h-120q0 58 6 89h-1q-51 -99 -169 -99q-148 0 -148 158v349h127v-318q0 -41 14 -61.5t48 -20.5q48 0 81.5 47t33.5 113v240h128v-497zM429 707l-143 -150l-66 53l127 161z" />
<glyph unicode="&#xfb;" horiz-adv-x="570" d="M501 0h-120q0 58 6 89h-1q-51 -99 -169 -99q-148 0 -148 158v349h127v-318q0 -41 14 -61.5t48 -20.5q48 0 81.5 47t33.5 113v240h128v-497zM438 619l-50 -59l-104 81l-103 -81l-49 58l153 136z" />
<glyph unicode="&#xfc;" horiz-adv-x="570" d="M501 0h-120q0 58 6 89h-1q-51 -99 -169 -99q-148 0 -148 158v349h127v-318q0 -41 14 -61.5t48 -20.5q48 0 81.5 47t33.5 113v240h128v-497zM455 648q0 -28 -20.5 -48.5t-48.5 -20.5t-48.5 20.5t-20.5 48.5q0 29 20 49t49 20t49 -20t20 -49zM253 648q0 -28 -20.5 -48.5 t-48.5 -20.5t-48.5 20.5t-20.5 48.5q0 29 20 49t49 20t49 -20t20 -49z" />
<glyph unicode="&#xfd;" horiz-adv-x="502" d="M499 497l-197 -525q-47 -125 -104 -173t-146 -48q-37 0 -70 7l15 110q32 -10 63 -10q79 0 113 98l16 44l-184 497h143l67 -190q22 -68 39 -137h1q16 67 48 158l59 169h137zM404 707l-143 -150l-66 53l127 161z" />
<glyph unicode="&#xfe;" horiz-adv-x="559" d="M523 275q0 -132 -67.5 -207t-194.5 -75q-36 0 -64 4v-238h-128v971h128v-204q0 -64 -5 -102h2q42 83 147 83q88 0 135 -60.5t47 -171.5zM389 261q0 141 -85 141q-48 0 -77.5 -48t-29.5 -115v-138q30 -9 67 -9q125 0 125 169z" />
<glyph unicode="&#xff;" horiz-adv-x="502" d="M499 497l-197 -525q-47 -125 -104 -173t-146 -48q-37 0 -70 7l15 110q32 -10 63 -10q79 0 113 98l16 44l-184 497h143l67 -190q22 -68 39 -137h1q16 67 48 158l59 169h137zM425 648q0 -28 -20.5 -48.5t-48.5 -20.5t-48.5 20.5t-20.5 48.5q0 29 20 49t49 20t49 -20t20 -49 zM223 648q0 -28 -20.5 -48.5t-48.5 -20.5t-48.5 20.5t-20.5 48.5q0 29 20 49t49 20t49 -20t20 -49z" />
<glyph unicode="&#x131;" horiz-adv-x="266" d="M197 0h-128v497h128v-497z" />
<glyph unicode="&#x141;" horiz-adv-x="438" d="M428 0h-349v315l-66 -31l-23 101l89 41v249h130v-188l98 45l24 -101l-122 -55v-262h219v-114z" />
</font>
</defs>
</svg>
