<?xml version="1.0" standalone="no"?>
<!DOCTYPE svg PUBLIC "-//W3C//DTD SVG 1.1//EN" "http://www.w3.org/Graphics/SVG/1.1/DTD/svg11.dtd" >
<svg xmlns="http://www.w3.org/2000/svg" xmlns:xlink="http://www.w3.org/1999/xlink" version="1.1">
<metadata></metadata>
<defs>
<font id="thesansarabic_plainplain" horiz-adv-x="319" >
<font-face units-per-em="1000" ascent="740" descent="-260" />
<missing-glyph horiz-adv-x="218" />
<glyph unicode="&#xfe92;&#xfeae;" horiz-adv-x="780" arabic-form="final" d="M90 -257q-56 0 -104 15l10 75q53 -17 101 -17q66 0 99.5 38.5t33.5 132.5v483h421v-397h129v-73h-221v397h-237v-402q0 -252 -232 -252zM553 -142q0 23 15.5 38.5t37.5 15.5q23 0 38.5 -15.5t15.5 -38.5q0 -22 -16 -38t-38 -16t-37.5 15.5t-15.5 38.5z" />
<glyph unicode="&#xfe92;&#xfee6;" horiz-adv-x="1038" arabic-form="final" d="M908 470v-397h130v-73h-222v397h-237v-346q0 -282 -264 -282q-112 0 -180 67t-68 212q0 102 24 190l95 18q-27 -99 -27 -199q0 -117 47.5 -166t117.5 -49q163 0 163 203v425h421zM261 419q0 22 16 38t38 16q23 0 39 -16t16 -38q0 -23 -16 -39t-39 -16q-22 0 -38 16.5 t-16 38.5zM808 -142q0 23 15.5 38.5t37.5 15.5q23 0 38.5 -15.5t15.5 -38.5q0 -22 -15.5 -38t-38.5 -16q-22 0 -37.5 15.5t-15.5 38.5z" />
<glyph unicode="&#xfe98;&#xfeae;" horiz-adv-x="780" arabic-form="final" d="M90 -257q-56 0 -104 15l10 75q53 -17 101 -17q66 0 99.5 38.5t33.5 132.5v483h421v-397h129v-73h-221v397h-237v-402q0 -252 -232 -252zM479 610q0 22 15 37t37 15t37 -15t15 -37t-15 -37t-37 -15t-37 15t-15 37zM624 610q0 22 15 37t37 15q21 0 36.5 -15t15.5 -37 q0 -21 -15 -36.5t-37 -15.5t-37 15t-15 37z" />
<glyph unicode="&#xfe9c;&#xfeae;" horiz-adv-x="780" arabic-form="final" d="M90 -257q-56 0 -104 15l10 75q53 -17 101 -17q66 0 99.5 38.5t33.5 132.5v483h421v-397h129v-73h-221v397h-237v-402q0 -252 -232 -252zM478 608q0 21 15 36.5t37 15.5t37 -15t15 -37t-15 -37.5t-37 -15.5t-37 15.5t-15 37.5zM625 608q0 21 15.5 36.5t36.5 15.5 q22 0 37.5 -15t15.5 -37t-15.5 -37.5t-37.5 -15.5q-21 0 -36.5 15.5t-15.5 37.5zM552 721q0 22 15 37.5t37 15.5t37 -15.5t15 -37.5q0 -21 -15 -36.5t-37 -15.5t-37 15t-15 37z" />
<glyph unicode="&#xfe9c;&#xfee6;" horiz-adv-x="1038" arabic-form="final" d="M908 470v-397h130v-73h-222v397h-237v-346q0 -282 -264 -282q-112 0 -180 67t-68 212q0 102 24 190l95 18q-27 -99 -27 -199q0 -117 47.5 -166t117.5 -49q163 0 163 203v425h421zM261 419q0 22 16 38t38 16q23 0 39 -16t16 -38q0 -23 -16 -39t-39 -16q-22 0 -38 16.5 t-16 38.5zM735 608q0 21 15 36.5t37 15.5t37 -15t15 -37t-15 -37.5t-37 -15.5t-37 15.5t-15 37.5zM882 608q0 21 15.5 36.5t36.5 15.5q22 0 37.5 -15t15.5 -37t-15.5 -37.5t-37.5 -15.5q-21 0 -36.5 15.5t-15.5 37.5zM809 721q0 22 15 37.5t37 15.5t37 -15.5t15 -37.5 q0 -21 -15 -36.5t-37 -15.5t-37 15t-15 37z" />
<glyph unicode="&#xfee8;&#xfeae;" horiz-adv-x="780" arabic-form="final" d="M90 -257q-56 0 -104 15l10 75q53 -17 101 -17q66 0 99.5 38.5t33.5 132.5v483h421v-397h129v-73h-221v397h-237v-402q0 -252 -232 -252zM549 609q0 22 16 38t38 16q23 0 39 -16t16 -38q0 -23 -16 -39t-39 -16q-22 0 -38 16.5t-16 38.5z" />
<glyph unicode="&#xfee8;&#xfee6;" horiz-adv-x="1038" arabic-form="final" d="M908 470v-397h130v-73h-222v397h-237v-346q0 -282 -264 -282q-112 0 -180 67t-68 212q0 102 24 190l95 18q-27 -99 -27 -199q0 -117 47.5 -166t117.5 -49q163 0 163 203v425h421zM261 419q0 22 16 38t38 16q23 0 39 -16t16 -38q0 -23 -16 -39t-39 -16q-22 0 -38 16.5 t-16 38.5zM808 609q0 22 16 38t38 16q23 0 39 -16t16 -38q0 -23 -16.5 -39t-38.5 -16t-38 16.5t-16 38.5z" />
<glyph unicode="&#xfef4;&#xfeae;" horiz-adv-x="785" arabic-form="final" d="M90 -257q-56 0 -104 15l10 75q53 -17 101 -17q66 0 99.5 38.5t33.5 132.5v483h425v-397h130v-73h-222v397h-241v-402q0 -252 -232 -252zM482 -144q0 22 15 37.5t37 15.5t37 -15.5t15 -37.5q0 -21 -15 -36.5t-37 -15.5t-37 15.5t-15 36.5zM627 -144q0 22 15 37.5t37 15.5 q21 0 36.5 -15.5t15.5 -37.5q0 -21 -15 -36.5t-37 -15.5t-37 15.5t-15 36.5z" />
<glyph unicode="&#xfef4;&#xfee6;" horiz-adv-x="1038" arabic-form="final" d="M908 470v-397h130v-73h-222v397h-237v-346q0 -282 -264 -282q-112 0 -180 67t-68 212q0 102 24 190l95 18q-27 -99 -27 -199q0 -117 47.5 -166t117.5 -49q163 0 163 203v425h421zM261 419q0 22 16 38t38 16q23 0 39 -16t16 -38q0 -23 -16 -39t-39 -16q-22 0 -38 16.5 t-16 38.5zM737 -144q0 22 15 37.5t37 15.5t37 -15.5t15 -37.5q0 -21 -15 -36.5t-37 -15.5t-37 15.5t-15 36.5zM882 -144q0 22 15 37.5t37 15.5q21 0 36.5 -15.5t15.5 -37.5q0 -21 -15 -36.5t-37 -15.5t-37 15.5t-15 36.5z" />
<glyph unicode="&#xfedf;&#xfee0;&#xfeea;" horiz-adv-x="1311" arabic-form="isolated" d="M328 0q-262 0 -262 234q0 105 65 176t187 71q49 0 99 -8.5t76 -17.5l26 -9v-373h252v556h92v-556h258v632h92v-705h-885zM429 73v312q-49 23 -121 23q-69 0 -109 -45t-40 -120q0 -87 43.5 -128.5t138.5 -41.5h88z" />
<glyph unicode="&#xfedf;&#xfe82;" horiz-adv-x="605" arabic-form="isolated" d="M154 710l161 -547h-94l-158 535zM507 0h-401v73h309v632h92v-705zM-21 767v64l83 25q35 -35 78 -35q10 0 20.5 2.5t18.5 5.5t16 7.5t12.5 8t9 7.5t5.5 4v-64q-45 -28 -88 -28q-46 0 -78 27z" />
<glyph unicode="&#xfee0;&#xfe82;" horiz-adv-x="636" arabic-form="final" d="M106 0v73h309v632h92v-632h129v-73h-530zM154 710l161 -547h-94l-158 535zM-21 767v64l83 25q35 -35 78 -35q10 0 20.5 2.5t18.5 5.5t16 7.5t12.5 8t9 7.5t5.5 4v-64q-45 -28 -88 -28q-46 0 -78 27z" />
<glyph unicode="&#xfedf;&#xfe84;" horiz-adv-x="605" arabic-form="isolated" d="M191 572l124 -409h-94l-124 409h94zM507 0h-401v73h309v632h92v-705zM17 623v53q42 0 59 -3q-20 12 -20 39q0 36 30.5 61.5t86.5 25.5q30 0 54 -6l-9 -53q-24 6 -50 6q-23 0 -35.5 -9t-12.5 -24q0 -37 68 -37h61v-53h-232z" />
<glyph unicode="&#xfee0;&#xfe84;" horiz-adv-x="636" arabic-form="final" d="M106 0v73h309v632h92v-632h129v-73h-530zM191 572l124 -409h-94l-124 409h94zM17 623v53q42 0 59 -3q-20 12 -20 39q0 36 30.5 61.5t86.5 25.5q30 0 54 -6l-9 -53q-24 6 -50 6q-23 0 -35.5 -9t-12.5 -24q0 -37 68 -37h61v-53h-232z" />
<glyph unicode="&#xfedf;&#xfe88;" horiz-adv-x="605" arabic-form="isolated" d="M154 710l161 -547h-94l-158 535zM507 0h-401v73h309v632h92v-705zM133 -237v54q39 0 60 -4q-21 13 -21 39q0 38 31 63t87 25q28 0 54 -6l-10 -54q-24 6 -48 6q-23 0 -35.5 -9t-12.5 -24q0 -36 67 -36h60v-54h-232z" />
<glyph unicode="&#xfee0;&#xfe88;" horiz-adv-x="636" arabic-form="final" d="M636 0h-530v73h309v632h92v-632h129v-73zM154 710l161 -547h-94l-158 535zM133 -237v54q39 0 60 -4q-21 13 -21 39q0 38 31 63t87 25q28 0 54 -6l-10 -54q-24 6 -48 6q-23 0 -35.5 -9t-12.5 -24q0 -36 67 -36h60v-54h-232z" />
<glyph unicode="&#xfedf;&#xfe8e;" horiz-adv-x="605" arabic-form="isolated" d="M154 710l161 -547h-94l-158 535zM507 0h-401v73h309v632h92v-705z" />
<glyph unicode="&#xfee0;&#xfe8e;" horiz-adv-x="636" arabic-form="final" d="M636 0h-530v73h309v632h92v-632h129v-73zM154 710l161 -547h-94l-158 535z" />
<glyph unicode="&#x66e;" d="M221 0h-236q-19 0 -39.5 10.5t-20.5 26.5q0 15 21 25.5t39 10.5h144v397h92v-470z" />
<glyph unicode="&#x66e;" horiz-adv-x="351" d="M351 0h-366q-19 0 -39.5 10.5t-20.5 26.5q0 15 21 25.5t39 10.5h144v397h92v-397h130v-73z" />
<glyph unicode="&#x66e;" horiz-adv-x="826" d="M826 0h-403q-185 0 -267 72.5t-82 218.5q0 96 32 167l99 16q-39 -76 -39 -172q0 -119 59 -174t210 -55h170v397h92v-397h129v-73z" />
<glyph unicode="&#x66f;" horiz-adv-x="619" d="M539 0h-554q-19 0 -39.5 10.5t-20.5 26.5q0 15 21 25.5t39 10.5h106l58 -5q-74 47 -74 169q0 103 66 173.5t184 70.5q106 0 160 -57.5t54 -166.5v-257zM449 73v169q0 166 -132 166q-69 0 -109 -45t-40 -121q0 -86 43.5 -127.5t138.5 -41.5h99z" />
<glyph unicode="&#x66f;" horiz-adv-x="608" d="M608 0h-623q-19 0 -39.5 10.5t-20.5 26.5q0 15 21 25.5t39 10.5h82l71 -3q-66 49 -66 167q0 105 66 174.5t176 69.5q102 0 162.5 -56.5t60.5 -176.5q0 -55 -20 -103t-57 -75q50 3 87 3h61v-73zM306 73q60 0 99 43.5t39 127.5q0 79 -35 121.5t-103 42.5q-59 0 -99.5 -41.5 t-40.5 -122.5q0 -83 36 -127t104 -44z" />
<glyph unicode="&#x66f;" horiz-adv-x="932" d="M802 446v-373h130v-73h-130v-238q-164 -13 -302 -13q-230 0 -331.5 72t-101.5 231q0 98 24 186l95 18q-27 -99 -27 -194q0 -130 80 -185t274 -55q42 0 92 2t79 4l28 2v170h-100q-263 0 -263 234q0 105 65.5 176t186.5 71q49 0 99 -8.5t76 -17.5zM712 73v312 q-48 23 -121 23q-69 0 -109 -45t-40 -120q0 -87 43.5 -128.5t139.5 -41.5h87z" />
<glyph unicode="&#x672;" d="M98 0v675h92v-602h129v-73h-221zM-23 765v61q37 4 62.5 -6t41.5 -22t28 -12q-32 19 -32 49q0 39 32 67t96 28q24 0 54 -5l-10 -54q-22 5 -50 5q-55 0 -55 -41q0 -45 78 -45h56v-55h-133q-42 0 -89 18.5t-79 11.5z" />
<glyph unicode="&#x673;" d="M98 0v675h92v-602h129v-73h-221zM-23 -222v61q37 4 62.5 -6t41.5 -22t28 -12q-32 19 -32 49q0 39 32 67t96 28q24 0 54 -5l-10 -54q-23 5 -50 5q-55 0 -55 -41q0 -45 78 -45h56v-55h-133q-42 0 -89 18.5t-79 11.5z" />
<glyph unicode="&#x675;" d="M98 0v675h92v-602h129v-73h-221zM140 729v55q37 0 71 -6q-31 14 -31 50q0 39 32.5 67.5t96.5 28.5q24 0 54 -5l-10 -54q-45 5 -50 5q-56 0 -56 -41q0 -45 79 -45h56v-55h-242z" />
<glyph unicode="&#x676;" horiz-adv-x="648" d="M228 -253q-34 0 -73 3.5t-61 7.5l-22 4l6 78q84 -20 160 -20q191 0 191 156v24h-101q-262 0 -262 234q0 105 65 176t187 71q49 0 99 -8.5t76 -17.5l26 -9v-373h129v-73h-129v-19q0 -46 -16 -86.5t-48.5 -74.5t-91 -53.5t-135.5 -19.5zM429 73v312q-49 23 -121 23 q-69 0 -109 -45t-40 -120q0 -87 43.5 -128.5t138.5 -41.5h88zM346 561v55q37 0 71 -6q-31 14 -31 50q0 39 32.5 67.5t96.5 28.5q24 0 54 -5l-10 -54q-45 5 -50 5q-56 0 -56 -41q0 -45 79 -45h56v-55h-242z" />
<glyph unicode="&#x678;" horiz-adv-x="1027" d="M610 0h-187q-185 0 -267 72.5t-82 218.5q0 96 32 167l99 16q-39 -76 -39 -172q0 -119 59 -174t210 -55h86v389q87 19 182 19q120 0 171.5 -55t51.5 -163v-190h101v-73h-191v251q0 84 -33 120.5t-109 36.5q-18 0 -39 -2t-33 -4l-12 -2v-400zM569 563v55q37 0 71 -6 q-31 14 -31 50q0 39 32.5 67.5t96.5 28.5q24 0 54 -5l-10 -54q-45 5 -50 5q-56 0 -56 -41q0 -45 79 -45h56v-55h-242z" />
<glyph unicode="&#x67c;" d="M172 -38q0 -42 -26 -69.5t-68 -27.5q-39 0 -63 22t-24 68q0 25 9 45h-15q-19 0 -39.5 10.5t-20.5 26.5q0 15 21 25.5t39 10.5h144v397h92v-470h-55q6 -16 6 -38zM48 610q0 22 15 37t37 15t37 -15t15 -37t-15 -37t-37 -15t-37 15t-15 37zM193 610q0 22 15 37t37 15 q21 0 36.5 -15t15.5 -37q0 -21 -15 -36.5t-37 -15.5t-37 15t-15 37zM111 -42q0 42 -29 42q-12 0 -21.5 -10.5t-9.5 -30.5q0 -42 30 -42q13 0 21.5 11t8.5 30z" />
<glyph unicode="&#x67c;" horiz-adv-x="351" d="M266 -38q0 -42 -26 -69.5t-68 -27.5q-39 0 -63 22t-24 68q0 25 9 45h-109q-19 0 -39.5 10.5t-20.5 26.5q0 15 21 25.5t39 10.5h144v397h92v-397h130v-73h-91q6 -16 6 -38zM48 610q0 22 15 37t37 15t37 -15t15 -37t-15 -37t-37 -15t-37 15t-15 37zM193 610q0 22 15 37 t37 15q21 0 36.5 -15t15.5 -37q0 -21 -15 -36.5t-37 -15.5t-37 15t-15 37zM205 -42q0 42 -29 42q-12 0 -21.5 -10.5t-9.5 -30.5q0 -42 30 -42q13 0 21.5 11t8.5 30z" />
<glyph unicode="&#x67c;" horiz-adv-x="826" d="M582 -38q0 -42 -26 -69.5t-68 -27.5q-39 0 -63 22t-24 68q0 25 9 45q-177 2 -256.5 74.5t-79.5 216.5q0 96 32 167l99 16q-39 -76 -39 -172q0 -119 59 -174t210 -55h170v397h92v-397h129v-73h-250q6 -16 6 -38zM288 610q0 22 15 37t37 15t37 -15t15 -37t-15 -37t-37 -15 t-37 15t-15 37zM433 610q0 22 15 37t37 15q21 0 36.5 -15t15.5 -37q0 -21 -15 -36.5t-37 -15.5t-37 15t-15 37zM521 -42q0 42 -29 42h-4q-27 -4 -27 -41q0 -42 30 -42q13 0 21.5 11t8.5 30z" />
<glyph unicode="&#x67d;" d="M221 0h-236q-19 0 -39.5 10.5t-20.5 26.5q0 15 21 25.5t39 10.5h144v397h92v-470zM171 659q22 0 37 -14.5t15 -36.5t-15 -37t-37 -15q-21 0 -36 15t-15 37q0 21 15 36t36 15zM98 772q22 0 37 -15t15 -37t-15 -36.5t-37 -14.5t-37 14.5t-15 36.5t15 37t37 15zM245 772 q21 0 36.5 -15t15.5 -37q0 -21 -15.5 -36t-36.5 -15q-22 0 -37 14.5t-15 36.5t15 37t37 15z" />
<glyph unicode="&#x67d;" horiz-adv-x="351" d="M-15 0q-19 0 -39.5 10.5t-20.5 26.5q0 15 21 25.5t39 10.5h144v397h92v-397h130v-73h-366zM98 772q22 0 37 -15t15 -37t-15 -36.5t-37 -14.5t-37 14.5t-15 36.5t15 37t37 15zM245 772q21 0 36.5 -15t15.5 -37q0 -21 -15.5 -36t-36.5 -15q-22 0 -37 14.5t-15 36.5t15 37 t37 15zM171 659q22 0 37 -14.5t15 -36.5t-15 -37t-37 -15q-21 0 -36 15t-15 37q0 21 15 36t36 15z" />
<glyph unicode="&#x67d;" horiz-adv-x="826" d="M423 0q-185 0 -267 72.5t-82 218.5q0 96 32 167l99 16q-39 -76 -39 -172q0 -119 59 -174t210 -55h170v397h92v-397h129v-73h-403zM339 772q22 0 37 -15t15 -37t-15 -36.5t-37 -14.5t-37 14.5t-15 36.5t15 37t37 15zM486 772q21 0 36.5 -15t15.5 -37q0 -21 -15.5 -36 t-36.5 -15q-22 0 -37 14.5t-15 36.5t15 37t37 15zM412 659q22 0 37 -14.5t15 -36.5t-15 -37t-37 -15q-21 0 -36 15t-15 37q0 21 15 36t36 15z" />
<glyph unicode="&#x681;" horiz-adv-x="531" d="M440 0h-455q-19 0 -39.5 10.5t-20.5 26.5q0 15 21 25.5t39 10.5h373q7 49 7 103q0 117 -49.5 171t-168.5 54q-58 0 -120 -10v72q61 11 127 11q162 0 232.5 -72t70.5 -220q0 -80 -17 -182zM63 564v55q37 0 71 -6q-31 14 -31 50q0 39 32.5 67.5t96.5 28.5q24 0 54 -5 l-10 -54q-45 5 -50 5q-56 0 -56 -41q0 -45 79 -45h56v-55h-242z" />
<glyph unicode="&#x681;" horiz-adv-x="528" d="M-15 0q-19 0 -39.5 10.5t-20.5 26.5q0 15 21 25.5t39 10.5h373q7 49 7 103q0 117 -49.5 171t-168.5 54q-58 0 -120 -10v72q61 11 127 11q162 0 232.5 -72t70.5 -220q0 -37 -7 -109h78v-73h-543zM63 564v55q37 0 71 -6q-31 14 -31 50q0 39 32.5 67.5t96.5 28.5q24 0 54 -5 l-10 -54q-45 5 -50 5q-56 0 -56 -41q0 -45 79 -45h56v-55h-242z" />
<glyph unicode="&#x681;" horiz-adv-x="604" d="M310 -320q-133 0 -203 51.5t-70 136.5q0 94 74 149.5t235 55.5h93q7 61 7 103q0 117 -49.5 171t-169.5 54q-59 0 -111 -7v72q66 8 119 8q161 0 231.5 -72t70.5 -220q0 -48 -6 -109h73v-73h-263q-118 0 -165 -33t-47 -91q0 -55 48 -89t141 -34q82 0 180 21l8 -72 q-98 -22 -196 -22zM129 564v55q37 0 71 -6q-31 14 -31 50q0 39 32.5 67.5t96.5 28.5q24 0 54 -5l-10 -54q-45 5 -50 5q-56 0 -56 -41q0 -45 79 -45h56v-55h-242z" />
<glyph unicode="&#x682;" horiz-adv-x="531" d="M440 0h-455q-19 0 -39.5 10.5t-20.5 26.5q0 15 21 25.5t39 10.5h373q7 49 7 103q0 117 -49.5 171t-168.5 54q-58 0 -120 -10v72q61 11 127 11q162 0 232.5 -72t70.5 -220q0 -80 -17 -182zM179 558q-22 0 -36.5 15t-14.5 37t14.5 36.5t36.5 14.5t37 -14.5t15 -36.5 t-15 -37t-37 -15zM179 700q-21 0 -36 15t-15 37t15 37t36 15q22 0 37 -15t15 -37q0 -21 -15 -36.5t-37 -15.5z" />
<glyph unicode="&#x682;" horiz-adv-x="528" d="M-15 0q-19 0 -39.5 10.5t-20.5 26.5q0 15 21 25.5t39 10.5h373q7 49 7 103q0 117 -49.5 171t-168.5 54q-58 0 -120 -10v72q61 11 127 11q162 0 232.5 -72t70.5 -220q0 -37 -7 -109h78v-73h-543zM179 700q-21 0 -36 15t-15 37t15 37t36 15q22 0 37 -15t15 -37 q0 -21 -15 -36.5t-37 -15.5zM179 558q-22 0 -36.5 15t-14.5 37t14.5 36.5t36.5 14.5t37 -14.5t15 -36.5t-15 -37t-37 -15z" />
<glyph unicode="&#x682;" horiz-adv-x="604" d="M310 -320q-133 0 -203 51.5t-70 136.5q0 94 74 149.5t235 55.5h93q7 61 7 103q0 117 -49.5 171t-169.5 54q-59 0 -111 -7v72q66 8 119 8q161 0 231.5 -72t70.5 -220q0 -48 -6 -109h73v-73h-263q-118 0 -165 -33t-47 -91q0 -55 48 -89t141 -34q82 0 180 21l8 -72 q-98 -22 -196 -22zM275 700q-21 0 -36 15t-15 37t15 37t36 15q22 0 37 -15t15 -37q0 -21 -15 -36.5t-37 -15.5zM275 558q-22 0 -36.5 15t-14.5 37t14.5 36.5t36.5 14.5t37 -14.5t15 -36.5t-15 -37t-37 -15z" />
<glyph unicode="&#x685;" horiz-adv-x="531" d="M440 0h-455q-19 0 -39.5 10.5t-20.5 26.5q0 15 21 25.5t39 10.5h373q7 49 7 103q0 117 -49.5 171t-168.5 54q-58 0 -120 -10v72q61 11 127 11q162 0 232.5 -72t70.5 -220q0 -80 -17 -182zM54 608q0 21 15 36.5t37 15.5t37 -15t15 -37t-15 -37.5t-37 -15.5t-37 15.5 t-15 37.5zM201 608q0 21 15.5 36.5t36.5 15.5q22 0 37.5 -15t15.5 -37t-15.5 -37.5t-37.5 -15.5q-21 0 -36.5 15.5t-15.5 37.5zM128 721q0 22 15 37.5t37 15.5t37 -15.5t15 -37.5q0 -21 -15 -36.5t-37 -15.5t-37 15t-15 37z" />
<glyph unicode="&#x685;" horiz-adv-x="528" d="M528 0h-543q-19 0 -39.5 10.5t-20.5 26.5q0 15 21 25.5t39 10.5h373q7 49 7 103q0 117 -49.5 171t-168.5 54q-58 0 -120 -10v72q61 11 127 11q162 0 232.5 -72t70.5 -220q0 -37 -7 -109h78v-73zM201 608q0 21 15.5 36.5t36.5 15.5q22 0 37.5 -15t15.5 -37t-15.5 -37.5 t-37.5 -15.5q-21 0 -36.5 15.5t-15.5 37.5zM128 721q0 22 15 37.5t37 15.5t37 -15.5t15 -37.5q0 -21 -15 -36.5t-37 -15.5t-37 15t-15 37zM54 608q0 21 15 36.5t37 15.5t37 -15t15 -37t-15 -37.5t-37 -15.5t-37 15.5t-15 37.5z" />
<glyph unicode="&#x685;" horiz-adv-x="604" d="M341 0q-118 0 -165 -33t-47 -91q0 -55 48 -89t141 -34q82 0 180 21l8 -72q-98 -22 -196 -22q-133 0 -203 51.5t-70 136.5q0 94 74 149.5t235 55.5h93q7 61 7 103q0 117 -49.5 171t-169.5 54q-59 0 -111 -7v72q66 8 119 8q161 0 231.5 -72t70.5 -220q0 -48 -6 -109h73v-73 h-263zM297 608q0 21 15.5 36.5t36.5 15.5q22 0 37.5 -15t15.5 -37t-15.5 -37.5t-37.5 -15.5q-21 0 -36.5 15.5t-15.5 37.5zM224 721q0 22 15 37.5t37 15.5t37 -15.5t15 -37.5q0 -21 -15 -36.5t-37 -15.5t-37 15t-15 37zM150 608q0 21 15 36.5t37 15.5t37 -15t15 -37 t-15 -37.5t-37 -15.5t-37 15.5t-15 37.5z" />
<glyph unicode="&#x689;" horiz-adv-x="536" d="M57 0v73h320q-2 139 -61 219t-191 120l24 77q161 -49 238 -146t81 -270h68v-73h-165q6 -16 6 -38q0 -42 -26 -69.5t-68 -27.5q-39 0 -63 22t-24 68q0 25 9 45h-148zM316 -42q0 39 -25 42h-4q-12 0 -21.5 -10.5t-9.5 -30.5q0 -42 30 -42q13 0 21.5 11t8.5 30z" />
<glyph unicode="&#x68a;" horiz-adv-x="536" d="M57 0v73h320q-2 139 -61 219t-191 120l24 77q161 -49 238 -146t81 -270h68v-73h-479zM200 -142q0 23 15.5 38.5t37.5 15.5q23 0 38.5 -15.5t15.5 -38.5q0 -22 -15.5 -38t-38.5 -16q-22 0 -37.5 15.5t-15.5 38.5z" />
<glyph unicode="&#x68b;" horiz-adv-x="536" d="M57 0v73h320q-2 139 -61 219t-191 120l24 77q161 -49 238 -146t81 -270h68v-73h-479zM177 858v-82q0 -27 -7 -62h1q19 34 52 55.5t70 21.5q45 0 69.5 -25t24.5 -69q0 -55 -37.5 -87t-110.5 -32h-120v280h58zM327 690q0 53 -41 53q-37 0 -70.5 -38t-38.5 -80h71 q79 0 79 65zM200 -142q0 23 15.5 38.5t37.5 15.5q23 0 38.5 -15.5t15.5 -38.5q0 -22 -15.5 -38t-38.5 -16q-22 0 -37.5 15.5t-15.5 38.5z" />
<glyph unicode="&#x68f;" horiz-adv-x="536" d="M57 0v73h320q-2 139 -61 219t-191 120l24 77q161 -49 238 -146t81 -270h68v-73h-479zM129 772q22 0 37 -15t15 -37t-15 -36.5t-37 -14.5t-37 14.5t-15 36.5t15 37t37 15zM276 772q21 0 36.5 -15t15.5 -37q0 -21 -15.5 -36t-36.5 -15q-22 0 -37 14.5t-15 36.5t15 37t37 15 zM202 659q22 0 37 -14.5t15 -36.5t-15 -37t-37 -15q-21 0 -36 15t-15 37q0 21 15 36t36 15z" />
<glyph unicode="&#x690;" horiz-adv-x="536" d="M57 0v73h320q-2 139 -61 219t-191 120l24 77q161 -49 238 -146t81 -270h68v-73h-479zM271 702q-21 0 -36 14.5t-15 36.5q0 21 15 36t36 15t36.5 -15t15.5 -36t-15.5 -36t-36.5 -15zM271 559q-21 0 -36 14.5t-15 36.5q0 21 15 36t36 15t36.5 -15t15.5 -36t-15.5 -36 t-36.5 -15zM128 702q-21 0 -36 14.5t-15 36.5q0 21 15 36t36 15t36 -14.5t15 -36.5q0 -21 -15 -36t-36 -15zM128 559q-21 0 -36 14.5t-15 36.5q0 21 15 36t36 15t36 -14.5t15 -36.5q0 -21 -15 -36t-36 -15z" />
<glyph unicode="&#x692;" horiz-adv-x="451" d="M90 -257q-56 0 -104 15l10 75q53 -17 101 -17q66 0 99.5 38.5t33.5 132.5v483h92v-397h129v-73h-129v-5q0 -252 -232 -252zM416 643l-139 -131l-139 129l40 44l100 -85l99 85z" />
<glyph unicode="&#x693;" horiz-adv-x="451" d="M365 -212q0 -42 -26 -69t-68 -27q-72 0 -85 65q-42 -14 -96 -14q-56 0 -104 15l10 75q53 -17 101 -17q66 0 99.5 38.5t33.5 132.5v483h92v-397h129v-73h-129v-5q0 -68 -17 -119q60 -15 60 -88zM305 -215q0 41 -30 41q-12 0 -21 -10.5t-9 -30.5q0 -41 30 -41q12 0 21 11 t9 30z" />
<glyph unicode="&#x694;" horiz-adv-x="451" d="M90 -257q-56 0 -104 15l10 75q53 -17 101 -17q66 0 99.5 38.5t33.5 132.5v483h92v-397h129v-73h-129v-5q0 -252 -232 -252zM276 -268q0 22 15 37.5t37 15.5t37 -15.5t15 -37.5t-15 -37t-37 -15t-37 15t-15 37z" />
<glyph unicode="&#x695;" horiz-adv-x="451" d="M90 -183q-53 0 -104 14l10 76q48 -17 101 -17q66 0 99.5 38t33.5 132v410h92v-397h129v-73h-134q-27 -183 -227 -183zM385 -181l-111 -139l-178 25l7 54l146 -12l94 108z" />
<glyph unicode="&#x696;" horiz-adv-x="478" d="M117 -257q-56 0 -104 15l10 75q53 -17 101 -17q66 0 99.5 38.5t33.5 132.5v483h92v-397h129v-73h-129v-5q0 -252 -232 -252zM88 -62q0 22 15 37.5t37 15.5t37 -15.5t15 -37.5t-15 -37t-37 -15t-37 15t-15 37zM307 -268q0 22 15 37.5t37 15.5t37 -15.5t15 -37.5t-15 -37 t-37 -15t-37 15t-15 37z" />
<glyph unicode="&#x697;" horiz-adv-x="451" d="M90 -257q-56 0 -104 15l10 75q53 -17 101 -17q66 0 99.5 38.5t33.5 132.5v483h92v-397h129v-73h-129v-5q0 -252 -232 -252zM149 610q0 22 15 37t37 15t37 -15t15 -37t-15 -37t-37 -15t-37 15t-15 37zM294 610q0 22 15 37t37 15q21 0 36.5 -15t15.5 -37q0 -21 -15 -36.5 t-37 -15.5t-37 15t-15 37z" />
<glyph unicode="&#x699;" horiz-adv-x="451" d="M90 -257q-56 0 -104 15l10 75q53 -17 101 -17q66 0 99.5 38.5t33.5 132.5v483h92v-397h129v-73h-129v-5q0 -252 -232 -252zM344 702q-21 0 -36 14.5t-15 36.5q0 21 15 36t36 15t36.5 -15t15.5 -36t-15.5 -36t-36.5 -15zM344 559q-21 0 -36 14.5t-15 36.5q0 21 15 36 t36 15t36.5 -15t15.5 -36t-15.5 -36t-36.5 -15zM201 702q-21 0 -36 14.5t-15 36.5q0 21 15 36t36 15t36 -14.5t15 -36.5q0 -21 -15 -36t-36 -15zM201 559q-21 0 -36 14.5t-15 36.5q0 21 15 36t36 15t36 -14.5t15 -36.5q0 -21 -15 -36t-36 -15z" />
<glyph unicode="&#x69a;" horiz-adv-x="868" d="M29 0h-44q-19 0 -39.5 10.5t-20.5 26.5q0 15 21 25.5t39 10.5h44q55 0 79 30t24 107v200h92v-182q0 -36 1 -57t5.5 -44t13.5 -34.5t24.5 -19t39.5 -7.5q50 0 77 35.5t27 125.5v223h90v-256q0 -76 31 -98.5t117 -22.5h32q8 69 8 139q0 149 -33 276l90 15q35 -131 35 -283 q0 -113 -16 -220h-113q-97 0 -142 17t-66 63q-14 -36 -52.5 -61.5t-100.5 -25.5q-49 0 -83.5 23.5t-45.5 62.5q-29 -79 -134 -79zM398 -142q0 23 15.5 38.5t37.5 15.5q23 0 38.5 -15.5t15.5 -38.5q0 -22 -15.5 -38t-38.5 -16q-22 0 -37.5 15.5t-15.5 38.5zM397 609 q0 22 16 38t38 16q23 0 39 -16t16 -38q0 -23 -16 -39t-39 -16q-22 0 -38 16.5t-16 38.5z" />
<glyph unicode="&#x69a;" horiz-adv-x="896" d="M653 0q-97 0 -142 17t-66 63q-14 -36 -52.5 -61.5t-100.5 -25.5q-49 0 -83.5 23.5t-45.5 62.5q-29 -79 -134 -79h-44q-19 0 -39.5 10.5t-20.5 26.5q0 15 21 25.5t39 10.5h44q55 0 79 30t24 107v200h92v-182q0 -36 1 -57t5.5 -44t13.5 -34.5t24.5 -19t39.5 -7.5 q50 0 77 35.5t27 125.5v223h90v-256q0 -76 31 -98.5t117 -22.5h32q8 69 8 139q0 149 -33 276l90 15q35 -131 35 -283q0 -61 -7 -147h121v-73h-243zM397 609q0 22 16 38t38 16q23 0 39 -16t16 -38q0 -23 -16 -39t-39 -16q-22 0 -38 16.5t-16 38.5zM398 -142q0 23 15.5 38.5 t37.5 15.5q23 0 38.5 -15.5t15.5 -38.5q0 -22 -15.5 -38t-38.5 -16q-22 0 -37.5 15.5t-15.5 38.5z" />
<glyph unicode="&#x69a;" horiz-adv-x="1231" d="M988 0q-98 0 -143.5 17.5t-64.5 62.5q-14 -43 -51 -65t-78 -22q-67 0 -96 45q1 -143 -66.5 -206t-176.5 -63q-111 0 -178 67t-67 212q0 102 24 190l95 18q-27 -99 -27 -199q0 -117 46 -166t116 -49q146 0 146 203v365h92v-182q0 -85 21 -123.5t70 -38.5q51 0 74.5 38.5 t23.5 122.5v223h89v-256q0 -76 30.5 -98.5t117.5 -22.5h32q8 69 8 139q0 149 -33 276l90 15q35 -131 35 -283q0 -61 -7 -147h121v-73h-243zM732 609q0 22 16 38t38 16q23 0 39 -16t16 -38q0 -23 -16.5 -39t-38.5 -16t-38 16.5t-16 38.5zM726 -142q0 23 15.5 38.5t37.5 15.5 q23 0 38.5 -15.5t15.5 -38.5q0 -22 -15.5 -38t-38.5 -16q-22 0 -37.5 15.5t-15.5 38.5z" />
<glyph unicode="&#x69b;" horiz-adv-x="868" d="M29 0h-44q-19 0 -39.5 10.5t-20.5 26.5q0 15 21 25.5t39 10.5h44q55 0 79 30t24 107v200h92v-182q0 -36 1 -57t5.5 -44t13.5 -34.5t24.5 -19t39.5 -7.5q50 0 77 35.5t27 125.5v223h90v-256q0 -76 31 -98.5t117 -22.5h32q8 69 8 139q0 149 -33 276l90 15q35 -131 35 -283 q0 -113 -16 -220h-113q-97 0 -142 17t-66 63q-14 -36 -52.5 -61.5t-100.5 -25.5q-49 0 -83.5 23.5t-45.5 62.5q-29 -79 -134 -79zM401 -219q0 22 15 37t37 15q21 0 36.5 -15t15.5 -37q0 -21 -15.5 -36.5t-36.5 -15.5q-22 0 -37 15t-15 37zM473 -108q0 21 15 36t36 15 q22 0 37 -14.5t15 -36.5q0 -21 -15 -36t-37 -15q-21 0 -36 14.5t-15 36.5zM330 -108q0 21 15.5 36t36.5 15t36 -14.5t15 -36.5q0 -21 -15 -36t-36 -15q-22 0 -37 14.5t-15 36.5z" />
<glyph unicode="&#x69b;" horiz-adv-x="896" d="M29 0h-44q-19 0 -39.5 10.5t-20.5 26.5q0 15 21 25.5t39 10.5h44q55 0 79 30t24 107v200h92v-182q0 -36 1 -57t5.5 -44t13.5 -34.5t24.5 -19t39.5 -7.5q50 0 77 35.5t27 125.5v223h90v-256q0 -76 31 -98.5t117 -22.5h32q8 69 8 139q0 149 -33 276l90 15q35 -131 35 -283 q0 -61 -7 -147h121v-73h-243q-97 0 -142 17t-66 63q-14 -36 -52.5 -61.5t-100.5 -25.5q-49 0 -83.5 23.5t-45.5 62.5q-29 -79 -134 -79zM401 -219q0 22 15 37t37 15q21 0 36.5 -15t15.5 -37q0 -21 -15.5 -36.5t-36.5 -15.5q-22 0 -37 15t-15 37zM473 -108q0 21 15 36t36 15 q22 0 37 -14.5t15 -36.5q0 -21 -15 -36t-37 -15q-21 0 -36 14.5t-15 36.5zM330 -108q0 21 15.5 36t36.5 15t36 -14.5t15 -36.5q0 -21 -15 -36t-36 -15q-22 0 -37 14.5t-15 36.5z" />
<glyph unicode="&#x69b;" horiz-adv-x="1231" d="M988 0q-98 0 -143.5 17.5t-64.5 62.5q-14 -43 -51 -65t-78 -22q-67 0 -96 45q1 -143 -66.5 -206t-176.5 -63q-111 0 -178 67t-67 212q0 102 24 190l95 18q-27 -99 -27 -199q0 -117 46 -166t116 -49q146 0 146 203v365h92v-182q0 -85 21 -123.5t70 -38.5q51 0 74.5 38.5 t23.5 122.5v223h89v-256q0 -76 30.5 -98.5t117.5 -22.5h32q8 69 8 139q0 149 -33 276l90 15q35 -131 35 -283q0 -61 -7 -147h121v-73h-243zM733 -219q0 22 15 37t37 15q21 0 36.5 -15t15.5 -37q0 -21 -15.5 -36.5t-36.5 -15.5q-22 0 -37 15t-15 37zM805 -108q0 21 15 36 t36 15q22 0 37 -14.5t15 -36.5q0 -21 -15 -36t-37 -15q-21 0 -36 14.5t-15 36.5zM662 -108q0 21 15.5 36t36.5 15t36 -14.5t15 -36.5q0 -21 -15 -36t-36 -15q-22 0 -37 14.5t-15 36.5z" />
<glyph unicode="&#x69c;" horiz-adv-x="868" d="M29 0h-44q-19 0 -39.5 10.5t-20.5 26.5q0 15 21 25.5t39 10.5h44q55 0 79 30t24 107v200h92v-182q0 -36 1 -57t5.5 -44t13.5 -34.5t24.5 -19t39.5 -7.5q50 0 77 35.5t27 125.5v223h90v-256q0 -76 31 -98.5t117 -22.5h32q8 69 8 139q0 149 -33 276l90 15q35 -131 35 -283 q0 -113 -16 -220h-113q-97 0 -142 17t-66 63q-14 -36 -52.5 -61.5t-100.5 -25.5q-49 0 -83.5 23.5t-45.5 62.5q-29 -79 -134 -79zM401 -219q0 22 15 37t37 15q21 0 36.5 -15t15.5 -37q0 -21 -15.5 -36.5t-36.5 -15.5q-22 0 -37 15t-15 37zM473 -108q0 21 15 36t36 15 q22 0 37 -14.5t15 -36.5q0 -21 -15 -36t-37 -15q-21 0 -36 14.5t-15 36.5zM330 -108q0 21 15.5 36t36.5 15t36 -14.5t15 -36.5q0 -21 -15 -36t-36 -15q-22 0 -37 14.5t-15 36.5zM326 608q0 21 15 36.5t37 15.5t37 -15t15 -37t-15 -37.5t-37 -15.5t-37 15.5t-15 37.5z M473 608q0 21 15.5 36.5t36.5 15.5q22 0 37.5 -15t15.5 -37t-15.5 -37.5t-37.5 -15.5q-21 0 -36.5 15.5t-15.5 37.5zM400 721q0 22 15 37.5t37 15.5t37 -15.5t15 -37.5q0 -21 -15 -36.5t-37 -15.5t-37 15t-15 37z" />
<glyph unicode="&#x69c;" horiz-adv-x="896" d="M29 0h-44q-19 0 -39.5 10.5t-20.5 26.5q0 15 21 25.5t39 10.5h44q55 0 79 30t24 107v200h92v-182q0 -36 1 -57t5.5 -44t13.5 -34.5t24.5 -19t39.5 -7.5q50 0 77 35.5t27 125.5v223h90v-256q0 -76 31 -98.5t117 -22.5h32q8 69 8 139q0 149 -33 276l90 15q35 -131 35 -283 q0 -61 -7 -147h121v-73h-243q-97 0 -142 17t-66 63q-14 -36 -52.5 -61.5t-100.5 -25.5q-49 0 -83.5 23.5t-45.5 62.5q-29 -79 -134 -79zM473 608q0 21 15.5 36.5t36.5 15.5q22 0 37.5 -15t15.5 -37t-15.5 -37.5t-37.5 -15.5q-21 0 -36.5 15.5t-15.5 37.5zM400 721 q0 22 15 37.5t37 15.5t37 -15.5t15 -37.5q0 -21 -15 -36.5t-37 -15.5t-37 15t-15 37zM326 608q0 21 15 36.5t37 15.5t37 -15t15 -37t-15 -37.5t-37 -15.5t-37 15.5t-15 37.5zM401 -219q0 22 15 37t37 15q21 0 36.5 -15t15.5 -37q0 -21 -15.5 -36.5t-36.5 -15.5q-22 0 -37 15 t-15 37zM473 -108q0 21 15 36t36 15q22 0 37 -14.5t15 -36.5q0 -21 -15 -36t-37 -15q-21 0 -36 14.5t-15 36.5zM330 -108q0 21 15.5 36t36.5 15t36 -14.5t15 -36.5q0 -21 -15 -36t-36 -15q-22 0 -37 14.5t-15 36.5z" />
<glyph unicode="&#x69c;" horiz-adv-x="1231" d="M988 0q-98 0 -143.5 17.5t-64.5 62.5q-14 -43 -51 -65t-78 -22q-67 0 -96 45q1 -143 -66.5 -206t-176.5 -63q-111 0 -178 67t-67 212q0 102 24 190l95 18q-27 -99 -27 -199q0 -117 46 -166t116 -49q146 0 146 203v365h92v-182q0 -85 21 -123.5t70 -38.5q51 0 74.5 38.5 t23.5 122.5v223h89v-256q0 -76 30.5 -98.5t117.5 -22.5h32q8 69 8 139q0 149 -33 276l90 15q35 -131 35 -283q0 -61 -7 -147h121v-73h-243zM810 608q0 21 15.5 36.5t36.5 15.5q22 0 37.5 -15t15.5 -37t-15.5 -37.5t-37.5 -15.5q-21 0 -36.5 15.5t-15.5 37.5zM737 721 q0 22 15 37.5t37 15.5t37 -15.5t15 -37.5q0 -21 -15 -36.5t-37 -15.5t-37 15t-15 37zM663 608q0 21 15 36.5t37 15.5t37 -15t15 -37t-15 -37.5t-37 -15.5t-37 15.5t-15 37.5zM733 -219q0 22 15 37t37 15q21 0 36.5 -15t15.5 -37q0 -21 -15.5 -36.5t-36.5 -15.5q-22 0 -37 15 t-15 37zM805 -108q0 21 15 36t36 15q22 0 37 -14.5t15 -36.5q0 -21 -15 -36t-37 -15q-21 0 -36 14.5t-15 36.5zM662 -108q0 21 15.5 36t36.5 15t36 -14.5t15 -36.5q0 -21 -15 -36t-36 -15q-22 0 -37 14.5t-15 36.5z" />
<glyph unicode="&#x69d;" horiz-adv-x="745" d="M394 0h-409q-19 0 -39.5 10.5t-20.5 26.5q0 15 21 25.5t39 10.5h144v397h92v-39q0 -102 -11 -179h2q33 109 108.5 169t165.5 60q96 0 148 -59.5t52 -167.5q0 -113 -70 -183.5t-222 -70.5zM220 73h184q187 0 187 174q0 76 -30.5 118.5t-91.5 42.5q-97 0 -166.5 -102.5 t-82.5 -232.5zM215 -144q0 22 15 37.5t37 15.5t37 -15.5t15 -37.5q0 -21 -15 -36.5t-37 -15.5t-37 15.5t-15 36.5zM360 -144q0 22 15 37.5t37 15.5q21 0 36.5 -15.5t15.5 -37.5q0 -21 -15 -36.5t-37 -15.5t-37 15.5t-15 36.5z" />
<glyph unicode="&#x69d;" horiz-adv-x="761" d="M-15 0q-19 0 -39.5 10.5t-20.5 26.5q0 15 21 25.5t39 10.5h144v397h92v-39q0 -102 -11 -179h2q33 109 108.5 169t165.5 60q96 0 148 -59.5t52 -167.5q0 -116 -68 -181h143v-73h-776zM220 73h195q176 5 176 174q0 76 -30.5 118.5t-91.5 42.5q-97 0 -166.5 -102.5 t-82.5 -232.5zM215 -144q0 22 15 37.5t37 15.5t37 -15.5t15 -37.5q0 -21 -15 -36.5t-37 -15.5t-37 15.5t-15 36.5zM360 -144q0 22 15 37.5t37 15.5q21 0 36.5 -15.5t15.5 -37.5q0 -21 -15 -36.5t-37 -15.5t-37 15.5t-15 36.5z" />
<glyph unicode="&#x69d;" horiz-adv-x="1092" d="M312 -231q-111 0 -178 67t-67 212q0 102 24 190l95 18q-27 -99 -27 -199q0 -117 46 -166t116 -49q146 0 146 203v425h92v-39q0 -102 -11 -179h2q33 109 108.5 169t165.5 60q96 0 148 -59.5t52 -167.5q0 -116 -68 -181h136v-73h-536q-9 -115 -75.5 -173t-168.5 -58z M558 73h195q176 5 176 174q0 76 -30.5 118.5t-91.5 42.5q-97 0 -166.5 -102.5t-82.5 -232.5zM611 -144q0 22 15 37.5t37 15.5t37 -15.5t15 -37.5q0 -21 -15 -36.5t-37 -15.5t-37 15.5t-15 36.5zM756 -144q0 22 15 37.5t37 15.5q21 0 36.5 -15.5t15.5 -37.5q0 -21 -15 -36.5 t-37 -15.5t-37 15.5t-15 36.5z" />
<glyph unicode="&#x69e;" horiz-adv-x="745" d="M394 0h-409q-19 0 -39.5 10.5t-20.5 26.5q0 15 21 25.5t39 10.5h144v397h92v-39q0 -102 -11 -179h2q33 109 108.5 169t165.5 60q96 0 148 -59.5t52 -167.5q0 -113 -70 -183.5t-222 -70.5zM220 73h184q187 0 187 174q0 76 -30.5 118.5t-91.5 42.5q-97 0 -166.5 -102.5 t-82.5 -232.5zM275 608q0 21 15 36.5t37 15.5t37 -15t15 -37t-15 -37.5t-37 -15.5t-37 15.5t-15 37.5zM422 608q0 21 15.5 36.5t36.5 15.5q22 0 37.5 -15t15.5 -37t-15.5 -37.5t-37.5 -15.5q-21 0 -36.5 15.5t-15.5 37.5zM349 721q0 22 15 37.5t37 15.5t37 -15.5t15 -37.5 q0 -21 -15 -36.5t-37 -15.5t-37 15t-15 37z" />
<glyph unicode="&#x69e;" horiz-adv-x="761" d="M-15 0q-19 0 -39.5 10.5t-20.5 26.5q0 15 21 25.5t39 10.5h144v397h92v-39q0 -102 -11 -179h2q33 109 108.5 169t165.5 60q96 0 148 -59.5t52 -167.5q0 -116 -68 -181h143v-73h-776zM220 73h195q176 5 176 174q0 76 -30.5 118.5t-91.5 42.5q-97 0 -166.5 -102.5 t-82.5 -232.5zM422 608q0 21 15.5 36.5t36.5 15.5q22 0 37.5 -15t15.5 -37t-15.5 -37.5t-37.5 -15.5q-21 0 -36.5 15.5t-15.5 37.5zM349 721q0 22 15 37.5t37 15.5t37 -15.5t15 -37.5q0 -21 -15 -36.5t-37 -15.5t-37 15t-15 37zM275 608q0 21 15 36.5t37 15.5t37 -15t15 -37 t-15 -37.5t-37 -15.5t-37 15.5t-15 37.5z" />
<glyph unicode="&#x69e;" horiz-adv-x="1092" d="M312 -231q-111 0 -178 67t-67 212q0 102 24 190l95 18q-27 -99 -27 -199q0 -117 46 -166t116 -49q146 0 146 203v425h92v-39q0 -102 -11 -179h2q33 109 108.5 169t165.5 60q96 0 148 -59.5t52 -167.5q0 -116 -68 -181h136v-73h-344h-16h-176q-9 -115 -75.5 -173 t-168.5 -58zM558 73h184q187 0 187 174q0 76 -30.5 118.5t-91.5 42.5q-97 0 -166.5 -102.5t-82.5 -232.5zM753 608q0 21 15.5 36.5t36.5 15.5q22 0 37.5 -15t15.5 -37t-15.5 -37.5t-37.5 -15.5q-21 0 -36.5 15.5t-15.5 37.5zM680 721q0 22 15 37.5t37 15.5t37 -15.5 t15 -37.5q0 -21 -15 -36.5t-37 -15.5t-37 15t-15 37zM606 608q0 21 15 36.5t37 15.5t37 -15t15 -37t-15 -37.5t-37 -15.5t-37 15.5t-15 37.5z" />
<glyph unicode="&#x69f;" horiz-adv-x="745" d="M394 0h-409q-19 0 -39.5 10.5t-20.5 26.5q0 15 21 25.5t39 10.5h144v632h92v-274q0 -102 -11 -179h2q33 109 108.5 169t165.5 60q96 0 148 -59.5t52 -167.5q0 -113 -70 -183.5t-222 -70.5zM220 73h184q187 0 187 174q0 76 -30.5 118.5t-91.5 42.5q-97 0 -166.5 -102.5 t-82.5 -232.5zM312 608q0 21 15 36.5t37 15.5t37 -15t15 -37t-15 -37.5t-37 -15.5t-37 15.5t-15 37.5zM459 608q0 21 15.5 36.5t36.5 15.5q22 0 37.5 -15t15.5 -37t-15.5 -37.5t-37.5 -15.5q-21 0 -36.5 15.5t-15.5 37.5zM386 721q0 22 15 37.5t37 15.5t37 -15.5t15 -37.5 q0 -21 -15 -36.5t-37 -15.5t-37 15t-15 37z" />
<glyph unicode="&#x69f;" horiz-adv-x="761" d="M394 0h-409q-19 0 -39.5 10.5t-20.5 26.5q0 15 21 25.5t39 10.5h144v632h92v-274q0 -102 -11 -179h2q33 109 108.5 169t165.5 60q96 0 148 -59.5t52 -167.5q0 -116 -68 -181h143v-73h-351h-16zM220 73h184q187 0 187 174q0 76 -30.5 118.5t-91.5 42.5 q-97 0 -166.5 -102.5t-82.5 -232.5zM459 608q0 21 15.5 36.5t36.5 15.5q22 0 37.5 -15t15.5 -37t-15.5 -37.5t-37.5 -15.5q-21 0 -36.5 15.5t-15.5 37.5zM386 721q0 22 15 37.5t37 15.5t37 -15.5t15 -37.5q0 -21 -15 -36.5t-37 -15.5t-37 15t-15 37zM312 608q0 21 15 36.5 t37 15.5t37 -15t15 -37t-15 -37.5t-37 -15.5t-37 15.5t-15 37.5z" />
<glyph unicode="&#x69f;" horiz-adv-x="779" d="M9 0v73h138v632h92v-274q0 -102 -11 -179h2q33 109 108.5 169t165.5 60q96 0 148 -59.5t52 -167.5q0 -116 -68 -181h143v-73h-770zM238 73h194q177 5 177 174q0 76 -30.5 118.5t-91.5 42.5q-97 0 -166.5 -102.5t-82.5 -232.5zM477 608q0 21 15.5 36.5t36.5 15.5 q22 0 37.5 -15t15.5 -37t-15.5 -37.5t-37.5 -15.5q-21 0 -36.5 15.5t-15.5 37.5zM404 721q0 22 15 37.5t37 15.5t37 -15.5t15 -37.5q0 -21 -15 -36.5t-37 -15.5t-37 15t-15 37zM330 608q0 21 15 36.5t37 15.5t37 -15t15 -37t-15 -37.5t-37 -15.5t-37 15.5t-15 37.5z" />
<glyph unicode="&#x6a0;" horiz-adv-x="558" d="M517 0h-532q-19 0 -39.5 10.5t-20.5 26.5q0 15 21 25.5t39 10.5h199q-47 21 -77 68.5t-30 108.5q0 99 64 165t182 66q32 0 64.5 -5.5t49.5 -11.5l17 -5l-17 -74q-55 24 -119 24q-67 0 -108 -41.5t-41 -113.5q0 -82 66 -131.5t200 -49.5h82v-73zM176 608q0 21 15 36.5 t37 15.5t37 -15t15 -37t-15 -37.5t-37 -15.5t-37 15.5t-15 37.5zM323 608q0 21 15.5 36.5t36.5 15.5q22 0 37.5 -15t15.5 -37t-15.5 -37.5t-37.5 -15.5q-21 0 -36.5 15.5t-15.5 37.5zM250 721q0 22 15 37.5t37 15.5t37 -15.5t15 -37.5q0 -21 -15 -36.5t-37 -15.5t-37 15 t-15 37z" />
<glyph unicode="&#x6a0;" horiz-adv-x="602" d="M4 0h-19q-19 0 -39.5 10.5t-20.5 26.5q0 15 21 25.5t39 10.5h22q162 0 274 53q-4 4 -33.5 32t-38 36t-35 30t-42.5 31.5t-41 22.5t-49 21l8 64q157 120 289 120q96 0 144 -44.5t48 -110.5q0 -53 -31 -107.5t-89 -99.5q70 -48 144 -48h47v-73h-59q-109 0 -203 75 q-140 -75 -336 -75zM136 334q31 -12 63 -33.5t51 -38t54.5 -49.5t48.5 -45q87 67 87 148q0 43 -28 70.5t-83 27.5q-79 0 -193 -80zM341 608q0 21 15.5 36.5t36.5 15.5q22 0 37.5 -15t15.5 -37t-15.5 -37.5t-37.5 -15.5q-21 0 -36.5 15.5t-15.5 37.5zM268 721q0 22 15 37.5 t37 15.5t37 -15.5t15 -37.5q0 -21 -15 -36.5t-37 -15.5t-37 15t-15 37zM194 608q0 21 15 36.5t37 15.5t37 -15t15 -37t-15 -37.5t-37 -15.5t-37 15.5t-15 37.5z" />
<glyph unicode="&#x6a0;" horiz-adv-x="633" d="M319 -258q-138 0 -206 48t-68 124q0 40 16 72.5t59 63t65 42.5t86 42q5 3 7.5 4t7 3t7.5 4q-43 42 -66.5 63t-66.5 49t-86 42l7 64q159 120 289 120q96 0 144.5 -44.5t48.5 -110.5q0 -112 -138 -194q80 -61 162 -61h46v-73h-59q-116 0 -225 93q-10 -5 -35 -17t-35 -17 t-31 -16t-30.5 -17.5t-25 -17.5t-23 -19.5t-16 -19.5t-11.5 -22.5t-3 -24.5q0 -48 46 -77.5t144 -29.5q34 0 73 3.5t62 7.5l22 3l6 -71q-89 -16 -173 -16zM167 334q19 -7 39.5 -19t33.5 -20.5t35.5 -27.5t30 -25.5t33 -31t29.5 -27.5q103 61 103 133q0 43 -27.5 70.5 t-82.5 27.5q-80 0 -194 -80zM373 608q0 21 15.5 36.5t36.5 15.5q22 0 37.5 -15t15.5 -37t-15.5 -37.5t-37.5 -15.5q-21 0 -36.5 15.5t-15.5 37.5zM300 721q0 22 15 37.5t37 15.5t37 -15.5t15 -37.5q0 -21 -15 -36.5t-37 -15.5t-37 15t-15 37zM226 608q0 21 15 36.5t37 15.5 t37 -15t15 -37t-15 -37.5t-37 -15.5t-37 15.5t-15 37.5z" />
<glyph unicode="&#x6a1;" horiz-adv-x="619" d="M539 0h-554q-19 0 -39.5 10.5t-20.5 26.5q0 15 21 25.5t39 10.5h106l58 -5q-74 47 -74 169q0 103 66 173.5t184 70.5q106 0 160 -57.5t54 -166.5v-257zM449 73v169q0 166 -132 166q-69 0 -109 -45t-40 -121q0 -86 43.5 -127.5t138.5 -41.5h99z" />
<glyph unicode="&#x6a1;" horiz-adv-x="608" d="M608 0h-623q-19 0 -39.5 10.5t-20.5 26.5q0 15 21 25.5t39 10.5h82l71 -3q-66 49 -66 167q0 105 66 174.5t176 69.5q102 0 162.5 -56.5t60.5 -176.5q0 -55 -20 -103t-57 -75q50 3 87 3h61v-73zM306 73q60 0 99 43.5t39 127.5q0 79 -35 121.5t-103 42.5q-59 0 -99.5 -41.5 t-40.5 -122.5q0 -83 36 -127t104 -44z" />
<glyph unicode="&#x6a1;" horiz-adv-x="951" d="M951 73v-73h-528q-185 0 -267 72.5t-82 218.5q0 96 32 167l99 16q-39 -76 -39 -172q0 -118 58 -173.5t201 -55.5h54q-64 46 -64 164q0 105 66 174.5t176 69.5q102 0 162.5 -56.5t60.5 -176.5q0 -55 -20 -103t-57 -75q50 3 86 3h62zM787 244q0 79 -35 121.5t-103 42.5 q-59 0 -100 -42t-41 -123q0 -82 36 -126t104 -44q60 0 99.5 43.5t39.5 127.5z" />
<glyph unicode="&#x6a2;" horiz-adv-x="619" d="M539 0h-554q-19 0 -39.5 10.5t-20.5 26.5q0 15 21 25.5t39 10.5h106l58 -5q-74 47 -74 169q0 103 66 173.5t184 70.5q106 0 160 -57.5t54 -166.5v-257zM449 73v169q0 166 -132 166q-69 0 -109 -45t-40 -121q0 -86 43.5 -127.5t138.5 -41.5h99zM273 -142q0 23 15.5 38.5 t37.5 15.5q23 0 38.5 -15.5t15.5 -38.5q0 -22 -16 -38t-38 -16t-37.5 15.5t-15.5 38.5z" />
<glyph unicode="&#x6a2;" horiz-adv-x="608" d="M608 0h-623q-19 0 -39.5 10.5t-20.5 26.5q0 15 21 25.5t39 10.5h82l71 -3q-66 49 -66 167q0 105 66 174.5t176 69.5q102 0 162.5 -56.5t60.5 -176.5q0 -55 -20 -103t-57 -75q50 3 87 3h61v-73zM306 73q60 0 99 43.5t39 127.5q0 79 -35 121.5t-103 42.5q-59 0 -99.5 -41.5 t-40.5 -122.5q0 -83 36 -127t104 -44zM256 -142q0 23 15.5 38.5t37.5 15.5q23 0 38.5 -15.5t15.5 -38.5q0 -22 -15.5 -38t-38.5 -16q-22 0 -37.5 15.5t-15.5 38.5z" />
<glyph unicode="&#x6a2;" horiz-adv-x="951" d="M951 73v-73h-528q-185 0 -267 72.5t-82 218.5q0 96 32 167l99 16q-39 -76 -39 -172q0 -118 58 -173.5t201 -55.5h54q-64 46 -64 164q0 105 66 174.5t176 69.5q102 0 162.5 -56.5t60.5 -176.5q0 -55 -20 -103t-57 -75q50 3 86 3h62zM787 244q0 79 -35 121.5t-103 42.5 q-59 0 -100 -42t-41 -123q0 -82 36 -126t104 -44q60 0 99.5 43.5t39.5 127.5zM599 -142q0 23 15.5 38.5t37.5 15.5q23 0 38.5 -15.5t15.5 -38.5q0 -22 -16 -38t-38 -16t-37.5 15.5t-15.5 38.5z" />
<glyph unicode="&#x6a3;" horiz-adv-x="619" d="M539 0h-554q-19 0 -39.5 10.5t-20.5 26.5q0 15 21 25.5t39 10.5h106l58 -5q-74 47 -74 169q0 103 66 173.5t184 70.5q106 0 160 -57.5t54 -166.5v-257zM449 73v169q0 166 -132 166q-69 0 -109 -45t-40 -121q0 -86 43.5 -127.5t138.5 -41.5h99zM273 -142q0 23 15.5 38.5 t37.5 15.5q23 0 38.5 -15.5t15.5 -38.5q0 -22 -16 -38t-38 -16t-37.5 15.5t-15.5 38.5zM260 609q0 22 16 38t38 16q23 0 39 -16t16 -38q0 -23 -16.5 -39t-38.5 -16t-38 16.5t-16 38.5z" />
<glyph unicode="&#x6a3;" horiz-adv-x="608" d="M608 0h-623q-19 0 -39.5 10.5t-20.5 26.5q0 15 21 25.5t39 10.5h82l71 -3q-66 49 -66 167q0 105 66 174.5t176 69.5q102 0 162.5 -56.5t60.5 -176.5q0 -55 -20 -103t-57 -75q50 3 87 3h61v-73zM306 73q60 0 99 43.5t39 127.5q0 79 -35 121.5t-103 42.5q-59 0 -99.5 -41.5 t-40.5 -122.5q0 -83 36 -127t104 -44zM256 -142q0 23 15.5 38.5t37.5 15.5q23 0 38.5 -15.5t15.5 -38.5q0 -22 -15.5 -38t-38.5 -16q-22 0 -37.5 15.5t-15.5 38.5zM254 611q0 22 16 38t38 16q23 0 39 -16t16 -38q0 -23 -16.5 -39t-38.5 -16t-38 16.5t-16 38.5z" />
<glyph unicode="&#x6a3;" horiz-adv-x="951" d="M951 73v-73h-528q-185 0 -267 72.5t-82 218.5q0 96 32 167l99 16q-39 -76 -39 -172q0 -118 58 -173.5t201 -55.5h54q-64 46 -64 164q0 105 66 174.5t176 69.5q102 0 162.5 -56.5t60.5 -176.5q0 -55 -20 -103t-57 -75q50 3 86 3h62zM787 244q0 79 -35 121.5t-103 42.5 q-59 0 -100 -42t-41 -123q0 -82 36 -126t104 -44q60 0 99.5 43.5t39.5 127.5zM597 609q0 22 16 38t38 16q23 0 39 -16t16 -38q0 -23 -16 -39t-39 -16q-22 0 -38 16.5t-16 38.5zM440 -142q0 23 15.5 38.5t37.5 15.5q23 0 38.5 -15.5t15.5 -38.5q0 -22 -15.5 -38t-38.5 -16 q-22 0 -37.5 15.5t-15.5 38.5z" />
<glyph unicode="&#x6a5;" horiz-adv-x="619" d="M539 0h-554q-19 0 -39.5 10.5t-20.5 26.5q0 15 21 25.5t39 10.5h106l58 -5q-74 47 -74 169q0 103 66 173.5t184 70.5q106 0 160 -57.5t54 -166.5v-257zM449 73v169q0 166 -132 166q-69 0 -109 -45t-40 -121q0 -86 43.5 -127.5t138.5 -41.5h99zM274 -219q0 22 15 37t37 15 q21 0 36.5 -15t15.5 -37q0 -21 -15.5 -36.5t-36.5 -15.5q-22 0 -37 15t-15 37zM346 -108q0 21 15 36t36 15q22 0 37 -14.5t15 -36.5q0 -21 -15 -36t-37 -15q-21 0 -36 14.5t-15 36.5zM203 -108q0 21 15.5 36t36.5 15t36 -14.5t15 -36.5q0 -21 -15 -36t-36 -15 q-22 0 -37 14.5t-15 36.5z" />
<glyph unicode="&#x6a5;" horiz-adv-x="608" d="M608 0h-623q-19 0 -39.5 10.5t-20.5 26.5q0 15 21 25.5t39 10.5h82l71 -3q-66 49 -66 167q0 105 66 174.5t176 69.5q102 0 162.5 -56.5t60.5 -176.5q0 -55 -20 -103t-57 -75q50 3 87 3h61v-73zM306 73q60 0 99 43.5t39 127.5q0 79 -35 121.5t-103 42.5q-59 0 -99.5 -41.5 t-40.5 -122.5q0 -83 36 -127t104 -44zM260 -219q0 22 15 37t37 15q21 0 36.5 -15t15.5 -37q0 -21 -15.5 -36.5t-36.5 -15.5q-22 0 -37 15t-15 37zM332 -108q0 21 15 36t36 15q22 0 37 -14.5t15 -36.5q0 -21 -15 -36t-37 -15q-21 0 -36 14.5t-15 36.5zM189 -108q0 21 15.5 36 t36.5 15t36 -14.5t15 -36.5q0 -21 -15 -36t-36 -15q-22 0 -37 14.5t-15 36.5z" />
<glyph unicode="&#x6a5;" horiz-adv-x="951" d="M951 73v-73h-528q-185 0 -267 72.5t-82 218.5q0 96 32 167l99 16q-39 -76 -39 -172q0 -118 58 -173.5t201 -55.5h54q-64 46 -64 164q0 105 66 174.5t176 69.5q102 0 162.5 -56.5t60.5 -176.5q0 -55 -20 -103t-57 -75q50 3 86 3h62zM787 244q0 79 -35 121.5t-103 42.5 q-59 0 -100 -42t-41 -123q0 -82 36 -126t104 -44q60 0 99.5 43.5t39.5 127.5zM610 -219q0 22 15 37t37 15q21 0 36.5 -15t15.5 -37q0 -21 -15.5 -36.5t-36.5 -15.5q-22 0 -37 15t-15 37zM682 -108q0 21 15 36t36 15q22 0 37 -14.5t15 -36.5q0 -21 -15 -36t-37 -15 q-21 0 -36 14.5t-15 36.5zM539 -108q0 21 15.5 36t36.5 15t36 -14.5t15 -36.5q0 -21 -15 -36t-36 -15q-22 0 -37 14.5t-15 36.5z" />
<glyph unicode="&#x6a7;" horiz-adv-x="619" d="M539 0h-554q-19 0 -39.5 10.5t-20.5 26.5q0 15 21 25.5t39 10.5h106l58 -5q-74 47 -74 169q0 103 66 173.5t184 70.5q106 0 160 -57.5t54 -166.5v-257zM449 73v169q0 166 -132 166q-69 0 -109 -45t-40 -121q0 -86 43.5 -127.5t138.5 -41.5h99zM260 609q0 22 16 38t38 16 q23 0 39 -16t16 -38q0 -23 -16.5 -39t-38.5 -16t-38 16.5t-16 38.5z" />
<glyph unicode="&#x6a7;" horiz-adv-x="608" d="M608 0h-623q-19 0 -39.5 10.5t-20.5 26.5q0 15 21 25.5t39 10.5h82l71 -3q-66 49 -66 167q0 105 66 174.5t176 69.5q102 0 162.5 -56.5t60.5 -176.5q0 -55 -20 -103t-57 -75q50 3 87 3h61v-73zM306 73q60 0 99 43.5t39 127.5q0 79 -35 121.5t-103 42.5q-59 0 -99.5 -41.5 t-40.5 -122.5q0 -83 36 -127t104 -44zM254 611q0 22 16 38t38 16q23 0 39 -16t16 -38q0 -23 -16.5 -39t-38.5 -16t-38 16.5t-16 38.5z" />
<glyph unicode="&#x6a7;" horiz-adv-x="932" d="M802 446v-373h130v-73h-130v-238q-164 -13 -302 -13q-230 0 -331.5 72t-101.5 231q0 98 24 186l95 18q-27 -99 -27 -194q0 -130 80 -185t274 -55q42 0 92 2t79 4l28 2v170h-100q-263 0 -263 234q0 105 65.5 176t186.5 71q49 0 99 -8.5t76 -17.5zM712 73v312 q-48 23 -121 23q-69 0 -109 -45t-40 -120q0 -87 43.5 -128.5t139.5 -41.5h87zM547 609q0 22 16 38t38 16q23 0 39 -16t16 -38q0 -23 -16 -39t-39 -16q-22 0 -38 16.5t-16 38.5z" />
<glyph unicode="&#x6a8;" horiz-adv-x="619" d="M539 0h-554q-19 0 -39.5 10.5t-20.5 26.5q0 15 21 25.5t39 10.5h106l58 -5q-74 47 -74 169q0 103 66 173.5t184 70.5q106 0 160 -57.5t54 -166.5v-257zM449 73v169q0 166 -132 166q-69 0 -109 -45t-40 -121q0 -86 43.5 -127.5t138.5 -41.5h99zM189 608q0 21 15 36.5 t37 15.5t37 -15t15 -37t-15 -37.5t-37 -15.5t-37 15.5t-15 37.5zM336 608q0 21 15.5 36.5t36.5 15.5q22 0 37.5 -15t15.5 -37t-15.5 -37.5t-37.5 -15.5q-21 0 -36.5 15.5t-15.5 37.5zM263 721q0 22 15 37.5t37 15.5t37 -15.5t15 -37.5q0 -21 -15 -36.5t-37 -15.5t-37 15 t-15 37z" />
<glyph unicode="&#x6a8;" horiz-adv-x="608" d="M608 0h-623q-19 0 -39.5 10.5t-20.5 26.5q0 15 21 25.5t39 10.5h82l71 -3q-66 49 -66 167q0 105 66 174.5t176 69.5q102 0 162.5 -56.5t60.5 -176.5q0 -55 -20 -103t-57 -75q50 3 87 3h61v-73zM306 73q60 0 99 43.5t39 127.5q0 79 -35 121.5t-103 42.5q-59 0 -99.5 -41.5 t-40.5 -122.5q0 -83 36 -127t104 -44zM183 608q0 21 15 36.5t37 15.5t37 -15t15 -37t-15 -37.5t-37 -15.5t-37 15.5t-15 37.5zM330 608q0 21 15.5 36.5t36.5 15.5q22 0 37.5 -15t15.5 -37t-15.5 -37.5t-37.5 -15.5q-21 0 -36.5 15.5t-15.5 37.5zM257 721q0 22 15 37.5 t37 15.5t37 -15.5t15 -37.5q0 -21 -15 -36.5t-37 -15.5t-37 15t-15 37z" />
<glyph unicode="&#x6a8;" horiz-adv-x="932" d="M802 446v-373h130v-73h-130v-238q-164 -13 -302 -13q-230 0 -331.5 72t-101.5 231q0 98 24 186l95 18q-27 -99 -27 -194q0 -130 80 -185t274 -55q42 0 92 2t79 4l28 2v170h-100q-263 0 -263 234q0 105 65.5 176t186.5 71q49 0 99 -8.5t76 -17.5zM712 73v312 q-48 23 -121 23q-69 0 -109 -45t-40 -120q0 -87 43.5 -128.5t139.5 -41.5h87zM632 608q0 21 15.5 36.5t36.5 15.5q22 0 37.5 -15t15.5 -37t-15.5 -37.5t-37.5 -15.5q-21 0 -36.5 15.5t-15.5 37.5zM559 721q0 22 15 37.5t37 15.5t37 -15.5t15 -37.5q0 -21 -15 -36.5 t-37 -15.5t-37 15t-15 37zM485 608q0 21 15 36.5t37 15.5t37 -15t15 -37t-15 -37.5t-37 -15.5t-37 15.5t-15 37.5z" />
<glyph unicode="&#x6aa;" horiz-adv-x="1036" d="M952 0h-967q-19 0 -39.5 10.5t-20.5 26.5q0 15 21 25.5t39 10.5h870q0 52 -12 86.5t-34.5 57t-67 34.5t-97.5 16t-138 4h-484v84l217 242h113l-232 -252h328q65 0 109 -1t94 -4t82.5 -9.5t67 -17t56 -26t41.5 -37t30.5 -50.5t17 -66t6.5 -83v-51z" />
<glyph unicode="&#x6aa;" horiz-adv-x="1016" d="M-15 0q-19 0 -39.5 10.5t-20.5 26.5q0 15 21 25.5t39 10.5h870q0 52 -12 86.5t-34.5 57t-67 34.5t-97.5 16t-138 4h-484v84l217 242h113l-232 -252h328q63 0 106 -1t92 -4t81 -8.5t66.5 -15.5t56 -24.5t42 -34.5t32 -46.5t19 -60.5t8.5 -77h65v-73h-1031z" />
<glyph unicode="&#x6aa;" horiz-adv-x="1529" d="M423 0q-185 0 -267 72.5t-82 218.5q0 96 32 167l99 16q-39 -76 -39 -172q0 -118 59 -173t207 -56h936q0 52 -12 86.5t-35 57t-67.5 34.5t-97.5 16t-137 4h-584v84l217 242h113l-231 -252h427q63 0 106 -1t92 -4t81 -8.5t66.5 -15.5t56 -24.5t42 -34.5t32 -46.5t19 -60.5 t8.5 -77h65v-73h-1106z" />
<glyph unicode="&#x6ab;" horiz-adv-x="459" d="M383 548q0 -42 -26.5 -70.5t-67.5 -28.5q-34 0 -56.5 18t-27.5 54l-92 -58q133 -49 197.5 -145t64.5 -267v-51h-390q-19 0 -39.5 10.5t-20.5 26.5q0 15 21 25.5t39 10.5h296q-3 146 -65 224.5t-194 117.5v76l400 248v-90l-64 -32q25 -25 25 -69zM322 544q0 39 -29 39 q-11 0 -20 -10.5t-9 -28.5q0 -38 29 -38q12 0 20.5 10.5t8.5 27.5z" />
<glyph unicode="&#x6ab;" horiz-adv-x="449" d="M383 548q0 -42 -26.5 -70.5t-67.5 -28.5q-34 0 -56.5 18t-27.5 54l-92 -58q128 -47 193 -138.5t69 -251.5h74v-73h-464q-19 0 -39.5 10.5t-20.5 26.5q0 15 21 25.5t39 10.5h296q-3 146 -65 224.5t-194 117.5v76l400 248v-90l-64 -32q25 -25 25 -69zM322 544q0 39 -29 39 q-11 0 -20 -10.5t-9 -28.5q0 -38 29 -38q12 0 20.5 10.5t8.5 27.5z" />
<glyph unicode="&#x6ab;" horiz-adv-x="856" d="M791 549q0 -42 -26 -69.5t-68 -27.5q-75 0 -86 69l-92 -58q128 -47 193 -138.5t69 -251.5h74v-73h-432q-185 0 -267 72.5t-82 218.5q0 96 32 167l99 16q-39 -76 -39 -172q0 -119 59 -174t210 -55h252q-3 146 -65 224.5t-194 117.5v76l400 248v-90l-62 -31q25 -23 25 -69z M730 546q0 41 -30 41q-12 0 -21 -10.5t-9 -30.5q0 -41 30 -41q13 0 21.5 11t8.5 30z" />
<glyph unicode="&#x6ac;" horiz-adv-x="459" d="M375 0h-390q-19 0 -39.5 10.5t-20.5 26.5q0 15 21 25.5t39 10.5h299q-2 144 -65 224t-197 118v68l379 238v-93l-272 -166q123 -51 184.5 -146.5t61.5 -264.5v-51zM122 705q0 22 16 38t38 16q23 0 39 -16t16 -38q0 -23 -16.5 -39t-38.5 -16t-38 16.5t-16 38.5z" />
<glyph unicode="&#x6ac;" horiz-adv-x="449" d="M-15 0q-19 0 -39.5 10.5t-20.5 26.5q0 15 21 25.5t39 10.5h299q-2 144 -65 224t-197 118v68l379 238v-93l-272 -166q119 -50 180.5 -140.5t65.5 -248.5h74v-73h-464zM122 705q0 22 16 38t38 16q23 0 39 -16t16 -38q0 -23 -16.5 -39t-38.5 -16t-38 16.5t-16 38.5z" />
<glyph unicode="&#x6ac;" horiz-adv-x="897" d="M423 0q-185 0 -267 72.5t-82 218.5q0 96 32 167l99 16q-39 -76 -39 -172q0 -119 59 -174t210 -55h240v632h92v-632h130v-73h-474zM323 407v55q37 0 71 -6q-31 14 -31 50q0 39 32.5 67.5t96.5 28.5q24 0 54 -5l-10 -54q-45 5 -50 5q-56 0 -56 -41q0 -45 79 -45h56v-55 h-242zM412 711q0 22 16 38t38 16q23 0 39 -16t16 -38q0 -23 -16.5 -39t-38.5 -16t-38 16.5t-16 38.5z" />
<glyph unicode="&#x6ae;" horiz-adv-x="459" d="M375 0h-390q-19 0 -39.5 10.5t-20.5 26.5q0 15 21 25.5t39 10.5h299q-2 144 -65 224t-197 118v68l379 238v-93l-272 -166q123 -51 184.5 -146.5t61.5 -264.5v-51zM144 -219q0 22 15 37t37 15q21 0 36.5 -15t15.5 -37q0 -21 -15.5 -36.5t-36.5 -15.5q-22 0 -37 15t-15 37z M216 -108q0 21 15 36t36 15q22 0 37 -14.5t15 -36.5q0 -21 -15 -36t-37 -15q-21 0 -36 14.5t-15 36.5zM73 -108q0 21 15.5 36t36.5 15t36 -14.5t15 -36.5q0 -21 -15 -36t-36 -15q-22 0 -37 14.5t-15 36.5z" />
<glyph unicode="&#x6ae;" horiz-adv-x="449" d="M-15 0q-19 0 -39.5 10.5t-20.5 26.5q0 15 21 25.5t39 10.5h299q-2 144 -65 224t-197 118v68l379 238v-93l-272 -166q119 -50 180.5 -140.5t65.5 -248.5h74v-73h-464zM164 -219q0 22 15 37t37 15q21 0 36.5 -15t15.5 -37q0 -21 -15.5 -36.5t-36.5 -15.5q-22 0 -37 15 t-15 37zM236 -108q0 21 15 36t36 15q22 0 37 -14.5t15 -36.5q0 -21 -15 -36t-37 -15q-21 0 -36 14.5t-15 36.5zM93 -108q0 21 15.5 36t36.5 15t36 -14.5t15 -36.5q0 -21 -15 -36t-36 -15q-22 0 -37 14.5t-15 36.5z" />
<glyph unicode="&#x6ae;" horiz-adv-x="897" d="M423 0q-185 0 -267 72.5t-82 218.5q0 96 32 167l99 16q-39 -76 -39 -172q0 -119 59 -174t210 -55h240v632h92v-632h130v-73h-474zM323 407v55q37 0 71 -6q-31 14 -31 50q0 39 32.5 67.5t96.5 28.5q24 0 54 -5l-10 -54q-45 5 -50 5q-56 0 -56 -41q0 -45 79 -45h56v-55 h-242zM409 -219q0 22 15 37t37 15q21 0 36.5 -15t15.5 -37q0 -21 -15.5 -36.5t-36.5 -15.5q-22 0 -37 15t-15 37zM481 -108q0 21 15 36t36 15q22 0 37 -14.5t15 -36.5q0 -21 -15 -36t-37 -15q-21 0 -36 14.5t-15 36.5zM338 -108q0 21 15.5 36t36.5 15t36 -14.5t15 -36.5 q0 -21 -15 -36t-36 -15q-22 0 -37 14.5t-15 36.5z" />
<glyph unicode="&#x6b0;" horiz-adv-x="459" d="M383 548q0 -42 -26.5 -70.5t-67.5 -28.5q-34 0 -56.5 18t-27.5 54l-92 -58q133 -49 197.5 -145t64.5 -267v-51h-390q-19 0 -39.5 10.5t-20.5 26.5q0 15 21 25.5t39 10.5h296q-3 146 -65 224.5t-194 117.5v76l400 248v-90l-64 -32q25 -25 25 -69zM22 546v78l400 251v-77z M322 544q0 39 -29 39q-11 0 -20 -10.5t-9 -28.5q0 -38 29 -38q12 0 20.5 10.5t8.5 27.5z" />
<glyph unicode="&#x6b0;" horiz-adv-x="449" d="M383 548q0 -42 -26.5 -70.5t-67.5 -28.5q-34 0 -56.5 18t-27.5 54l-92 -58q128 -47 193 -138.5t69 -251.5h74v-73h-464q-19 0 -39.5 10.5t-20.5 26.5q0 15 21 25.5t39 10.5h296q-3 146 -65 224.5t-194 117.5v76l400 248v-90l-64 -32q25 -25 25 -69zM22 546v78l400 251 v-77zM322 544q0 39 -29 39q-11 0 -20 -10.5t-9 -28.5q0 -38 29 -38q12 0 20.5 10.5t8.5 27.5z" />
<glyph unicode="&#x6b0;" horiz-adv-x="856" d="M791 549q0 -42 -26 -69.5t-68 -27.5q-75 0 -86 69l-92 -58q128 -47 193 -138.5t69 -251.5h74v-73h-432q-185 0 -267 72.5t-82 218.5q0 96 32 167l99 16q-39 -76 -39 -172q0 -119 59 -174t210 -55h252q-3 146 -65 224.5t-194 117.5v76l400 248v-90l-62 -31q25 -23 25 -69z M428 544v79l400 251v-78zM730 546q0 41 -30 41q-12 0 -21 -10.5t-9 -30.5q0 -41 30 -41q13 0 21.5 11t8.5 30z" />
<glyph unicode="&#x6b2;" horiz-adv-x="459" d="M375 0h-390q-19 0 -39.5 10.5t-20.5 26.5q0 15 21 25.5t39 10.5h299q-2 144 -65 224t-197 118v64l379 238v-89l-272 -166q123 -51 184.5 -146.5t61.5 -264.5v-51zM22 541v83l379 238v-84zM83 -144q0 22 15 37.5t37 15.5t37 -15.5t15 -37.5q0 -21 -15 -36.5t-37 -15.5 t-37 15.5t-15 36.5zM228 -144q0 22 15 37.5t37 15.5q21 0 36.5 -15.5t15.5 -37.5q0 -21 -15 -36.5t-37 -15.5t-37 15.5t-15 36.5z" />
<glyph unicode="&#x6b2;" horiz-adv-x="449" d="M-15 0q-19 0 -39.5 10.5t-20.5 26.5q0 15 21 25.5t39 10.5h299q-2 144 -65 224t-197 118v64l379 238v-89l-272 -166q119 -50 180.5 -140.5t65.5 -248.5h74v-73h-464zM22 541v83l379 238v-84zM94 -144q0 22 15 37.5t37 15.5t37 -15.5t15 -37.5q0 -21 -15 -36.5t-37 -15.5 t-37 15.5t-15 36.5zM239 -144q0 22 15 37.5t37 15.5q21 0 36.5 -15.5t15.5 -37.5q0 -21 -15 -36.5t-37 -15.5t-37 15.5t-15 36.5z" />
<glyph unicode="&#x6b2;" horiz-adv-x="856" d="M855 0h-432q-185 0 -267 72.5t-82 218.5q0 96 32 167l99 16q-39 -76 -39 -172q0 -119 59 -174t210 -55h255q-2 144 -65 224t-197 118v64l379 238v-89l-272 -166q119 -50 180.5 -140.5t65.5 -248.5h74v-73zM428 566v83l379 239v-84zM351 -144q0 22 15 37.5t37 15.5 t37 -15.5t15 -37.5q0 -21 -15 -36.5t-37 -15.5t-37 15.5t-15 36.5zM496 -144q0 22 15 37.5t37 15.5q21 0 36.5 -15.5t15.5 -37.5q0 -21 -15 -36.5t-37 -15.5t-37 15.5t-15 36.5z" />
<glyph unicode="&#x6b4;" horiz-adv-x="459" d="M375 0h-390q-19 0 -39.5 10.5t-20.5 26.5q0 15 21 25.5t39 10.5h299q-2 144 -65 224t-197 118v59l379 237v-83l-275 -168q124 -48 186.5 -144t62.5 -265v-51zM22 529v78l379 238v-78zM209 785q-21 0 -35 13.5t-14 34.5q0 20 14.5 34.5t34.5 14.5t34 -14t14 -35 q0 -20 -14 -34t-34 -14zM101 839q-21 0 -35 13.5t-14 34.5q0 20 14.5 34.5t34.5 14.5t34 -14t14 -35q0 -20 -14 -34t-34 -14zM79 716q-20 0 -34 14t-14 35q0 20 14 34t34 14q21 0 35 -14t14 -34t-14 -34.5t-35 -14.5z" />
<glyph unicode="&#x6b4;" horiz-adv-x="449" d="M449 0h-464q-19 0 -39.5 10.5t-20.5 26.5q0 15 21 25.5t39 10.5h299q-2 144 -65 224t-197 118v59l379 237v-83l-275 -168q120 -46 182.5 -137t66.5 -250h74v-73zM22 529v78l379 238v-78zM209 785q-21 0 -35 13.5t-14 34.5q0 20 14.5 34.5t34.5 14.5t34 -14t14 -35 q0 -20 -14 -34t-34 -14zM79 716q-20 0 -34 14t-14 35q0 20 14 34t34 14q21 0 35 -14t14 -34t-14 -34.5t-35 -14.5zM101 839q-21 0 -35 13.5t-14 34.5q0 20 14.5 34.5t34.5 14.5t34 -14t14 -35q0 -20 -14 -34t-34 -14z" />
<glyph unicode="&#x6b4;" horiz-adv-x="856" d="M423 0q-185 0 -267 72.5t-82 218.5q0 96 32 167l99 16q-39 -76 -39 -172q0 -119 59 -174t210 -55h255q-2 144 -65 224t-197 118v59l379 237v-83l-272 -166q119 -50 180.5 -140.5t65.5 -248.5h74v-73h-432zM428 551v78l379 238v-78zM485 751q-20 0 -34 14t-14 35 q0 20 14 34.5t34 14.5t34.5 -14t14.5 -35q0 -20 -14.5 -34.5t-34.5 -14.5zM507 874q-20 0 -34.5 14.5t-14.5 34.5t14.5 34.5t34.5 14.5t34 -14t14 -35q0 -20 -14 -34.5t-34 -14.5zM615 820q-20 0 -34 14t-14 35q0 20 14 34.5t34 14.5t34 -14t14 -35q0 -20 -14 -34.5 t-34 -14.5z" />
<glyph unicode="&#x6b5;" d="M221 0h-236q-19 0 -39.5 10.5t-20.5 26.5q0 15 21 25.5t39 10.5h144v632h92v-705zM315 875l-139 -131l-139 129l40 44l100 -85l99 85z" />
<glyph unicode="&#x6b5;" horiz-adv-x="351" d="M351 0h-366q-19 0 -39.5 10.5t-20.5 26.5q0 15 21 25.5t39 10.5h144v632h92v-632h130v-73zM315 875l-139 -131l-139 129l40 44l100 -85l99 85z" />
<glyph unicode="&#x6b5;" horiz-adv-x="682" d="M467 51v654h92v-632h122v-73h-125q-13 -117 -77.5 -174t-166.5 -57q-111 0 -178 67t-67 212q0 102 24 190l95 18q-27 -99 -27 -199q0 -117 46 -166t116 -49q146 0 146 209zM645 875l-139 -131l-139 129l40 44l100 -85l99 85z" />
<glyph unicode="&#x6b6;" d="M221 0h-236q-19 0 -39.5 10.5t-20.5 26.5q0 15 21 25.5t39 10.5h144v632h92v-705zM121 819q0 22 16 38t38 16q23 0 39 -16t16 -38q0 -23 -16 -39t-39 -16q-22 0 -38 16.5t-16 38.5z" />
<glyph unicode="&#x6b6;" horiz-adv-x="351" d="M351 0h-366q-19 0 -39.5 10.5t-20.5 26.5q0 15 21 25.5t39 10.5h144v632h92v-632h130v-73zM121 819q0 22 16 38t38 16q23 0 39 -16t16 -38q0 -23 -16 -39t-39 -16q-22 0 -38 16.5t-16 38.5z" />
<glyph unicode="&#x6b6;" horiz-adv-x="682" d="M467 51v654h92v-632h122v-73h-125q-13 -117 -77.5 -174t-166.5 -57q-111 0 -178 67t-67 212q0 102 24 190l95 18q-27 -99 -27 -199q0 -117 46 -166t116 -49q146 0 146 209zM451 819q0 22 16 38t38 16q23 0 39 -16t16 -38q0 -23 -16 -39t-39 -16q-22 0 -38 16.5t-16 38.5z " />
<glyph unicode="&#x6b7;" d="M221 0h-236q-19 0 -39.5 10.5t-20.5 26.5q0 15 21 25.5t39 10.5h144v614h92v-687zM52 780q0 21 15 36.5t37 15.5t37 -15t15 -37t-15 -37.5t-37 -15.5t-37 15.5t-15 37.5zM199 780q0 21 15.5 36.5t36.5 15.5q22 0 37.5 -15t15.5 -37t-15.5 -37.5t-37.5 -15.5 q-21 0 -36.5 15.5t-15.5 37.5zM126 893q0 22 15 37.5t37 15.5t37 -15.5t15 -37.5q0 -21 -15 -36.5t-37 -15.5t-37 15t-15 37z" />
<glyph unicode="&#x6b7;" horiz-adv-x="351" d="M351 0h-366q-19 0 -39.5 10.5t-20.5 26.5q0 15 21 25.5t39 10.5h144v614h92v-614h130v-73zM199 780q0 21 15.5 36.5t36.5 15.5q22 0 37.5 -15t15.5 -37t-15.5 -37.5t-37.5 -15.5q-21 0 -36.5 15.5t-15.5 37.5zM126 893q0 22 15 37.5t37 15.5t37 -15.5t15 -37.5 q0 -21 -15 -36.5t-37 -15.5t-37 15t-15 37zM52 780q0 21 15 36.5t37 15.5t37 -15t15 -37t-15 -37.5t-37 -15.5t-37 15.5t-15 37.5z" />
<glyph unicode="&#x6b7;" horiz-adv-x="682" d="M467 51v636h92v-614h122v-73h-125q-13 -117 -77.5 -174t-166.5 -57q-111 0 -178 67t-67 212q0 102 24 190l95 18q-27 -99 -27 -199q0 -117 46 -166t116 -49q146 0 146 209zM533 780q0 21 15.5 36.5t36.5 15.5q22 0 37.5 -15t15.5 -37t-15.5 -37.5t-37.5 -15.5 q-21 0 -36.5 15.5t-15.5 37.5zM460 893q0 22 15 37.5t37 15.5t37 -15.5t15 -37.5q0 -21 -15 -36.5t-37 -15.5t-37 15t-15 37zM386 780q0 21 15 36.5t37 15.5t37 -15t15 -37t-15 -37.5t-37 -15.5t-37 15.5t-15 37.5z" />
<glyph unicode="&#x6b8;" d="M221 0h-236q-19 0 -39.5 10.5t-20.5 26.5q0 15 21 25.5t39 10.5h144v632h92v-705zM121 -219q0 22 15 37t37 15q21 0 36.5 -15t15.5 -37q0 -21 -15.5 -36.5t-36.5 -15.5q-22 0 -37 15t-15 37zM193 -108q0 21 15 36t36 15q22 0 37 -14.5t15 -36.5q0 -21 -15 -36t-37 -15 q-21 0 -36 14.5t-15 36.5zM50 -108q0 21 15.5 36t36.5 15t36 -14.5t15 -36.5q0 -21 -15 -36t-36 -15q-22 0 -37 14.5t-15 36.5z" />
<glyph unicode="&#x6b8;" horiz-adv-x="351" d="M-15 0q-19 0 -39.5 10.5t-20.5 26.5q0 15 21 25.5t39 10.5h144v632h92v-632h130v-73h-366zM122 -219q0 22 15 37t37 15q21 0 36.5 -15t15.5 -37q0 -21 -15.5 -36.5t-36.5 -15.5q-22 0 -37 15t-15 37zM194 -108q0 21 15 36t36 15q22 0 37 -14.5t15 -36.5q0 -21 -15 -36 t-37 -15q-21 0 -36 14.5t-15 36.5zM51 -108q0 21 15.5 36t36.5 15t36 -14.5t15 -36.5q0 -21 -15 -36t-36 -15q-22 0 -37 14.5t-15 36.5z" />
<glyph unicode="&#x6b8;" horiz-adv-x="682" d="M467 139v566h92v-557q0 -37 -5 -75h127v-73h-146q-56 -142 -223 -142q-111 0 -178 66.5t-67 212.5q0 100 24 190l95 18q-27 -100 -27 -200q0 -117 46 -165.5t116 -48.5q146 0 146 208zM316 -204q21 0 36 -14.5t15 -36.5q0 -21 -15 -36t-36 -15t-36 14.5t-15 36.5 q0 21 15 36t36 15zM433 -156q21 0 36 -14.5t15 -36.5q0 -20 -15 -35t-36 -15t-36 14.5t-15 35.5t15 36t36 15zM199 -156q21 0 36 -14.5t15 -36.5q0 -20 -15 -35t-36 -15t-36 14.5t-15 35.5t15.5 36t35.5 15z" />
<glyph unicode="&#x6b9;" d="M221 0h-236q-19 0 -39.5 10.5t-20.5 26.5q0 15 21 25.5t39 10.5h144v397h92v-470zM121 609q0 22 16 38t38 16q23 0 39 -16t16 -38q0 -23 -16 -39t-39 -16q-22 0 -38 16.5t-16 38.5zM113 -142q0 23 15.5 38.5t37.5 15.5q23 0 38.5 -15.5t15.5 -38.5q0 -22 -16 -38t-38 -16 t-37.5 15.5t-15.5 38.5z" />
<glyph unicode="&#x6b9;" horiz-adv-x="351" d="M351 0h-366q-19 0 -39.5 10.5t-20.5 26.5q0 15 21 25.5t39 10.5h144v397h92v-397h130v-73zM121 609q0 22 16 38t38 16q23 0 39 -16t16 -38q0 -23 -16 -39t-39 -16q-22 0 -38 16.5t-16 38.5zM120 -142q0 23 15.5 38.5t37.5 15.5q23 0 38.5 -15.5t15.5 -38.5 q0 -22 -15.5 -38t-38.5 -16q-22 0 -37.5 15.5t-15.5 38.5z" />
<glyph unicode="&#x6b9;" horiz-adv-x="709" d="M579 470v-373q0 -16 -1 -24h130v-73h-140q-43 -180 -253 -180q-112 0 -180 66t-68 208q0 84 21 164l94 15q-23 -85 -23 -170q0 -115 47.5 -162.5t117.5 -47.5q163 0 163 198v379h92zM260 419q0 22 16 38t38 16q23 0 39 -16t16 -38q0 -23 -16.5 -39t-38.5 -16t-38 16.5 t-16 38.5zM272 -266q0 23 15.5 38.5t37.5 15.5q23 0 38.5 -15.5t15.5 -38.5q0 -22 -15.5 -38t-38.5 -16q-22 0 -37.5 15.5t-15.5 38.5z" />
<glyph unicode="&#x6bc;" d="M172 -38q0 -42 -26 -69.5t-68 -27.5q-39 0 -63 22t-24 68q0 25 9 45h-15q-19 0 -39.5 10.5t-20.5 26.5q0 15 21 25.5t39 10.5h144v397h92v-470h-55q6 -16 6 -38zM121 609q0 22 16 38t38 16q23 0 39 -16t16 -38q0 -23 -16 -39t-39 -16q-22 0 -38 16.5t-16 38.5zM111 -42 q0 42 -29 42q-12 0 -21.5 -10.5t-9.5 -30.5q0 -42 30 -42q13 0 21.5 11t8.5 30z" />
<glyph unicode="&#x6bc;" horiz-adv-x="351" d="M266 -38q0 -42 -26 -69.5t-68 -27.5q-39 0 -63 22t-24 68q0 25 9 45h-109q-19 0 -39.5 10.5t-20.5 26.5q0 15 21 25.5t39 10.5h144v397h92v-397h130v-73h-91q6 -16 6 -38zM121 609q0 22 16 38t38 16q23 0 39 -16t16 -38q0 -23 -16 -39t-39 -16q-22 0 -38 16.5t-16 38.5z M205 -42q0 39 -25 42h-8q-27 -4 -27 -41q0 -42 30 -42q13 0 21.5 11t8.5 30z" />
<glyph unicode="&#x6bc;" horiz-adv-x="709" d="M574 -212q0 -42 -26 -69t-68 -27q-39 0 -63 21.5t-24 66.5q-32 -11 -78 -11q-112 0 -180 67t-68 212q0 102 24 190l95 18q-27 -99 -27 -199q0 -117 47.5 -166t117.5 -49q163 0 163 203v425h92v-397h129v-73h-131q-9 -78 -48 -129q45 -21 45 -83zM374 425q0 -22 -15.5 -37 t-36.5 -15q-22 0 -37 15t-15 37t15 37t37 15q21 0 36.5 -15t15.5 -37zM513 -215q0 41 -30 41q-12 0 -21 -10.5t-9 -30.5q0 -41 30 -41q13 0 21.5 11t8.5 30z" />
<glyph unicode="&#x6bd;" d="M221 0h-236q-19 0 -39.5 10.5t-20.5 26.5q0 15 21 25.5t39 10.5h144v397h92v-470zM121 -219q0 22 15 37t37 15q21 0 36.5 -15t15.5 -37q0 -21 -15.5 -36.5t-36.5 -15.5q-22 0 -37 15t-15 37zM193 -108q0 21 15 36t36 15q22 0 37 -14.5t15 -36.5q0 -21 -15 -36t-37 -15 q-21 0 -36 14.5t-15 36.5zM50 -108q0 21 15.5 36t36.5 15t36 -14.5t15 -36.5q0 -21 -15 -36t-36 -15q-22 0 -37 14.5t-15 36.5z" />
<glyph unicode="&#x6bd;" horiz-adv-x="351" d="M-15 0q-19 0 -39.5 10.5t-20.5 26.5q0 15 21 25.5t39 10.5h144v397h92v-397h130v-73h-366zM122 -219q0 22 15 37t37 15q21 0 36.5 -15t15.5 -37q0 -21 -15.5 -36.5t-36.5 -15.5q-22 0 -37 15t-15 37zM194 -108q0 21 15 36t36 15q22 0 37 -14.5t15 -36.5q0 -21 -15 -36 t-37 -15q-21 0 -36 14.5t-15 36.5zM51 -108q0 21 15.5 36t36.5 15t36 -14.5t15 -36.5q0 -21 -15 -36t-36 -15q-22 0 -37 14.5t-15 36.5z" />
<glyph unicode="&#x6bd;" horiz-adv-x="709" d="M579 470v-397h129v-73h-132q-22 -231 -261 -231q-112 0 -180 67t-68 212q0 102 24 190l95 18q-27 -99 -27 -199q0 -117 47.5 -166t117.5 -49q163 0 163 203v425h92zM301 380q0 21 15.5 36.5t36.5 15.5q22 0 37.5 -15t15.5 -37t-15.5 -37.5t-37.5 -15.5q-21 0 -36.5 15.5 t-15.5 37.5zM228 493q0 22 15 37.5t37 15.5t37 -15.5t15 -37.5q0 -21 -15 -36.5t-37 -15.5t-37 15t-15 37zM154 380q0 21 15 36.5t37 15.5t37 -15t15 -37t-15 -37.5t-37 -15.5t-37 15.5t-15 37.5z" />
<glyph unicode="&#x6bf;" horiz-adv-x="531" d="M440 0h-455q-19 0 -39.5 10.5t-20.5 26.5q0 15 21 25.5t39 10.5h373q7 49 7 103q0 117 -49.5 171t-168.5 54q-58 0 -120 -10v72q61 11 127 11q162 0 232.5 -72t70.5 -220q0 -80 -17 -182zM131 -219q0 22 15 37t37 15q21 0 36.5 -15t15.5 -37q0 -21 -15.5 -36.5 t-36.5 -15.5q-22 0 -37 15t-15 37zM203 -108q0 21 15 36t36 15q22 0 37 -14.5t15 -36.5q0 -21 -15 -36t-37 -15q-21 0 -36 14.5t-15 36.5zM60 -108q0 21 15.5 36t36.5 15t36 -14.5t15 -36.5q0 -21 -15 -36t-36 -15q-22 0 -37 14.5t-15 36.5zM128 609q0 22 16 38t38 16 q23 0 39 -16t16 -38q0 -23 -16.5 -39t-38.5 -16t-38 16.5t-16 38.5z" />
<glyph unicode="&#x6bf;" horiz-adv-x="528" d="M-15 0q-19 0 -39.5 10.5t-20.5 26.5q0 15 21 25.5t39 10.5h373q7 49 7 103q0 117 -49.5 171t-168.5 54q-58 0 -120 -10v72q61 11 127 11q162 0 232.5 -72t70.5 -220q0 -37 -7 -109h78v-73h-543zM130 609q0 22 16 38t38 16q23 0 39 -16t16 -38q0 -23 -16.5 -39t-38.5 -16 t-38 16.5t-16 38.5zM140 -219q0 22 15 37t37 15q21 0 36.5 -15t15.5 -37q0 -21 -15.5 -36.5t-36.5 -15.5q-22 0 -37 15t-15 37zM212 -108q0 21 15 36t36 15q22 0 37 -14.5t15 -36.5q0 -21 -15 -36t-37 -15q-21 0 -36 14.5t-15 36.5zM69 -108q0 21 15.5 36t36.5 15t36 -14.5 t15 -36.5q0 -21 -15 -36t-36 -15q-22 0 -37 14.5t-15 36.5z" />
<glyph unicode="&#x6bf;" horiz-adv-x="623" d="M623 0h-282q-118 0 -165 -33.5t-47 -92.5q0 -46 32.5 -76t94.5 -40l-19 -75q-93 14 -146.5 62t-53.5 122q0 95 74 150.5t235 55.5h107q7 49 7 103q0 117 -49.5 171t-169.5 54q-59 0 -111 -7v72q66 8 119 8q162 0 232.5 -72t70.5 -220q0 -37 -7 -109h78v-73zM225 609 q0 22 16 38t38 16q23 0 39 -16t16 -38q0 -23 -16 -39t-39 -16q-22 0 -38 16.5t-16 38.5zM344 -219q0 22 15 37t37 15q21 0 36.5 -15t15.5 -37q0 -21 -15.5 -36.5t-36.5 -15.5q-22 0 -37 15t-15 37zM416 -108q0 21 15 36t36 15q22 0 37 -14.5t15 -36.5q0 -21 -15 -36t-37 -15 q-21 0 -36 14.5t-15 36.5zM273 -108q0 21 15.5 36t36.5 15t36 -14.5t15 -36.5q0 -21 -15 -36t-36 -15q-22 0 -37 14.5t-15 36.5z" />
<glyph unicode="&#x6c4;" horiz-adv-x="648" d="M228 -273q-34 0 -74 3.5t-62 7.5l-23 4l6 78q87 -20 163 -20q28 0 50 3q-20 22 -20 62q0 39 24 65t64 26q46 0 68 -32q5 25 5 54v25h-93q-143 0 -206.5 59t-63.5 172q0 105 65 176t187 71q49 0 99 -8.5t76 -17.5l26 -9v-373h129v-73h-129v-19q0 -113 -70 -183.5 t-221 -70.5zM429 76v309q-49 23 -121 23q-69 0 -109 -45t-40 -120q0 -87 44 -127t143 -40h83zM382 -132q0 41 -29 41q-12 0 -21 -10.5t-9 -30.5q0 -42 30 -42q12 0 20.5 11.5t8.5 30.5z" />
<glyph unicode="&#x6ca;" horiz-adv-x="648" d="M228 -253q-34 0 -73 3.5t-61 7.5l-22 4l6 78q84 -20 160 -20q191 0 191 156v24h-101q-262 0 -262 234q0 105 65 176t187 71q49 0 99 -8.5t76 -17.5l26 -9v-373h129v-73h-129v-19q0 -46 -16 -86.5t-48.5 -74.5t-91 -53.5t-135.5 -19.5zM429 73v312q-49 23 -121 23 q-69 0 -109 -45t-40 -120q0 -87 43.5 -128.5t138.5 -41.5h88zM189 610q0 22 15 37t37 15t37 -15t15 -37t-15 -37t-37 -15t-37 15t-15 37zM334 610q0 22 15 37t37 15q21 0 36.5 -15t15.5 -37q0 -21 -15 -36.5t-37 -15.5t-37 15t-15 37z" />
<glyph unicode="&#x6cd;" horiz-adv-x="1066" d="M650 0h-187q-102 0 -170 20.5t-107 64.5t-55 104t-16 149l-88 -14v79l180 26v-89q0 -151 55 -209t212 -58h85v389q88 19 183 19q120 0 171.5 -55t51.5 -163v-190h101v-73h-190v251q0 84 -33.5 120.5t-109.5 36.5q-18 0 -39 -2t-32 -4l-12 -2v-400z" />
<glyph unicode="&#x6ce;" d="M221 0h-236q-19 0 -39.5 10.5t-20.5 26.5q0 15 21 25.5t39 10.5h144v397h92v-470zM315 702l-139 -131l-139 129l40 44l100 -85l99 85zM49 -144q0 22 15 37.5t37 15.5t37 -15.5t15 -37.5q0 -21 -15 -36.5t-37 -15.5t-37 15.5t-15 36.5zM194 -144q0 22 15 37.5t37 15.5 q21 0 36.5 -15.5t15.5 -37.5q0 -21 -15 -36.5t-37 -15.5t-37 15.5t-15 36.5z" />
<glyph unicode="&#x6ce;" horiz-adv-x="351" d="M-15 0q-19 0 -39.5 10.5t-20.5 26.5q0 15 21 25.5t39 10.5h144v397h92v-397h130v-73h-366zM314 702l-139 -131l-139 129l40 44l100 -85l99 85zM51 -144q0 22 15 37.5t37 15.5t37 -15.5t15 -37.5q0 -21 -15 -36.5t-37 -15.5t-37 15.5t-15 36.5zM196 -144q0 22 15 37.5 t37 15.5q21 0 36.5 -15.5t15.5 -37.5q0 -21 -15 -36.5t-37 -15.5t-37 15.5t-15 36.5z" />
<glyph unicode="&#x6ce;" horiz-adv-x="1027" d="M610 0h-187q-185 0 -267 72.5t-82 218.5q0 96 32 167l99 16q-39 -76 -39 -172q0 -119 59 -174t210 -55h86v389q87 19 182 19q120 0 171.5 -55t51.5 -163v-190h101v-73h-191v251q0 84 -33 120.5t-109 36.5q-18 0 -39 -2t-33 -4l-12 -2v-400zM508 702l-139 -131l-139 129 l40 44l100 -85l99 85z" />
<glyph unicode="&#x6cf;" horiz-adv-x="648" d="M228 -253q-34 0 -73 3.5t-61 7.5l-22 4l6 78q84 -20 160 -20q191 0 191 156v24h-101q-262 0 -262 234q0 105 65 176t187 71q49 0 99 -8.5t76 -17.5l26 -9v-373h129v-73h-129v-19q0 -46 -16 -86.5t-48.5 -74.5t-91 -53.5t-135.5 -19.5zM429 73v312q-49 23 -121 23 q-69 0 -109 -45t-40 -120q0 -87 43.5 -128.5t138.5 -41.5h88zM261 609q0 22 16 38t38 16q23 0 39 -16t16 -38q0 -23 -16 -39t-39 -16q-22 0 -38 16.5t-16 38.5z" />
<glyph unicode="&#x6d1;" d="M221 0h-236q-19 0 -39.5 10.5t-20.5 26.5q0 15 21 25.5t39 10.5h144v397h92v-470zM119 -219q0 22 15 37t37 15q21 0 36.5 -15t15.5 -37q0 -21 -15.5 -36.5t-36.5 -15.5q-22 0 -37 15t-15 37zM191 -108q0 21 15 36t36 15q22 0 37 -14.5t15 -36.5q0 -21 -15 -36t-37 -15 q-21 0 -36 14.5t-15 36.5zM48 -108q0 21 15.5 36t36.5 15t36 -14.5t15 -36.5q0 -21 -15 -36t-36 -15q-22 0 -37 14.5t-15 36.5z" />
<glyph unicode="&#x6d1;" horiz-adv-x="351" d="M-15 0q-19 0 -39.5 10.5t-20.5 26.5q0 15 21 25.5t39 10.5h144v397h92v-397h130v-73h-366zM122 -219q0 22 15 37t37 15q21 0 36.5 -15t15.5 -37q0 -21 -15.5 -36.5t-36.5 -15.5q-22 0 -37 15t-15 37zM194 -108q0 21 15 36t36 15q22 0 37 -14.5t15 -36.5q0 -21 -15 -36 t-37 -15q-21 0 -36 14.5t-15 36.5zM51 -108q0 21 15.5 36t36.5 15t36 -14.5t15 -36.5q0 -21 -15 -36t-36 -15q-22 0 -37 14.5t-15 36.5z" />
<glyph unicode="&#x6d1;" horiz-adv-x="1027" d="M610 0h-187q-185 0 -267 72.5t-82 218.5q0 96 32 167l99 16q-39 -76 -39 -172q0 -119 59 -174t210 -55h86v389q87 19 182 19q120 0 171.5 -55t51.5 -163v-190h101v-73h-191v251q0 84 -33 120.5t-109 36.5q-18 0 -39 -2t-33 -4l-12 -2v-400zM357 -219q0 22 15 37t37 15 q21 0 36.5 -15t15.5 -37q0 -21 -15.5 -36.5t-36.5 -15.5q-22 0 -37 15t-15 37zM429 -108q0 21 15 36t36 15q22 0 37 -14.5t15 -36.5q0 -21 -15 -36t-37 -15q-21 0 -36 14.5t-15 36.5zM286 -108q0 21 15.5 36t36.5 15t36 -14.5t15 -36.5q0 -21 -15 -36t-36 -15 q-22 0 -37 14.5t-15 36.5z" />
<glyph unicode="&#x6d5;" horiz-adv-x="648" d="M648 0h-320q-262 0 -262 234q0 105 65 176t187 71q49 0 99 -8.5t76 -17.5l26 -9v-373h129v-73zM429 73v312q-49 23 -121 23q-69 0 -109 -45t-40 -120q0 -87 43.5 -128.5t138.5 -41.5h88z" />
<glyph unicode="&#x6ee;" horiz-adv-x="536" d="M57 0v73h320q-2 139 -61 219t-191 120l24 77q161 -49 238 -146t81 -270h68v-73h-479zM361 614l-40 -43l-99 84l-100 -84l-38 41l139 132z" />
<glyph unicode="&#x6ef;" horiz-adv-x="451" d="M90 -257q-56 0 -104 15l10 75q53 -17 101 -17q66 0 99.5 38.5t33.5 132.5v483h92v-397h129v-73h-129v-5q0 -252 -232 -252zM411 555l-40 -43l-99 84l-100 -84l-38 41l139 132z" />
<glyph unicode="&#x6fa;" horiz-adv-x="868" d="M29 0h-44q-19 0 -39.5 10.5t-20.5 26.5q0 15 21 25.5t39 10.5h44q55 0 79 30t24 107v200h92v-182q0 -36 1 -57t5.5 -44t13.5 -34.5t24.5 -19t39.5 -7.5q50 0 77 35.5t27 125.5v223h90v-256q0 -76 31 -98.5t117 -22.5h32q8 69 8 139q0 149 -33 276l90 15q35 -131 35 -283 q0 -113 -16 -220h-113q-97 0 -142 17t-66 63q-14 -36 -52.5 -61.5t-100.5 -25.5q-49 0 -83.5 23.5t-45.5 62.5q-29 -79 -134 -79zM398 -142q0 23 15.5 38.5t37.5 15.5q23 0 38.5 -15.5t15.5 -38.5q0 -22 -15.5 -38t-38.5 -16q-22 0 -37.5 15.5t-15.5 38.5zM326 608 q0 21 15 36.5t37 15.5t37 -15t15 -37t-15 -37.5t-37 -15.5t-37 15.5t-15 37.5zM473 608q0 21 15.5 36.5t36.5 15.5q22 0 37.5 -15t15.5 -37t-15.5 -37.5t-37.5 -15.5q-21 0 -36.5 15.5t-15.5 37.5zM400 721q0 22 15 37.5t37 15.5t37 -15.5t15 -37.5q0 -21 -15 -36.5 t-37 -15.5t-37 15t-15 37z" />
<glyph unicode="&#x6fa;" horiz-adv-x="896" d="M29 0h-44q-19 0 -39.5 10.5t-20.5 26.5q0 15 21 25.5t39 10.5h44q55 0 79 30t24 107v200h92v-182q0 -36 1 -57t5.5 -44t13.5 -34.5t24.5 -19t39.5 -7.5q50 0 77 35.5t27 125.5v223h90v-256q0 -76 31 -98.5t117 -22.5h32q8 69 8 139q0 149 -33 276l90 15q35 -131 35 -283 q0 -61 -7 -147h121v-73h-243q-97 0 -142 17t-66 63q-14 -36 -52.5 -61.5t-100.5 -25.5q-49 0 -83.5 23.5t-45.5 62.5q-29 -79 -134 -79zM398 -142q0 23 15.5 38.5t37.5 15.5q23 0 38.5 -15.5t15.5 -38.5q0 -22 -15.5 -38t-38.5 -16q-22 0 -37.5 15.5t-15.5 38.5zM473 608 q0 21 15.5 36.5t36.5 15.5q22 0 37.5 -15t15.5 -37t-15.5 -37.5t-37.5 -15.5q-21 0 -36.5 15.5t-15.5 37.5zM400 721q0 22 15 37.5t37 15.5t37 -15.5t15 -37.5q0 -21 -15 -36.5t-37 -15.5t-37 15t-15 37zM326 608q0 21 15 36.5t37 15.5t37 -15t15 -37t-15 -37.5t-37 -15.5 t-37 15.5t-15 37.5z" />
<glyph unicode="&#x6fa;" horiz-adv-x="1231" d="M988 0q-98 0 -143.5 17.5t-64.5 62.5q-14 -43 -51 -65t-78 -22q-67 0 -96 45q1 -143 -66.5 -206t-176.5 -63q-111 0 -178 67t-67 212q0 102 24 190l95 18q-27 -99 -27 -199q0 -117 46 -166t116 -49q146 0 146 203v365h92v-182q0 -85 21 -123.5t70 -38.5q51 0 74.5 38.5 t23.5 122.5v223h89v-256q0 -76 30.5 -98.5t117.5 -22.5h32q8 69 8 139q0 149 -33 276l90 15q35 -131 35 -283q0 -61 -7 -147h121v-73h-243zM726 -142q0 23 15.5 38.5t37.5 15.5q23 0 38.5 -15.5t15.5 -38.5q0 -22 -15.5 -38t-38.5 -16q-22 0 -37.5 15.5t-15.5 38.5zM810 608 q0 21 15.5 36.5t36.5 15.5q22 0 37.5 -15t15.5 -37t-15.5 -37.5t-37.5 -15.5q-21 0 -36.5 15.5t-15.5 37.5zM737 721q0 22 15 37.5t37 15.5t37 -15.5t15 -37.5q0 -21 -15 -36.5t-37 -15.5t-37 15t-15 37zM663 608q0 21 15 36.5t37 15.5t37 -15t15 -37t-15 -37.5t-37 -15.5 t-37 15.5t-15 37.5z" />
<glyph unicode="&#x6fb;" horiz-adv-x="745" d="M394 0h-409q-19 0 -39.5 10.5t-20.5 26.5q0 15 21 25.5t39 10.5h144v397h92v-39q0 -102 -11 -179h2q33 109 108.5 169t165.5 60q96 0 148 -59.5t52 -167.5q0 -113 -70 -183.5t-222 -70.5zM220 73h184q187 0 187 174q0 76 -30.5 118.5t-91.5 42.5q-97 0 -166.5 -102.5 t-82.5 -232.5zM410 609q0 22 16 38t38 16q23 0 39 -16t16 -38q0 -23 -16.5 -39t-38.5 -16t-38 16.5t-16 38.5zM310 -142q0 23 15.5 38.5t37.5 15.5q23 0 38.5 -15.5t15.5 -38.5q0 -22 -15.5 -38t-38.5 -16q-22 0 -37.5 15.5t-15.5 38.5z" />
<glyph unicode="&#x6fb;" horiz-adv-x="761" d="M761 0h-776q-19 0 -39.5 10.5t-20.5 26.5q0 15 21 25.5t39 10.5h144v397h92v-39q0 -102 -11 -179h2q33 109 108.5 169t165.5 60q96 0 148 -59.5t52 -167.5q0 -116 -68 -181h143v-73zM220 73h184q187 0 187 174q0 76 -30.5 118.5t-91.5 42.5q-97 0 -166.5 -102.5 t-82.5 -232.5zM410 609q0 22 16 38t38 16q23 0 39 -16t16 -38q0 -23 -16.5 -39t-38.5 -16t-38 16.5t-16 38.5zM310 -142q0 23 15.5 38.5t37.5 15.5q23 0 38.5 -15.5t15.5 -38.5q0 -22 -15.5 -38t-38.5 -16q-22 0 -37.5 15.5t-15.5 38.5z" />
<glyph unicode="&#x6fb;" horiz-adv-x="1092" d="M556 0q-9 -115 -75.5 -173t-168.5 -58q-111 0 -178 67t-67 212q0 102 24 190l95 18q-27 -99 -27 -199q0 -117 46 -166t116 -49q146 0 146 203v425h92v-39q0 -102 -11 -179h2q33 109 108.5 169t165.5 60q96 0 148 -59.5t52 -167.5q0 -116 -68 -181h136v-73h-344h-16h-176z M558 73h184q187 0 187 174q0 76 -30.5 118.5t-91.5 42.5q-97 0 -166.5 -102.5t-82.5 -232.5zM747 609q0 22 16 38t38 16q23 0 39 -16t16 -38q0 -23 -16 -39t-39 -16q-22 0 -38 16.5t-16 38.5zM674 -142q0 23 15.5 38.5t37.5 15.5q23 0 38.5 -15.5t15.5 -38.5 q0 -22 -15.5 -38t-38.5 -16q-22 0 -37.5 15.5t-15.5 38.5z" />
<glyph unicode="&#x6fc;" horiz-adv-x="558" d="M517 0h-532q-19 0 -39.5 10.5t-20.5 26.5q0 15 21 25.5t39 10.5h199q-47 21 -77 68.5t-30 108.5q0 99 64 165t182 66q32 0 64.5 -5.5t49.5 -11.5l17 -5l-17 -74q-55 24 -119 24q-67 0 -108 -41.5t-41 -113.5q0 -82 66 -131.5t200 -49.5h82v-73zM247 609q0 22 16 38t38 16 q23 0 39 -16t16 -38q0 -23 -16 -39t-39 -16q-22 0 -38 16.5t-16 38.5zM224 -142q0 23 15.5 38.5t37.5 15.5q23 0 38.5 -15.5t15.5 -38.5q0 -22 -15.5 -38t-38.5 -16q-22 0 -37.5 15.5t-15.5 38.5z" />
<glyph unicode="&#x6fc;" horiz-adv-x="602" d="M4 0h-19q-19 0 -39.5 10.5t-20.5 26.5q0 15 21 25.5t39 10.5h22q162 0 274 53q-4 4 -33.5 32t-38 36t-35 30t-42.5 31.5t-41 22.5t-49 21l8 64q157 120 289 120q96 0 144 -44.5t48 -110.5q0 -53 -31 -107.5t-89 -99.5q70 -48 144 -48h47v-73h-59q-109 0 -203 75 q-140 -75 -336 -75zM136 334q31 -12 63 -33.5t51 -38t54.5 -49.5t48.5 -45q87 67 87 148q0 43 -28 70.5t-83 27.5q-79 0 -193 -80zM266 609q0 22 16 38t38 16q23 0 39 -16t16 -38q0 -23 -16.5 -39t-38.5 -16t-38 16.5t-16 38.5zM267 -142q0 23 15.5 38.5t37.5 15.5 q23 0 38.5 -15.5t15.5 -38.5q0 -22 -16 -38t-38 -16t-37.5 15.5t-15.5 38.5z" />
<glyph unicode="&#x6fc;" horiz-adv-x="633" d="M319 -277q-138 0 -206 52t-68 131q0 43 17 77t60 64.5t67 44t87 43.5l18 9q-44 43 -67.5 64t-66.5 49t-86 42l7 64q159 120 289 120q96 0 144.5 -44.5t48.5 -110.5q0 -63 -36.5 -109t-101.5 -85q80 -61 162 -61h46v-73h-59q-118 0 -226 94l-31 -15.5t-31.5 -16t-28.5 -15 t-28.5 -16t-24 -16t-22.5 -18t-17 -18.5t-14.5 -20.5t-8 -21.5t-3.5 -24q0 -52 46.5 -84.5t143.5 -32.5q34 0 73 3t62 7l22 3l6 -70q-89 -16 -173 -16zM167 334q23 -9 44 -20.5t45.5 -31t35.5 -29t41 -37.5t35 -33q103 59 103 133q0 43 -27.5 70.5t-82.5 27.5 q-80 0 -194 -80zM297 609q0 22 16 38t38 16q23 0 39 -16t16 -38q0 -23 -16 -39t-39 -16q-22 0 -38 16.5t-16 38.5zM298 -71q0 23 15.5 38.5t37.5 15.5q23 0 38.5 -15.5t15.5 -38.5t-15.5 -38.5t-38.5 -15.5q-22 0 -37.5 15.5t-15.5 38.5z" />
<glyph unicode="&#x6ff;" horiz-adv-x="764" d="M686 0h-701q-19 0 -39.5 10.5t-20.5 26.5q0 15 21 25.5t39 10.5h124q6 0 12 -0.5t11 -0.5t8.5 -0.5t5.5 -1.5h3q-3 2 -11 10t-18 31t-10 50q0 76 50.5 121t134.5 45q90 0 133.5 -58.5t43.5 -156.5v-39h125v20q0 184 -71.5 265t-227.5 81q-98 0 -213 -36l-10 72 q118 36 235 36q186 0 281 -99.5t95 -318.5v-93zM392 71v39q0 150 -104 150q-46 0 -71.5 -24t-25.5 -66q0 -50 31.5 -74.5t80.5 -24.5h89zM435 608l-40 -43l-99 84l-100 -84l-38 41l139 132z" />
<glyph unicode="&#x6ff;" horiz-adv-x="758" d="M758 0h-773q-19 0 -39.5 10.5t-20.5 26.5q0 15 21 25.5t39 10.5h124q6 0 12 -0.5t11 -0.5t8.5 -0.5t5.5 -1.5h3q-3 2 -11 10t-18 31t-10 50q0 76 50.5 121t134.5 45q90 0 133.5 -58.5t43.5 -156.5v-39h125v20q0 184 -71.5 265t-227.5 81q-98 0 -213 -36l-10 72 q118 36 235 36q186 0 281 -99.5t95 -318.5v-20h72v-73zM392 71v39q0 150 -104 150q-46 0 -71.5 -24t-25.5 -66q0 -50 31.5 -74.5t80.5 -24.5h89zM435 608l-40 -43l-99 84l-100 -84l-38 41l139 132z" />
<glyph unicode="&#x6ff;" horiz-adv-x="794" d="M793 0h-763v73h115q6 0 12 -0.5t10.5 -0.5t8 -0.5t6.5 -1.5h2q-3 2 -11 10t-17.5 31t-9.5 50q0 76 50.5 121t134.5 45q89 0 132.5 -58.5t43.5 -156.5v-39h126v20q0 184 -72 265t-228 81q-97 0 -212 -36l-10 72q117 36 235 36q186 0 281 -99.5t95 -318.5v-20h71v-73z M427 71v39q0 150 -103 150q-46 0 -72 -24t-26 -66q0 -50 32 -74.5t81 -24.5h88zM470 608l-40 -43l-99 84l-100 -84l-38 41l139 132z" />
<glyph unicode="&#x671;" arabic-form="final" d="M98 0v675h92v-602h129v-73h-221zM-17 748v45h51q21 61 61 94t88 33q47 0 70.5 -26t23.5 -89v-57h-294zM89 793h131v13q0 38 -10.5 54t-32.5 16q-29 0 -52.5 -23.5t-35.5 -59.5z" />
<glyph unicode="&#x67b;" horiz-adv-x="826" arabic-form="final" d="M423 0q-185 0 -267 72.5t-82 218.5q0 96 32 167l99 16q-39 -76 -39 -172q0 -119 59 -174t210 -55h170v397h92v-397h129v-73h-403zM412 -271q-21 0 -35 14t-14 35t14 35.5t35 14.5q20 0 34.5 -14t14.5 -36q0 -20 -14.5 -34.5t-34.5 -14.5zM412 -141q-21 0 -35 14t-14 35 q0 20 14 34.5t35 14.5q20 0 34.5 -14t14.5 -35t-14.5 -35t-34.5 -14z" />
<glyph unicode="&#x67b;" arabic-form="initial" d="M221 0h-236q-19 0 -39.5 10.5t-20.5 26.5q0 15 21 25.5t39 10.5h144v397h92v-470zM163 -271q-21 0 -35 14t-14 35t14 35.5t35 14.5t35 -14t14 -36q0 -20 -14.5 -34.5t-34.5 -14.5zM163 -141q-21 0 -35 14t-14 35q0 20 14 34.5t35 14.5q20 0 34.5 -14t14.5 -35t-14.5 -35 t-34.5 -14z" />
<glyph unicode="&#x67b;" horiz-adv-x="351" arabic-form="medial" d="M-15 0q-19 0 -39.5 10.5t-20.5 26.5q0 15 21 25.5t39 10.5h144v397h92v-397h130v-73h-366zM176 -271q-21 0 -35 14t-14 35t14 35.5t35 14.5q20 0 34.5 -14t14.5 -36q0 -20 -14.5 -34.5t-34.5 -14.5zM176 -141q-21 0 -35 14t-14 35q0 20 14 34.5t35 14.5q20 0 34.5 -14 t14.5 -35t-14.5 -35t-34.5 -14z" />
<glyph unicode="&#x67e;" horiz-adv-x="826" arabic-form="final" d="M826 0h-403q-185 0 -267 72.5t-82 218.5q0 96 32 167l99 16q-39 -76 -39 -172q0 -119 59 -174t210 -55h170v397h92v-397h129v-73zM374 -219q0 22 15 37t37 15q21 0 36.5 -15t15.5 -37q0 -21 -15.5 -36.5t-36.5 -15.5q-22 0 -37 15t-15 37zM446 -108q0 21 15 36t36 15 q22 0 37 -14.5t15 -36.5q0 -21 -15 -36t-37 -15q-21 0 -36 14.5t-15 36.5zM303 -108q0 21 15.5 36t36.5 15t36 -14.5t15 -36.5q0 -21 -15 -36t-36 -15q-22 0 -37 14.5t-15 36.5z" />
<glyph unicode="&#x67e;" arabic-form="initial" d="M221 0h-236q-19 0 -39.5 10.5t-20.5 26.5q0 15 21 25.5t39 10.5h144v397h92v-470zM119 -219q0 22 15 37t37 15q21 0 36.5 -15t15.5 -37q0 -21 -15.5 -36.5t-36.5 -15.5q-22 0 -37 15t-15 37zM191 -108q0 21 15 36t36 15q22 0 37 -14.5t15 -36.5q0 -21 -15 -36t-37 -15 q-21 0 -36 14.5t-15 36.5zM48 -108q0 21 15.5 36t36.5 15t36 -14.5t15 -36.5q0 -21 -15 -36t-36 -15q-22 0 -37 14.5t-15 36.5z" />
<glyph unicode="&#x67e;" horiz-adv-x="351" arabic-form="medial" d="M-15 0q-19 0 -39.5 10.5t-20.5 26.5q0 15 21 25.5t39 10.5h144v397h92v-397h130v-73h-366zM123 -219q0 22 15 37t37 15q21 0 36.5 -15t15.5 -37q0 -21 -15.5 -36.5t-36.5 -15.5q-22 0 -37 15t-15 37zM195 -108q0 21 15 36t36 15q22 0 37 -14.5t15 -36.5q0 -21 -15 -36 t-37 -15q-21 0 -36 14.5t-15 36.5zM52 -108q0 21 15.5 36t36.5 15t36 -14.5t15 -36.5q0 -21 -15 -36t-36 -15q-22 0 -37 14.5t-15 36.5z" />
<glyph unicode="&#x680;" horiz-adv-x="826" arabic-form="final" d="M826 0h-403q-185 0 -267 72.5t-82 218.5q0 96 32 167l99 16q-39 -76 -39 -172q0 -119 59 -174t210 -55h170v397h92v-397h129v-73zM355 -142q-20 0 -34.5 14.5t-14.5 35.5q0 20 14.5 34.5t34.5 14.5t34.5 -14.5t14.5 -34.5q0 -21 -14.5 -35.5t-34.5 -14.5zM484 -142 q-20 0 -34 14.5t-14 35.5q0 20 14.5 34.5t33.5 14.5q21 0 35.5 -14.5t14.5 -34.5q0 -21 -14.5 -35.5t-35.5 -14.5zM355 -271q-20 0 -34.5 14t-14.5 35q0 20 14.5 34.5t34.5 14.5t34.5 -14t14.5 -35q0 -20 -14.5 -34.5t-34.5 -14.5zM484 -271q-20 0 -34 14t-14 35 q0 20 14 34.5t34 14.5q21 0 35.5 -14t14.5 -35q0 -20 -14.5 -34.5t-35.5 -14.5z" />
<glyph unicode="&#x680;" arabic-form="initial" d="M221 0h-236q-19 0 -39.5 10.5t-20.5 26.5q0 15 21 25.5t39 10.5h144v397h92v-470zM110 -271q-20 0 -34.5 14t-14.5 35q0 20 14.5 34.5t34.5 14.5t34.5 -14t14.5 -35q0 -20 -14.5 -34.5t-34.5 -14.5zM110 -142q-20 0 -34.5 14.5t-14.5 35.5q0 20 14.5 34.5t34.5 14.5 t34.5 -14.5t14.5 -34.5q0 -21 -14.5 -35.5t-34.5 -14.5zM239 -271q-20 0 -34 14t-14 35q0 20 14 34.5t34 14.5q21 0 35.5 -14t14.5 -35q0 -20 -14.5 -34.5t-35.5 -14.5zM239 -142q-20 0 -34 14.5t-14 35.5q0 20 14.5 34.5t33.5 14.5q21 0 35.5 -14.5t14.5 -34.5 q0 -21 -14.5 -35.5t-35.5 -14.5z" />
<glyph unicode="&#x680;" horiz-adv-x="351" arabic-form="medial" d="M-15 0q-19 0 -39.5 10.5t-20.5 26.5q0 15 21 25.5t39 10.5h144v397h92v-397h130v-73h-366zM110 -142q-20 0 -34.5 14.5t-14.5 35.5q0 20 14.5 34.5t34.5 14.5t34.5 -14.5t14.5 -34.5q0 -21 -14.5 -35.5t-34.5 -14.5zM239 -142q-20 0 -34 14.5t-14 35.5q0 20 14.5 34.5 t33.5 14.5q21 0 35.5 -14.5t14.5 -34.5q0 -21 -14.5 -35.5t-35.5 -14.5zM110 -271q-20 0 -34.5 14t-14.5 35q0 20 14.5 34.5t34.5 14.5t34.5 -14t14.5 -35q0 -20 -14.5 -34.5t-34.5 -14.5zM239 -271q-20 0 -34 14t-14 35q0 20 14 34.5t34 14.5q21 0 35.5 -14t14.5 -35 q0 -20 -14.5 -34.5t-35.5 -14.5z" />
<glyph unicode="&#x67a;" horiz-adv-x="826" arabic-form="final" d="M423 0q-185 0 -267 72.5t-82 218.5q0 96 32 167l99 16q-39 -76 -39 -172q0 -119 59 -174t210 -55h170v397h92v-397h129v-73h-403zM412 700q-21 0 -36 15t-15 37t15 37t36 15q22 0 37 -15t15 -37q0 -21 -15 -36.5t-37 -15.5zM412 558q-22 0 -36.5 15t-14.5 37t14.5 36.5 t36.5 14.5t37 -14.5t15 -36.5t-15 -37t-37 -15z" />
<glyph unicode="&#x67a;" arabic-form="initial" d="M221 0h-236q-19 0 -39.5 10.5t-20.5 26.5q0 15 21 25.5t39 10.5h144v397h92v-470zM175 558q-22 0 -36.5 15t-14.5 37t14.5 36.5t36.5 14.5t37 -14.5t15 -36.5t-15 -37t-37 -15zM175 700q-21 0 -36 15t-15 37t15 37t36 15q22 0 37 -15t15 -37q0 -21 -15 -36.5t-37 -15.5z " />
<glyph unicode="&#x67a;" horiz-adv-x="351" arabic-form="medial" d="M351 0h-366q-19 0 -39.5 10.5t-20.5 26.5q0 15 21 25.5t39 10.5h144v397h92v-397h130v-73zM175 700q-21 0 -36 15t-15 37t15 37t36 15q22 0 37 -15t15 -37q0 -21 -15 -36.5t-37 -15.5zM175 558q-22 0 -36.5 15t-14.5 37t14.5 36.5t36.5 14.5t37 -14.5t15 -36.5t-15 -37 t-37 -15z" />
<glyph unicode="&#x67f;" horiz-adv-x="826" arabic-form="final" d="M826 0h-403q-185 0 -267 72.5t-82 218.5q0 96 32 167l99 16q-39 -76 -39 -172q0 -119 59 -174t210 -55h170v397h92v-397h129v-73zM484 559q-21 0 -36 14.5t-15 36.5q0 21 15 36t36 15t36.5 -15t15.5 -36t-15.5 -36t-36.5 -15zM484 702q-21 0 -36 14.5t-15 36.5 q0 21 15 36t36 15t36.5 -15t15.5 -36t-15.5 -36t-36.5 -15zM341 702q-21 0 -36 14.5t-15 36.5q0 21 15 36t36 15t36 -14.5t15 -36.5q0 -21 -15 -36t-36 -15zM341 559q-21 0 -36 14.5t-15 36.5q0 21 15 36t36 15t36 -14.5t15 -36.5q0 -21 -15 -36t-36 -15z" />
<glyph unicode="&#x67f;" arabic-form="initial" d="M221 0h-236q-19 0 -39.5 10.5t-20.5 26.5q0 15 21 25.5t39 10.5h144v397h92v-470zM246 559q-21 0 -36 14.5t-15 36.5q0 21 15 36t36 15t36.5 -15t15.5 -36t-15.5 -36t-36.5 -15zM103 559q-21 0 -36 14.5t-15 36.5q0 21 15 36t36 15t36 -14.5t15 -36.5q0 -21 -15 -36 t-36 -15zM246 702q-21 0 -36 14.5t-15 36.5q0 21 15 36t36 15t36.5 -15t15.5 -36t-15.5 -36t-36.5 -15zM103 702q-21 0 -36 14.5t-15 36.5q0 21 15 36t36 15t36 -14.5t15 -36.5q0 -21 -15 -36t-36 -15z" />
<glyph unicode="&#x67f;" horiz-adv-x="351" arabic-form="medial" d="M-15 0q-19 0 -39.5 10.5t-20.5 26.5q0 15 21 25.5t39 10.5h144v397h92v-397h130v-73h-366zM246 702q-21 0 -36 14.5t-15 36.5q0 21 15 36t36 15t36.5 -15t15.5 -36t-15.5 -36t-36.5 -15zM246 559q-21 0 -36 14.5t-15 36.5q0 21 15 36t36 15t36.5 -15t15.5 -36t-15.5 -36 t-36.5 -15zM103 702q-21 0 -36 14.5t-15 36.5q0 21 15 36t36 15t36 -14.5t15 -36.5q0 -21 -15 -36t-36 -15zM103 559q-21 0 -36 14.5t-15 36.5q0 21 15 36t36 15t36 -14.5t15 -36.5q0 -21 -15 -36t-36 -15z" />
<glyph unicode="&#x679;" horiz-adv-x="826" arabic-form="final" d="M826 0h-403q-185 0 -267 72.5t-82 218.5q0 96 32 167l99 16q-39 -76 -39 -172q0 -119 59 -174t210 -55h170v397h92v-397h129v-73zM355 828v-82q0 -27 -7 -62h1q19 34 52 55.5t70 21.5q45 0 69.5 -25t24.5 -69q0 -55 -37.5 -87t-110.5 -32h-120v280h58zM505 660 q0 53 -41 53q-37 0 -70.5 -38t-38.5 -80h71q79 0 79 65z" />
<glyph unicode="&#x679;" arabic-form="initial" d="M221 0h-236q-19 0 -39.5 10.5t-20.5 26.5q0 15 21 25.5t39 10.5h144v397h92v-470zM249 690q0 53 -41 53q-37 0 -70.5 -38t-38.5 -80h71q79 0 79 65zM99 858v-82q0 -27 -7 -62h1q19 34 52 55.5t70 21.5q45 0 69.5 -25t24.5 -69q0 -55 -37.5 -87t-110.5 -32h-120v280h58z " />
<glyph unicode="&#x679;" horiz-adv-x="351" arabic-form="medial" d="M351 0h-366q-19 0 -39.5 10.5t-20.5 26.5q0 15 21 25.5t39 10.5h144v397h92v-397h130v-73zM106 858v-82q0 -27 -7 -62h1q19 34 52 55.5t70 21.5q45 0 69.5 -25t24.5 -69q0 -55 -37.5 -87t-110.5 -32h-120v280h58zM256 690q0 53 -41 53q-37 0 -70.5 -38t-38.5 -80h71 q79 0 79 65z" />
<glyph unicode="&#x6a4;" horiz-adv-x="951" arabic-form="final" d="M951 73v-73h-528q-185 0 -267 72.5t-82 218.5q0 96 32 167l99 16q-39 -76 -39 -172q0 -118 58 -173.5t201 -55.5h54q-64 46 -64 164q0 105 66 174.5t176 69.5q102 0 162.5 -56.5t60.5 -176.5q0 -55 -20 -103t-57 -75q50 3 86 3h62zM787 244q0 79 -35 121.5t-103 42.5 q-59 0 -100 -42t-41 -123q0 -82 36 -126t104 -44q60 0 99.5 43.5t39.5 127.5zM526 608q0 21 15 36.5t37 15.5t37 -15t15 -37t-15 -37.5t-37 -15.5t-37 15.5t-15 37.5zM673 608q0 21 15.5 36.5t36.5 15.5q22 0 37.5 -15t15.5 -37t-15.5 -37.5t-37.5 -15.5q-21 0 -36.5 15.5 t-15.5 37.5zM600 721q0 22 15 37.5t37 15.5t37 -15.5t15 -37.5q0 -21 -15 -36.5t-37 -15.5t-37 15t-15 37z" />
<glyph unicode="&#x6a4;" horiz-adv-x="619" arabic-form="initial" d="M539 0h-554q-19 0 -39.5 10.5t-20.5 26.5q0 15 21 25.5t39 10.5h106l58 -5q-74 47 -74 169q0 103 66 173.5t184 70.5q106 0 160 -57.5t54 -166.5v-257zM449 73v169q0 166 -132 166q-69 0 -109 -45t-40 -121q0 -86 43.5 -127.5t138.5 -41.5h99zM189 608q0 21 15 36.5 t37 15.5t37 -15t15 -37t-15 -37.5t-37 -15.5t-37 15.5t-15 37.5zM336 608q0 21 15.5 36.5t36.5 15.5q22 0 37.5 -15t15.5 -37t-15.5 -37.5t-37.5 -15.5q-21 0 -36.5 15.5t-15.5 37.5zM263 721q0 22 15 37.5t37 15.5t37 -15.5t15 -37.5q0 -21 -15 -36.5t-37 -15.5t-37 15 t-15 37z" />
<glyph unicode="&#x6a4;" horiz-adv-x="608" arabic-form="medial" d="M608 0h-623q-19 0 -39.5 10.5t-20.5 26.5q0 15 21 25.5t39 10.5h82l71 -3q-66 49 -66 167q0 105 66 174.5t176 69.5q102 0 162.5 -56.5t60.5 -176.5q0 -55 -20 -103t-57 -75q50 3 87 3h61v-73zM306 73q60 0 99 43.5t39 127.5q0 79 -35 121.5t-103 42.5q-59 0 -99.5 -41.5 t-40.5 -122.5q0 -83 36 -127t104 -44zM183 608q0 21 15 36.5t37 15.5t37 -15t15 -37t-15 -37.5t-37 -15.5t-37 15.5t-15 37.5zM330 608q0 21 15.5 36.5t36.5 15.5q22 0 37.5 -15t15.5 -37t-15.5 -37.5t-37.5 -15.5q-21 0 -36.5 15.5t-15.5 37.5zM257 721q0 22 15 37.5 t37 15.5t37 -15.5t15 -37.5q0 -21 -15 -36.5t-37 -15.5t-37 15t-15 37z" />
<glyph unicode="&#x6a6;" horiz-adv-x="951" arabic-form="final" d="M951 73v-73h-528q-185 0 -267 72.5t-82 218.5q0 96 32 167l99 16q-39 -76 -39 -172q0 -118 58 -173.5t201 -55.5h54q-64 46 -64 164q0 105 66 174.5t176 69.5q102 0 162.5 -56.5t60.5 -176.5q0 -55 -20 -103t-57 -75q50 3 86 3h62zM787 244q0 79 -35 121.5t-103 42.5 q-59 0 -100 -42t-41 -123q0 -82 36 -126t104 -44q60 0 99.5 43.5t39.5 127.5zM724 559q-21 0 -36 14.5t-15 36.5q0 21 15 36t36 15t36.5 -15t15.5 -36t-15.5 -36t-36.5 -15zM581 559q-21 0 -36 14.5t-15 36.5q0 21 15 36t36 15t36 -14.5t15 -36.5q0 -21 -15 -36t-36 -15z M724 702q-21 0 -36 14.5t-15 36.5q0 21 15 36t36 15t36.5 -15t15.5 -36t-15.5 -36t-36.5 -15zM581 702q-21 0 -36 14.5t-15 36.5q0 21 15 36t36 15t36 -14.5t15 -36.5q0 -21 -15 -36t-36 -15z" />
<glyph unicode="&#x6a6;" horiz-adv-x="619" arabic-form="initial" d="M539 0h-554q-19 0 -39.5 10.5t-20.5 26.5q0 15 21 25.5t39 10.5h106l58 -5q-74 47 -74 169q0 103 66 173.5t184 70.5q106 0 160 -57.5t54 -166.5v-257zM449 73v169q0 166 -132 166q-69 0 -109 -45t-40 -121q0 -86 43.5 -127.5t138.5 -41.5h99zM385 559q-21 0 -36 14.5 t-15 36.5q0 21 15 36t36 15t36.5 -15t15.5 -36t-15.5 -36t-36.5 -15zM242 559q-21 0 -36 14.5t-15 36.5q0 21 15 36t36 15t36 -14.5t15 -36.5q0 -21 -15 -36t-36 -15zM385 702q-21 0 -36 14.5t-15 36.5q0 21 15 36t36 15t36.5 -15t15.5 -36t-15.5 -36t-36.5 -15zM242 702 q-21 0 -36 14.5t-15 36.5q0 21 15 36t36 15t36 -14.5t15 -36.5q0 -21 -15 -36t-36 -15z" />
<glyph unicode="&#x6a6;" horiz-adv-x="608" arabic-form="medial" d="M608 0h-623q-19 0 -39.5 10.5t-20.5 26.5q0 15 21 25.5t39 10.5h82l71 -3q-66 49 -66 167q0 105 66 174.5t176 69.5q102 0 162.5 -56.5t60.5 -176.5q0 -55 -20 -103t-57 -75q50 3 87 3h61v-73zM306 73q60 0 99 43.5t39 127.5q0 79 -35 121.5t-103 42.5q-59 0 -99.5 -41.5 t-40.5 -122.5q0 -83 36 -127t104 -44zM382 559q-21 0 -36 14.5t-15 36.5q0 21 15 36t36 15t36.5 -15t15.5 -36t-15.5 -36t-36.5 -15zM239 559q-21 0 -36 14.5t-15 36.5q0 21 15 36t36 15t36 -14.5t15 -36.5q0 -21 -15 -36t-36 -15zM382 702q-21 0 -36 14.5t-15 36.5 q0 21 15 36t36 15t36.5 -15t15.5 -36t-15.5 -36t-36.5 -15zM239 702q-21 0 -36 14.5t-15 36.5q0 21 15 36t36 15t36 -14.5t15 -36.5q0 -21 -15 -36t-36 -15z" />
<glyph unicode="&#x684;" horiz-adv-x="623" arabic-form="final" d="M623 0h-282q-118 0 -165 -33.5t-47 -92.5q0 -46 32.5 -76t94.5 -40l-19 -75q-93 14 -146.5 62t-53.5 122q0 95 74 150.5t235 55.5h107q7 49 7 103q0 117 -49.5 171t-169.5 54q-59 0 -111 -7v72q66 8 119 8q162 0 232.5 -72t70.5 -220q0 -37 -7 -109h78v-73zM365 -271 q-21 0 -35 14t-14 35t14 35.5t35 14.5t35 -14t14 -36q0 -20 -14.5 -34.5t-34.5 -14.5zM365 -141q-21 0 -35 14t-14 35q0 20 14 34.5t35 14.5q20 0 34.5 -14t14.5 -35t-14.5 -35t-34.5 -14z" />
<glyph unicode="&#x684;" horiz-adv-x="531" arabic-form="initial" d="M440 0h-455q-19 0 -39.5 10.5t-20.5 26.5q0 15 21 25.5t39 10.5h373q7 49 7 103q0 117 -49.5 171t-168.5 54q-58 0 -120 -10v72q61 11 127 11q162 0 232.5 -72t70.5 -220q0 -80 -17 -182zM186 -271q-21 0 -35 14t-14 35t14 35.5t35 14.5q20 0 34.5 -14t14.5 -36 q0 -20 -14.5 -34.5t-34.5 -14.5zM186 -141q-21 0 -35 14t-14 35q0 20 14 34.5t35 14.5q20 0 34.5 -14t14.5 -35t-14.5 -35t-34.5 -14z" />
<glyph unicode="&#x684;" horiz-adv-x="528" arabic-form="medial" d="M-15 0q-19 0 -39.5 10.5t-20.5 26.5q0 15 21 25.5t39 10.5h373q7 49 7 103q0 117 -49.5 171t-168.5 54q-58 0 -120 -10v72q61 11 127 11q162 0 232.5 -72t70.5 -220q0 -37 -7 -109h78v-73h-543zM186 -271q-21 0 -35 14t-14 35t14 35.5t35 14.5q20 0 34.5 -14t14.5 -36 q0 -20 -14.5 -34.5t-34.5 -14.5zM186 -141q-21 0 -35 14t-14 35q0 20 14 34.5t35 14.5q20 0 34.5 -14t14.5 -35t-14.5 -35t-34.5 -14z" />
<glyph unicode="&#x683;" horiz-adv-x="623" arabic-form="final" d="M341 0q-118 0 -165 -33.5t-47 -92.5q0 -46 32.5 -76t94.5 -40l-19 -75q-93 14 -146.5 62t-53.5 122q0 95 74 150.5t235 55.5h107q7 49 7 103q0 117 -49.5 171t-169.5 54q-59 0 -111 -7v72q66 8 119 8q162 0 232.5 -72t70.5 -220q0 -37 -7 -109h78v-73h-282zM255 -144 q0 22 15 37.5t37 15.5t37 -15.5t15 -37.5q0 -21 -15 -36.5t-37 -15.5t-37 15.5t-15 36.5zM400 -144q0 22 15 37.5t37 15.5q21 0 36.5 -15.5t15.5 -37.5q0 -21 -15 -36.5t-37 -15.5t-37 15.5t-15 36.5z" />
<glyph unicode="&#x683;" horiz-adv-x="531" arabic-form="initial" d="M440 0h-455q-19 0 -39.5 10.5t-20.5 26.5q0 15 21 25.5t39 10.5h373q7 49 7 103q0 117 -49.5 171t-168.5 54q-58 0 -120 -10v72q61 11 127 11q162 0 232.5 -72t70.5 -220q0 -80 -17 -182zM95 -144q0 22 15 37.5t37 15.5t37 -15.5t15 -37.5q0 -21 -15 -36.5t-37 -15.5 t-37 15.5t-15 36.5zM240 -144q0 22 15 37.5t37 15.5q21 0 36.5 -15.5t15.5 -37.5q0 -21 -15 -36.5t-37 -15.5t-37 15.5t-15 36.5z" />
<glyph unicode="&#x683;" horiz-adv-x="528" arabic-form="medial" d="M528 0h-543q-19 0 -39.5 10.5t-20.5 26.5q0 15 21 25.5t39 10.5h373q7 49 7 103q0 117 -49.5 171t-168.5 54q-58 0 -120 -10v72q61 11 127 11q162 0 232.5 -72t70.5 -220q0 -37 -7 -109h78v-73zM95 -144q0 22 15 37.5t37 15.5t37 -15.5t15 -37.5q0 -21 -15 -36.5 t-37 -15.5t-37 15.5t-15 36.5zM240 -144q0 22 15 37.5t37 15.5q21 0 36.5 -15.5t15.5 -37.5q0 -21 -15 -36.5t-37 -15.5t-37 15.5t-15 36.5z" />
<glyph unicode="&#x686;" horiz-adv-x="623" arabic-form="final" d="M623 0h-282q-118 0 -165 -33.5t-47 -92.5q0 -46 32.5 -76t94.5 -40l-19 -75q-93 14 -146.5 62t-53.5 122q0 95 74 150.5t235 55.5h107q7 49 7 103q0 117 -49.5 171t-169.5 54q-59 0 -111 -7v72q66 8 119 8q162 0 232.5 -72t70.5 -220q0 -37 -7 -109h78v-73zM344 -219 q0 22 15 37t37 15q21 0 36.5 -15t15.5 -37q0 -21 -15.5 -36.5t-36.5 -15.5q-22 0 -37 15t-15 37zM416 -108q0 21 15 36t36 15q22 0 37 -14.5t15 -36.5q0 -21 -15 -36t-37 -15q-21 0 -36 14.5t-15 36.5zM273 -108q0 21 15.5 36t36.5 15t36 -14.5t15 -36.5q0 -21 -15 -36 t-36 -15q-22 0 -37 14.5t-15 36.5z" />
<glyph unicode="&#x686;" horiz-adv-x="531" arabic-form="initial" d="M440 0h-455q-19 0 -39.5 10.5t-20.5 26.5q0 15 21 25.5t39 10.5h373q7 49 7 103q0 117 -49.5 171t-168.5 54q-58 0 -120 -10v72q61 11 127 11q162 0 232.5 -72t70.5 -220q0 -80 -17 -182zM157 -219q0 22 15 37t37 15q21 0 36.5 -15t15.5 -37q0 -21 -15.5 -36.5 t-36.5 -15.5q-22 0 -37 15t-15 37zM229 -108q0 21 15 36t36 15q22 0 37 -14.5t15 -36.5q0 -21 -15 -36t-37 -15q-21 0 -36 14.5t-15 36.5zM86 -108q0 21 15.5 36t36.5 15t36 -14.5t15 -36.5q0 -21 -15 -36t-36 -15q-22 0 -37 14.5t-15 36.5z" />
<glyph unicode="&#x686;" horiz-adv-x="528" arabic-form="medial" d="M-15 0q-19 0 -39.5 10.5t-20.5 26.5q0 15 21 25.5t39 10.5h373q7 49 7 103q0 117 -49.5 171t-168.5 54q-58 0 -120 -10v72q61 11 127 11q162 0 232.5 -72t70.5 -220q0 -37 -7 -109h78v-73h-543zM157 -219q0 22 15 37t37 15q21 0 36.5 -15t15.5 -37q0 -21 -15.5 -36.5 t-36.5 -15.5q-22 0 -37 15t-15 37zM229 -108q0 21 15 36t36 15q22 0 37 -14.5t15 -36.5q0 -21 -15 -36t-37 -15q-21 0 -36 14.5t-15 36.5zM86 -108q0 21 15.5 36t36.5 15t36 -14.5t15 -36.5q0 -21 -15 -36t-36 -15q-22 0 -37 14.5t-15 36.5z" />
<glyph unicode="&#x687;" horiz-adv-x="623" arabic-form="final" d="M341 0q-118 0 -165 -33.5t-47 -92.5q0 -46 32.5 -76t94.5 -40l-19 -75q-93 14 -146.5 62t-53.5 122q0 95 74 150.5t235 55.5h107q7 49 7 103q0 117 -49.5 171t-169.5 54q-59 0 -111 -7v72q66 8 119 8q162 0 232.5 -72t70.5 -220q0 -37 -7 -109h78v-73h-282zM329 -142 q-20 0 -34.5 14.5t-14.5 35.5q0 20 14.5 34.5t34.5 14.5t34.5 -14.5t14.5 -34.5q0 -21 -14.5 -35.5t-34.5 -14.5zM458 -142q-20 0 -34 14.5t-14 35.5q0 20 14.5 34.5t33.5 14.5q21 0 35.5 -14.5t14.5 -34.5q0 -21 -14.5 -35.5t-35.5 -14.5zM329 -271q-20 0 -34.5 14 t-14.5 35q0 20 14.5 34.5t34.5 14.5t34.5 -14t14.5 -35q0 -20 -14.5 -34.5t-34.5 -14.5zM458 -271q-20 0 -34 14t-14 35q0 20 14 34.5t34 14.5q21 0 35.5 -14t14.5 -35q0 -20 -14.5 -34.5t-35.5 -14.5z" />
<glyph unicode="&#x687;" horiz-adv-x="531" arabic-form="initial" d="M440 0h-455q-19 0 -39.5 10.5t-20.5 26.5q0 15 21 25.5t39 10.5h373q7 49 7 103q0 117 -49.5 171t-168.5 54q-58 0 -120 -10v72q61 11 127 11q162 0 232.5 -72t70.5 -220q0 -80 -17 -182zM158 -271q-20 0 -34.5 14t-14.5 35q0 20 14.5 34.5t34.5 14.5t34.5 -14t14.5 -35 q0 -20 -14.5 -34.5t-34.5 -14.5zM158 -142q-20 0 -34.5 14.5t-14.5 35.5q0 20 14.5 34.5t34.5 14.5t34.5 -14.5t14.5 -34.5q0 -21 -14.5 -35.5t-34.5 -14.5zM287 -271q-20 0 -34 14t-14 35q0 20 14 34.5t34 14.5q21 0 35.5 -14t14.5 -35q0 -20 -14.5 -34.5t-35.5 -14.5z M287 -142q-20 0 -34 14.5t-14 35.5q0 20 14.5 34.5t33.5 14.5q21 0 35.5 -14.5t14.5 -34.5q0 -21 -14.5 -35.5t-35.5 -14.5z" />
<glyph unicode="&#x687;" horiz-adv-x="528" arabic-form="medial" d="M528 0h-543q-19 0 -39.5 10.5t-20.5 26.5q0 15 21 25.5t39 10.5h373q7 49 7 103q0 117 -49.5 171t-168.5 54q-58 0 -120 -10v72q61 11 127 11q162 0 232.5 -72t70.5 -220q0 -37 -7 -109h78v-73zM158 -142q-20 0 -34.5 14.5t-14.5 35.5q0 20 14.5 34.5t34.5 14.5 t34.5 -14.5t14.5 -34.5q0 -21 -14.5 -35.5t-34.5 -14.5zM287 -142q-20 0 -34 14.5t-14 35.5q0 20 14.5 34.5t33.5 14.5q21 0 35.5 -14.5t14.5 -34.5q0 -21 -14.5 -35.5t-35.5 -14.5zM158 -271q-20 0 -34.5 14t-14.5 35q0 20 14.5 34.5t34.5 14.5t34.5 -14t14.5 -35 q0 -20 -14.5 -34.5t-34.5 -14.5zM287 -271q-20 0 -34 14t-14 35q0 20 14 34.5t34 14.5q21 0 35.5 -14t14.5 -35q0 -20 -14.5 -34.5t-35.5 -14.5z" />
<glyph unicode="&#x68d;" horiz-adv-x="536" arabic-form="final" d="M57 0v73h320q-2 139 -61 219t-191 120l24 77q161 -49 238 -146t81 -270h68v-73h-479zM133 -144q0 22 15 37.5t37 15.5t37 -15.5t15 -37.5q0 -21 -15 -36.5t-37 -15.5t-37 15.5t-15 36.5zM278 -144q0 22 15 37.5t37 15.5q21 0 36.5 -15.5t15.5 -37.5q0 -21 -15 -36.5 t-37 -15.5t-37 15.5t-15 36.5z" />
<glyph unicode="&#x68c;" horiz-adv-x="536" arabic-form="final" d="M57 0v73h320q-2 139 -61 219t-191 120l24 77q161 -49 238 -146t81 -270h68v-73h-479zM37 610q0 22 15 37t37 15t37 -15t15 -37t-15 -37t-37 -15t-37 15t-15 37zM182 610q0 22 15 37t37 15q21 0 36.5 -15t15.5 -37q0 -21 -15 -36.5t-37 -15.5t-37 15t-15 37z" />
<glyph unicode="&#x68e;" horiz-adv-x="536" arabic-form="final" d="M57 0v73h320q-2 139 -61 219t-191 120l24 77q161 -49 238 -146t81 -270h68v-73h-479zM224 608q0 21 15.5 36.5t36.5 15.5q22 0 37.5 -15t15.5 -37t-15.5 -37.5t-37.5 -15.5q-21 0 -36.5 15.5t-15.5 37.5zM151 721q0 22 15 37.5t37 15.5t37 -15.5t15 -37.5 q0 -21 -15 -36.5t-37 -15.5t-37 15t-15 37zM77 608q0 21 15 36.5t37 15.5t37 -15t15 -37t-15 -37.5t-37 -15.5t-37 15.5t-15 37.5z" />
<glyph unicode="&#x688;" horiz-adv-x="536" arabic-form="final" d="M57 0v73h320q-2 139 -61 219t-191 120l24 77q161 -49 238 -146t81 -270h68v-73h-479zM177 858v-82q0 -27 -7 -62h1q19 34 52 55.5t70 21.5q45 0 69.5 -25t24.5 -69q0 -55 -37.5 -87t-110.5 -32h-120v280h58zM327 690q0 53 -41 53q-37 0 -70.5 -38t-38.5 -80h71 q79 0 79 65z" />
<glyph unicode="&#x698;" horiz-adv-x="451" arabic-form="final" d="M90 -257q-56 0 -104 15l10 75q53 -17 101 -17q66 0 99.5 38.5t33.5 132.5v483h92v-397h129v-73h-129v-5q0 -252 -232 -252zM294 608q0 21 15.5 36.5t36.5 15.5q22 0 37.5 -15t15.5 -37t-15.5 -37.5t-37.5 -15.5q-21 0 -36.5 15.5t-15.5 37.5zM221 721q0 22 15 37.5 t37 15.5t37 -15.5t15 -37.5q0 -21 -15 -36.5t-37 -15.5t-37 15t-15 37zM147 608q0 21 15 36.5t37 15.5t37 -15t15 -37t-15 -37.5t-37 -15.5t-37 15.5t-15 37.5z" />
<glyph unicode="&#x691;" horiz-adv-x="451" arabic-form="final" d="M90 -257q-56 0 -104 15l10 75q53 -17 101 -17q66 0 99.5 38.5t33.5 132.5v483h92v-397h129v-73h-129v-5q0 -252 -232 -252zM199 858v-82q0 -27 -7 -62h1q19 34 52 55.5t70 21.5q45 0 69.5 -25t24.5 -69q0 -55 -37.5 -87t-110.5 -32h-120v280h58zM349 690q0 53 -41 53 q-37 0 -70.5 -38t-38.5 -80h71q79 0 79 65z" />
<glyph unicode="&#x6a9;" horiz-adv-x="856" arabic-form="final" d="M423 0q-185 0 -267 72.5t-82 218.5q0 96 32 167l99 16q-39 -76 -39 -172q0 -119 59 -174t210 -55h255q-2 144 -65 224t-197 118v68l379 238v-93l-272 -166q119 -50 180.5 -140.5t65.5 -248.5h74v-73h-432z" />
<glyph unicode="&#x6a9;" horiz-adv-x="459" arabic-form="initial" d="M375 0h-390q-19 0 -39.5 10.5t-20.5 26.5q0 15 21 25.5t39 10.5h299q-2 144 -65 224t-197 118v68l379 238v-93l-272 -166q123 -51 184.5 -146.5t61.5 -264.5v-51z" />
<glyph unicode="&#x6a9;" horiz-adv-x="449" arabic-form="medial" d="M449 0h-464q-19 0 -39.5 10.5t-20.5 26.5q0 15 21 25.5t39 10.5h299q-2 144 -65 224t-197 118v68l379 238v-93l-272 -166q119 -50 180.5 -140.5t65.5 -248.5h74v-73z" />
<glyph unicode="&#x6af;" horiz-adv-x="856" arabic-form="final" d="M423 0q-185 0 -267 72.5t-82 218.5q0 96 32 167l99 16q-39 -76 -39 -172q0 -119 59 -174t210 -55h255q-2 144 -65 224t-197 118v64l379 238v-89l-272 -166q119 -50 180.5 -140.5t65.5 -248.5h74v-73h-432zM428 566v83l379 239v-84z" />
<glyph unicode="&#x6af;" horiz-adv-x="459" arabic-form="initial" d="M375 0h-390q-19 0 -39.5 10.5t-20.5 26.5q0 15 21 25.5t39 10.5h299q-2 144 -65 224t-197 118v64l379 238v-89l-272 -166q123 -51 184.5 -146.5t61.5 -264.5v-51zM22 541v83l379 238v-84z" />
<glyph unicode="&#x6af;" horiz-adv-x="449" arabic-form="medial" d="M449 0h-464q-19 0 -39.5 10.5t-20.5 26.5q0 15 21 25.5t39 10.5h299q-2 144 -65 224t-197 118v64l379 238v-89l-272 -166q119 -50 180.5 -140.5t65.5 -248.5h74v-73zM22 541v83l379 238v-84z" />
<glyph unicode="&#x6b3;" horiz-adv-x="856" arabic-form="final" d="M423 0q-185 0 -267 72.5t-82 218.5q0 96 32 167l99 16q-39 -76 -39 -172q0 -119 59 -174t210 -55h255q-2 144 -65 224t-197 118v64l379 238v-89l-272 -166q119 -50 180.5 -140.5t65.5 -248.5h74v-73h-432zM428 566v83l379 239v-84zM447 -271q-21 0 -35 14t-14 35t14 35.5 t35 14.5t35 -14t14 -36q0 -20 -14.5 -34.5t-34.5 -14.5zM447 -141q-21 0 -35 14t-14 35q0 20 14 34.5t35 14.5q20 0 34.5 -14t14.5 -35t-14.5 -35t-34.5 -14z" />
<glyph unicode="&#x6b3;" horiz-adv-x="459" arabic-form="initial" d="M375 0h-390q-19 0 -39.5 10.5t-20.5 26.5q0 15 21 25.5t39 10.5h299q-2 144 -65 224t-197 118v64l379 238v-89l-272 -166q123 -51 184.5 -146.5t61.5 -264.5v-51zM22 541v83l379 238v-84zM177 -271q-21 0 -35 14t-14 35t14 35.5t35 14.5t35 -14t14 -36q0 -20 -14.5 -34.5 t-34.5 -14.5zM177 -141q-21 0 -35 14t-14 35q0 20 14 34.5t35 14.5q20 0 34.5 -14t14.5 -35t-14.5 -35t-34.5 -14z" />
<glyph unicode="&#x6b3;" horiz-adv-x="449" arabic-form="medial" d="M449 0h-464q-19 0 -39.5 10.5t-20.5 26.5q0 15 21 25.5t39 10.5h299q-2 144 -65 224t-197 118v64l379 238v-89l-272 -166q119 -50 180.5 -140.5t65.5 -248.5h74v-73zM22 541v83l379 238v-84zM177 -271q-21 0 -35 14t-14 35t14 35.5t35 14.5t35 -14t14 -36 q0 -20 -14.5 -34.5t-34.5 -14.5zM177 -141q-21 0 -35 14t-14 35q0 20 14 34.5t35 14.5q20 0 34.5 -14t14.5 -35t-14.5 -35t-34.5 -14z" />
<glyph unicode="&#x6b1;" horiz-adv-x="856" arabic-form="final" d="M855 0h-432q-185 0 -267 72.5t-82 218.5q0 96 32 167l99 16q-39 -76 -39 -172q0 -119 59 -174t210 -55h255q-2 144 -65 224t-197 118v64l379 238v-89l-272 -166q119 -50 180.5 -140.5t65.5 -248.5h74v-73zM428 566v83l379 239v-84zM597 836q-21 0 -35.5 14t-14.5 35 q0 20 14.5 34.5t35.5 14.5q20 0 34.5 -14t14.5 -35t-14.5 -35t-34.5 -14zM474 776q-20 0 -34.5 14t-14.5 35q0 20 14.5 34.5t34.5 14.5q21 0 35.5 -14t14.5 -35t-14.5 -35t-35.5 -14z" />
<glyph unicode="&#x6b1;" horiz-adv-x="459" arabic-form="initial" d="M375 0h-390q-19 0 -39.5 10.5t-20.5 26.5q0 15 21 25.5t39 10.5h299q-2 144 -65 224t-197 118v64l379 227v-89l-274 -161q123 -48 185.5 -142.5t62.5 -262.5v-51zM22 542v83l379 227v-84zM197 792q-21 0 -35 14t-14 36q0 20 14.5 34.5t34.5 14.5q21 0 35.5 -14t14.5 -35 t-15 -35.5t-35 -14.5zM75 732q-21 0 -35 14t-14 36q0 20 14.5 34.5t34.5 14.5q21 0 35.5 -14t14.5 -35t-14.5 -35.5t-35.5 -14.5z" />
<glyph unicode="&#x6b1;" horiz-adv-x="449" arabic-form="medial" d="M449 0h-464q-19 0 -39.5 10.5t-20.5 26.5q0 15 21 25.5t39 10.5h299q-2 144 -65 224t-197 118v64l379 227v-89l-274 -161q118 -46 181 -135.5t67 -247.5h74v-73zM22 542v83l379 227v-84zM75 732q-21 0 -35 14t-14 36q0 20 14.5 34.5t34.5 14.5q21 0 35.5 -14t14.5 -35 t-14.5 -35.5t-35.5 -14.5zM197 792q-21 0 -35 14t-14 36q0 20 14.5 34.5t34.5 14.5q21 0 35.5 -14t14.5 -35t-15 -35.5t-35 -14.5z" />
<glyph unicode="&#x6ba;" horiz-adv-x="709" arabic-form="final" d="M579 470v-397h129v-73h-132q-22 -231 -261 -231q-112 0 -180 67t-68 212q0 102 24 190l95 18q-27 -99 -27 -199q0 -117 47.5 -166t117.5 -49q163 0 163 203v425h92z" />
<glyph unicode="&#x6bb;" horiz-adv-x="709" arabic-form="final" d="M579 470v-397h129v-73h-132q-22 -231 -261 -231q-112 0 -180 67t-68 212q0 102 24 190l95 18q-27 -99 -27 -199q0 -117 47.5 -166t117.5 -49q163 0 163 203v425h92zM212 643v-82q0 -27 -7 -62h1q19 34 52 55.5t70 21.5q45 0 69.5 -25t24.5 -69q0 -55 -37.5 -87 t-110.5 -32h-120v280h58zM362 475q0 53 -41 53q-37 0 -70.5 -38t-38.5 -80h71q79 0 79 65z" />
<glyph unicode="&#x6bb;" arabic-form="initial" d="M221 0h-236q-19 0 -39.5 10.5t-20.5 26.5q0 15 21 25.5t39 10.5h144v397h92v-470zM252 690q0 53 -41 53q-37 0 -70.5 -38t-38.5 -80h71q79 0 79 65zM102 858v-82q0 -27 -7 -62h1q19 34 52 55.5t70 21.5q45 0 69.5 -25t24.5 -69q0 -55 -37.5 -87t-110.5 -32h-120v280h58z " />
<glyph unicode="&#x6bb;" horiz-adv-x="351" arabic-form="medial" d="M-15 0q-19 0 -39.5 10.5t-20.5 26.5q0 15 21 25.5t39 10.5h144v397h92v-397h130v-73h-366zM109 858v-82q0 -27 -7 -62h1q19 34 52 55.5t70 21.5q45 0 69.5 -25t24.5 -69q0 -55 -37.5 -87t-110.5 -32h-120v280h58zM259 690q0 53 -41 53q-37 0 -70.5 -38t-38.5 -80h71 q79 0 79 65z" />
<glyph unicode="&#x6c0;" horiz-adv-x="648" arabic-form="final" d="M648 0h-320q-262 0 -262 234q0 105 65 176t187 71q49 0 99 -8.5t76 -17.5l26 -9v-373h129v-73zM429 73v312q-49 23 -121 23q-69 0 -109 -45t-40 -120q0 -87 43.5 -128.5t138.5 -41.5h88zM174 564v55q37 0 71 -6q-31 14 -31 50q0 39 32.5 67.5t96.5 28.5q24 0 54 -5 l-10 -54q-45 5 -50 5q-56 0 -56 -41q0 -45 79 -45h56v-55h-242z" />
<glyph unicode="&#x6c1;" horiz-adv-x="610" arabic-form="isolated" d="M530 0h-202q-262 0 -262 233q0 106 65.5 177t184.5 71q106 0 160 -57.5t54 -166.5v-257zM440 73v169q0 166 -132 166q-69 0 -109 -45t-40 -121q0 -86 43.5 -127.5t138.5 -41.5h99z" />
<glyph unicode="&#x6c1;" horiz-adv-x="514" arabic-form="final" d="M514 73v-73h-15q-203 0 -203 216v48q-133 -23 -219 -160l-61 49q131 193 339 193l31 -1v-110q0 -86 30 -124t95 -38h3z" />
<glyph unicode="&#x6c1;" arabic-form="initial" d="M221 0h-236q-19 0 -39.5 10.5t-20.5 26.5q0 15 21 25.5t39 10.5h144v397h92v-470zM99 -240q-23 0 -37 16.5t-14 40.5q0 76 109 134l23 -33q-46 -35 -46 -68q0 -11 6 -23t6 -21q0 -19 -12.5 -32.5t-34.5 -13.5z" />
<glyph unicode="&#x6c1;" horiz-adv-x="656" arabic-form="medial" d="M656 73v-73h-108v-261h-88q-142 0 -217 69t-75 197q0 51 7 90l-2 1q-18 -44 -57 -70t-97 -26h-34q-19 0 -39.5 10.5t-20.5 26.5q0 15 21 25.5t39 10.5h35q147 0 147 211v86h89v-347q0 -211 202 -211v261h198zM39 -262q-24 0 -38.5 17t-14.5 43q0 71 90 143l31 -29 q-40 -39 -40 -71q0 -13 9.5 -28t9.5 -29q0 -19 -13 -32.5t-34 -13.5z" />
<glyph unicode="&#x6be;" horiz-adv-x="794" arabic-form="final" d="M793 0h-763v73h115q6 0 12 -0.5t10.5 -0.5t8 -0.5t6.5 -1.5h2q-3 2 -11 10t-17.5 31t-9.5 50q0 76 50.5 121t134.5 45q89 0 132.5 -58.5t43.5 -156.5v-39h126v20q0 184 -72 265t-228 81q-97 0 -212 -36l-10 72q117 36 235 36q186 0 281 -99.5t95 -318.5v-20h71v-73z M427 71v39q0 150 -103 150q-46 0 -72 -24t-26 -66q0 -50 32 -74.5t81 -24.5h88z" />
<glyph unicode="&#x6be;" horiz-adv-x="764" arabic-form="initial" d="M686 0h-701q-19 0 -39.5 10.5t-20.5 26.5q0 15 21 25.5t39 10.5h124q6 0 12 -0.5t11 -0.5t8.5 -0.5t5.5 -1.5h3q-3 2 -11 10t-18 31t-10 50q0 76 50.5 121t134.5 45q90 0 133.5 -58.5t43.5 -156.5v-39h125v20q0 184 -71.5 265t-227.5 81q-98 0 -213 -36l-10 72 q118 36 235 36q186 0 281 -99.5t95 -318.5v-93zM392 71v39q0 150 -104 150q-46 0 -71.5 -24t-25.5 -66q0 -50 31.5 -74.5t80.5 -24.5h89z" />
<glyph unicode="&#x6be;" horiz-adv-x="758" arabic-form="medial" d="M758 0h-773q-19 0 -39.5 10.5t-20.5 26.5q0 15 21 25.5t39 10.5h124q6 0 12 -0.5t11 -0.5t8.5 -0.5t5.5 -1.5h3q-3 2 -11 10t-18 31t-10 50q0 76 50.5 121t134.5 45q90 0 133.5 -58.5t43.5 -156.5v-39h125v20q0 184 -71.5 265t-227.5 81q-98 0 -213 -36l-10 72 q118 36 235 36q186 0 281 -99.5t95 -318.5v-20h72v-73zM392 71v39q0 150 -104 150q-46 0 -71.5 -24t-25.5 -66q0 -50 31.5 -74.5t80.5 -24.5h89z" />
<glyph unicode="&#x6d2;" horiz-adv-x="735" arabic-form="final" d="M642 -320h-614q-6 78 15 148.5t66.5 125t120.5 87t170 32.5h335v-73h-347q-128 0 -199 -77.5t-71 -169.5h524v-73z" />
<glyph unicode="&#x6d3;" horiz-adv-x="736" arabic-form="final" d="M643 -320h-614q-6 78 15 148.5t66.5 125t120.5 87t170 32.5h335v-73h-347q-128 0 -199 -77.5t-71 -169.5h524v-73zM78 143v55q37 0 71 -6q-31 14 -31 50q0 39 32.5 67.5t96.5 28.5q24 0 54 -5l-10 -54q-45 5 -50 5q-56 0 -56 -41q0 -45 79 -45h56v-55h-242z" />
<glyph unicode="&#x6ad;" horiz-adv-x="919" arabic-form="final" d="M423 0q-185 0 -267 72.5t-82 218.5q0 96 32 167l99 16q-39 -76 -39 -172q0 -119 59 -174t210 -55h263v632h92v-632h129v-73h-496zM316 325v55q37 0 71 -6q-31 14 -31 50q0 39 32.5 67.5t96.5 28.5q24 0 54 -5l-10 -54q-45 5 -50 5q-56 0 -56 -41q0 -45 79 -45h56v-55 h-242zM473 625q0 21 15.5 36.5t36.5 15.5q22 0 37.5 -15t15.5 -37t-15.5 -37.5t-37.5 -15.5q-21 0 -36.5 15.5t-15.5 37.5zM400 738q0 22 15 37.5t37 15.5t37 -15.5t15 -37.5q0 -21 -15 -36.5t-37 -15.5t-37 15t-15 37zM326 625q0 21 15 36.5t37 15.5t37 -15t15 -37 t-15 -37.5t-37 -15.5t-37 15.5t-15 37.5z" />
<glyph unicode="&#x6ad;" horiz-adv-x="459" arabic-form="initial" d="M375 0h-390q-19 0 -39.5 10.5t-20.5 26.5q0 15 21 25.5t39 10.5h299q-2 145 -65.5 226t-196.5 119v68l379 222v-91l-272 -158q124 -52 185 -145.5t61 -262.5v-51zM179 677q0 -21 -15 -35.5t-36 -14.5t-36 14.5t-15 35.5q0 22 15 36.5t36 14.5t36 -14.5t15 -36.5zM304 736 q0 -21 -14.5 -35.5t-36.5 -14.5q-21 0 -36 14.5t-15 35.5q0 22 15 36.5t36 14.5q22 0 36.5 -14.5t14.5 -36.5zM195 808q0 -21 -14.5 -36t-35.5 -15t-36 14.5t-15 36.5q0 21 15 36t36 15t35.5 -14.5t14.5 -36.5z" />
<glyph unicode="&#x6ad;" horiz-adv-x="449" arabic-form="medial" d="M449 0h-464q-19 0 -39.5 10.5t-20.5 26.5q0 15 21 25.5t39 10.5h299q-2 145 -65.5 226t-196.5 119v68l379 222v-91l-272 -158q120 -50 181 -139t65 -247h74v-73zM304 736q0 -21 -14.5 -35.5t-36.5 -14.5q-21 0 -36 14.5t-15 35.5q0 22 15 36.5t36 14.5q22 0 36.5 -14.5 t14.5 -36.5zM195 808q0 -21 -14.5 -36t-35.5 -15t-36 14.5t-15 36.5q0 21 15 36t36 15t35.5 -14.5t14.5 -36.5zM179 677q0 -21 -15 -35.5t-36 -14.5t-36 14.5t-15 35.5q0 22 15 36.5t36 14.5t36 -14.5t15 -36.5z" />
<glyph unicode="&#x6c7;" horiz-adv-x="648" arabic-form="final" d="M228 -253q-34 0 -73 3.5t-61 7.5l-22 4l6 78q84 -20 160 -20q191 0 191 156v24h-101q-262 0 -262 234q0 105 65 176t187 71q49 0 99 -8.5t76 -17.5l26 -9v-373h129v-73h-129v-19q0 -46 -16 -86.5t-48.5 -74.5t-91 -53.5t-135.5 -19.5zM429 73v312q-49 23 -121 23 q-69 0 -109 -45t-40 -120q0 -87 43.5 -128.5t138.5 -41.5h88zM177 585v41l75 9q-6 14 -6 32q0 35 25.5 57t62.5 22q34 0 55.5 -18.5t21.5 -49.5q0 -63 -95 -75zM297 641l18 2q27 3 38.5 11t11.5 24q0 13 -9 21t-24 8q-18 0 -29 -11.5t-11 -29.5z" />
<glyph unicode="&#x6c6;" horiz-adv-x="648" arabic-form="final" d="M228 -253q-34 0 -73 3.5t-61 7.5l-22 4l6 78q84 -20 160 -20q191 0 191 156v24h-101q-262 0 -262 234q0 105 65 176t187 71q49 0 99 -8.5t76 -17.5l26 -9v-373h129v-73h-129v-19q0 -46 -16 -86.5t-48.5 -74.5t-91 -53.5t-135.5 -19.5zM429 73v312q-49 23 -121 23 q-69 0 -109 -45t-40 -120q0 -87 43.5 -128.5t138.5 -41.5h88zM455 702l-139 -131l-139 129l40 44l100 -85l99 85z" />
<glyph unicode="&#x6c8;" horiz-adv-x="648" arabic-form="final" d="M228 -253q-34 0 -73 3.5t-61 7.5l-22 4l6 78q84 -20 160 -20q191 0 191 156v24h-101q-262 0 -262 234q0 105 65 176t187 71q49 0 99 -8.5t76 -17.5l26 -9v-373h129v-73h-129v-19q0 -46 -16 -86.5t-48.5 -74.5t-91 -53.5t-135.5 -19.5zM429 73v312q-49 23 -121 23 q-69 0 -109 -45t-40 -120q0 -87 43.5 -128.5t138.5 -41.5h88zM332 610l-64 -12v229h64v-217z" />
<glyph unicode="&#x677;" horiz-adv-x="617" arabic-form="isolated" d="M52 532v53l53 11q-9 20 -9 44q0 44 31.5 72.5t78.5 28.5q41 0 65.5 -23t24.5 -59q0 -42 -27.5 -64t-79.5 -34zM161 608l20 3q32 7 45.5 17t13.5 27q0 16 -10 25.5t-28 9.5q-23 0 -36.5 -13.5t-13.5 -35.5q0 -10 2 -18t4 -11zM346 570v50q42 0 69 -5q-29 14 -29 50 q0 37 30.5 63.5t91.5 26.5q19 0 49 -5l-8 -49q-36 4 -46 4q-55 0 -55 -41q0 -44 77 -44h50v-50h-229zM228 -253q-34 0 -73 3.5t-61 7.5l-22 4l6 78q84 -20 160 -20q191 0 191 156v24h-101q-262 0 -262 234q0 105 65 176t187 71q49 0 99 -8.5t76 -17.5l26 -9v-465 q0 -46 -16 -86.5t-48.5 -74.5t-91 -53.5t-135.5 -19.5zM429 73v312q-49 23 -121 23q-69 0 -109 -45t-40 -120q0 -87 43.5 -128.5t138.5 -41.5h88z" />
<glyph unicode="&#x6cb;" horiz-adv-x="648" arabic-form="final" d="M228 -253q-34 0 -73 3.5t-61 7.5l-22 4l6 78q84 -20 160 -20q191 0 191 156v24h-101q-262 0 -262 234q0 105 65 176t187 71q49 0 99 -8.5t76 -17.5l26 -9v-373h129v-73h-129v-19q0 -46 -16 -86.5t-48.5 -74.5t-91 -53.5t-135.5 -19.5zM429 73v312q-49 23 -121 23 q-69 0 -109 -45t-40 -120q0 -87 43.5 -128.5t138.5 -41.5h88zM335 608q0 21 15.5 36.5t36.5 15.5q22 0 37.5 -15t15.5 -37t-15.5 -37.5t-37.5 -15.5q-21 0 -36.5 15.5t-15.5 37.5zM262 721q0 22 15 37.5t37 15.5t37 -15.5t15 -37.5q0 -21 -15 -36.5t-37 -15.5t-37 15t-15 37 zM188 608q0 21 15 36.5t37 15.5t37 -15t15 -37t-15 -37.5t-37 -15.5t-37 15.5t-15 37.5z" />
<glyph unicode="&#x6c5;" horiz-adv-x="617" arabic-form="isolated" d="M170 -109v62q166 0 234 -75q25 41 25 100v24l-101 1q-139 1 -200.5 60t-61.5 171q0 105 65 176t187 71q49 0 99 -8.5t76 -17.5l26 -9v-465q0 -113 -70 -183.5t-221 -70.5q-34 0 -74 3.5t-62 7.5l-23 4l6 78q87 -20 163 -20q71 0 119 30q-31 35 -73.5 48t-113.5 13z M429 75v310q-49 23 -121 23q-69 0 -109 -45t-40 -120q0 -86 43 -126t139 -41z" />
<glyph unicode="&#x6c5;" horiz-adv-x="648" arabic-form="final" d="M170 -109v62q166 0 234 -75q25 41 25 100v24l-101 1q-139 1 -200.5 60t-61.5 171q0 105 65 176t187 71q49 0 99 -8.5t76 -17.5l26 -9v-373h129v-73h-129v-19q0 -113 -70 -183.5t-221 -70.5q-34 0 -74 3.5t-62 7.5l-23 4l6 78q87 -20 163 -20q71 0 119 30q-31 35 -73.5 48 t-113.5 13zM429 75v310q-49 23 -121 23q-69 0 -109 -45t-40 -120q0 -86 43 -126t139 -41z" />
<glyph unicode="&#x6c9;" horiz-adv-x="648" arabic-form="final" d="M228 -253q-34 0 -73 3.5t-61 7.5l-22 4l6 78q84 -20 160 -20q191 0 191 156v24h-101q-262 0 -262 234q0 105 65 176t187 71q49 0 99 -8.5t76 -17.5l26 -9v-373h129v-73h-129v-19q0 -46 -16 -86.5t-48.5 -74.5t-91 -53.5t-135.5 -19.5zM429 73v312q-49 23 -121 23 q-69 0 -109 -45t-40 -120q0 -87 43.5 -128.5t138.5 -41.5h88zM450 614l-40 -43l-99 84l-100 -84l-38 41l139 132z" />
<glyph unicode="&#x6d0;" horiz-adv-x="1027" arabic-form="final" d="M610 0h-187q-185 0 -267 72.5t-82 218.5q0 96 32 167l99 16q-39 -76 -39 -172q0 -119 59 -174t210 -55h86v389q87 19 182 19q120 0 171.5 -55t51.5 -163v-190h101v-73h-191v251q0 84 -33 120.5t-109 36.5q-18 0 -39 -2t-33 -4l-12 -2v-400zM386 -271q-21 0 -35 14t-14 35 t14 35.5t35 14.5q20 0 34.5 -14t14.5 -36q0 -20 -14.5 -34.5t-34.5 -14.5zM386 -141q-21 0 -35 14t-14 35q0 20 14 34.5t35 14.5q20 0 34.5 -14t14.5 -35t-14.5 -35t-34.5 -14z" />
<glyph unicode="&#x6d0;" arabic-form="initial" d="M221 0h-236q-19 0 -39.5 10.5t-20.5 26.5q0 15 21 25.5t39 10.5h144v397h92v-470zM157 -271q-21 0 -35 14t-14 35t14 35.5t35 14.5t35 -14t14 -36q0 -20 -14.5 -34.5t-34.5 -14.5zM157 -141q-21 0 -35 14t-14 35q0 20 14 34.5t35 14.5q20 0 34.5 -14t14.5 -35t-14.5 -35 t-34.5 -14z" />
<glyph unicode="&#x6d0;" horiz-adv-x="351" arabic-form="medial" d="M351 0h-366q-19 0 -39.5 10.5t-20.5 26.5q0 15 21 25.5t39 10.5h144v397h92v-397h130v-73zM175 -271q-21 0 -35 14t-14 35t14 35.5t35 14.5t35 -14t14 -36q0 -20 -14.5 -34.5t-34.5 -14.5zM175 -141q-21 0 -35 14t-14 35q0 20 14 34.5t35 14.5q20 0 34.5 -14t14.5 -35 t-14.5 -35t-34.5 -14z" />
<glyph unicode="&#x649;" arabic-form="initial" d="M221 0h-236q-19 0 -39.5 10.5t-20.5 26.5q0 15 21 25.5t39 10.5h144v397h92v-470z" />
<glyph unicode="&#x649;" horiz-adv-x="351" arabic-form="medial" d="M351 0h-366q-19 0 -39.5 10.5t-20.5 26.5q0 15 21 25.5t39 10.5h144v397h92v-397h130v-73z" />
<glyph unicode="&#xfbea;" horiz-adv-x="601" arabic-form="isolated" d="M98 0v705h92v-632h221v397h92v-470h-405zM323 523v55q37 0 71 -6q-31 14 -31 50q0 39 32.5 67.5t96.5 28.5q24 0 54 -5l-10 -54q-45 5 -50 5q-56 0 -56 -41q0 -45 79 -45h56v-55h-242z" />
<glyph unicode="&#xfbeb;" horiz-adv-x="633" arabic-form="final" d="M98 0v705h92v-632h221v397h92v-397h130v-73h-535zM323 523v55q37 0 71 -6q-31 14 -31 50q0 39 32.5 67.5t96.5 28.5q24 0 54 -5l-10 -54q-45 5 -50 5q-56 0 -56 -41q0 -45 79 -45h56v-55h-242z" />
<glyph unicode="&#xfbf2;" horiz-adv-x="926" arabic-form="isolated" d="M228 -253q-34 0 -73 3.5t-61 7.5l-22 4l6 78q84 -20 160 -20q191 0 191 156v24h-101q-262 0 -262 234q0 105 65 176t187 71q49 0 99 -8.5t76 -17.5l26 -9v-373h216v397h92v-470h-236h-5h-67v-19q0 -46 -16 -86.5t-48.5 -74.5t-91 -53.5t-135.5 -19.5zM429 73v312 q-49 23 -121 23q-69 0 -109 -45t-40 -120q0 -87 43.5 -128.5t138.5 -41.5h88zM648 523v55q37 0 71 -6q-31 14 -31 50q0 39 32.5 67.5t96.5 28.5q24 0 54 -5l-10 -54q-45 5 -50 5q-56 0 -56 -41q0 -45 79 -45h56v-55h-242zM455 702l-139 -131l-139 129l40 44l100 -85l99 85z " />
<glyph unicode="&#xfbf3;" horiz-adv-x="957" arabic-form="final" d="M228 -253q-34 0 -73 3.5t-61 7.5l-22 4l6 78q84 -20 160 -20q191 0 191 156v24h-101q-262 0 -262 234q0 105 65 176t187 71q49 0 99 -8.5t76 -17.5l26 -9v-373h216v397h92v-397h130v-73h-438v-19q0 -46 -16 -86.5t-48.5 -74.5t-91 -53.5t-135.5 -19.5zM429 73v312 q-49 23 -121 23q-69 0 -109 -45t-40 -120q0 -87 43.5 -128.5t138.5 -41.5h88zM648 523v55q37 0 71 -6q-31 14 -31 50q0 39 32.5 67.5t96.5 28.5q24 0 54 -5l-10 -54q-45 5 -50 5q-56 0 -56 -41q0 -45 79 -45h56v-55h-242zM455 702l-139 -131l-139 129l40 44l100 -85l99 85z " />
<glyph unicode="&#x6cc;" horiz-adv-x="1027" arabic-form="final" d="M610 0h-187q-185 0 -267 72.5t-82 218.5q0 96 32 167l99 16q-39 -76 -39 -172q0 -119 59 -174t210 -55h86v389q87 19 182 19q120 0 171.5 -55t51.5 -163v-190h101v-73h-191v251q0 84 -33 120.5t-109 36.5q-18 0 -39 -2t-33 -4l-12 -2v-400z" />
<glyph unicode="&#x6cc;" arabic-form="initial" d="M221 0h-236q-19 0 -39.5 10.5t-20.5 26.5q0 15 21 25.5t39 10.5h144v397h92v-470zM48 -144q0 22 15 37.5t37 15.5t37 -15.5t15 -37.5q0 -21 -15 -36.5t-37 -15.5t-37 15.5t-15 36.5zM193 -144q0 22 15 37.5t37 15.5q21 0 36.5 -15.5t15.5 -37.5q0 -21 -15 -36.5 t-37 -15.5t-37 15.5t-15 36.5z" />
<glyph unicode="&#x6cc;" horiz-adv-x="351" arabic-form="medial" d="M-15 0q-19 0 -39.5 10.5t-20.5 26.5q0 15 21 25.5t39 10.5h144v397h92v-397h130v-73h-366zM50 -144q0 22 15 37.5t37 15.5t37 -15.5t15 -37.5q0 -21 -15 -36.5t-37 -15.5t-37 15.5t-15 36.5zM195 -144q0 22 15 37.5t37 15.5q21 0 36.5 -15.5t15.5 -37.5q0 -21 -15 -36.5 t-37 -15.5t-37 15.5t-15 36.5z" />
<glyph unicode="&#xfc08;" horiz-adv-x="1136" arabic-form="isolated" d="M521 0q-248 0 -261 211h-29q-53 0 -71.5 -34t-6.5 -111l52 -326h-90l-50 318q-16 105 25.5 165.5t145.5 60.5h28q14 87 77.5 142t167.5 55q107 0 160.5 -57.5t53.5 -166.5v-184h223v397h92v-470h-517zM633 73v169q0 166 -132 166q-69 0 -109 -45.5t-40 -120.5 q0 -86 43.5 -127.5t138.5 -41.5h99zM933 -142q0 23 15.5 38.5t37.5 15.5q23 0 38.5 -15.5t15.5 -38.5q0 -22 -16 -38t-38 -16t-37.5 15.5t-15.5 38.5z" />
<glyph unicode="&#xfc0e;" horiz-adv-x="1136" arabic-form="isolated" d="M1038 0h-517q-248 0 -261 211h-29q-53 0 -71.5 -34t-6.5 -111l52 -326h-90l-50 318q-16 105 25.5 165.5t145.5 60.5h28q14 87 77.5 142t167.5 55q107 0 160.5 -57.5t53.5 -166.5v-184h223v397h92v-470zM633 73v169q0 166 -132 166q-69 0 -109 -45.5t-40 -120.5 q0 -86 43.5 -127.5t138.5 -41.5h99zM864 610q0 22 15 37t37 15t37 -15t15 -37t-15 -37t-37 -15t-37 15t-15 37zM1009 610q0 22 15 37t37 15q21 0 36.5 -15t15.5 -37q0 -21 -15 -36.5t-37 -15.5t-37 15t-15 37z" />
<glyph unicode="&#xfc32;" horiz-adv-x="1646" arabic-form="isolated" d="M610 0h-187q-185 0 -267 72.5t-82 218.5q0 96 32 167l99 16q-39 -76 -39 -172q0 -119 59 -174t210 -55h86v389q87 19 182 19q120 0 171.5 -55t51.5 -163v-190h192l58 -5q-74 47 -74 169q0 103 66 173.5t184 70.5q106 0 160 -57.5t54 -166.5v-257h-554h-5h-171v251 q0 84 -33 120.5t-109 36.5q-18 0 -39 -2t-33 -4l-12 -2v-400zM1476 73v169q0 166 -132 166q-69 0 -109 -45t-40 -121q0 -86 43.5 -127.5t138.5 -41.5h99zM1287 609q0 22 16 38t38 16q23 0 39 -16t16 -38q0 -23 -16 -39t-39 -16q-22 0 -38 16.5t-16 38.5zM276 -144 q0 22 15 37.5t37 15.5t37 -15.5t15 -37.5q0 -21 -15 -36.5t-37 -15.5t-37 15.5t-15 36.5zM421 -144q0 22 15 37.5t37 15.5q21 0 36.5 -15.5t15.5 -37.5q0 -21 -15 -36.5t-37 -15.5t-37 15.5t-15 36.5z" />
<glyph unicode="&#xfc42;" horiz-adv-x="1136" arabic-form="isolated" d="M1038 0h-236h-5h-276q-248 0 -261 211h-29q-53 0 -71.5 -34t-6.5 -111l52 -326h-90l-50 318q-16 105 25.5 165.5t145.5 60.5h28q14 87 77.5 142t167.5 55q107 0 160.5 -57.5t53.5 -166.5v-184h223v632h92v-705zM633 73v169q0 166 -132 166q-69 0 -109 -45.5t-40 -120.5 q0 -86 43.5 -127.5t138.5 -41.5h99z" />
<glyph unicode="&#xfc43;" horiz-adv-x="1346" arabic-form="isolated" d="M610 0h-187q-185 0 -267 72.5t-82 218.5q0 96 32 167l99 16q-39 -76 -39 -172q0 -119 59 -174t210 -55h86v389q87 19 182 19q120 0 171.5 -55t51.5 -163v-190h81h5h144v632h92v-705h-236h-5h-171v251q0 84 -33 120.5t-109 36.5q-18 0 -39 -2t-33 -4l-12 -2v-400z" />
<glyph unicode="&#xfc44;" horiz-adv-x="1346" arabic-form="isolated" d="M610 0h-187q-185 0 -267 72.5t-82 218.5q0 96 32 167l99 16q-39 -76 -39 -172q0 -119 59 -174t210 -55h86v389q87 19 182 19q120 0 171.5 -55t51.5 -163v-190h81h5h144v632h92v-705h-236h-5h-171v251q0 84 -33 120.5t-109 36.5q-18 0 -39 -2t-33 -4l-12 -2v-400z M276 -144q0 22 15 37.5t37 15.5t37 -15.5t15 -37.5q0 -21 -15 -36.5t-37 -15.5t-37 15.5t-15 36.5zM421 -144q0 22 15 37.5t37 15.5q21 0 36.5 -15.5t15.5 -37.5q0 -21 -15 -36.5t-37 -15.5t-37 15.5t-15 36.5z" />
<glyph unicode="&#xfc48;" horiz-adv-x="1436" arabic-form="isolated" d="M1356 0h-554h-5h-276q-248 0 -261 211h-29q-53 0 -71.5 -34t-6.5 -111l52 -326h-90l-50 318q-16 105 25.5 165.5t145.5 60.5h28q14 87 77.5 142t167.5 55q107 0 160.5 -57.5t53.5 -166.5v-184h74h5h106l58 -5q-74 47 -74 169q0 103 66 173.5t184 70.5q106 0 160 -57.5 t54 -166.5v-257zM1266 73v169q0 166 -132 166q-69 0 -109 -45t-40 -121q0 -86 43.5 -127.5t138.5 -41.5h99zM633 73v169q0 166 -132 166q-69 0 -109 -45.5t-40 -120.5q0 -86 43.5 -127.5t138.5 -41.5h99z" />
<glyph unicode="&#xfc4e;" horiz-adv-x="1136" arabic-form="isolated" d="M521 0q-248 0 -261 211h-29q-53 0 -71.5 -34t-6.5 -111l52 -326h-90l-50 318q-16 105 25.5 165.5t145.5 60.5h28q14 87 77.5 142t167.5 55q107 0 160.5 -57.5t53.5 -166.5v-184h74h5h144v397h92v-470h-236h-5h-276zM633 73v169q0 166 -132 166q-69 0 -109 -45.5 t-40 -120.5q0 -86 43.5 -127.5t138.5 -41.5h99zM938 609q0 22 16 38t38 16q23 0 39 -16t16 -38q0 -23 -16.5 -39t-38.5 -16t-38 16.5t-16 38.5z" />
<glyph unicode="&#xfc50;" horiz-adv-x="1346" arabic-form="isolated" d="M610 0h-187q-185 0 -267 72.5t-82 218.5q0 96 32 167l99 16q-39 -76 -39 -172q0 -119 59 -174t210 -55h86v389q87 19 182 19q120 0 171.5 -55t51.5 -163v-190h81h5h144v397h92v-470h-412v251q0 84 -33 120.5t-109 36.5q-18 0 -39 -2t-33 -4l-12 -2v-400zM1148 609 q0 22 16 38t38 16q23 0 39 -16t16 -38q0 -23 -16.5 -39t-38.5 -16t-38 16.5t-16 38.5zM276 -144q0 22 15 37.5t37 15.5t37 -15.5t15 -37.5q0 -21 -15 -36.5t-37 -15.5t-37 15.5t-15 36.5zM421 -144q0 22 15 37.5t37 15.5q21 0 36.5 -15.5t15.5 -37.5q0 -21 -15 -36.5 t-37 -15.5t-37 15.5t-15 36.5z" />
<glyph unicode="&#xfc58;" horiz-adv-x="1136" arabic-form="isolated" d="M521 0q-248 0 -261 211h-29q-53 0 -71.5 -34t-6.5 -111l52 -326h-90l-50 318q-16 105 25.5 165.5t145.5 60.5h28q14 87 77.5 142t167.5 55q107 0 160.5 -57.5t53.5 -166.5v-184h74h5h144v397h92v-470h-517zM633 73v169q0 166 -132 166q-69 0 -109 -45.5t-40 -120.5 q0 -86 43.5 -127.5t138.5 -41.5h99zM865 -144q0 22 15 37.5t37 15.5t37 -15.5t15 -37.5q0 -21 -15 -36.5t-37 -15.5t-37 15.5t-15 36.5zM1010 -144q0 22 15 37.5t37 15.5q21 0 36.5 -15.5t15.5 -37.5q0 -21 -15 -36.5t-37 -15.5t-37 15.5t-15 36.5z" />
<glyph unicode="&#xfc5e;" horiz-adv-x="464" arabic-form="isolated" d="M129 803l-26 123l45 9l17 -84l45 9q-6 18 -6 34q0 38 25 62t64 24q33 0 51 -17t18 -47q0 -67 -84 -83zM254 868l23 5q40 7 40 41q0 26 -29 26q-18 0 -29 -11.5t-11 -31.5zM242 699q-15 -33 -55 -33q-43 0 -54 53l-8 38l41 8l7 -33q6 -25 23 -25q13 0 19 10t4 25l-7 35 l41 8l7 -35q6 -27 24 -27q30 0 23 42l-7 34l42 8l6 -35q8 -41 -11 -65.5t-56 -24.5q-22 0 -39 17z" />
<glyph unicode="&#xfc5f;" horiz-adv-x="442" arabic-form="isolated" d="M125 692v41l205 30v-41zM125 765v41l205 31v-41zM216 874q-17 -32 -54 -32q-45 0 -55 55l-7 37l42 7l6 -33q4 -25 23 -25q13 0 19 10t4 25l-6 34l41 7l6 -35q6 -27 24 -27q32 0 23 42l-6 35l42 6l6 -37q7 -39 -12 -63t-55 -24q-25 0 -41 18z" />
<glyph unicode="&#xfc60;" horiz-adv-x="428" arabic-form="isolated" d="M105 902v41l201 37v-42zM214 791q-16 -32 -54 -32q-45 0 -54 54l-7 38l41 7l6 -34q4 -25 23 -25q13 0 19.5 10t3.5 26l-5 34l40 7l6 -35q6 -28 24 -28q32 0 23 42l-6 35l42 7l6 -38q7 -39 -12 -62.5t-55 -23.5q-24 0 -41 18z" />
<glyph unicode="&#xfc61;" horiz-adv-x="434" arabic-form="isolated" d="M221 706q-15 -34 -55 -34q-44 0 -55 54l-7 37l41 9l7 -34q5 -24 22 -24q13 0 19.5 9.5t3.5 25.5l-6 34l40 9l8 -35q5 -27 24 -27q31 0 22 41l-7 36l42 7l7 -35q8 -41 -11 -65.5t-56 -24.5q-23 0 -39 17zM97 805v43l71 15q-8 16 -8 35q0 37 26.5 59.5t65.5 22.5 q33 0 53 -18.5t20 -47.5q0 -34 -23 -51.5t-66 -26.5zM213 872l17 3q27 6 37.5 14t10.5 22q0 29 -31 29q-40 0 -40 -41q0 -7 1.5 -14t3.5 -10z" />
<glyph unicode="&#xfc62;" horiz-adv-x="429" arabic-form="isolated" d="M116 751v41l204 36v-42zM211 874q-17 -32 -55 -32q-44 0 -54 55l-7 37l41 7l6 -33q4 -25 24 -25q13 0 19 10t4 25l-6 34l40 7l7 -35q4 -27 24 -27q30 0 23 42l-6 35l41 6l7 -37q6 -39 -13 -63t-55 -24q-23 0 -40 18z" />
<glyph unicode="&#xfc63;" horiz-adv-x="416" arabic-form="isolated" d="M218 893l-42 -9v96h42v-87zM209 767q-16 -33 -55 -33q-45 0 -55 53l-8 38l42 7l7 -33q4 -24 22 -24q13 0 19.5 9.5t3.5 25.5l-6 34l40 8l7 -35q6 -27 24 -27q32 0 23 43l-7 34l42 8l7 -35q8 -41 -11 -65.5t-56 -24.5q-23 0 -39 17z" />
<glyph unicode="&#xfc9f;" horiz-adv-x="994" arabic-form="initial" d="M386 0q-102 0 -152.5 23.5t-78.5 70.5q-12 -43 -48 -68.5t-96 -25.5h-26q-19 0 -39.5 10.5t-20.5 26.5q0 15 21 25.5t39 10.5h11q55 0 84.5 35.5t29.5 128.5q0 103 66 173.5t184 70.5q106 0 160 -57.5t54 -166.5v-184h230v397h92v-470h-510zM484 73v169q0 166 -132 166 q-69 0 -109 -45t-40 -121q0 -86 43.5 -127.5t138.5 -41.5h99zM791 -142q0 23 15.5 38.5t37.5 15.5q23 0 38.5 -15.5t15.5 -38.5q0 -22 -16 -38t-38 -16t-37.5 15.5t-15.5 38.5z" />
<glyph unicode="&#xfca4;" horiz-adv-x="994" arabic-form="initial" d="M386 0q-102 0 -152.5 23.5t-78.5 70.5q-12 -43 -48 -68.5t-96 -25.5h-26q-19 0 -39.5 10.5t-20.5 26.5q0 15 21 25.5t39 10.5h11q55 0 84.5 35.5t29.5 128.5q0 103 66 173.5t184 70.5q106 0 160 -57.5t54 -166.5v-184h230v397h92v-470h-236h-5h-269zM484 73v169 q0 166 -132 166q-69 0 -109 -45t-40 -121q0 -86 43.5 -127.5t138.5 -41.5h99zM722 610q0 22 15 37t37 15t37 -15t15 -37t-15 -37t-37 -15t-37 15t-15 37zM867 610q0 22 15 37t37 15q21 0 36.5 -15t15.5 -37q0 -21 -15 -36.5t-37 -15.5t-37 15t-15 37z" />
<glyph unicode="&#xfcc9;" horiz-adv-x="848" arabic-form="initial" d="M-15 0q-19 0 -39.5 10.5t-20.5 26.5q0 15 21 25.5t39 10.5h373q7 49 7 103q0 117 -49.5 171t-168.5 54q-58 0 -120 -10v72q61 11 127 11q162 0 232.5 -72t70.5 -220q0 -37 -7 -109h58h5h144v632h92v-705h-236h-5h-523zM129 -142q0 23 15.5 38.5t37.5 15.5 q23 0 38.5 -15.5t15.5 -38.5q0 -22 -16 -38t-38 -16t-37.5 15.5t-15.5 38.5z" />
<glyph unicode="&#xfcca;" horiz-adv-x="848" arabic-form="initial" d="M749 0h-236h-5h-523q-19 0 -39.5 10.5t-20.5 26.5q0 15 21 25.5t39 10.5h373q7 49 7 103q0 117 -49.5 171t-168.5 54q-58 0 -120 -10v72q61 11 127 11q162 0 232.5 -72t70.5 -220q0 -37 -7 -109h207v632h92v-705z" />
<glyph unicode="&#xfccb;" horiz-adv-x="848" arabic-form="initial" d="M-15 0q-19 0 -39.5 10.5t-20.5 26.5q0 15 21 25.5t39 10.5h373q7 49 7 103q0 117 -49.5 171t-168.5 54q-58 0 -120 -10v72q61 11 127 11q162 0 232.5 -72t70.5 -220q0 -37 -7 -109h207v632h92v-705h-764zM128 609q0 22 16 38t38 16q23 0 39 -16t16 -38q0 -23 -16.5 -39 t-38.5 -16t-38 16.5t-16 38.5z" />
<glyph unicode="&#xfccc;" horiz-adv-x="994" arabic-form="initial" d="M386 0q-102 0 -152.5 23.5t-78.5 70.5q-12 -43 -48 -68.5t-96 -25.5h-26q-19 0 -39.5 10.5t-20.5 26.5q0 15 21 25.5t39 10.5h11q55 0 84.5 35.5t29.5 128.5q0 103 66 173.5t184 70.5q106 0 160 -57.5t54 -166.5v-184h81h5h144v632h92v-705h-510zM484 73v169 q0 166 -132 166q-69 0 -109 -45t-40 -121q0 -86 43.5 -127.5t138.5 -41.5h99z" />
<glyph unicode="&#xfcd1;" horiz-adv-x="1294" arabic-form="initial" d="M386 0q-102 0 -152.5 23.5t-78.5 70.5q-12 -43 -48 -68.5t-96 -25.5h-26q-19 0 -39.5 10.5t-20.5 26.5q0 15 21 25.5t39 10.5h11q55 0 84.5 35.5t29.5 128.5q0 103 66 173.5t184 70.5q106 0 160 -57.5t54 -166.5v-184h192l58 -5q-74 47 -74 169q0 103 66 173.5t184 70.5 q106 0 160 -57.5t54 -166.5v-257h-554h-5h-269zM484 73v169q0 166 -132 166q-69 0 -109 -45t-40 -121q0 -86 43.5 -127.5t138.5 -41.5h99zM1124 73v169q0 166 -132 166q-69 0 -109 -45t-40 -121q0 -86 43.5 -127.5t138.5 -41.5h99z" />
<glyph unicode="&#xfcd5;" horiz-adv-x="994" arabic-form="initial" d="M386 0q-102 0 -152.5 23.5t-78.5 70.5q-12 -43 -48 -68.5t-96 -25.5h-26q-19 0 -39.5 10.5t-20.5 26.5q0 15 21 25.5t39 10.5h11q55 0 84.5 35.5t29.5 128.5q0 103 66 173.5t184 70.5q106 0 160 -57.5t54 -166.5v-184h230v397h92v-470h-236h-5h-269zM484 73v169 q0 166 -132 166q-69 0 -109 -45t-40 -121q0 -86 43.5 -127.5t138.5 -41.5h99zM795 609q0 22 16 38t38 16q23 0 39 -16t16 -38q0 -23 -16 -39t-39 -16q-22 0 -38 16.5t-16 38.5z" />
<glyph unicode="&#xfcdd;" horiz-adv-x="994" arabic-form="initial" d="M386 0q-102 0 -152.5 23.5t-78.5 70.5q-12 -43 -48 -68.5t-96 -25.5h-26q-19 0 -39.5 10.5t-20.5 26.5q0 15 21 25.5t39 10.5h11q55 0 84.5 35.5t29.5 128.5q0 103 66 173.5t184 70.5q106 0 160 -57.5t54 -166.5v-184h81h5h144v397h92v-470h-236h-5h-269zM484 73v169 q0 166 -132 166q-69 0 -109 -45t-40 -121q0 -86 43.5 -127.5t138.5 -41.5h99zM722 -144q0 22 15 37.5t37 15.5t37 -15.5t15 -37.5q0 -21 -15 -36.5t-37 -15.5t-37 15.5t-15 36.5zM867 -144q0 22 15 37.5t37 15.5q21 0 36.5 -15.5t15.5 -37.5q0 -21 -15 -36.5t-37 -15.5 t-37 15.5t-15 36.5z" />
<glyph unicode="&#xfcf2;" horiz-adv-x="328" arabic-form="medial" d="M-15 0v73h349v-73h-349zM57 902v41l201 37v-42zM166 791q-16 -32 -54 -32q-45 0 -54 54l-7 38l41 7l6 -34q4 -25 23 -25q13 0 19.5 10t3.5 26l-5 34l40 7l6 -35q6 -28 24 -28q32 0 23 42l-6 35l42 7l6 -38q7 -39 -12 -62.5t-55 -23.5q-24 0 -41 18z" />
<glyph unicode="&#xfcf3;" horiz-adv-x="328" arabic-form="medial" d="M-15 0v73h349v-73h-349zM171 706q-15 -34 -55 -34q-44 0 -55 54l-7 37l41 9l7 -34q5 -24 22 -24q13 0 19.5 9.5t3.5 25.5l-6 34l40 9l8 -35q5 -27 24 -27q31 0 22 41l-7 36l42 7l7 -35q8 -41 -11 -65.5t-56 -24.5q-23 0 -39 17zM47 805v43l71 15q-8 16 -8 35 q0 37 26.5 59.5t65.5 22.5q33 0 53 -18.5t20 -47.5q0 -34 -23 -51.5t-66 -26.5zM163 872l17 3q27 6 37.5 14t10.5 22q0 29 -31 29q-40 0 -40 -41q0 -7 1.5 -14t3.5 -10z" />
<glyph unicode="&#xfcf4;" horiz-adv-x="328" arabic-form="medial" d="M-15 0v73h349v-73h-349zM63 751v41l204 36v-42zM158 874q-17 -32 -55 -32q-44 0 -54 55l-7 37l41 7l6 -33q4 -25 24 -25q13 0 19 10t4 25l-6 34l40 7l7 -35q4 -27 24 -27q30 0 23 42l-6 35l41 6l7 -37q6 -39 -13 -63t-55 -24q-24 0 -40 18z" />
<glyph unicode="&#xfd3c;" horiz-adv-x="288" arabic-form="final" d="M98 0v705h92v-705h-92zM31 770v48l223 32v-48zM31 861v47l223 32v-47z" />
<glyph unicode="&#xfd3d;" arabic-form="isolated" d="M98 0v705h92v-632h129v-73h-221zM31 770v48l223 32v-48zM31 861v47l223 32v-47z" />
<glyph unicode="&#xfd88;" horiz-adv-x="1522" arabic-form="initial" d="M-15 0q-19 0 -39.5 10.5t-20.5 26.5q0 15 21 25.5t39 10.5h373q7 49 7 103q0 117 -49.5 171t-168.5 54q-58 0 -120 -10v72q61 11 127 11q162 0 232.5 -72t70.5 -220q0 -37 -7 -109h89q55 0 84.5 35.5t29.5 128.5q0 103 66 173.5t184 70.5q106 0 160 -57.5t54 -166.5v-184 h215v632h92v-705h-236h-5h-254q-102 0 -152.5 23.5t-78.5 70.5q-12 -43 -48 -68.5t-96 -25.5h-26h-5h-538zM1027 73v169q0 166 -132 166q-69 0 -109 -45t-40 -121q0 -86 43.5 -127.5t138.5 -41.5h99z" />
<glyph unicode="&#xfe70;" horiz-adv-x="415" arabic-form="isolated" d="M95 810v48l223 32v-48zM95 901v47l223 32v-47z" />
<glyph unicode="&#xfe71;" horiz-adv-x="302" arabic-form="medial" d="M-15 0v73h318v-73h-318zM40 810v48l223 32v-48zM40 901v47l223 32v-47z" />
<glyph unicode="&#xfe72;" horiz-adv-x="474" arabic-form="isolated" d="M144 805l-26 120l42 9l16 -81l40 10q-7 16 -7 35q0 37 26.5 59.5t65.5 22.5q33 0 53 -18.5t20 -47.5q0 -34 -23 -51.5t-66 -26.5zM263 872l16 3q27 6 37.5 14t10.5 22q0 29 -31 29q-40 0 -40 -41q0 -7 2 -14t4 -10z" />
<glyph unicode="&#xfe74;" horiz-adv-x="415" arabic-form="isolated" d="M96 -320v47l224 32v-47zM96 -231v47l224 32v-47z" />
<glyph unicode="&#xfe76;" horiz-adv-x="414" arabic-form="isolated" d="M95 898v50l224 32v-50z" />
<glyph unicode="&#xfe77;" horiz-adv-x="302" arabic-form="medial" d="M-15 0v73h318v-73h-318zM40 898v50l224 32v-50z" />
<glyph unicode="&#xfe78;" horiz-adv-x="428" arabic-form="isolated" d="M97 815v41l75 9q-6 14 -6 32q0 35 25.5 57t62.5 22q34 0 55.5 -18.5t21.5 -49.5q0 -63 -95 -75zM217 871l18 2q27 3 38.5 11t11.5 24q0 13 -9 21t-24 8q-18 0 -29 -11.5t-11 -29.5z" />
<glyph unicode="&#xfe79;" horiz-adv-x="328" arabic-form="medial" d="M-15 0v73h349v-73h-349zM45 815v41l75 9q-6 14 -6 32q0 35 25.5 57t62.5 22q34 0 55.5 -18.5t21.5 -49.5q0 -63 -95 -75zM165 871l18 2q27 3 38.5 11t11.5 24q0 13 -9 21t-24 8q-18 0 -29 -11.5t-11 -29.5z" />
<glyph unicode="&#xfe7a;" horiz-adv-x="414" arabic-form="isolated" d="M95 -318v50l224 32v-50z" />
<glyph unicode="&#xfe7b;" horiz-adv-x="302" arabic-form="medial" d="M-15 0v73h318v-73h-318zM40 -314v50l224 32v-50z" />
<glyph unicode="&#xfe7c;" horiz-adv-x="455" arabic-form="isolated" d="M229 855q-20 -35 -61 -35q-56 0 -64 64l-8 49l47 8l8 -49q5 -28 26 -28q15 1 23.5 11.5t5.5 26.5l-7 48l46 7l7 -47q6 -33 29 -33q35 0 28 46l-7 51l47 6l8 -48q7 -41 -14.5 -69.5t-65.5 -28.5q-30 0 -48 21z" />
<glyph unicode="&#xfe7d;" horiz-adv-x="328" arabic-form="medial" d="M-15 0v73h349v-73h-349zM161 855q-20 -35 -61 -35q-56 0 -64 64l-8 49l47 8l8 -49q5 -28 26 -28q15 1 23.5 11.5t5.5 26.5l-7 48l46 7l7 -47q6 -33 29 -33q35 0 28 46l-7 51l47 6l8 -48q7 -41 -14.5 -69.5t-65.5 -28.5q-30 0 -48 21z" />
<glyph unicode="&#xfe7e;" horiz-adv-x="364" arabic-form="isolated" d="M143 903q0 -17 11 -26.5t28 -9.5q38 0 38 38q0 16 -10.5 26t-27.5 10t-28 -10.5t-11 -27.5zM97 901q0 34 25.5 56t60.5 22q37 0 60.5 -19.5t23.5 -54.5q0 -33 -25.5 -54.5t-61.5 -21.5t-59.5 19t-23.5 53z" />
<glyph unicode="&#xfe7f;" horiz-adv-x="302" arabic-form="medial" d="M-15 0v73h318v-73h-318zM112 903q0 -17 11 -26.5t28 -9.5q38 0 38 38q0 16 -10.5 26t-27.5 10t-28 -10.5t-11 -27.5zM66 901q0 34 25.5 56t60.5 22q37 0 60.5 -19.5t23.5 -54.5q0 -33 -25.5 -54.5t-61.5 -21.5t-59.5 19t-23.5 53z" />
<glyph unicode="&#x622;" arabic-form="final" d="M98 0v705h92v-632h129v-73h-221zM22 760v64l83 25q35 -35 78 -35q10 0 20.5 2.5t18.5 5.5t16 7.5t12.5 8t9 7.5t5.5 4v-64q-45 -28 -88 -28q-47 0 -78 27z" />
<glyph unicode="&#x623;" arabic-form="final" d="M98 0v675h92v-602h129v-73h-221zM13 729v55q37 0 71 -6q-31 14 -31 50q0 39 32.5 67.5t96.5 28.5q24 0 54 -5l-10 -54q-45 5 -50 5q-56 0 -56 -41q0 -45 79 -45h56v-55h-242z" />
<glyph unicode="&#x624;" horiz-adv-x="648" arabic-form="final" d="M228 -253q-34 0 -73 3.5t-61 7.5l-22 4l6 78q84 -20 160 -20q191 0 191 156v24h-101q-262 0 -262 234q0 105 65 176t187 71q49 0 99 -8.5t76 -17.5l26 -9v-373h129v-73h-129v-19q0 -46 -16 -86.5t-48.5 -74.5t-91 -53.5t-135.5 -19.5zM429 73v312q-49 23 -121 23 q-69 0 -109 -45t-40 -120q0 -87 43.5 -128.5t138.5 -41.5h88zM180 561v55q37 0 71 -6q-31 14 -31 50q0 39 32.5 67.5t96.5 28.5q24 0 54 -5l-10 -54q-45 5 -50 5q-56 0 -56 -41q0 -45 79 -45h56v-55h-242z" />
<glyph unicode="&#x625;" arabic-form="final" d="M98 0v705h92v-632h129v-73h-221zM17 -251v54q39 0 60 -4q-21 13 -21 39q0 38 31 63t87 25q28 0 54 -6l-10 -54q-24 6 -48 6q-23 0 -35.5 -9t-12.5 -24q0 -36 67 -36h60v-54h-232z" />
<glyph unicode="&#x626;" horiz-adv-x="1027" arabic-form="final" d="M610 0h-187q-185 0 -267 72.5t-82 218.5q0 96 32 167l99 16q-39 -76 -39 -172q0 -119 59 -174t210 -55h86v389q87 19 182 19q120 0 171.5 -55t51.5 -163v-190h101v-73h-191v251q0 84 -33 120.5t-109 36.5q-18 0 -39 -2t-33 -4l-12 -2v-400zM56 556v55q37 0 71 -6 q-31 14 -31 50q0 39 32.5 67.5t96.5 28.5q24 0 54 -5l-10 -54q-45 5 -50 5q-56 0 -56 -41q0 -45 79 -45h56v-55h-242z" />
<glyph unicode="&#x626;" arabic-form="initial" d="M221 0h-236q-19 0 -39.5 10.5t-20.5 26.5q0 15 21 25.5t39 10.5h144v397h92v-470zM37 523v55q37 0 71 -6q-31 14 -31 50q0 39 32.5 67.5t96.5 28.5q24 0 54 -5l-10 -54q-45 5 -50 5q-56 0 -56 -41q0 -45 79 -45h56v-55h-242z" />
<glyph unicode="&#x626;" horiz-adv-x="351" arabic-form="medial" d="M-15 0q-19 0 -39.5 10.5t-20.5 26.5q0 15 21 25.5t39 10.5h144v397h92v-397h130v-73h-366zM37 523v55q37 0 71 -6q-31 14 -31 50q0 39 32.5 67.5t96.5 28.5q24 0 54 -5l-10 -54q-45 5 -50 5q-56 0 -56 -41q0 -45 79 -45h56v-55h-242z" />
<glyph unicode="&#x627;" arabic-form="final" d="M98 0v705h92v-632h129v-73h-221z" />
<glyph unicode="&#x628;" horiz-adv-x="826" arabic-form="final" d="M423 0q-185 0 -267 72.5t-82 218.5q0 96 32 167l99 16q-39 -76 -39 -172q0 -119 59 -174t210 -55h170v397h92v-397h129v-73h-403zM352 -142q0 23 15.5 38.5t37.5 15.5q23 0 38.5 -15.5t15.5 -38.5q0 -22 -15.5 -38t-38.5 -16q-22 0 -37.5 15.5t-15.5 38.5z" />
<glyph unicode="&#x628;" arabic-form="initial" d="M221 0h-236q-19 0 -39.5 10.5t-20.5 26.5q0 15 21 25.5t39 10.5h144v397h92v-470zM116 -142q0 23 15.5 38.5t37.5 15.5q23 0 38.5 -15.5t15.5 -38.5q0 -22 -15.5 -38t-38.5 -16q-22 0 -37.5 15.5t-15.5 38.5z" />
<glyph unicode="&#x628;" horiz-adv-x="351" arabic-form="medial" d="M351 0h-366q-19 0 -39.5 10.5t-20.5 26.5q0 15 21 25.5t39 10.5h144v397h92v-397h130v-73zM121 -142q0 23 15.5 38.5t37.5 15.5q23 0 38.5 -15.5t15.5 -38.5q0 -22 -16 -38t-38 -16t-37.5 15.5t-15.5 38.5z" />
<glyph unicode="&#x629;" horiz-adv-x="648" arabic-form="final" d="M648 0h-320q-262 0 -262 234q0 105 65 176t187 71q49 0 99 -8.5t76 -17.5l26 -9v-373h129v-73zM429 73v312q-49 23 -121 23q-69 0 -109 -45t-40 -120q0 -87 43.5 -128.5t138.5 -41.5h88zM185 610q0 22 15 37t37 15t37 -15t15 -37t-15 -37t-37 -15t-37 15t-15 37zM330 610 q0 22 15 37t37 15q21 0 36.5 -15t15.5 -37q0 -21 -15 -36.5t-37 -15.5t-37 15t-15 37z" />
<glyph unicode="&#x62a;" horiz-adv-x="826" arabic-form="final" d="M423 0q-185 0 -267 72.5t-82 218.5q0 96 32 167l99 16q-39 -76 -39 -172q0 -119 59 -174t210 -55h170v397h92v-397h129v-73h-403zM288 610q0 22 15 37t37 15t37 -15t15 -37t-15 -37t-37 -15t-37 15t-15 37zM433 610q0 22 15 37t37 15q21 0 36.5 -15t15.5 -37 q0 -21 -15 -36.5t-37 -15.5t-37 15t-15 37z" />
<glyph unicode="&#x62a;" arabic-form="initial" d="M221 0h-236q-19 0 -39.5 10.5t-20.5 26.5q0 15 21 25.5t39 10.5h144v397h92v-470zM47 610q0 22 15 37t37 15t37 -15t15 -37t-15 -37t-37 -15t-37 15t-15 37zM192 610q0 22 15 37t37 15q21 0 36.5 -15t15.5 -37q0 -21 -15 -36.5t-37 -15.5t-37 15t-15 37z" />
<glyph unicode="&#x62a;" horiz-adv-x="351" arabic-form="medial" d="M-15 0q-19 0 -39.5 10.5t-20.5 26.5q0 15 21 25.5t39 10.5h144v397h92v-397h130v-73h-366zM51 610q0 22 15 37t37 15t37 -15t15 -37t-15 -37t-37 -15t-37 15t-15 37zM196 610q0 22 15 37t37 15q21 0 36.5 -15t15.5 -37q0 -21 -15 -36.5t-37 -15.5t-37 15t-15 37z" />
<glyph unicode="&#x62b;" horiz-adv-x="826" arabic-form="final" d="M826 0h-403q-185 0 -267 72.5t-82 218.5q0 96 32 167l99 16q-39 -76 -39 -172q0 -119 59 -174t210 -55h170v397h92v-397h129v-73zM432 608q0 21 15.5 36.5t36.5 15.5q22 0 37.5 -15t15.5 -37t-15.5 -37.5t-37.5 -15.5q-21 0 -36.5 15.5t-15.5 37.5zM359 721q0 22 15 37.5 t37 15.5t37 -15.5t15 -37.5q0 -21 -15 -36.5t-37 -15.5t-37 15t-15 37zM285 608q0 21 15 36.5t37 15.5t37 -15t15 -37t-15 -37.5t-37 -15.5t-37 15.5t-15 37.5z" />
<glyph unicode="&#x62b;" arabic-form="initial" d="M221 0h-236q-19 0 -39.5 10.5t-20.5 26.5q0 15 21 25.5t39 10.5h144v397h92v-470zM45 608q0 21 15 36.5t37 15.5t37 -15t15 -37t-15 -37.5t-37 -15.5t-37 15.5t-15 37.5zM192 608q0 21 15.5 36.5t36.5 15.5q22 0 37.5 -15t15.5 -37t-15.5 -37.5t-37.5 -15.5 q-21 0 -36.5 15.5t-15.5 37.5zM119 721q0 22 15 37.5t37 15.5t37 -15.5t15 -37.5q0 -21 -15 -36.5t-37 -15.5t-37 15t-15 37z" />
<glyph unicode="&#x62b;" horiz-adv-x="351" arabic-form="medial" d="M351 0h-366q-19 0 -39.5 10.5t-20.5 26.5q0 15 21 25.5t39 10.5h144v397h92v-397h130v-73zM195 608q0 21 15.5 36.5t36.5 15.5q22 0 37.5 -15t15.5 -37t-15.5 -37.5t-37.5 -15.5q-21 0 -36.5 15.5t-15.5 37.5zM122 721q0 22 15 37.5t37 15.5t37 -15.5t15 -37.5 q0 -21 -15 -36.5t-37 -15.5t-37 15t-15 37zM48 608q0 21 15 36.5t37 15.5t37 -15t15 -37t-15 -37.5t-37 -15.5t-37 15.5t-15 37.5z" />
<glyph unicode="&#x62c;" horiz-adv-x="614" arabic-form="final" d="M341 0q-118 0 -165 -33t-47 -92q0 -52 48.5 -87t138.5 -35l-6 -73q-132 0 -202.5 52.5t-70.5 135.5q0 94 74 149.5t235 55.5h99q7 61 7 103q0 117 -49.5 171t-169.5 54q-59 0 -111 -7v72q66 8 119 8q161 0 231.5 -72t70.5 -220q0 -48 -6 -109h77v-73h-273zM336 -142 q0 23 15.5 38.5t37.5 15.5q23 0 38.5 -15.5t15.5 -38.5q0 -22 -15.5 -38t-38.5 -16q-22 0 -37.5 15.5t-15.5 38.5z" />
<glyph unicode="&#x62c;" horiz-adv-x="531" arabic-form="initial" d="M440 0h-455q-19 0 -39.5 10.5t-20.5 26.5q0 15 21 25.5t39 10.5h373q7 49 7 103q0 117 -49.5 171t-168.5 54q-58 0 -120 -10v72q61 11 127 11q162 0 232.5 -72t70.5 -220q0 -80 -17 -182zM129 -142q0 23 15.5 38.5t37.5 15.5q23 0 38.5 -15.5t15.5 -38.5q0 -22 -16 -38 t-38 -16t-37.5 15.5t-15.5 38.5z" />
<glyph unicode="&#x62c;" horiz-adv-x="528" arabic-form="medial" d="M528 0h-543q-19 0 -39.5 10.5t-20.5 26.5q0 15 21 25.5t39 10.5h373q7 49 7 103q0 117 -49.5 171t-168.5 54q-58 0 -120 -10v72q61 11 127 11q162 0 232.5 -72t70.5 -220q0 -37 -7 -109h78v-73zM129 -142q0 23 15.5 38.5t37.5 15.5q23 0 38.5 -15.5t15.5 -38.5 q0 -22 -16 -38t-38 -16t-37.5 15.5t-15.5 38.5z" />
<glyph unicode="&#x62d;" horiz-adv-x="604" arabic-form="final" d="M310 -320q-133 0 -203 51.5t-70 136.5q0 94 74 149.5t235 55.5h93q7 61 7 103q0 117 -49.5 171t-169.5 54q-59 0 -111 -7v72q66 8 119 8q161 0 231.5 -72t70.5 -220q0 -48 -6 -109h73v-73h-263q-118 0 -165 -33t-47 -91q0 -55 48 -89t141 -34q82 0 180 21l8 -72 q-98 -22 -196 -22z" />
<glyph unicode="&#x62d;" horiz-adv-x="531" arabic-form="initial" d="M440 0h-455q-19 0 -39.5 10.5t-20.5 26.5q0 15 21 25.5t39 10.5h373q7 49 7 103q0 117 -49.5 171t-168.5 54q-58 0 -120 -10v72q61 11 127 11q162 0 232.5 -72t70.5 -220q0 -80 -17 -182z" />
<glyph unicode="&#x62d;" horiz-adv-x="528" arabic-form="medial" d="M-15 0q-19 0 -39.5 10.5t-20.5 26.5q0 15 21 25.5t39 10.5h373q7 49 7 103q0 117 -49.5 171t-168.5 54q-58 0 -120 -10v72q61 11 127 11q162 0 232.5 -72t70.5 -220q0 -37 -7 -109h78v-73h-543z" />
<glyph unicode="&#x62e;" horiz-adv-x="604" arabic-form="final" d="M310 -320q-133 0 -203 51.5t-70 136.5q0 94 74 149.5t235 55.5h93q7 61 7 103q0 117 -49.5 171t-169.5 54q-59 0 -111 -7v72q66 8 119 8q161 0 231.5 -72t70.5 -220q0 -48 -6 -109h73v-73h-263q-118 0 -165 -33t-47 -91q0 -55 48 -89t141 -34q82 0 180 21l8 -72 q-98 -22 -196 -22zM210 609q0 22 16 38t38 16q23 0 39 -16t16 -38q0 -23 -16.5 -39t-38.5 -16t-38 16.5t-16 38.5z" />
<glyph unicode="&#x62e;" horiz-adv-x="531" arabic-form="initial" d="M440 0h-455q-19 0 -39.5 10.5t-20.5 26.5q0 15 21 25.5t39 10.5h373q7 49 7 103q0 117 -49.5 171t-168.5 54q-58 0 -120 -10v72q61 11 127 11q162 0 232.5 -72t70.5 -220q0 -80 -17 -182zM128 609q0 22 16 38t38 16q23 0 39 -16t16 -38q0 -23 -16.5 -39t-38.5 -16 t-38 16.5t-16 38.5z" />
<glyph unicode="&#x62e;" horiz-adv-x="528" arabic-form="medial" d="M-15 0q-19 0 -39.5 10.5t-20.5 26.5q0 15 21 25.5t39 10.5h373q7 49 7 103q0 117 -49.5 171t-168.5 54q-58 0 -120 -10v72q61 11 127 11q162 0 232.5 -72t70.5 -220q0 -37 -7 -109h78v-73h-543zM128 609q0 22 16 38t38 16q23 0 39 -16t16 -38q0 -23 -16.5 -39t-38.5 -16 t-38 16.5t-16 38.5z" />
<glyph unicode="&#x62f;" horiz-adv-x="536" arabic-form="final" d="M57 0v73h320q-2 139 -61 219t-191 120l24 77q161 -49 238 -146t81 -270h68v-73h-479z" />
<glyph unicode="&#x630;" horiz-adv-x="536" arabic-form="final" d="M57 0v73h320q-2 139 -61 219t-191 120l24 77q161 -49 238 -146t81 -270h68v-73h-479zM141 609q0 22 16 38t38 16q23 0 39 -16t16 -38q0 -23 -16 -39t-39 -16q-22 0 -38 16.5t-16 38.5z" />
<glyph unicode="&#x631;" horiz-adv-x="451" arabic-form="final" d="M90 -257q-56 0 -104 15l10 75q53 -17 101 -17q66 0 99.5 38.5t33.5 132.5v483h92v-397h129v-73h-129v-5q0 -252 -232 -252z" />
<glyph unicode="&#x632;" horiz-adv-x="451" arabic-form="final" d="M90 -257q-56 0 -104 15l10 75q53 -17 101 -17q66 0 99.5 38.5t33.5 132.5v483h92v-397h129v-73h-129v-5q0 -252 -232 -252zM220 609q0 22 16 38t38 16q23 0 39 -16t16 -38q0 -23 -16.5 -39t-38.5 -16t-38 16.5t-16 38.5z" />
<glyph unicode="&#x633;" horiz-adv-x="1231" arabic-form="final" d="M312 -231q-111 0 -178 67t-67 212q0 102 24 190l95 18q-27 -99 -27 -199q0 -117 46 -166t116 -49q146 0 146 203v365h92v-182q0 -85 21 -123.5t70 -38.5q51 0 74.5 38.5t23.5 122.5v223h89v-256q0 -76 30.5 -98.5t117.5 -22.5h32q8 69 8 139q0 149 -33 276l90 15 q35 -131 35 -283q0 -61 -7 -147h121v-73h-243q-98 0 -143.5 17.5t-64.5 62.5q-14 -43 -51 -65t-78 -22q-67 0 -96 45q1 -143 -66.5 -206t-176.5 -63z" />
<glyph unicode="&#x633;" horiz-adv-x="868" arabic-form="initial" d="M29 0h-44q-19 0 -39.5 10.5t-20.5 26.5q0 15 21 25.5t39 10.5h44q55 0 79 30t24 107v200h92v-182q0 -36 1 -57t5.5 -44t13.5 -34.5t24.5 -19t39.5 -7.5q50 0 77 35.5t27 125.5v223h90v-256q0 -76 31 -98.5t117 -22.5h32q8 69 8 139q0 149 -33 276l90 15q35 -131 35 -283 q0 -113 -16 -220h-113q-97 0 -142 17t-66 63q-14 -36 -52.5 -61.5t-100.5 -25.5q-49 0 -83.5 23.5t-45.5 62.5q-29 -79 -134 -79z" />
<glyph unicode="&#x633;" horiz-adv-x="896" arabic-form="medial" d="M29 0h-44q-19 0 -39.5 10.5t-20.5 26.5q0 15 21 25.5t39 10.5h44q55 0 79 30t24 107v200h92v-182q0 -36 1 -57t5.5 -44t13.5 -34.5t24.5 -19t39.5 -7.5q50 0 77 35.5t27 125.5v223h90v-256q0 -76 31 -98.5t117 -22.5h32q8 69 8 139q0 149 -33 276l90 15q35 -131 35 -283 q0 -61 -7 -147h121v-73h-243q-97 0 -142 17t-66 63q-14 -36 -52.5 -61.5t-100.5 -25.5q-49 0 -83.5 23.5t-45.5 62.5q-29 -79 -134 -79z" />
<glyph unicode="&#x634;" horiz-adv-x="1231" arabic-form="final" d="M988 0q-98 0 -143.5 17.5t-64.5 62.5q-14 -43 -51 -65t-78 -22q-67 0 -96 45q1 -143 -66.5 -206t-176.5 -63q-111 0 -178 67t-67 212q0 102 24 190l95 18q-27 -99 -27 -199q0 -117 46 -166t116 -49q146 0 146 203v365h92v-182q0 -85 21 -123.5t70 -38.5q51 0 74.5 38.5 t23.5 122.5v223h89v-256q0 -76 30.5 -98.5t117.5 -22.5h32q8 69 8 139q0 149 -33 276l90 15q35 -131 35 -283q0 -61 -7 -147h121v-73h-243zM810 608q0 21 15.5 36.5t36.5 15.5q22 0 37.5 -15t15.5 -37t-15.5 -37.5t-37.5 -15.5q-21 0 -36.5 15.5t-15.5 37.5zM737 721 q0 22 15 37.5t37 15.5t37 -15.5t15 -37.5q0 -21 -15 -36.5t-37 -15.5t-37 15t-15 37zM663 608q0 21 15 36.5t37 15.5t37 -15t15 -37t-15 -37.5t-37 -15.5t-37 15.5t-15 37.5z" />
<glyph unicode="&#x634;" horiz-adv-x="868" arabic-form="initial" d="M29 0h-44q-19 0 -39.5 10.5t-20.5 26.5q0 15 21 25.5t39 10.5h44q55 0 79 30t24 107v200h92v-182q0 -36 1 -57t5.5 -44t13.5 -34.5t24.5 -19t39.5 -7.5q50 0 77 35.5t27 125.5v223h90v-256q0 -76 31 -98.5t117 -22.5h32q8 69 8 139q0 149 -33 276l90 15q35 -131 35 -283 q0 -113 -16 -220h-113q-97 0 -142 17t-66 63q-14 -36 -52.5 -61.5t-100.5 -25.5q-49 0 -83.5 23.5t-45.5 62.5q-29 -79 -134 -79zM326 608q0 21 15 36.5t37 15.5t37 -15t15 -37t-15 -37.5t-37 -15.5t-37 15.5t-15 37.5zM473 608q0 21 15.5 36.5t36.5 15.5q22 0 37.5 -15 t15.5 -37t-15.5 -37.5t-37.5 -15.5q-21 0 -36.5 15.5t-15.5 37.5zM400 721q0 22 15 37.5t37 15.5t37 -15.5t15 -37.5q0 -21 -15 -36.5t-37 -15.5t-37 15t-15 37z" />
<glyph unicode="&#x634;" horiz-adv-x="895" arabic-form="medial" d="M29 0h-44q-19 0 -39.5 10.5t-20.5 26.5q0 15 21 25.5t39 10.5h44q55 0 79 30t24 107v200h92v-182q0 -36 1 -57t5.5 -44t13.5 -34.5t24.5 -19t39.5 -7.5q50 0 77 35.5t27 125.5v223h90v-256q0 -76 31 -98.5t117 -22.5h32q8 69 8 139q0 149 -33 276l90 15q35 -131 35 -283 q0 -61 -7 -147h120v-73h-242q-97 0 -142 17t-66 63q-14 -36 -52.5 -61.5t-100.5 -25.5q-49 0 -83.5 23.5t-45.5 62.5q-29 -79 -134 -79zM473 608q0 21 15.5 36.5t36.5 15.5q22 0 37.5 -15t15.5 -37t-15.5 -37.5t-37.5 -15.5q-21 0 -36.5 15.5t-15.5 37.5zM400 721 q0 22 15 37.5t37 15.5t37 -15.5t15 -37.5q0 -21 -15 -36.5t-37 -15.5t-37 15t-15 37zM326 608q0 21 15 36.5t37 15.5t37 -15t15 -37t-15 -37.5t-37 -15.5t-37 15.5t-15 37.5z" />
<glyph unicode="&#x635;" horiz-adv-x="1092" arabic-form="final" d="M556 0q-9 -115 -75.5 -173t-168.5 -58q-111 0 -178 67t-67 212q0 102 24 190l95 18q-27 -99 -27 -199q0 -117 46 -166t116 -49q146 0 146 203v425h92v-39q0 -102 -11 -179h2q33 109 108.5 169t165.5 60q96 0 148 -59.5t52 -167.5q0 -116 -68 -181h136v-73h-536zM558 73 h195q176 5 176 174q0 76 -30.5 118.5t-91.5 42.5q-97 0 -166.5 -102.5t-82.5 -232.5z" />
<glyph unicode="&#x635;" horiz-adv-x="745" arabic-form="initial" d="M394 0h-409q-19 0 -39.5 10.5t-20.5 26.5q0 15 21 25.5t39 10.5h144v397h92v-39q0 -102 -11 -179h2q33 109 108.5 169t165.5 60q96 0 148 -59.5t52 -167.5q0 -113 -70 -183.5t-222 -70.5zM220 73h184q187 0 187 174q0 76 -30.5 118.5t-91.5 42.5q-97 0 -166.5 -102.5 t-82.5 -232.5z" />
<glyph unicode="&#x635;" horiz-adv-x="761" arabic-form="medial" d="M-15 0q-19 0 -39.5 10.5t-20.5 26.5q0 15 21 25.5t39 10.5h144v397h92v-39q0 -102 -11 -179h2q33 109 108.5 169t165.5 60q96 0 148 -59.5t52 -167.5q0 -116 -68 -181h143v-73h-351h-16h-409zM220 73h195q176 5 176 174q0 76 -30.5 118.5t-91.5 42.5q-97 0 -166.5 -102.5 t-82.5 -232.5z" />
<glyph unicode="&#x636;" horiz-adv-x="1092" arabic-form="final" d="M556 0q-9 -115 -75.5 -173t-168.5 -58q-111 0 -178 67t-67 212q0 102 24 190l95 18q-27 -99 -27 -199q0 -117 46 -166t116 -49q146 0 146 203v425h92v-39q0 -102 -11 -179h2q33 109 108.5 169t165.5 60q96 0 148 -59.5t52 -167.5q0 -116 -68 -181h136v-73h-344h-16h-176z M558 73h195q176 5 176 174q0 76 -30.5 118.5t-91.5 42.5q-97 0 -166.5 -102.5t-82.5 -232.5zM747 609q0 22 16 38t38 16q23 0 39 -16t16 -38q0 -23 -16 -39t-39 -16q-22 0 -38 16.5t-16 38.5z" />
<glyph unicode="&#x636;" horiz-adv-x="745" arabic-form="initial" d="M394 0h-409q-19 0 -39.5 10.5t-20.5 26.5q0 15 21 25.5t39 10.5h144v397h92v-39q0 -102 -11 -179h2q33 109 108.5 169t165.5 60q96 0 148 -59.5t52 -167.5q0 -113 -70 -183.5t-222 -70.5zM220 73h184q187 0 187 174q0 76 -30.5 118.5t-91.5 42.5q-97 0 -166.5 -102.5 t-82.5 -232.5zM410 609q0 22 16 38t38 16q23 0 39 -16t16 -38q0 -23 -16.5 -39t-38.5 -16t-38 16.5t-16 38.5z" />
<glyph unicode="&#x636;" horiz-adv-x="761" arabic-form="medial" d="M394 0h-409q-19 0 -39.5 10.5t-20.5 26.5q0 15 21 25.5t39 10.5h144v397h92v-39q0 -102 -11 -179h2q33 109 108.5 169t165.5 60q96 0 148 -59.5t52 -167.5q0 -116 -68 -181h143v-73h-351h-16zM220 73h184q187 0 187 174q0 76 -30.5 118.5t-91.5 42.5q-97 0 -166.5 -102.5 t-82.5 -232.5zM410 609q0 22 16 38t38 16q23 0 39 -16t16 -38q0 -23 -16.5 -39t-38.5 -16t-38 16.5t-16 38.5z" />
<glyph unicode="&#x637;" horiz-adv-x="779" arabic-form="final" d="M9 0v73h138v632h92v-274q0 -102 -11 -179h2q33 109 108.5 169t165.5 60q96 0 148 -59.5t52 -167.5q0 -116 -68 -181h143v-73h-351h-16h-403zM238 73h183q188 0 188 174q0 76 -30.5 118.5t-91.5 42.5q-97 0 -166.5 -102.5t-82.5 -232.5z" />
<glyph unicode="&#x637;" horiz-adv-x="745" arabic-form="initial" d="M394 0h-409q-19 0 -39.5 10.5t-20.5 26.5q0 15 21 25.5t39 10.5h144v632h92v-274q0 -102 -11 -179h2q33 109 108.5 169t165.5 60q96 0 148 -59.5t52 -167.5q0 -113 -70 -183.5t-222 -70.5zM220 73h184q187 0 187 174q0 76 -30.5 118.5t-91.5 42.5q-97 0 -166.5 -102.5 t-82.5 -232.5z" />
<glyph unicode="&#x637;" horiz-adv-x="761" arabic-form="medial" d="M-15 0q-19 0 -39.5 10.5t-20.5 26.5q0 15 21 25.5t39 10.5h144v632h92v-274q0 -102 -11 -179h2q33 109 108.5 169t165.5 60q96 0 148 -59.5t52 -167.5q0 -116 -68 -181h143v-73h-351h-16h-409zM220 73h195q176 5 176 174q0 76 -30.5 118.5t-91.5 42.5 q-97 0 -166.5 -102.5t-82.5 -232.5z" />
<glyph unicode="&#x638;" horiz-adv-x="779" arabic-form="final" d="M9 0v73h138v632h92v-274q0 -102 -11 -179h2q33 109 108.5 169t165.5 60q96 0 148 -59.5t52 -167.5q0 -116 -68 -181h143v-73h-770zM238 73h183q188 0 188 174q0 76 -30.5 118.5t-91.5 42.5q-97 0 -166.5 -102.5t-82.5 -232.5zM434 609q0 22 16 38t38 16q23 0 39 -16 t16 -38q0 -23 -16.5 -39t-38.5 -16t-38 16.5t-16 38.5z" />
<glyph unicode="&#x638;" horiz-adv-x="745" arabic-form="initial" d="M394 0h-409q-19 0 -39.5 10.5t-20.5 26.5q0 15 21 25.5t39 10.5h144v632h92v-274q0 -102 -11 -179h2q33 109 108.5 169t165.5 60q96 0 148 -59.5t52 -167.5q0 -113 -70 -183.5t-222 -70.5zM220 73h184q187 0 187 174q0 76 -30.5 118.5t-91.5 42.5q-97 0 -166.5 -102.5 t-82.5 -232.5zM416 609q0 22 16 38t38 16q23 0 39 -16t16 -38q0 -23 -16.5 -39t-38.5 -16t-38 16.5t-16 38.5z" />
<glyph unicode="&#x638;" horiz-adv-x="761" arabic-form="medial" d="M394 0h-409q-19 0 -39.5 10.5t-20.5 26.5q0 15 21 25.5t39 10.5h144v632h92v-274q0 -102 -11 -179h2q33 109 108.5 169t165.5 60q96 0 148 -59.5t52 -167.5q0 -116 -68 -181h143v-73h-351h-16zM220 73h195q176 5 176 174q0 76 -30.5 118.5t-91.5 42.5 q-97 0 -166.5 -102.5t-82.5 -232.5zM416 609q0 22 16 38t38 16q23 0 39 -16t16 -38q0 -23 -16.5 -39t-38.5 -16t-38 16.5t-16 38.5z" />
<glyph unicode="&#x639;" horiz-adv-x="633" arabic-form="final" d="M319 -258q-138 0 -206 48t-68 124q0 40 16 72.5t59 63t65 42.5t86 42q5 3 7.5 4t7 3t7.5 4q-43 42 -66.5 63t-66.5 49t-86 42l7 64q159 120 289 120q96 0 144.5 -44.5t48.5 -110.5q0 -112 -138 -194q80 -61 162 -61h46v-73h-59q-116 0 -225 93q-10 -5 -35 -17t-35 -17 t-31 -16t-30.5 -17.5t-25 -17.5t-23 -19.5t-16 -19.5t-11.5 -22.5t-3 -24.5q0 -48 46 -77.5t144 -29.5q34 0 73 3.5t62 7.5l22 3l6 -71q-89 -16 -173 -16zM167 334q19 -7 39.5 -19t33.5 -20.5t35.5 -27.5t30 -25.5t33 -31t29.5 -27.5q103 61 103 133q0 43 -27.5 70.5 t-82.5 27.5q-80 0 -194 -80z" />
<glyph unicode="&#x639;" horiz-adv-x="558" arabic-form="initial" d="M517 0h-532q-19 0 -39.5 10.5t-20.5 26.5q0 15 21 25.5t39 10.5h199q-47 21 -77 68.5t-30 108.5q0 99 64 165t182 66q32 0 64.5 -5.5t49.5 -11.5l17 -5l-17 -74q-55 24 -119 24q-67 0 -108 -41.5t-41 -113.5q0 -82 66 -131.5t200 -49.5h82v-73z" />
<glyph unicode="&#x639;" horiz-adv-x="602" arabic-form="medial" d="M4 0h-19q-19 0 -39.5 10.5t-20.5 26.5q0 15 21 25.5t39 10.5h22q162 0 274 53q-4 4 -33.5 32t-38 36t-35 30t-42.5 31.5t-41 22.5t-49 21l8 64q157 120 289 120q96 0 144 -44.5t48 -110.5q0 -53 -31 -107.5t-89 -99.5q70 -48 144 -48h47v-73h-59q-109 0 -203 75 q-140 -75 -336 -75zM136 334q31 -12 63 -33.5t51 -38t54.5 -49.5t48.5 -45q87 67 87 148q0 43 -28 70.5t-83 27.5q-79 0 -193 -80z" />
<glyph unicode="&#x63a;" horiz-adv-x="633" arabic-form="final" d="M319 -258q-138 0 -206 48t-68 124q0 40 16 72.5t59 63t65 42.5t86 42q5 3 7.5 4t7 3t7.5 4q-43 42 -66.5 63t-66.5 49t-86 42l7 64q159 120 289 120q96 0 144.5 -44.5t48.5 -110.5q0 -112 -138 -194q80 -61 162 -61h46v-73h-59q-116 0 -225 93q-10 -5 -35 -17t-35 -17 t-31 -16t-30.5 -17.5t-25 -17.5t-23 -19.5t-16 -19.5t-11.5 -22.5t-3 -24.5q0 -48 46 -77.5t144 -29.5q34 0 73 3.5t62 7.5l22 3l6 -71q-89 -16 -173 -16zM167 334q19 -7 39.5 -19t33.5 -20.5t35.5 -27.5t30 -25.5t33 -31t29.5 -27.5q103 61 103 133q0 43 -27.5 70.5 t-82.5 27.5q-80 0 -194 -80zM297 609q0 22 16 38t38 16q23 0 39 -16t16 -38q0 -23 -16 -39t-39 -16q-22 0 -38 16.5t-16 38.5z" />
<glyph unicode="&#x63a;" horiz-adv-x="558" arabic-form="initial" d="M517 0h-532q-19 0 -39.5 10.5t-20.5 26.5q0 15 21 25.5t39 10.5h199q-47 21 -77 68.5t-30 108.5q0 99 64 165t182 66q32 0 64.5 -5.5t49.5 -11.5l17 -5l-17 -74q-55 24 -119 24q-67 0 -108 -41.5t-41 -113.5q0 -82 66 -131.5t200 -49.5h82v-73zM247 609q0 22 16 38t38 16 q23 0 39 -16t16 -38q0 -23 -16 -39t-39 -16q-22 0 -38 16.5t-16 38.5z" />
<glyph unicode="&#x63a;" horiz-adv-x="602" arabic-form="medial" d="M4 0h-19q-19 0 -39.5 10.5t-20.5 26.5q0 15 21 25.5t39 10.5h22q162 0 274 53q-4 4 -33.5 32t-38 36t-35 30t-42.5 31.5t-41 22.5t-49 21l8 64q157 120 289 120q96 0 144 -44.5t48 -110.5q0 -53 -31 -107.5t-89 -99.5q70 -48 144 -48h47v-73h-59q-109 0 -203 75 q-140 -75 -336 -75zM136 334q31 -12 63 -33.5t51 -38t54.5 -49.5t48.5 -45q87 67 87 148q0 43 -28 70.5t-83 27.5q-79 0 -193 -80zM266 609q0 22 16 38t38 16q23 0 39 -16t16 -38q0 -23 -16.5 -39t-38.5 -16t-38 16.5t-16 38.5z" />
<glyph unicode="&#x641;" horiz-adv-x="951" arabic-form="final" d="M951 73v-73h-528q-185 0 -267 72.5t-82 218.5q0 96 32 167l99 16q-39 -76 -39 -172q0 -118 58 -173.5t201 -55.5h54q-64 46 -64 164q0 105 66 174.5t176 69.5q102 0 162.5 -56.5t60.5 -176.5q0 -55 -20 -103t-57 -75q50 3 86 3h62zM787 244q0 79 -35 121.5t-103 42.5 q-59 0 -100 -42t-41 -123q0 -82 36 -126t104 -44q60 0 99.5 43.5t39.5 127.5zM597 609q0 22 16 38t38 16q23 0 39 -16t16 -38q0 -23 -16 -39t-39 -16q-22 0 -38 16.5t-16 38.5z" />
<glyph unicode="&#x641;" horiz-adv-x="619" arabic-form="initial" d="M539 0h-554q-19 0 -39.5 10.5t-20.5 26.5q0 15 21 25.5t39 10.5h106l58 -5q-74 47 -74 169q0 103 66 173.5t184 70.5q106 0 160 -57.5t54 -166.5v-257zM449 73v169q0 166 -132 166q-69 0 -109 -45t-40 -121q0 -86 43.5 -127.5t138.5 -41.5h99zM260 609q0 22 16 38t38 16 q23 0 39 -16t16 -38q0 -23 -16.5 -39t-38.5 -16t-38 16.5t-16 38.5z" />
<glyph unicode="&#x641;" horiz-adv-x="608" arabic-form="medial" d="M608 0h-623q-19 0 -39.5 10.5t-20.5 26.5q0 15 21 25.5t39 10.5h82l71 -3q-66 49 -66 167q0 105 66 174.5t176 69.5q102 0 162.5 -56.5t60.5 -176.5q0 -55 -20 -103t-57 -75q50 3 87 3h61v-73zM306 73q60 0 99 43.5t39 127.5q0 79 -35 121.5t-103 42.5q-59 0 -99.5 -41.5 t-40.5 -122.5q0 -83 36 -127t104 -44zM254 611q0 22 16 38t38 16q23 0 39 -16t16 -38q0 -23 -16.5 -39t-38.5 -16t-38 16.5t-16 38.5z" />
<glyph unicode="&#x642;" horiz-adv-x="932" arabic-form="final" d="M802 446v-373h130v-73h-130v-238q-164 -13 -302 -13q-230 0 -331.5 72t-101.5 231q0 98 24 186l95 18q-27 -99 -27 -194q0 -130 80 -185t274 -55q42 0 92 2t79 4l28 2v170h-100q-263 0 -263 234q0 105 65.5 176t186.5 71q49 0 99 -8.5t76 -17.5zM712 73v312 q-48 23 -121 23q-69 0 -109 -45t-40 -120q0 -87 43.5 -128.5t139.5 -41.5h87zM468 610q0 22 15 37t37 15t37 -15t15 -37t-15 -37t-37 -15t-37 15t-15 37zM613 610q0 22 15 37t37 15q21 0 36.5 -15t15.5 -37q0 -21 -15 -36.5t-37 -15.5t-37 15t-15 37z" />
<glyph unicode="&#x642;" horiz-adv-x="619" arabic-form="initial" d="M539 0h-554q-19 0 -39.5 10.5t-20.5 26.5q0 15 21 25.5t39 10.5h106l58 -5q-74 47 -74 169q0 103 66 173.5t184 70.5q106 0 160 -57.5t54 -166.5v-257zM449 73v169q0 166 -132 166q-69 0 -109 -45t-40 -121q0 -86 43.5 -127.5t138.5 -41.5h99zM190 610q0 22 15 37t37 15 t37 -15t15 -37t-15 -37t-37 -15t-37 15t-15 37zM335 610q0 22 15 37t37 15q21 0 36.5 -15t15.5 -37q0 -21 -15 -36.5t-37 -15.5t-37 15t-15 37z" />
<glyph unicode="&#x642;" horiz-adv-x="608" arabic-form="medial" d="M608 0h-623q-19 0 -39.5 10.5t-20.5 26.5q0 15 21 25.5t39 10.5h82l71 -3q-66 49 -66 167q0 105 66 174.5t176 69.5q102 0 162.5 -56.5t60.5 -176.5q0 -55 -20 -103t-57 -75q50 3 87 3h61v-73zM306 73q60 0 99 43.5t39 127.5q0 79 -35 121.5t-103 42.5q-59 0 -99.5 -41.5 t-40.5 -122.5q0 -83 36 -127t104 -44zM184 610q0 22 15 37t37 15t37 -15t15 -37t-15 -37t-37 -15t-37 15t-15 37zM329 610q0 22 15 37t37 15q21 0 36.5 -15t15.5 -37q0 -21 -15 -36.5t-37 -15.5t-37 15t-15 37z" />
<glyph unicode="&#x643;" horiz-adv-x="897" arabic-form="final" d="M423 0q-185 0 -267 72.5t-82 218.5q0 96 32 167l99 16q-39 -76 -39 -172q0 -119 59 -174t210 -55h240v632h92v-632h130v-73h-474zM323 407v55q37 0 71 -6q-31 14 -31 50q0 39 32.5 67.5t96.5 28.5q24 0 54 -5l-10 -54q-45 5 -50 5q-56 0 -56 -41q0 -45 79 -45h56v-55 h-242z" />
<glyph unicode="&#x643;" horiz-adv-x="459" arabic-form="initial" d="M375 0h-390q-19 0 -39.5 10.5t-20.5 26.5q0 15 21 25.5t39 10.5h299q-2 144 -65 224t-197 118v68l379 238v-93l-272 -166q123 -51 184.5 -146.5t61.5 -264.5v-51z" />
<glyph unicode="&#x643;" horiz-adv-x="449" arabic-form="medial" d="M449 0h-464q-19 0 -39.5 10.5t-20.5 26.5q0 15 21 25.5t39 10.5h299q-2 144 -65 224t-197 118v68l379 238v-93l-272 -166q119 -50 180.5 -140.5t65.5 -248.5h74v-73z" />
<glyph unicode="&#x644;" horiz-adv-x="682" arabic-form="final" d="M467 51v654h92v-632h122v-73h-125q-13 -117 -77.5 -174t-166.5 -57q-111 0 -178 67t-67 212q0 102 24 190l95 18q-27 -99 -27 -199q0 -117 46 -166t116 -49q146 0 146 209z" />
<glyph unicode="&#x644;" arabic-form="initial" d="M221 0h-236q-19 0 -39.5 10.5t-20.5 26.5q0 15 21 25.5t39 10.5h144v632h92v-705z" />
<glyph unicode="&#x644;" horiz-adv-x="351" arabic-form="medial" d="M351 0h-366q-19 0 -39.5 10.5t-20.5 26.5q0 15 21 25.5t39 10.5h144v632h92v-632h130v-73z" />
<glyph unicode="&#x645;" horiz-adv-x="817" arabic-form="final" d="M521 0q-248 0 -261 211h-29q-53 0 -71.5 -34t-6.5 -111l52 -326h-90l-50 318q-16 105 25.5 165.5t145.5 60.5h28q14 87 77.5 142t167.5 55q107 0 160.5 -57.5t53.5 -166.5v-184h94v-73h-296zM633 73v169q0 166 -132 166q-69 0 -109 -45.5t-40 -120.5q0 -86 43.5 -127.5 t138.5 -41.5h99z" />
<glyph unicode="&#x645;" horiz-adv-x="619" arabic-form="initial" d="M539 0h-554q-19 0 -39.5 10.5t-20.5 26.5q0 15 21 25.5t39 10.5h106l58 -5q-74 47 -74 169q0 103 66 173.5t184 70.5q106 0 160 -57.5t54 -166.5v-257zM449 73v169q0 166 -132 166q-69 0 -109 -45t-40 -121q0 -86 43.5 -127.5t138.5 -41.5h99z" />
<glyph unicode="&#x645;" horiz-adv-x="675" arabic-form="medial" d="M386 0q-102 0 -152.5 23.5t-78.5 70.5q-12 -43 -48 -68.5t-96 -25.5h-26q-19 0 -39.5 10.5t-20.5 26.5q0 15 21 25.5t39 10.5h11q55 0 84.5 35.5t29.5 128.5q0 103 66 173.5t184 70.5q106 0 160 -57.5t54 -166.5v-184h101v-73h-289zM484 73v169q0 166 -132 166 q-69 0 -109 -45t-40 -121q0 -86 43.5 -127.5t138.5 -41.5h99z" />
<glyph unicode="&#x646;" horiz-adv-x="709" arabic-form="final" d="M579 470v-397h129v-73h-132q-22 -231 -261 -231q-112 0 -180 67t-68 212q0 102 24 190l95 18q-27 -99 -27 -199q0 -117 47.5 -166t117.5 -49q163 0 163 203v425h92zM260 419q0 22 16 38t38 16q23 0 39 -16t16 -38q0 -23 -16.5 -39t-38.5 -16t-38 16.5t-16 38.5z" />
<glyph unicode="&#x646;" arabic-form="initial" d="M221 0h-236q-19 0 -39.5 10.5t-20.5 26.5q0 15 21 25.5t39 10.5h144v397h92v-470zM121 609q0 22 16 38t38 16q23 0 39 -16t16 -38q0 -23 -16 -39t-39 -16q-22 0 -38 16.5t-16 38.5z" />
<glyph unicode="&#x646;" horiz-adv-x="351" arabic-form="medial" d="M351 0h-366q-19 0 -39.5 10.5t-20.5 26.5q0 15 21 25.5t39 10.5h144v397h92v-397h130v-73zM121 609q0 22 16 38t38 16q23 0 39 -16t16 -38q0 -23 -16 -39t-39 -16q-22 0 -38 16.5t-16 38.5z" />
<glyph unicode="&#x647;" horiz-adv-x="648" arabic-form="final" d="M648 0h-320q-262 0 -262 234q0 105 65 176t187 71q49 0 99 -8.5t76 -17.5l26 -9v-373h129v-73zM429 73v312q-49 23 -121 23q-69 0 -109 -45t-40 -120q0 -87 43.5 -128.5t138.5 -41.5h88z" />
<glyph unicode="&#x647;" horiz-adv-x="764" arabic-form="initial" d="M686 0h-701q-19 0 -39.5 10.5t-20.5 26.5q0 15 21 25.5t39 10.5h124q6 0 12 -0.5t11 -0.5t8.5 -0.5t5.5 -1.5h3q-3 2 -11 10t-18 31t-10 50q0 76 50.5 121t134.5 45q90 0 133.5 -58.5t43.5 -156.5v-39h125v20q0 184 -71.5 265t-227.5 81q-98 0 -213 -36l-10 72 q118 36 235 36q186 0 281 -99.5t95 -318.5v-93zM392 71v39q0 150 -104 150q-46 0 -71.5 -24t-25.5 -66q0 -50 31.5 -74.5t80.5 -24.5h89z" />
<glyph unicode="&#x647;" horiz-adv-x="758" arabic-form="medial" d="M758 0h-773q-19 0 -39.5 10.5t-20.5 26.5q0 15 21 25.5t39 10.5h124q6 0 12 -0.5t11 -0.5t8.5 -0.5t5.5 -1.5h3q-3 2 -11 10t-18 31t-10 50q0 76 50.5 121t134.5 45q90 0 133.5 -58.5t43.5 -156.5v-39h125v20q0 184 -71.5 265t-227.5 81q-98 0 -213 -36l-10 72 q118 36 235 36q186 0 281 -99.5t95 -318.5v-20h72v-73zM392 71v39q0 150 -104 150q-46 0 -71.5 -24t-25.5 -66q0 -50 31.5 -74.5t80.5 -24.5h89z" />
<glyph unicode="&#x648;" horiz-adv-x="648" arabic-form="final" d="M228 -253q-34 0 -73 3.5t-61 7.5l-22 4l6 78q84 -20 160 -20q191 0 191 156v24h-101q-262 0 -262 234q0 105 65 176t187 71q49 0 99 -8.5t76 -17.5l26 -9v-373h129v-73h-129v-19q0 -46 -16 -86.5t-48.5 -74.5t-91 -53.5t-135.5 -19.5zM429 73v312q-49 23 -121 23 q-69 0 -109 -45t-40 -120q0 -87 43.5 -128.5t138.5 -41.5h88z" />
<glyph unicode="&#x649;" horiz-adv-x="1027" arabic-form="final" d="M610 0h-187q-185 0 -267 72.5t-82 218.5q0 96 32 167l99 16q-39 -76 -39 -172q0 -119 59 -174t210 -55h86v389q87 19 182 19q120 0 171.5 -55t51.5 -163v-190h101v-73h-191v251q0 84 -33 120.5t-109 36.5q-18 0 -39 -2t-33 -4l-12 -2v-400z" />
<glyph unicode="&#x64a;" horiz-adv-x="1027" arabic-form="final" d="M610 0h-187q-185 0 -267 72.5t-82 218.5q0 96 32 167l99 16q-39 -76 -39 -172q0 -119 59 -174t210 -55h86v389q87 19 182 19q120 0 171.5 -55t51.5 -163v-190h101v-73h-191v251q0 84 -33 120.5t-109 36.5q-18 0 -39 -2t-33 -4l-12 -2v-400zM276 -144q0 22 15 37.5 t37 15.5t37 -15.5t15 -37.5q0 -21 -15 -36.5t-37 -15.5t-37 15.5t-15 36.5zM421 -144q0 22 15 37.5t37 15.5q21 0 36.5 -15.5t15.5 -37.5q0 -21 -15 -36.5t-37 -15.5t-37 15.5t-15 36.5z" />
<glyph unicode="&#x64a;" arabic-form="initial" d="M221 0h-236q-19 0 -39.5 10.5t-20.5 26.5q0 15 21 25.5t39 10.5h144v397h92v-470zM48 -144q0 22 15 37.5t37 15.5t37 -15.5t15 -37.5q0 -21 -15 -36.5t-37 -15.5t-37 15.5t-15 36.5zM193 -144q0 22 15 37.5t37 15.5q21 0 36.5 -15.5t15.5 -37.5q0 -21 -15 -36.5 t-37 -15.5t-37 15.5t-15 36.5z" />
<glyph unicode="&#x64a;" horiz-adv-x="351" arabic-form="medial" d="M-15 0q-19 0 -39.5 10.5t-20.5 26.5q0 15 21 25.5t39 10.5h144v397h92v-397h130v-73h-366zM50 -144q0 22 15 37.5t37 15.5t37 -15.5t15 -37.5q0 -21 -15 -36.5t-37 -15.5t-37 15.5t-15 36.5zM195 -144q0 22 15 37.5t37 15.5q21 0 36.5 -15.5t15.5 -37.5q0 -21 -15 -36.5 t-37 -15.5t-37 15.5t-15 36.5z" />
<glyph unicode="&#xd;" horiz-adv-x="500" />
<glyph unicode=" "  horiz-adv-x="218" />
<glyph unicode="&#x09;" horiz-adv-x="218" />
<glyph unicode="&#xa0;" horiz-adv-x="218" />
<glyph unicode="!" d="M222 703l-15 -535h-75l-16 535h106zM229 50q0 -25 -17.5 -42t-42.5 -17q-26 0 -43.5 17t-17.5 42t18 42.5t43 17.5t42.5 -17.5t17.5 -42.5z" />
<glyph unicode="&#x22;" horiz-adv-x="366" d="M314 699l-15 -230h-66l-14 230h95zM147 699l-14 -230h-67l-14 230h95z" />
<glyph unicode="#" horiz-adv-x="577" d="M544 429h-96l-19 -177h91v-62h-98l-20 -190h-72l20 190h-154l-20 -190h-72l20 190h-91v62h97l20 177h-93v62h99l19 184h73l-20 -184h153l20 184h73l-20 -184h90v-62zM375 429h-153l-19 -177h153z" />
<glyph unicode="$" horiz-adv-x="489" d="M435 178q0 -69 -45 -119t-123 -64v-130h-67v126q-65 1 -124 15l6 84q57 -22 131 -22q58 0 93 24t35 74q0 37 -29 61.5t-70.5 40t-83.5 34.5t-71 56.5t-29 93.5q0 65 44 111.5t117 56.5v105h66v-101q52 -1 105 -12l-5 -80q-62 18 -113 18q-64 0 -93.5 -25t-29.5 -62 q0 -35 29.5 -59.5t71.5 -41t84 -36t71.5 -56.5t29.5 -92z" />
<glyph unicode="%" horiz-adv-x="750" d="M706 152q0 -71 -41.5 -116t-108.5 -45q-141 0 -141 152q0 70 41.5 115t108.5 45q141 0 141 -151zM651 653l-497 -673l-58 40l497 674zM334 535q0 -72 -41 -117.5t-109 -45.5q-70 0 -105 40t-35 113q0 70 41.5 115t108.5 45q140 0 140 -150zM632 146q0 97 -72 97 q-32 0 -51.5 -25.5t-19.5 -68.5q0 -98 74 -98q30 0 49.5 26t19.5 69zM261 528q0 97 -73 97q-31 0 -50.5 -26t-19.5 -68q0 -99 73 -99q31 0 50.5 26.5t19.5 69.5z" />
<glyph unicode="&#x26;" horiz-adv-x="795" d="M739 50l-58 -69q-79 54 -142 106q-109 -96 -264 -96q-105 0 -162 54t-57 140q0 64 35 114t104 104q-52 60 -72.5 100.5t-20.5 81.5q0 64 47.5 107.5t130.5 43.5q76 0 118 -37.5t42 -97.5q0 -52 -29 -98.5t-95 -97.5q101 -108 220 -204v-1q75 106 68 247h90 q5 -171 -92 -296q81 -63 137 -101zM351 592q0 33 -20 54t-60 21q-35 0 -57.5 -22t-22.5 -56q0 -49 73 -133q87 70 87 136zM475 136q-128 106 -229 214q-97 -79 -97 -153q0 -54 39 -92t103 -38q106 0 184 69z" />
<glyph unicode="'" horiz-adv-x="199" d="M147 699l-14 -230h-67l-14 230h95z" />
<glyph unicode="(" horiz-adv-x="303" d="M283 -176l-67 -33q-146 231 -146 493q0 264 147 497l64 -31q-123 -214 -123 -461q0 -255 125 -465z" />
<glyph unicode=")" horiz-adv-x="303" d="M238 289q0 -264 -147 -498l-64 32q123 210 123 461q0 254 -124 465l67 32q145 -231 145 -492z" />
<glyph unicode="*" horiz-adv-x="373" d="M330 535l-34 -58l-90 66l11 -112h-67l12 112l-92 -66l-32 58l103 45l-103 46l33 58l91 -66l-11 112h67l-12 -112l91 66l33 -57l-103 -46z" />
<glyph unicode="+" horiz-adv-x="550" d="M508 260h-191v-201h-85v201h-190v75h190v200h85v-200h191v-75z" />
<glyph unicode="," horiz-adv-x="229" d="M112 114q39 0 56 -36.5t-7.5 -101t-96.5 -130.5l-39 34q86 91 44 144q-22 26 -7 58t50 32z" />
<glyph unicode="-" horiz-adv-x="330" d="M283 250h-236v74h236v-74z" />
<glyph unicode="." horiz-adv-x="229" d="M177 53q0 -26 -18.5 -44t-44.5 -18t-44 18.5t-18 43.5t18 43.5t44 18.5t44.5 -18t18.5 -44z" />
<glyph unicode="/" horiz-adv-x="438" d="M439 757l-350 -918h-86l350 918h86z" />
<glyph unicode="0" horiz-adv-x="585" d="M537 344q0 -173 -70.5 -262.5t-181.5 -89.5q-237 0 -237 339q0 172 71 262t181 90q237 0 237 -339zM441 335q0 273 -148 273q-68 0 -108.5 -65t-40.5 -204q0 -272 148 -272q68 0 108.5 64.5t40.5 203.5z" />
<glyph unicode="1" horiz-adv-x="352" d="M261 0h-93v583l-127 -51l-15 85l162 58h73v-675z" />
<glyph unicode="2" horiz-adv-x="501" d="M453 0h-392v75l125 145q83 93 113.5 152.5t30.5 115.5q0 51 -30.5 83.5t-87.5 32.5q-64 0 -132 -41l-13 82q78 39 169 39t141.5 -51t50.5 -131q0 -70 -37 -141.5t-127 -173.5l-89 -104v-1q80 4 278 4v-86z" />
<glyph unicode="3" horiz-adv-x="489" d="M428 203q0 -92 -73.5 -151.5t-187.5 -59.5q-68 0 -109 11l11 81q40 -14 103 -14q73 0 116 36t43 91t-45 87t-129 32q-25 0 -63 -4v73q213 -6 213 125q0 46 -29 72t-82 26q-60 0 -117 -30l-8 77q72 29 145 29q91 0 138.5 -44t47.5 -113q0 -57 -30.5 -99.5t-83.5 -61.5v-2 q64 -15 102 -57.5t38 -103.5z" />
<glyph unicode="4" horiz-adv-x="544" d="M524 158h-113v-158h-89v158h-299l-6 70l273 447h121v-435h113v-82zM323 239v351h-1l-217 -353q59 2 218 2z" />
<glyph unicode="5" horiz-adv-x="463" d="M426 223q0 -103 -75.5 -166.5t-194.5 -63.5q-58 0 -100 10l11 82q37 -14 96 -14q77 0 122.5 38.5t45.5 101.5q0 126 -195 126q-39 0 -57 -2v340h311v-87l-226 1v-178q130 1 196 -48.5t66 -139.5z" />
<glyph unicode="6" horiz-adv-x="576" d="M528 225q0 -101 -66 -167.5t-171 -66.5q-66 0 -112.5 27t-70 73t-33 92t-9.5 98q0 201 95 301.5t246 100.5q34 0 60 -2v-82q-25 6 -66 6q-191 0 -232 -209l-8 -42l1 -1q55 73 162 73q94 0 149 -55t55 -146zM434 211q0 64 -34.5 102t-96.5 38q-61 0 -99 -38.5t-38 -92.5 q0 -70 35.5 -111.5t98.5 -41.5q59 0 96.5 39.5t37.5 104.5z" />
<glyph unicode="7" horiz-adv-x="455" d="M426 597q-60 -129 -114.5 -293t-84.5 -304h-102q36 150 93.5 316t106.5 273q-31 -2 -300 -2v88h401v-78z" />
<glyph unicode="8" horiz-adv-x="551" d="M493 173q0 -85 -65 -134t-163 -49q-99 0 -154 46.5t-55 122.5q0 57 36.5 100.5t99.5 83.5q-63 36 -94 76t-31 91q0 80 59.5 129t156.5 49q89 0 142.5 -45t53.5 -115q0 -54 -34 -93.5t-96 -80.5q69 -38 106.5 -81t37.5 -100zM386 520q0 41 -29 68t-82 27q-54 0 -85 -26 t-31 -69q0 -38 28.5 -67t88.5 -61q59 37 84.5 66t25.5 62zM398 164q0 45 -34 76t-99 66q-56 -35 -85 -66t-29 -72q0 -47 33 -74.5t91 -27.5q53 0 88 26t35 72z" />
<glyph unicode="9" horiz-adv-x="582" d="M516 394q0 -200 -91.5 -301.5t-250.5 -101.5q-45 0 -81 6v84q40 -11 90 -11q185 0 223 199q3 10 6.5 27t4.5 22l-1 1q-22 -32 -63.5 -52.5t-95.5 -20.5q-93 0 -148 55t-55 148q0 100 65.5 167.5t168.5 67.5q54 0 96 -19t66.5 -48t39.5 -69t20.5 -77t5.5 -77zM414 454 q0 71 -35.5 112.5t-97.5 41.5q-58 0 -95.5 -40t-37.5 -105q0 -63 34 -101.5t96 -38.5q60 0 98 39t38 92z" />
<glyph unicode=":" horiz-adv-x="286" d="M220 346q0 -26 -18 -44t-44 -18t-44 18t-18 44t18 44t44 18t44 -18t18 -44zM220 53q0 -25 -18 -43.5t-44 -18.5t-44 18.5t-18 43.5t18 43.5t44 18.5t44 -18.5t18 -43.5z" />
<glyph unicode=";" horiz-adv-x="286" d="M220 346q0 -26 -18 -44t-44 -18t-44 18t-18 44t18 44t44 18t44 -18t18 -44zM157 114q39 0 56 -36.5t-7.5 -101t-96.5 -130.5l-38 34q85 91 43 144q-22 26 -7 58t50 32z" />
<glyph unicode="&#x3c;" horiz-adv-x="550" d="M446 81l-58 -62l-316 284l316 283l58 -58l-258 -224z" />
<glyph unicode="=" horiz-adv-x="550" d="M494 346h-438v74h438v-74zM494 175h-438v74h438v-74z" />
<glyph unicode="&#x3e;" horiz-adv-x="550" d="M478 303l-316 -284l-58 58l258 225l-258 222l58 62z" />
<glyph unicode="?" horiz-adv-x="445" d="M385 516q0 -38 -15 -70t-36 -52.5t-44.5 -44.5t-40 -45.5t-22.5 -57t8 -78.5h-88q-16 47 -12 85.5t19.5 63.5t38 49.5t43.5 43t35.5 44.5t14.5 53q0 50 -55 83.5t-147 37.5l11 82q134 -4 212 -60t78 -134zM252 50q0 -25 -17.5 -42t-43.5 -17q-25 0 -42.5 17t-17.5 42 t17.5 42.5t42.5 17.5t43 -17.5t18 -42.5z" />
<glyph unicode="@" horiz-adv-x="978" d="M884 406q0 -130 -64 -203.5t-163 -73.5q-58 0 -85 32t-21 77h-3q-14 -37 -57.5 -73t-92.5 -36q-97 0 -97 135q0 117 58.5 192.5t167.5 75.5q70 0 122 -15l-39 -212q-18 -102 60 -102q58 0 94.5 51.5t36.5 146.5q0 51 -16 96t-48 82.5t-88 59.5t-130 22q-148 0 -249 -104 t-101 -265q0 -142 79.5 -222.5t228.5 -80.5q85 0 169 26l13 -73q-92 -29 -192 -29q-180 0 -280.5 99t-100.5 269q0 129 59.5 233t160 161.5t219.5 57.5q172 0 265.5 -94t93.5 -233zM566 463q-24 6 -58 6q-43 0 -74.5 -32.5t-44.5 -74t-13 -82.5q0 -77 43 -77q40 0 78.5 54 t57.5 153z" />
<glyph unicode="A" horiz-adv-x="615" d="M606 0h-103l-55 158h-288l-56 -158h-94l245 675h104zM423 231l-91 254q-23 68 -29 91h-1q-12 -43 -28 -90l-91 -255h240z" />
<glyph unicode="B" horiz-adv-x="570" d="M519 202q0 -37 -13.5 -71t-42 -65t-82 -50t-125.5 -19q-28 0 -89.5 1.5t-81.5 1.5v675q147 3 197 3q107 0 161.5 -42.5t54.5 -119.5q0 -55 -30.5 -97t-85.5 -61v-1q62 -8 99.5 -50.5t37.5 -104.5zM402 501q0 104 -135 104q-38 0 -90 -2v-219q19 -1 61 -1q164 0 164 118z M422 197q0 117 -182 117q-47 0 -63 -1v-237q36 -4 86 -4q79 0 119 34.5t40 90.5z" />
<glyph unicode="C" horiz-adv-x="583" d="M539 28q-87 -35 -186 -35q-156 0 -231.5 88.5t-75.5 239.5q0 163 83 262t248 99q79 0 154 -22l-15 -85q-75 27 -150 27q-110 0 -165 -74t-55 -192q0 -261 229 -261q82 0 148 33z" />
<glyph unicode="D" horiz-adv-x="678" d="M633 345q0 -168 -103.5 -258t-274.5 -90q-36 0 -91.5 1.5t-78.5 1.5v675q24 0 93 1.5t108 1.5q347 0 347 -333zM535 339q0 264 -257 264q-26 0 -101 -3v-520q37 -6 89 -6q124 0 196.5 66.5t72.5 198.5z" />
<glyph unicode="E" horiz-adv-x="502" d="M432 0h-347v675h347v-76h-255v-214h243v-74h-243v-233h255v-78z" />
<glyph unicode="F" horiz-adv-x="469" d="M429 598h-252v-218h238v-74h-238v-306h-92v675h344v-77z" />
<glyph unicode="G" horiz-adv-x="682" d="M601 30q-101 -39 -222 -39q-159 0 -247.5 87.5t-88.5 243.5q0 163 94 262.5t269 99.5q94 0 187 -29l-20 -84q-82 33 -176 33q-128 0 -191.5 -76.5t-63.5 -192.5q0 -126 65.5 -194.5t183.5 -68.5q63 0 119 17v255h91v-314z" />
<glyph unicode="H" horiz-adv-x="698" d="M613 0h-92v311h-344v-311h-92v675h92v-286h344v286h92v-675z" />
<glyph unicode="I" horiz-adv-x="262" d="M177 0h-92v675h92v-675z" />
<glyph unicode="J" horiz-adv-x="329" d="M245 176q0 -183 -169 -183q-35 0 -75 8v81q31 -12 69 -12q43 0 63 24t20 88v493h92v-499z" />
<glyph unicode="K" horiz-adv-x="584" d="M569 0h-125l-267 335v-335h-92v675h92v-318l268 318h114l-286 -327z" />
<glyph unicode="L" horiz-adv-x="426" d="M418 0h-333v675h92v-596h241v-79z" />
<glyph unicode="M" horiz-adv-x="889" d="M841 0h-96l-57 391q-14 100 -21 171h-2q-18 -73 -35 -127l-145 -435h-97l-137 407q-29 88 -43 155h-2q-6 -78 -18 -179l-46 -383h-93l98 675h112l144 -426q23 -71 38 -134h1q28 102 37 129l145 431h115z" />
<glyph unicode="N" horiz-adv-x="708" d="M622 0h-122l-263 433q-46 79 -70 133q7 -124 7 -378v-188h-89v675h122l259 -425q41 -69 74 -137q-7 196 -7 389v173h89v-675z" />
<glyph unicode="O" horiz-adv-x="705" d="M663 346q0 -164 -91.5 -259.5t-228.5 -95.5q-148 0 -224.5 90t-76.5 248q0 164 91.5 259.5t228.5 95.5q148 0 224.5 -90.5t76.5 -247.5zM565 332q0 125 -54 198.5t-158 73.5q-91 0 -152 -69.5t-61 -190.5q0 -126 54 -199t158 -73q91 0 152 69.5t61 190.5z" />
<glyph unicode="P" horiz-adv-x="527" d="M495 482q0 -102 -69 -165.5t-187 -63.5l-62 3v-256h-92v675q89 3 169 3q115 0 178 -52.5t63 -143.5zM400 470q0 133 -157 133l-66 -2v-266q32 -6 70 -6q75 0 114 37.5t39 103.5z" />
<glyph unicode="Q" horiz-adv-x="704" d="M705 -67q-73 -9 -125.5 5.5t-103 33.5t-108.5 19h-25q-148 0 -224.5 90t-76.5 248q0 164 91.5 259.5t228.5 95.5q148 0 224.5 -90.5t76.5 -247.5q0 -108 -42.5 -188.5t-120.5 -114.5q25 0 88 -17.5t117 -11.5v-81zM565 332q0 125 -54 198.5t-158 73.5q-91 0 -152 -69.5 t-61 -190.5q0 -126 54 -199t158 -73q91 0 152 70t61 190z" />
<glyph unicode="R" horiz-adv-x="553" d="M527 0h-117l-221 302h-12v-302h-92v675q69 3 169 3q229 0 229 -175q0 -83 -56.5 -133.5t-141.5 -56.5q42 -51 58 -72zM388 491q0 59 -37.5 86t-112.5 27q-34 0 -61 -3v-229q20 -2 57 -2q72 0 113 33t41 88z" />
<glyph unicode="S" horiz-adv-x="504" d="M455 198q0 -91 -69 -149t-181 -58q-81 0 -148 19l12 88q67 -27 141 -27q64 0 105 28t41 87q0 35 -22.5 60.5t-56.5 39t-73.5 30.5t-73.5 35.5t-56.5 55t-22.5 86.5q0 85 62.5 138t173.5 53q61 0 121 -13l-10 -81q-59 18 -116 18q-67 0 -101.5 -28t-34.5 -77 q0 -40 32 -66.5t77 -43.5t90.5 -37t77.5 -59.5t32 -98.5z" />
<glyph unicode="T" horiz-adv-x="516" d="M499 598h-195v-598h-92v598h-194v77h481v-77z" />
<glyph unicode="U" horiz-adv-x="693" d="M607 258q0 -132 -68.5 -199.5t-200.5 -67.5q-76 0 -128 19.5t-78 55t-36.5 74t-10.5 87.5v448h92v-441q0 -79 36.5 -123.5t131.5 -44.5q90 0 131 42.5t41 142.5v424h90v-417z" />
<glyph unicode="V" horiz-adv-x="617" d="M606 675l-249 -675h-103l-243 675h102l150 -434q29 -82 44 -138h2q15 57 46 145l156 427h95z" />
<glyph unicode="W" horiz-adv-x="952" d="M918 675l-178 -675h-114l-127 454q-13 45 -26 117h-1q-7 -56 -24 -117l-126 -454h-110l-178 675h98l114 -440q18 -74 27 -130h1q11 66 27 125l125 445h104l129 -448q20 -72 27 -120h1q11 64 23 110l117 458h91z" />
<glyph unicode="X" horiz-adv-x="599" d="M582 0h-115l-172 279l-171 -279h-107l222 348l-208 327h106l159 -258l158 258h104l-205 -324z" />
<glyph unicode="Y" horiz-adv-x="537" d="M528 675l-216 -432v-243h-91v243l-211 432h100l107 -227q30 -64 51 -118h1q20 51 58 129l104 216h97z" />
<glyph unicode="Z" horiz-adv-x="539" d="M495 0h-449v68l283 446q31 47 56 81q-66 -2 -149 -2h-180v82h435v-71l-298 -463l-40 -59q21 2 168 2h174v-84z" />
<glyph unicode="[" horiz-adv-x="322" d="M284 -199h-198v970h198v-69h-114v-830h114v-71z" />
<glyph unicode="\" horiz-adv-x="442" d="M448 -161h-86l-350 918h86z" />
<glyph unicode="]" horiz-adv-x="322" d="M236 -199h-198v71h114v830h-114v69h198v-970z" />
<glyph unicode="^" horiz-adv-x="550" d="M474 377l-66 -34l-145 265l-137 -265l-62 33l166 299h72z" />
<glyph unicode="_" horiz-adv-x="550" d="M550 -249h-550v72h550v-72z" />
<glyph unicode="`" horiz-adv-x="369" d="M261 607l-50 -39l-128 142l61 48z" />
<glyph unicode="a" horiz-adv-x="521" d="M438 0h-88q0 64 5 99l-1 1q-19 -48 -64.5 -78.5t-104.5 -30.5q-62 0 -100 37t-38 97q0 81 78 126t220 45v23q0 61 -23.5 89t-81.5 28q-73 0 -150 -36l-17 71q84 35 179 35q100 0 141.5 -44t41.5 -130v-189q0 -77 3 -143zM345 220v13q-210 0 -210 -96q0 -32 21 -53.5 t55 -21.5q58 0 96 48.5t38 109.5z" />
<glyph unicode="b" horiz-adv-x="558" d="M515 272q0 -131 -69.5 -205t-189.5 -74q-95 0 -171 20v717h90v-241q0 -55 -9 -93l2 -1q20 52 64 81.5t100 29.5q88 0 135.5 -60t47.5 -174zM421 264q0 168 -110 168q-63 0 -99.5 -59.5t-36.5 -132.5v-164q37 -12 88 -12q74 0 116 48.5t42 151.5z" />
<glyph unicode="c" horiz-adv-x="436" d="M407 19q-63 -26 -148 -26q-218 0 -218 238q0 124 62.5 198.5t178.5 74.5q71 0 123 -20l-17 -77q-57 22 -113 22q-66 0 -102.5 -50.5t-36.5 -134.5q0 -174 141 -174q65 0 116 24z" />
<glyph unicode="d" horiz-adv-x="557" d="M472 0h-87q0 62 8 101l-2 1q-21 -51 -65 -81t-102 -30q-90 0 -136 62t-46 172q0 130 69 204.5t188 74.5q33 0 83 -5v231h90v-730zM382 257v165q-47 11 -89 11q-157 0 -157 -200q0 -168 110 -168q63 0 99.5 59.5t36.5 132.5z" />
<glyph unicode="e" horiz-adv-x="507" d="M462 302q0 -26 -3 -56h-325q-4 -182 157 -182q75 0 142 29l13 -71q-82 -31 -172 -31q-233 0 -233 255q0 114 60.5 187t163.5 73q99 0 148 -57t49 -147zM370 310q1 60 -28.5 94t-82.5 34q-49 0 -82 -34t-41 -94h234z" />
<glyph unicode="f" horiz-adv-x="349" d="M382 727l-8 -75q-32 11 -73 11q-53 0 -77.5 -31t-24.5 -97v-38h138v-70h-138v-427h-89v427h-103v70h103v37q0 202 190 202q42 0 82 -9z" />
<glyph unicode="g" horiz-adv-x="540" d="M512 -67q0 -80 -74 -134.5t-189 -54.5q-97 0 -153 39t-56 110q0 42 24 77t60 55q-50 21 -50 74q0 56 56 84q-74 43 -74 138q0 77 56.5 131t154.5 54q33 0 70 -9h169v-71h-82q40 -32 40 -91q0 -81 -54 -131t-156 -50q-28 0 -53 7q-32 -15 -32 -42q0 -21 19.5 -29t65.5 -10 l91 -3q81 -3 124 -40t43 -104zM375 328q0 52 -29.5 81.5t-82.5 29.5q-55 0 -86.5 -31.5t-31.5 -80.5q0 -51 30 -79.5t85 -28.5q54 0 84.5 29t30.5 80zM421 -79q0 78 -101 82l-97 3q-21 0 -29 1q-64 -44 -64 -98q0 -43 37 -68t96 -25q74 0 116 29.5t42 75.5z" />
<glyph unicode="h" horiz-adv-x="576" d="M490 0h-89v321q0 55 -19 82.5t-66 27.5q-61 0 -101 -55t-40 -138v-238h-90v730h90v-236q0 -64 -9 -99l2 -1q22 52 67 82t106 30q149 0 149 -159v-347z" />
<glyph unicode="i" horiz-adv-x="259" d="M190 654q0 -24 -17.5 -41t-42.5 -17t-42 16.5t-17 41.5q0 24 17 41.5t42 17.5t42.5 -17t17.5 -42zM175 0h-90v497h90v-497z" />
<glyph unicode="j" horiz-adv-x="266" d="M196 654q0 -24 -17.5 -41t-42.5 -17q-24 0 -41.5 17t-17.5 41t17.5 41.5t41.5 17.5q25 0 42.5 -17t17.5 -42zM181 -55q0 -103 -38 -151t-133 -48q-39 0 -69 9l8 79q33 -12 63 -12q47 0 63.5 24t16.5 91v560h89v-552z" />
<glyph unicode="k" horiz-adv-x="494" d="M474 0h-115l-184 257v-257h-90v730h90v-451l175 218h109l-191 -226z" />
<glyph unicode="l" horiz-adv-x="259" d="M175 0h-90v730h90v-730z" />
<glyph unicode="m" horiz-adv-x="879" d="M794 0h-90v319q0 56 -17.5 84t-63.5 28q-56 0 -97.5 -54t-41.5 -141v-236h-89v320q0 53 -17 82t-64 29q-58 0 -98.5 -55.5t-40.5 -139.5v-236h-90v497h87q0 -63 -7 -105l1 -1q22 53 67.5 84t104.5 31q70 0 101.5 -35t36.5 -78q19 44 62 78.5t108 34.5q148 0 148 -162 v-344z" />
<glyph unicode="n" horiz-adv-x="576" d="M490 0h-89v321q0 55 -19 82.5t-66 27.5q-61 0 -101 -55t-40 -138v-238h-90v497h87q0 -66 -8 -105h2q22 53 67.5 83.5t107.5 30.5q149 0 149 -159v-347z" />
<glyph unicode="o" horiz-adv-x="545" d="M505 257q0 -115 -67 -190.5t-175 -75.5q-105 0 -164 63t-59 190q0 112 66 187t176 75q102 0 162.5 -60.5t60.5 -188.5zM412 252q0 86 -35 132.5t-103 46.5q-59 0 -100 -45.5t-41 -133.5q0 -89 36 -137t104 -48q60 0 99.5 47t39.5 138z" />
<glyph unicode="p" horiz-adv-x="558" d="M515 272q0 -132 -67.5 -205t-188.5 -73q-49 0 -84 6v-247h-90v744h87q0 -64 -8 -101l2 -1q21 52 64.5 81.5t101.5 29.5q88 0 135.5 -60t47.5 -174zM421 264q0 168 -110 168q-63 0 -99.5 -59.5t-36.5 -132.5v-164q39 -12 88 -12q74 0 116 48.5t42 151.5z" />
<glyph unicode="q" horiz-adv-x="558" d="M473 -247h-89v258q0 54 7 89l-2 1q-20 -51 -63.5 -80.5t-98.5 -29.5q-89 0 -136.5 59.5t-47.5 174.5q0 131 69.5 205t192.5 74q89 0 168 -14v-737zM384 258v165q-43 10 -89 10q-157 0 -157 -200q0 -168 109 -168q63 0 100 60t37 133z" />
<glyph unicode="r" horiz-adv-x="354" d="M334 505l-4 -88q-78 13 -116.5 -42t-38.5 -175v-200h-90v497h87q0 -62 -11 -118h2q18 60 60.5 97t110.5 29z" />
<glyph unicode="s" horiz-adv-x="425" d="M375 150q0 -70 -57 -114.5t-152 -44.5q-66 0 -111 13l9 80q48 -20 110 -20q48 0 77.5 20.5t29.5 55.5q0 30 -24 48t-57.5 27.5t-67.5 21.5t-58 42t-24 78q0 66 51 107.5t147 41.5q50 0 96 -11l-7 -73q-50 15 -97 15q-97 0 -97 -71q0 -30 24 -48t58 -27.5t68 -22.5t58 -42 t24 -76z" />
<glyph unicode="t" horiz-adv-x="371" d="M338 3q-53 -11 -100 -11q-75 0 -104 33.5t-29 115.5v286h-102v70h102v162l90 24v-186h139v-70h-139v-254q0 -61 14.5 -82.5t55.5 -21.5q35 0 64 8z" />
<glyph unicode="u" horiz-adv-x="575" d="M490 0h-87q0 66 8 105h-2q-22 -53 -67.5 -83.5t-107.5 -30.5q-149 0 -149 159v347h89v-321q0 -55 19 -82.5t66 -27.5q61 0 101 55t40 138v238h90v-497z" />
<glyph unicode="v" horiz-adv-x="486" d="M476 497l-183 -497h-103l-181 497h100l105 -304q19 -62 29 -101h2q12 48 28 99l107 306h96z" />
<glyph unicode="w" horiz-adv-x="793" d="M777 497l-161 -497h-101l-99 292q-13 41 -28 100h-1q-10 -45 -35 -125l-83 -267h-100l-153 497h100l75 -265q29 -102 36 -130h1q8 39 34 128l85 267h96l86 -264q28 -90 38 -132h1q10 44 34 128l80 268h95z" />
<glyph unicode="x" horiz-adv-x="518" d="M498 0h-117l-125 191l-125 -191h-110l182 249l-173 248h111l122 -187l125 187h102l-172 -245z" />
<glyph unicode="y" horiz-adv-x="480" d="M472 497l-203 -539q-45 -119 -97.5 -166t-137.5 -47q-25 0 -59 6l11 80q26 -8 59 -8q42 0 74 27t58 96l21 54l-189 497h103l93 -258q22 -67 38 -124h1q16 56 50 154l80 228h98z" />
<glyph unicode="z" horiz-adv-x="447" d="M396 0h-348v64l238 354q-56 -2 -131 -2h-102v81h338v-63l-235 -353q54 2 135 2h105v-83z" />
<glyph unicode="{" horiz-adv-x="341" d="M309 -199h-18q-84 0 -120 47.5t-36 147.5v175q0 59 -24 83t-82 27v71q60 3 83 25.5t23 82.5v117q0 194 156 194h18v-69q-52 0 -71.5 -26t-19.5 -96v-116q0 -129 -93 -146v-2q93 -14 93 -148v-174q0 -70 19.5 -96t71.5 -26v-71z" />
<glyph unicode="|" horiz-adv-x="285" d="M177 -247h-71v1000h71v-1000z" />
<glyph unicode="}" horiz-adv-x="338" d="M318 281q-58 -3 -82 -27t-24 -83v-175q0 -100 -36 -147.5t-120 -47.5h-18v71q52 0 71.5 26t19.5 96v174q0 134 93 148v2q-93 12 -93 142v120q0 70 -19.5 96t-71.5 26v69h18q156 0 156 -194v-113q0 -63 23 -86t83 -26v-71z" />
<glyph unicode="~" horiz-adv-x="550" d="M497 564q0 -65 -36 -105.5t-97 -40.5q-37 0 -65 17t-41.5 38t-33.5 38t-43 17q-58 0 -60 -89h-67v10q0 66 36.5 106.5t97.5 40.5q37 0 65 -17.5t41.5 -38t33 -38t42.5 -17.5q58 0 60 89h67v-10z" />
<glyph unicode="&#xa1;" d="M211 447q0 -25 -17.5 -42.5t-42.5 -17.5t-42.5 17.5t-17.5 42.5t17.5 42t42.5 17t42.5 -17t17.5 -42zM204 -206h-107l15 535h76z" />
<glyph unicode="&#xa2;" horiz-adv-x="456" d="M413 65q-47 -21 -107 -27v-106h-70v106q-93 9 -143 70.5t-50 165.5q0 97 52 162.5t141 78.5v92h70v-88q51 -2 105 -20l-8 -78q-52 25 -112 25q-72 0 -113.5 -44.5t-41.5 -123.5q0 -74 36.5 -119t116.5 -45q64 0 117 30z" />
<glyph unicode="&#xa3;" horiz-adv-x="471" d="M442 0h-399v63q56 43 77.5 83.5t21.5 98.5q0 30 -5 76h-107v70h98q-12 76 -12 115q0 86 49.5 132t139.5 46q62 0 105 -14l-16 -76q-46 17 -90 17q-46 0 -72 -25.5t-26 -73.5q0 -34 12 -121h151v-70h-142q4 -36 4 -67q0 -61 -18 -100.5t-65 -79.5q43 5 102 5h192v-79z" />
<glyph unicode="&#xa4;" horiz-adv-x="550" d="M501 109l-66 -49l-80 108q-39 -24 -88 -24q-37 0 -68 13l-72 -97l-67 49l73 89q-40 48 -40 131q0 77 45 125l-77 96l65 48l74 -101q33 18 82 18q47 0 80 -17l75 101l64 -49l-77 -97q33 -43 33 -118q0 -71 -40 -121zM376 334q0 114 -104 114q-42 0 -70 -31.5t-28 -84.5 q0 -55 24.5 -88t78.5 -33q41 0 70 33t29 90z" />
<glyph unicode="&#xa5;" horiz-adv-x="591" d="M557 675l-194 -384h142v-61h-164v-70h164v-61h-164v-99h-91v99h-165v61h165v70h-165v61h143l-190 384h100l107 -222q29 -58 51 -121h1q23 64 58 132l106 211h96z" />
<glyph unicode="&#xa6;" horiz-adv-x="285" d="M177 385h-71v368h71v-368zM177 -247h-71v378h71v-378z" />
<glyph unicode="&#xa7;" horiz-adv-x="520" d="M434 235q0 -82 -79 -142q39 -51 39 -104q0 -64 -48.5 -108.5t-140.5 -44.5q-42 0 -79 10l7 76q39 -12 75 -12q43 0 67 21t24 55q0 29 -23.5 60.5t-56.5 62t-66 63.5t-56.5 76.5t-23.5 90.5q0 82 78 142q-39 50 -39 104q0 66 46 108.5t134 42.5q40 0 75 -9l-6 -75 q-36 10 -70 10q-84 0 -84 -72q0 -28 23.5 -60t56.5 -63t66.5 -64.5t57 -77.5t23.5 -90zM349 223q0 27 -15.5 56.5t-30.5 46.5t-52.5 54.5l-50.5 50.5q-43 -32 -43 -80q0 -18 6.5 -36.5t14 -31.5t26.5 -35t28.5 -32t37.5 -37t37 -36q42 29 42 80z" />
<glyph unicode="&#xa8;" horiz-adv-x="546" d="M414 654q0 -22 -16 -38t-38 -16t-37.5 16t-15.5 38t15.5 38t37.5 16t38 -16t16 -38zM222 654q0 -22 -15.5 -38t-37.5 -16q-23 0 -38.5 16t-15.5 38t15.5 38t38.5 16q22 0 37.5 -16t15.5 -38z" />
<glyph unicode="&#xa9;" horiz-adv-x="756" d="M712 336q0 -140 -98 -238t-238 -98q-142 0 -238.5 97t-96.5 237q0 139 98 237t237 98q140 0 238 -97t98 -236zM641 334q0 110 -77.5 188.5t-187.5 78.5t-187 -77.5t-77 -187.5t77.5 -189t186.5 -79q110 0 187.5 78t77.5 188zM475 175q-46 -17 -99 -17q-79 0 -118.5 46.5 t-39.5 125.5t43 131t131 52q43 0 79 -13l-8 -64q-32 16 -72 16q-95 0 -95 -119q0 -111 90 -111q43 0 79 15z" />
<glyph unicode="&#xaa;" horiz-adv-x="388" d="M320 343h-74q0 32 5 53l-2 1q-10 -25 -39 -43t-62 -18q-50 0 -74.5 23.5t-24.5 62.5q0 57 52.5 90t143.5 32v18q0 60 -65 60q-53 0 -105 -26l-6 66q53 21 122 21t98.5 -31t29.5 -80v-142q0 -70 1 -87zM345 211h-288v71h288v-71zM245 484v9q-123 0 -123 -59 q0 -17 11.5 -27.5t31.5 -10.5q37 0 58.5 30.5t21.5 57.5z" />
<glyph unicode="&#xab;" horiz-adv-x="509" d="M437 153l-69 -37l-122 177l124 180l66 -36l-100 -143zM237 150l-70 -36l-113 179l115 182l67 -35l-92 -146z" />
<glyph unicode="&#xac;" horiz-adv-x="550" d="M482 103h-79v157h-361v75h440v-232z" />
<glyph unicode="&#xad;" horiz-adv-x="330" d="M283 250h-236v74h236v-74z" />
<glyph unicode="&#xae;" horiz-adv-x="562" d="M501 528q0 -89 -65 -153.5t-155 -64.5q-93 0 -156.5 63t-63.5 155q0 91 64.5 155t155.5 64q93 0 156.5 -63t63.5 -156zM441 527q0 67 -47 115.5t-113 48.5q-67 0 -114 -47t-47 -114t47.5 -115.5t113.5 -48.5q67 0 113.5 47t46.5 114zM372 416h-59l-53 95h-5v-95h-48v228 h79q78 0 78 -60q0 -57 -54 -65q9 -11 20 -31zM313 578q0 28 -36 28h-22v-63h14q22 0 33 10.5t11 24.5z" />
<glyph unicode="&#xaf;" horiz-adv-x="395" d="M323 617h-251v66h251v-66z" />
<glyph unicode="&#xb0;" horiz-adv-x="376" d="M319 611q0 -57 -41 -92.5t-96 -35.5q-59 0 -94 34t-35 92q0 57 41 92.5t94 35.5q64 0 97.5 -35.5t33.5 -90.5zM249 611q0 27 -15.5 47.5t-47.5 20.5q-27 0 -44.5 -19.5t-17.5 -49.5q0 -31 17 -49.5t44 -18.5q28 0 46 19.5t18 49.5z" />
<glyph unicode="&#xb1;" horiz-adv-x="550" d="M508 335h-190v-196h-86v196h-190v76h190v195h86v-195h190v-76zM506 0h-462v76h462v-76z" />
<glyph unicode="&#xb2;" horiz-adv-x="357" d="M319 364h-280v62l93 93q81 81 81 134q0 32 -17.5 50.5t-52.5 18.5q-46 0 -87 -23l-12 64q56 26 118 26q66 0 103 -32.5t37 -88.5q0 -45 -20 -83t-64 -83l-69 -69q45 2 170 2v-71z" />
<glyph unicode="&#xb3;" horiz-adv-x="347" d="M301 491q0 -60 -49.5 -97t-128.5 -37q-40 0 -87 9l10 63q33 -11 79 -11q41 0 65 18.5t24 48.5q0 37 -38 54t-111 8v59q136 0 136 70q0 25 -17.5 39t-49.5 14q-45 0 -83 -18l-9 59q54 19 110 19q63 0 98.5 -26.5t35.5 -76.5q0 -72 -68 -97q39 -8 61 -35t22 -63z" />
<glyph unicode="&#xb4;" horiz-adv-x="388" d="M292 711l-131 -143l-48 38l117 152z" />
<glyph unicode="&#xb5;" horiz-adv-x="586" d="M550 -5q-28 -2 -38 -2q-104 0 -99 111h-1q-20 -52 -62 -82t-100 -30t-84 35l11 -274h-92v744h90v-328q0 -103 84 -103q63 0 102.5 54t39.5 140v237h89v-325q0 -65 12 -84.5t48 -19.5v-73z" />
<glyph unicode="&#xb6;" horiz-adv-x="576" d="M516 605h-71v-701h-154v70h73v701h152v-70zM289 248q-109 -1 -166 60t-57 155q0 93 62 152.5t161 59.5v-427z" />
<glyph unicode="&#xb7;" horiz-adv-x="234" d="M182 297q0 -26 -19 -45t-46 -19t-45.5 19t-18.5 45q0 27 18.5 46t45.5 19t46 -19t19 -46z" />
<glyph unicode="&#xb8;" horiz-adv-x="400" d="M259 -41q69 -90 -22 -194h-73q27 34 38 59t6.5 51t-27.5 55z" />
<glyph unicode="&#xb9;" horiz-adv-x="276" d="M204 364h-86v340l-89 -34l-14 69l118 42h71v-417z" />
<glyph unicode="&#xba;" horiz-adv-x="419" d="M368 515q0 -80 -47.5 -129t-121.5 -49q-152 0 -152 173q0 77 46.5 125.5t118.5 48.5q68 0 112 -38.5t44 -130.5zM354 211h-292v71h292v-71zM288 515q0 102 -80 102q-34 0 -57.5 -26t-23.5 -79q0 -109 78 -109q38 0 60.5 28t22.5 84z" />
<glyph unicode="&#xbb;" horiz-adv-x="509" d="M455 296l-115 -182l-68 35l93 146l-92 144l70 36zM263 296l-125 -180l-66 36l101 143l-100 141l68 37z" />
<glyph unicode="&#xbc;" horiz-adv-x="821" d="M204 364h-86v340l-89 -34l-14 69l118 42h71v-417zM735 763l-639 -904l-58 40l639 905zM784 -13h-67v-93h-79v93h-195l-6 56l163 268h117v-257h67v-67zM637 53v202l-121 -203q33 1 121 1z" />
<glyph unicode="&#xbd;" horiz-adv-x="843" d="M735 763l-639 -904l-58 40l639 905zM204 364h-86v340l-89 -34l-14 69l118 42h71v-417zM794 -106h-280v62l94 93q80 82 80 134q0 32 -17.5 50.5t-52.5 18.5q-46 0 -87 -23l-12 64q56 26 119 26q65 0 102 -32.5t37 -88.5q0 -82 -83 -166l-70 -69q45 2 170 2v-71z" />
<glyph unicode="&#xbe;" horiz-adv-x="842" d="M756 763l-639 -904l-58 40l638 905zM301 491q0 -60 -49.5 -97t-128.5 -37q-40 0 -87 9l10 63q33 -11 79 -11q41 0 65 18.5t24 48.5q0 37 -38 54t-111 8v59q136 0 136 70q0 25 -17.5 39t-49.5 14q-45 0 -83 -18l-9 59q54 19 110 19q63 0 98.5 -26.5t35.5 -76.5 q0 -72 -68 -97q39 -8 61 -35t22 -63zM804 -13h-66v-93h-79v93h-195l-6 56l163 268h117v-257h66v-67zM658 53v202l-121 -203q32 1 121 1z" />
<glyph unicode="&#xbf;" horiz-adv-x="445" d="M314 447q0 -25 -17.5 -42.5t-42.5 -17.5t-42.5 17.5t-17.5 42.5t17.5 42t42.5 17t42.5 -17t17.5 -42zM362 -131l-12 -82q-134 4 -212 60t-78 134q0 38 15 70t36 52.5t44.5 44.5t40.5 45.5t22.5 57t-7.5 78.5h88q16 -47 11.5 -85.5t-20 -63.5t-38 -49.5t-43.5 -43 t-35.5 -44.5t-14.5 -53q0 -50 55.5 -83.5t147.5 -37.5z" />
<glyph unicode="&#xc0;" horiz-adv-x="615" d="M606 0h-103l-55 158h-288l-56 -158h-94l245 675h104zM423 231l-91 254q-23 68 -29 91h-1q-12 -43 -28 -90l-91 -255h240zM371 777l-18 -52l-189 56l25 70z" />
<glyph unicode="&#xc1;" horiz-adv-x="615" d="M606 0h-103l-55 158h-288l-56 -158h-94l245 675h104zM423 231l-91 254q-23 68 -29 91h-1q-12 -43 -28 -90l-91 -255h240zM443 781l-190 -56l-18 52l182 74z" />
<glyph unicode="&#xc2;" horiz-adv-x="615" d="M606 0h-103l-55 158h-288l-56 -158h-94l245 675h104zM423 231l-91 254q-23 68 -29 91h-1q-12 -43 -28 -90l-91 -255h240zM464 776l-26 -52l-136 61l-131 -61l-23 49l157 84z" />
<glyph unicode="&#xc3;" horiz-adv-x="615" d="M606 0h-103l-55 158h-288l-56 -158h-94l245 675h104zM423 231l-91 254q-23 68 -29 91h-1q-12 -43 -28 -90l-91 -255h240zM485 808q-43 -73 -112 -73q-37 0 -75.5 26t-56.5 26q-36 0 -63 -45l-46 33q41 74 112 74q37 0 75.5 -26t56.5 -26q34 0 63 44z" />
<glyph unicode="&#xc4;" horiz-adv-x="615" d="M606 0h-103l-55 158h-288l-56 -158h-94l245 675h104zM423 231l-91 254q-23 68 -29 91h-1q-12 -43 -28 -90l-91 -255h240zM465 780q0 -22 -15.5 -37t-37.5 -15t-37 15t-15 37t15 37.5t37 15.5t37.5 -15.5t15.5 -37.5zM251 780q0 -22 -15 -37t-37 -15t-37.5 15t-15.5 37 t15 37.5t38 15.5q22 0 37 -15.5t15 -37.5z" />
<glyph unicode="&#xc5;" horiz-adv-x="615" d="M606 0h-103l-55 158h-288l-56 -158h-94l245 675h104zM423 231l-91 254q-23 68 -29 91h-1q-12 -43 -28 -90l-91 -255h240zM417 816q0 -42 -32 -73t-75 -31q-45 0 -75.5 28.5t-30.5 72.5q0 43 32 73.5t75 30.5q45 0 75.5 -29t30.5 -72zM361 815q0 21 -14.5 36t-35.5 15 t-36 -15t-15 -36t15 -36.5t36 -15.5t35.5 15.5t14.5 36.5z" />
<glyph unicode="&#xc6;" horiz-adv-x="780" d="M711 0h-349v163h-224l-85 -163h-96l359 675h386v-76h-250v-214h241v-74h-241v-233h259v-78zM362 236v362h-2q-31 -68 -66 -137l-122 -225h190z" />
<glyph unicode="&#xc7;" horiz-adv-x="583" d="M539 28q-87 -35 -186 -35q-156 0 -231.5 88.5t-75.5 239.5q0 163 83 262t248 99q79 0 154 -22l-15 -85q-75 27 -150 27q-110 0 -165 -74t-55 -192q0 -261 229 -261q82 0 148 33zM359 -41q69 -90 -22 -194h-73q27 34 38 59t6.5 51t-27.5 55z" />
<glyph unicode="&#xc8;" horiz-adv-x="502" d="M432 0h-347v675h347v-76h-255v-214h243v-74h-243v-233h255v-78zM324 777l-18 -52l-189 56l25 70z" />
<glyph unicode="&#xc9;" horiz-adv-x="502" d="M432 0h-347v675h347v-76h-255v-214h243v-74h-243v-233h255v-78zM394 781l-190 -56l-18 52l182 74z" />
<glyph unicode="&#xca;" horiz-adv-x="502" d="M432 0h-347v675h347v-76h-255v-214h243v-74h-243v-233h255v-78zM416 776l-26 -52l-136 61l-131 -61l-23 49l157 84z" />
<glyph unicode="&#xcb;" horiz-adv-x="502" d="M432 0h-347v675h347v-76h-255v-214h243v-74h-243v-233h255v-78zM413 780q0 -22 -15.5 -37t-37.5 -15t-37 15t-15 37t15 37.5t37 15.5t37.5 -15.5t15.5 -37.5zM199 780q0 -22 -15 -37t-37 -15t-37.5 15t-15.5 37t15 37.5t38 15.5q22 0 37 -15.5t15 -37.5z" />
<glyph unicode="&#xcc;" horiz-adv-x="262" d="M177 0h-92v675h92v-675zM195 777l-18 -52l-189 56l25 70z" />
<glyph unicode="&#xcd;" horiz-adv-x="262" d="M177 0h-92v675h92v-675zM276 781l-190 -56l-18 52l182 74z" />
<glyph unicode="&#xce;" horiz-adv-x="262" d="M177 0h-92v675h92v-675zM290 776l-26 -52l-136 61l-131 -61l-23 49l157 84z" />
<glyph unicode="&#xcf;" horiz-adv-x="262" d="M177 0h-92v675h92v-675zM290 780q0 -22 -15.5 -37t-37.5 -15t-37 15t-15 37t15 37.5t37 15.5t37.5 -15.5t15.5 -37.5zM76 780q0 -22 -15 -37t-37 -15t-37.5 15t-15.5 37t15.5 37.5t37.5 15.5t37 -15.5t15 -37.5z" />
<glyph unicode="&#xd0;" horiz-adv-x="687" d="M641 345q0 -168 -102.5 -258t-274.5 -90q-36 0 -92 1.5t-78 1.5v312h-91v70h91v293q23 0 92.5 1.5t108.5 1.5q346 0 346 -333zM544 339q0 264 -258 264q-26 0 -101 -3v-218h143v-70h-143v-232q37 -6 89 -6q124 0 197 66.5t73 198.5z" />
<glyph unicode="&#xd1;" horiz-adv-x="708" d="M622 0h-122l-263 433q-46 79 -70 133q7 -124 7 -378v-188h-89v675h122l259 -425q41 -69 74 -137q-7 196 -7 389v173h89v-675zM531 808q-43 -73 -112 -73q-37 0 -75.5 26t-56.5 26q-36 0 -63 -45l-46 33q41 74 112 74q37 0 75.5 -26t56.5 -26q34 0 63 44z" />
<glyph unicode="&#xd2;" horiz-adv-x="705" d="M663 346q0 -164 -91.5 -259.5t-228.5 -95.5q-148 0 -224.5 90t-76.5 248q0 164 91.5 259.5t228.5 95.5q148 0 224.5 -90.5t76.5 -247.5zM565 332q0 125 -54 198.5t-158 73.5q-91 0 -152 -69.5t-61 -190.5q0 -126 54 -199t158 -73q91 0 152 69.5t61 190.5zM412 777 l-18 -52l-189 56l25 70z" />
<glyph unicode="&#xd3;" horiz-adv-x="705" d="M663 346q0 -164 -91.5 -259.5t-228.5 -95.5q-148 0 -224.5 90t-76.5 248q0 164 91.5 259.5t228.5 95.5q148 0 224.5 -90.5t76.5 -247.5zM565 332q0 125 -54 198.5t-158 73.5q-91 0 -152 -69.5t-61 -190.5q0 -126 54 -199t158 -73q91 0 152 69.5t61 190.5zM507 781 l-190 -56l-18 52l182 74z" />
<glyph unicode="&#xd4;" horiz-adv-x="705" d="M663 346q0 -164 -91.5 -259.5t-228.5 -95.5q-148 0 -224.5 90t-76.5 248q0 164 91.5 259.5t228.5 95.5q148 0 224.5 -90.5t76.5 -247.5zM565 332q0 125 -54 198.5t-158 73.5q-91 0 -152 -69.5t-61 -190.5q0 -126 54 -199t158 -73q91 0 152 69.5t61 190.5zM516 776 l-26 -52l-136 61l-131 -61l-23 49l157 84z" />
<glyph unicode="&#xd5;" horiz-adv-x="705" d="M663 346q0 -164 -91.5 -259.5t-228.5 -95.5q-148 0 -224.5 90t-76.5 248q0 164 91.5 259.5t228.5 95.5q148 0 224.5 -90.5t76.5 -247.5zM565 332q0 125 -54 198.5t-158 73.5q-91 0 -152 -69.5t-61 -190.5q0 -126 54 -199t158 -73q91 0 152 69.5t61 190.5zM529 808 q-43 -73 -112 -73q-37 0 -75.5 26t-56.5 26q-36 0 -63 -45l-46 33q41 74 112 74q37 0 75.5 -26t56.5 -26q34 0 63 44z" />
<glyph unicode="&#xd6;" horiz-adv-x="705" d="M663 346q0 -164 -91.5 -259.5t-228.5 -95.5q-148 0 -224.5 90t-76.5 248q0 164 91.5 259.5t228.5 95.5q148 0 224.5 -90.5t76.5 -247.5zM565 332q0 125 -54 198.5t-158 73.5q-91 0 -152 -69.5t-61 -190.5q0 -126 54 -199t158 -73q91 0 152 69.5t61 190.5zM516 780 q0 -22 -15.5 -37t-37.5 -15t-37 15t-15 37t15 37.5t37 15.5t37.5 -15.5t15.5 -37.5zM302 780q0 -22 -15 -37t-37 -15t-37.5 15t-15.5 37t15.5 37.5t37.5 15.5t37 -15.5t15 -37.5z" />
<glyph unicode="&#xd7;" horiz-adv-x="550" d="M495 132l-55 -55l-167 168l-168 -168l-50 50l168 168l-168 167l55 55l167 -168l168 168l50 -50l-168 -168z" />
<glyph unicode="&#xd8;" horiz-adv-x="705" d="M663 342q0 -164 -91 -257.5t-232 -93.5q-52 0 -92 10l-42 -103l-67 28l43 103q-140 76 -140 301q0 163 92 258.5t228 95.5q48 0 87 -9l40 100l67 -28l-40 -97q147 -74 147 -308zM567 333q0 172 -89 235l-195 -489q26 -9 64 -9q96 0 158 68t62 195zM415 599q-26 7 -63 7 q-90 0 -152.5 -69.5t-62.5 -192.5q0 -166 84 -230z" />
<glyph unicode="&#xd9;" horiz-adv-x="693" d="M607 258q0 -132 -68.5 -199.5t-200.5 -67.5q-76 0 -128 19.5t-78 55t-36.5 74t-10.5 87.5v448h92v-441q0 -79 36.5 -123.5t131.5 -44.5q90 0 131 42.5t41 142.5v424h90v-417zM395 777l-18 -52l-189 56l25 70z" />
<glyph unicode="&#xda;" horiz-adv-x="693" d="M607 258q0 -132 -68.5 -199.5t-200.5 -67.5q-76 0 -128 19.5t-78 55t-36.5 74t-10.5 87.5v448h92v-441q0 -79 36.5 -123.5t131.5 -44.5q90 0 131 42.5t41 142.5v424h90v-417zM520 781l-190 -56l-18 52l182 74z" />
<glyph unicode="&#xdb;" horiz-adv-x="693" d="M607 258q0 -132 -68.5 -199.5t-200.5 -67.5q-76 0 -128 19.5t-78 55t-36.5 74t-10.5 87.5v448h92v-441q0 -79 36.5 -123.5t131.5 -44.5q90 0 131 42.5t41 142.5v424h90v-417zM507 776l-26 -52l-136 61l-131 -61l-23 49l157 84z" />
<glyph unicode="&#xdc;" horiz-adv-x="693" d="M607 258q0 -132 -68.5 -199.5t-200.5 -67.5q-76 0 -128 19.5t-78 55t-36.5 74t-10.5 87.5v448h92v-441q0 -79 36.5 -123.5t131.5 -44.5q90 0 131 42.5t41 142.5v424h90v-417zM505 780q0 -22 -15.5 -37t-37.5 -15t-37 15t-15 37t15 37.5t37 15.5t37.5 -15.5t15.5 -37.5z M291 780q0 -22 -15 -37t-37 -15t-37.5 15t-15.5 37t15 37.5t38 15.5q22 0 37 -15.5t15 -37.5z" />
<glyph unicode="&#xdd;" horiz-adv-x="537" d="M528 675l-216 -432v-243h-91v243l-211 432h100l107 -227q30 -64 51 -118h1q20 51 58 129l104 216h97zM438 781l-190 -56l-18 52l182 74z" />
<glyph unicode="&#xde;" horiz-adv-x="530" d="M511 367q0 -104 -76 -168t-198 -64q-41 0 -60 3v-138h-92v675h92v-102q54 2 83 2q119 0 185 -53.5t66 -154.5zM417 360q0 140 -174 140q-29 0 -66 -5v-281q27 -4 69 -4q80 0 125.5 39t45.5 111z" />
<glyph unicode="&#xdf;" horiz-adv-x="592" d="M552 149q0 -70 -54.5 -114t-144.5 -44q-57 0 -99 10l6 79q48 -17 92 -17q54 0 81 21.5t27 53.5q0 29 -20.5 50.5t-49 37t-57.5 33.5t-49.5 49.5t-20.5 74.5q0 33 14 58.5t33.5 41t39.5 30t34 34.5t14 45q0 36 -26 54.5t-69 18.5q-128 0 -128 -160v-505h-90v500 q0 122 61 178.5t162 56.5q85 0 133.5 -37t48.5 -98q0 -37 -14 -64.5t-33.5 -42.5t-39.5 -28t-34 -30.5t-14 -41.5q0 -28 20.5 -49.5t49.5 -37t57.5 -34t49 -49.5t20.5 -74z" />
<glyph unicode="&#xe0;" horiz-adv-x="521" d="M438 0h-88q0 64 5 99l-1 1q-19 -48 -64.5 -78.5t-104.5 -30.5q-62 0 -100 37t-38 97q0 81 78 126t220 45v23q0 61 -23.5 89t-81.5 28q-73 0 -150 -36l-17 71q84 35 179 35q100 0 141.5 -44t41.5 -130v-189q0 -77 3 -143zM345 220v13q-210 0 -210 -96q0 -32 21 -53.5 t55 -21.5q58 0 96 48.5t38 109.5zM306 607l-50 -39l-128 142l61 48z" />
<glyph unicode="&#xe1;" horiz-adv-x="521" d="M438 0h-88q0 64 5 99l-1 1q-19 -48 -64.5 -78.5t-104.5 -30.5q-62 0 -100 37t-38 97q0 81 78 126t220 45v23q0 61 -23.5 89t-81.5 28q-73 0 -150 -36l-17 71q84 35 179 35q100 0 141.5 -44t41.5 -130v-189q0 -77 3 -143zM345 220v13q-210 0 -210 -96q0 -32 21 -53.5 t55 -21.5q58 0 96 48.5t38 109.5zM387 711l-131 -143l-48 38l117 152z" />
<glyph unicode="&#xe2;" horiz-adv-x="521" d="M438 0h-88q0 64 5 99l-1 1q-19 -48 -64.5 -78.5t-104.5 -30.5q-62 0 -100 37t-38 97q0 81 78 126t220 45v23q0 61 -23.5 89t-81.5 28q-73 0 -150 -36l-17 71q84 35 179 35q100 0 141.5 -44t41.5 -130v-189q0 -77 3 -143zM345 220v13q-210 0 -210 -96q0 -32 21 -53.5 t55 -21.5q58 0 96 48.5t38 109.5zM397 614l-40 -43l-99 84l-100 -84l-38 41l139 132z" />
<glyph unicode="&#xe3;" horiz-adv-x="521" d="M438 0h-88q0 64 5 99l-1 1q-19 -48 -64.5 -78.5t-104.5 -30.5q-62 0 -100 37t-38 97q0 81 78 126t220 45v23q0 61 -23.5 89t-81.5 28q-73 0 -150 -36l-17 71q84 35 179 35q100 0 141.5 -44t41.5 -130v-189q0 -77 3 -143zM345 220v13q-210 0 -210 -96q0 -32 21 -53.5 t55 -21.5q58 0 96 48.5t38 109.5zM426 671q-41 -78 -109 -78q-35 0 -72.5 27.5t-55.5 27.5q-33 0 -59 -47l-45 36q41 77 109 77q35 0 72.5 -27.5t55.5 -27.5q33 0 59 47z" />
<glyph unicode="&#xe4;" horiz-adv-x="521" d="M438 0h-88q0 64 5 99l-1 1q-19 -48 -64.5 -78.5t-104.5 -30.5q-62 0 -100 37t-38 97q0 81 78 126t220 45v23q0 61 -23.5 89t-81.5 28q-73 0 -150 -36l-17 71q84 35 179 35q100 0 141.5 -44t41.5 -130v-189q0 -77 3 -143zM345 220v13q-210 0 -210 -96q0 -32 21 -53.5 t55 -21.5q58 0 96 48.5t38 109.5zM406 654q0 -22 -16 -38t-38 -16t-37.5 16t-15.5 38t15.5 38t37.5 16t38 -16t16 -38zM214 654q0 -22 -15.5 -38t-37.5 -16q-23 0 -38.5 16t-15.5 38t15.5 38t38.5 16q22 0 37.5 -16t15.5 -38z" />
<glyph unicode="&#xe5;" horiz-adv-x="521" d="M438 0h-88q0 64 5 99l-1 1q-19 -48 -64.5 -78.5t-104.5 -30.5q-62 0 -100 37t-38 97q0 81 78 126t220 45v23q0 61 -23.5 89t-81.5 28q-73 0 -150 -36l-17 71q84 35 179 35q100 0 141.5 -44t41.5 -130v-189q0 -77 3 -143zM345 220v13q-210 0 -210 -96q0 -32 21 -53.5 t55 -21.5q58 0 96 48.5t38 109.5zM375 664q0 -45 -33.5 -77.5t-80.5 -32.5q-48 0 -81 30.5t-33 77.5q0 46 34.5 78.5t80.5 32.5q48 0 80.5 -31t32.5 -78zM317 663q0 23 -16 39.5t-39 16.5t-39.5 -16.5t-16.5 -39.5t16.5 -40t39.5 -17t39 17t16 40z" />
<glyph unicode="&#xe6;" horiz-adv-x="807" d="M761 297q0 -7 -2 -47h-326q-6 -186 157 -186q76 0 142 30l13 -72q-77 -31 -172 -31q-80 0 -130 31.5t-68 82.5h-1q-24 -49 -73 -81.5t-116 -32.5q-62 0 -100 37t-38 97q0 81 78 126t220 45v33q0 54 -25 80.5t-84 26.5q-74 0 -144 -37l-19 73q82 34 178 34q117 0 153 -77 h1q24 34 65.5 55.5t92.5 21.5q99 0 148.5 -58.5t49.5 -150.5zM669 314q1 57 -28.5 90.5t-81.5 33.5q-49 0 -82 -33.5t-41 -90.5h233zM345 220v14q-210 0 -210 -97q0 -32 20.5 -53.5t54.5 -21.5q58 0 96.5 48t38.5 110z" />
<glyph unicode="&#xe7;" horiz-adv-x="436" d="M407 19q-63 -26 -148 -26q-218 0 -218 238q0 124 62.5 198.5t178.5 74.5q71 0 123 -20l-17 -77q-57 22 -113 22q-66 0 -102.5 -50.5t-36.5 -134.5q0 -174 141 -174q65 0 116 24zM275 -41q69 -90 -22 -194h-73q27 34 38 59t6.5 51t-27.5 55z" />
<glyph unicode="&#xe8;" horiz-adv-x="507" d="M462 302q0 -26 -3 -56h-325q-4 -182 157 -182q75 0 142 29l13 -71q-82 -31 -172 -31q-233 0 -233 255q0 114 60.5 187t163.5 73q99 0 148 -57t49 -147zM370 310q1 60 -28.5 94t-82.5 34q-49 0 -82 -34t-41 -94h234zM308 607l-50 -39l-128 142l61 48z" />
<glyph unicode="&#xe9;" horiz-adv-x="507" d="M462 302q0 -26 -3 -56h-325q-4 -182 157 -182q75 0 142 29l13 -71q-82 -31 -172 -31q-233 0 -233 255q0 114 60.5 187t163.5 73q99 0 148 -57t49 -147zM370 310q1 60 -28.5 94t-82.5 34q-49 0 -82 -34t-41 -94h234zM387 711l-131 -143l-48 38l117 152z" />
<glyph unicode="&#xea;" horiz-adv-x="507" d="M462 302q0 -26 -3 -56h-325q-4 -182 157 -182q75 0 142 29l13 -71q-82 -31 -172 -31q-233 0 -233 255q0 114 60.5 187t163.5 73q99 0 148 -57t49 -147zM370 310q1 60 -28.5 94t-82.5 34q-49 0 -82 -34t-41 -94h234zM401 614l-40 -43l-99 84l-100 -84l-38 41l139 132z" />
<glyph unicode="&#xeb;" horiz-adv-x="507" d="M462 302q0 -26 -3 -56h-325q-4 -182 157 -182q75 0 142 29l13 -71q-82 -31 -172 -31q-233 0 -233 255q0 114 60.5 187t163.5 73q99 0 148 -57t49 -147zM370 310q1 60 -28.5 94t-82.5 34q-49 0 -82 -34t-41 -94h234zM411 654q0 -22 -15.5 -38t-38.5 -16q-22 0 -37.5 16 t-15.5 38t15.5 38t37.5 16q23 0 38.5 -16t15.5 -38zM219 654q0 -22 -15.5 -38t-37.5 -16t-38 16t-16 38t16 38t38 16t37.5 -16t15.5 -38z" />
<glyph unicode="&#xec;" horiz-adv-x="259" d="M175 0h-90v497h90v-497zM184 607l-50 -39l-128 142l61 48z" />
<glyph unicode="&#xed;" horiz-adv-x="259" d="M175 0h-90v497h90v-497zM254 711l-131 -143l-48 38l117 152z" />
<glyph unicode="&#xee;" horiz-adv-x="259" d="M175 0h-90v497h90v-497zM255 614l-39 -43l-87 84l-88 -84l-37 41l126 131z" />
<glyph unicode="&#xef;" horiz-adv-x="259" d="M175 0h-90v497h90v-497zM271 654q0 -22 -15.5 -38t-38.5 -16q-22 0 -37.5 15.5t-15.5 38.5t15.5 38.5t37.5 15.5q23 0 38.5 -16t15.5 -38zM96 654q0 -22 -15.5 -38t-37.5 -16q-23 0 -38.5 15.5t-15.5 38.5t15.5 38.5t38.5 15.5q22 0 37.5 -16t15.5 -38z" />
<glyph unicode="&#xf0;" horiz-adv-x="546" d="M503 273q0 -138 -66 -210t-171 -72q-104 0 -165 64t-61 189q0 113 64.5 187t170.5 74q77 0 105 -46q-6 13 -17.5 31.5t-12.5 20.5q-24 43 -64 86l-102 -46l-38 47l94 42q-34 32 -81 66l90 38q43 -35 75 -68l101 44l37 -46l-96 -43q137 -166 137 -358zM410 261 q0 79 -35.5 124.5t-102.5 45.5q-59 0 -99 -46t-40 -134t38 -136t105 -48q60 0 97 48t37 146z" />
<glyph unicode="&#xf1;" horiz-adv-x="576" d="M490 0h-89v321q0 55 -19 82.5t-66 27.5q-61 0 -101 -55t-40 -138v-238h-90v497h87q0 -66 -8 -105h2q22 53 67.5 83.5t107.5 30.5q149 0 149 -159v-347zM461 671q-41 -78 -109 -78q-35 0 -72.5 27.5t-55.5 27.5q-33 0 -59 -47l-45 36q41 77 109 77q35 0 72.5 -27.5 t55.5 -27.5q33 0 59 47z" />
<glyph unicode="&#xf2;" horiz-adv-x="545" d="M505 257q0 -115 -67 -190.5t-175 -75.5q-105 0 -164 63t-59 190q0 112 66 187t176 75q102 0 162.5 -60.5t60.5 -188.5zM412 252q0 86 -35 132.5t-103 46.5q-59 0 -100 -45.5t-41 -133.5q0 -89 36 -137t104 -48q60 0 99.5 47t39.5 138zM325 607l-50 -39l-128 142l61 48z " />
<glyph unicode="&#xf3;" horiz-adv-x="545" d="M505 257q0 -115 -67 -190.5t-175 -75.5q-105 0 -164 63t-59 190q0 112 66 187t176 75q102 0 162.5 -60.5t60.5 -188.5zM412 252q0 86 -35 132.5t-103 46.5q-59 0 -100 -45.5t-41 -133.5q0 -89 36 -137t104 -48q60 0 99.5 47t39.5 138zM401 711l-131 -143l-48 38l117 152z " />
<glyph unicode="&#xf4;" horiz-adv-x="545" d="M505 257q0 -115 -67 -190.5t-175 -75.5q-105 0 -164 63t-59 190q0 112 66 187t176 75q102 0 162.5 -60.5t60.5 -188.5zM412 252q0 86 -35 132.5t-103 46.5q-59 0 -100 -45.5t-41 -133.5q0 -89 36 -137t104 -48q60 0 99.5 47t39.5 138zM414 614l-40 -43l-99 84l-100 -84 l-38 41l139 132z" />
<glyph unicode="&#xf5;" horiz-adv-x="545" d="M505 257q0 -115 -67 -190.5t-175 -75.5q-105 0 -164 63t-59 190q0 112 66 187t176 75q102 0 162.5 -60.5t60.5 -188.5zM412 252q0 86 -35 132.5t-103 46.5q-59 0 -100 -45.5t-41 -133.5q0 -89 36 -137t104 -48q60 0 99.5 47t39.5 138zM449 671q-41 -78 -109 -78 q-35 0 -72.5 27.5t-55.5 27.5q-33 0 -59 -47l-45 36q41 77 109 77q35 0 72.5 -27.5t55.5 -27.5q33 0 59 47z" />
<glyph unicode="&#xf6;" horiz-adv-x="545" d="M505 257q0 -115 -67 -190.5t-175 -75.5q-105 0 -164 63t-59 190q0 112 66 187t176 75q102 0 162.5 -60.5t60.5 -188.5zM412 252q0 86 -35 132.5t-103 46.5q-59 0 -100 -45.5t-41 -133.5q0 -89 36 -137t104 -48q60 0 99.5 47t39.5 138zM424 654q0 -22 -16 -38t-38 -16 t-37.5 16t-15.5 38t15.5 38t37.5 16t38 -16t16 -38zM232 654q0 -22 -15.5 -38t-37.5 -16q-23 0 -38.5 16t-15.5 38t15.5 38t38.5 16q22 0 37.5 -16t15.5 -38z" />
<glyph unicode="&#xf7;" horiz-adv-x="550" d="M334 498q0 -25 -18 -42.5t-43 -17.5t-42.5 17.5t-17.5 42.5t17.5 42.5t42.5 17.5t43 -17.5t18 -42.5zM508 260h-466v75h466v-75zM334 96q0 -25 -18 -42.5t-43 -17.5t-42.5 17.5t-17.5 42.5t17.5 42.5t42.5 17.5t43 -17.5t18 -42.5z" />
</font>
</defs>
</svg>
