<?xml version="1.0" encoding="utf-8"?>
<!-- Generator: Adobe Illustrator 19.0.0, SVG Export Plug-In . SVG Version: 6.00 Build 0)  -->
<svg version="1.1" id="Layer_1" xmlns="http://www.w3.org/2000/svg" xmlns:xlink="http://www.w3.org/1999/xlink" x="0px" y="0px"
	 viewBox="0 0 150 133" style="enable-background:new 0 0 150 133;" xml:space="preserve">
<style type="text/css">
	.st0{fill:#FFFFFF;}
	.st1{fill:#022169;}
	.st2{fill:#6CC04A;}
</style>
<g id="XMLID_221_">
	<rect id="XMLID_220_" class="st0" width="150" height="133"/>
	<g id="XMLID_222_">
		<path id="XMLID_491_" class="st1" d="M35.2,76.5h6.9v-3.5h-6.9V76.5z M69.8,48.9h-3.5v6.9h3.5V48.9z M52.5,62.7H56V52.3h3.5v13.8
			H49V48.9h-3.5v17.3h-3.5V48.9h-3.5v17.3h-3.5V48.9H24.8v13.8h6.9v3.5H21.3V48.9H11v20.8h51.9V48.9H52.5V62.7z M17.9,66.2h-3.5
			V52.3h3.5V66.2z M31.7,59.2h-3.5v-6.9h3.5V59.2z M73.3,62.7h6.9v3.5H69.8v-6.9h-3.5v10.4h17.3V48.9H73.3V62.7z M76.7,52.3h3.5v6.9
			h-3.5V52.3z M87.1,62.7H94v3.5h-6.9v3.5h10.4V48.9H87.1V62.7z M90.6,52.3H94v6.9h-3.5V52.3z M118.2,48.9h-3.5v3.5h3.5V48.9z
			 M128.6,48.9v17.3h-3.5V48.9h-3.5v17.3h-3.5V55.8h-3.5v10.4h-3.5V48.9h-10.4v13.8h3.5V52.3h3.5v13.8h-6.9v3.5H139V48.9H128.6z
			 M135.5,66.2h-3.5V52.3h3.5V66.2z M31.7,41.9h-3.5v3.5h3.5V41.9z M59.4,41.9H56v3.5h3.5V41.9z"/>
		<polygon id="XMLID_205_" class="st2" points="139,90.4 139,86.9 14.4,86.9 14.4,83.5 139,83.5 139,73.1 45.6,73.1 45.6,76.5 
			135.5,76.5 135.5,80 11,80 11,90.4 		"/>
		<rect id="XMLID_204_" x="11" y="73.1" class="st2" width="20.8" height="3.5"/>
		<polygon id="XMLID_203_" class="st2" points="11,28.1 139,28.1 139,38.5 14.4,38.5 14.4,41.9 24.8,41.9 24.8,45.4 11,45.4 11,35 
			135.5,35 135.5,31.6 11,31.6 		"/>
		<rect id="XMLID_202_" x="35.2" y="41.9" class="st2" width="17.3" height="3.5"/>
		<rect id="XMLID_201_" x="62.9" y="41.9" class="st2" width="76.1" height="3.5"/>
		<path id="XMLID_481_" class="st1" d="M82.6,110v-1c-0.1,0.3-0.3,0.5-0.6,0.7c-0.3,0.1-0.6,0.2-0.9,0.2c-0.6,0-1.1-0.2-1.5-0.6
			c-0.4-0.4-0.6-0.9-0.6-1.5c0-0.6,0.2-1.1,0.6-1.5c0.4-0.4,0.9-0.6,1.5-0.6c0.6,0,1,0.3,1.4,0.8c0.1-0.2,0.2-0.5,0.3-0.7h0.9l0.3,0
			v0.1c-0.2,0.1-0.4,0.3-0.4,0.6c0,0.1,0,0.4,0,0.9v2.3h0.9v0.4H82.6z M79.7,104.4c0-0.2,0.1-0.3,0.2-0.4c0.1-0.1,0.3-0.2,0.4-0.2
			c0.2,0,0.3,0.1,0.4,0.2c0.1,0.1,0.2,0.3,0.2,0.4c0,0.2-0.1,0.3-0.2,0.4c-0.1,0.1-0.3,0.2-0.4,0.2c-0.2,0-0.3-0.1-0.4-0.2
			C79.8,104.8,79.7,104.6,79.7,104.4 M80.1,107.8c0,0.5,0.1,0.8,0.3,1.1c0.2,0.4,0.6,0.5,1,0.5c0.4,0,0.8-0.2,1-0.5
			c0.2-0.3,0.3-0.7,0.3-1.1c0-0.5-0.1-0.9-0.3-1.1c-0.2-0.3-0.6-0.5-1-0.5c-0.4,0-0.8,0.2-1,0.5C80.2,106.9,80.1,107.3,80.1,107.8
			 M81.3,104.4c0-0.2,0.1-0.3,0.2-0.4c0.1-0.1,0.3-0.2,0.4-0.2c0.2,0,0.3,0.1,0.4,0.2c0.1,0.1,0.2,0.3,0.2,0.4
			c0,0.2-0.1,0.3-0.2,0.4c-0.1,0.1-0.3,0.2-0.4,0.2c-0.2,0-0.3-0.1-0.4-0.2C81.4,104.8,81.3,104.6,81.3,104.4"/>
		<path id="XMLID_477_" class="st1" d="M86.4,107.7c0-0.6,0.2-1.2,0.7-1.6c0.4-0.4,1-0.6,1.6-0.6c0.7,0,1.2,0.2,1.6,0.6
			c0.4,0.4,0.7,0.9,0.7,1.6c0,0.6-0.2,1.2-0.6,1.6c-0.1,0.1-0.2,0.1-0.3,0.2h1.5v0.4h-7.2v-0.4h2.9c-0.1-0.1-0.2-0.1-0.3-0.2
			C86.6,108.9,86.4,108.4,86.4,107.7 M87.4,107.8c0,0.9,0.2,1.5,0.6,1.8h1.5c0.4-0.3,0.6-0.9,0.6-1.8c0-0.5-0.1-1-0.3-1.3
			c-0.2-0.4-0.6-0.7-1.1-0.7c-0.5,0-0.8,0.2-1.1,0.7C87.5,106.8,87.4,107.2,87.4,107.8 M88,104.2c0-0.2,0.1-0.3,0.2-0.4
			c0.1-0.1,0.3-0.2,0.4-0.2c0.2,0,0.3,0.1,0.4,0.2c0.1,0.1,0.2,0.3,0.2,0.4c0,0.2-0.1,0.3-0.2,0.4c-0.1,0.1-0.3,0.2-0.4,0.2
			c-0.2,0-0.3-0.1-0.4-0.2C88.1,104.5,88,104.4,88,104.2"/>
		<path id="XMLID_473_" class="st1" d="M94.5,109.5h0.7v0.4h-3.8v-0.4h2.1v-2.6c0-0.3,0-0.5-0.1-0.6c-0.1-0.2-0.2-0.3-0.5-0.3v-0.1
			c0.6-0.1,1.1-0.2,1.6-0.3c0,0.6-0.1,1.1-0.1,1.7V109.5z M91.8,111.1c0-0.2,0.1-0.3,0.2-0.4c0.1-0.1,0.3-0.2,0.4-0.2
			c0.2,0,0.3,0.1,0.4,0.2c0.1,0.1,0.2,0.3,0.2,0.4c0,0.2-0.1,0.3-0.2,0.4c-0.1,0.1-0.3,0.2-0.4,0.2c-0.2,0-0.3-0.1-0.4-0.2
			C91.9,111.4,91.8,111.2,91.8,111.1 M93.3,111.1c0-0.2,0.1-0.3,0.2-0.4c0.1-0.1,0.3-0.2,0.4-0.2c0.2,0,0.3,0.1,0.4,0.2
			c0.1,0.1,0.2,0.3,0.2,0.4c0,0.2-0.1,0.3-0.2,0.4c-0.1,0.1-0.3,0.2-0.4,0.2c-0.2,0-0.3-0.1-0.4-0.2
			C93.3,111.4,93.3,111.2,93.3,111.1"/>
		<path id="XMLID_190_" class="st1" d="M96.9,109.5h1.8v0.4h-3.6v-0.4H96v-5.8c0-0.3,0-0.5,0-0.6c-0.1-0.2-0.2-0.3-0.4-0.3v-0.1
			c0.4,0,0.9-0.1,1.4-0.3c0,0.5,0,1.1,0,1.7V109.5z"/>
		<path id="XMLID_469_" class="st1" d="M103,110.1l-0.2,0.1c-0.1-0.1-0.3-0.1-0.4-0.2h-5.1v-0.4h4.6c-0.3-0.4-0.5-0.9-0.6-1.5
			c-0.1-1-0.3-1.7-0.5-1.9c-0.2-0.2-0.3-0.3-0.5-0.3c-0.2,0-0.4,0.1-0.5,0.3c-0.1,0.1-0.1,0.3-0.1,0.6l-0.1,0l-0.7-0.9
			c0.1,0,0.2-0.1,0.3-0.1c0.4-0.1,0.7-0.2,1-0.2c0.4,0,0.7,0.1,1,0.2c0.4,0.2,0.7,0.5,0.9,1c0.1,0.6,0.1,1.1,0.2,1.6
			C102.5,109.2,102.7,109.7,103,110.1 M99.4,104.3c0-0.2,0.1-0.3,0.2-0.4c0.1-0.1,0.3-0.2,0.4-0.2c0.2,0,0.3,0.1,0.4,0.2
			c0.1,0.1,0.2,0.3,0.2,0.4c0,0.2-0.1,0.3-0.2,0.4c-0.1,0.1-0.3,0.2-0.4,0.2c-0.2,0-0.3-0.1-0.4-0.2
			C99.4,104.7,99.4,104.5,99.4,104.3"/>
		<path id="XMLID_464_" class="st1" d="M108.4,109.5h4.7c0.5,0,0.8-0.2,0.8-0.7v-0.9c-0.1,0.3-0.3,0.5-0.6,0.7
			c-0.3,0.1-0.6,0.2-0.9,0.2c-0.6,0-1.1-0.2-1.5-0.6c-0.4-0.4-0.6-0.9-0.6-1.5c0-0.6,0.2-1.1,0.6-1.5c0.4-0.4,0.9-0.6,1.5-0.6
			c0.6,0,1,0.3,1.4,0.8c0.1-0.2,0.2-0.5,0.3-0.7l0.9,0l0.3,0v0.1c-0.2,0.1-0.4,0.3-0.4,0.6c0,0.1,0,0.4,0,0.9v2.6
			c0,0.8-0.5,1.2-1.5,1.2h-5.7c-0.8,0-1.4-0.1-1.8-0.2c-0.5-0.2-0.8-0.5-0.9-0.9c0-0.1,0-0.2,0-0.3c0-0.4,0.2-0.8,0.7-1.2
			c0.4-0.3,0.8-0.6,1.2-0.7c0.4-0.2,0.9-0.2,1.4-0.2c0.4,0,0.8,0.1,1.1,0.1l-0.1,1.1l-0.1,0c-0.2-0.4-0.4-0.7-0.8-0.8
			c-0.2-0.1-0.4-0.1-0.6-0.1c-0.4,0-0.8,0.2-1.2,0.6c-0.3,0.3-0.4,0.7-0.4,1.1c0,0.3,0.1,0.5,0.3,0.7c0.2,0.2,0.4,0.3,0.5,0.3
			C107.3,109.5,107.8,109.5,108.4,109.5 M111,103.2c0-0.2,0.1-0.3,0.2-0.4c0.1-0.1,0.3-0.2,0.4-0.2c0.2,0,0.3,0.1,0.4,0.2
			c0.1,0.1,0.2,0.3,0.2,0.4c0,0.2-0.1,0.3-0.2,0.4c-0.1,0.1-0.3,0.2-0.4,0.2c-0.2,0-0.3-0.1-0.4-0.2
			C111.1,103.5,111,103.4,111,103.2 M111.3,106.7c0,0.5,0.1,0.8,0.3,1.1c0.2,0.3,0.6,0.5,1,0.5c0.4,0,0.8-0.2,1-0.5
			c0.2-0.3,0.3-0.7,0.3-1.1c0-0.5-0.1-0.9-0.3-1.1c-0.2-0.4-0.6-0.5-1-0.5c-0.4,0-0.8,0.2-1,0.5
			C111.4,105.8,111.3,106.2,111.3,106.7 M112.6,103.2c0-0.2,0.1-0.3,0.2-0.4c0.1-0.1,0.3-0.2,0.4-0.2c0.2,0,0.3,0.1,0.4,0.2
			c0.1,0.1,0.2,0.3,0.2,0.4c0,0.2-0.1,0.3-0.2,0.4c-0.1,0.1-0.3,0.2-0.4,0.2c-0.2,0-0.3-0.1-0.4-0.2
			C112.6,103.5,112.6,103.4,112.6,103.2"/>
		<path id="XMLID_461_" class="st1" d="M116.5,111.4l0.4-1.1h0.1c0.2,1,0.7,1.5,1.6,1.5c1.2,0,1.8-1,1.8-2.9v-0.1
			c-0.3,0.8-0.9,1.2-1.8,1.2c-0.6,0-1.1-0.1-1.5-0.4c-0.5-0.3-0.7-0.8-0.7-1.3c0-0.6,0.2-1.2,0.7-1.5c0.4-0.3,1-0.5,1.7-0.5
			c0.8,0,1.5,0.3,2,0.8c0.5,0.5,0.7,1.2,0.7,2c0,0.9-0.2,1.6-0.8,2.2c-0.5,0.6-1.2,0.8-2.1,0.8C117.8,112,117.1,111.8,116.5,111.4
			 M120.2,108.1c0-0.5-0.1-0.9-0.3-1.2c-0.2-0.3-0.6-0.5-1.1-0.5c-0.5,0-0.9,0.2-1.1,0.5c-0.2,0.3-0.3,0.7-0.3,1.2
			c0,0.5,0.1,0.8,0.3,1.1c0.3,0.3,0.6,0.5,1.1,0.5c0.4,0,0.8-0.2,1.1-0.5C120.1,109,120.2,108.6,120.2,108.1"/>
		<path id="XMLID_181_" class="st1" d="M126.2,109.5h2.6v0.4h-5.9c-0.3,0-0.5-0.2-0.5-0.7c0.2,0.2,0.3,0.3,0.5,0.3h2.1
			c0.6,0,0.9-0.4,1-1.2c0-0.6-0.2-1.1-0.4-1.5c-0.3-0.6-0.7-1-1.1-1c-0.1,0-0.3,0.1-0.5,0.2c-0.2,0.1-0.3,0.2-0.3,0.4
			c-0.1,0.2-0.1,0.3-0.1,0.5c0,0.2,0,0.4,0.1,0.5c0.1,0.2,0.2,0.3,0.2,0.3c0,0-0.1,0-0.2,0c-0.1,0-0.2,0-0.4,0c-0.2,0-0.5,0-1,0
			v-0.1c0.2,0,0.3-0.1,0.3-0.2c0.1-0.1,0.1-0.2,0.1-0.4v-0.2c0-0.2,0-0.3,0-0.5c0.5-0.5,1-0.7,1.7-0.7c0.7,0,1.2,0.3,1.7,0.8
			c0.5,0.5,0.7,1.1,0.7,1.8C126.9,108.8,126.7,109.2,126.2,109.5"/>
		<path id="XMLID_457_" class="st1" d="M131.5,109.5h0.7v0.4h-3.5v-0.4h1.8v-2.6c0-0.3,0-0.5-0.1-0.6c-0.1-0.2-0.2-0.3-0.5-0.3v-0.1
			c0.6-0.1,1.1-0.2,1.6-0.3c0,0.6-0.1,1.1-0.1,1.7V109.5z M129.1,104.4c0-0.2,0.1-0.3,0.2-0.4c0.1-0.1,0.3-0.2,0.4-0.2
			s0.3,0.1,0.4,0.2c0.1,0.1,0.2,0.3,0.2,0.4c0,0.2-0.1,0.3-0.2,0.4c-0.1,0.1-0.3,0.2-0.4,0.2c-0.2,0-0.3-0.1-0.4-0.2
			C129.2,104.8,129.1,104.6,129.1,104.4"/>
		<path id="XMLID_454_" class="st1" d="M132,110v-0.4h2.1V107c0-0.4,0-0.6,0-0.7c-0.1-0.2-0.2-0.4-0.5-0.4v-0.1
			c0.4,0,0.8-0.2,1.3-0.3v1.5c0.3-1,0.9-1.4,1.9-1.4c0.7,0,1.1,0.2,1.4,0.6c0.3,0.3,0.4,0.9,0.4,1.6v0.4c0,0.6,0,0.9,0,1
			c0.1,0.4,0.2,0.6,0.6,0.7c0,0,0,0-0.1,0H132z M137.9,109.5c-0.1-0.1-0.2-0.3-0.2-0.4v-1.2c0-0.6-0.1-1-0.2-1.3
			c-0.2-0.4-0.5-0.6-1-0.6c-0.8,0-1.2,0.5-1.4,1.4c-0.1,0.3-0.1,1-0.1,2.1H137.9z"/>
		<path id="XMLID_176_" class="st1" d="M16.9,109.5v0.4h-4.2c-0.6,0.2-0.9,0.6-0.9,1.2c0,0.3,0.1,0.7,0.4,1c0.2,0.3,0.5,0.5,0.9,0.5
			c1.1,0,1.7-0.4,1.9-1.4h0.1l0.4,0.9c-0.8,0.5-1.6,0.7-2.5,0.7c-0.6,0-1.1-0.2-1.5-0.4c-0.5-0.3-0.7-0.8-0.7-1.3
			c0-0.8,0.4-1.3,1.1-1.5c-0.7-0.4-1-1-1-1.8c0-0.7,0.2-1.2,0.7-1.6c0.4-0.4,1-0.6,1.6-0.6c0.6,0,1.2,0.2,1.6,0.5l-0.2,1.2l-0.1,0
			c-0.3-0.9-0.7-1.4-1.3-1.4c-0.5,0-0.8,0.2-1.2,0.6c-0.3,0.4-0.4,0.8-0.4,1.3c0,0.6,0.3,1.2,0.9,1.7H16.9z"/>
		<path id="XMLID_449_" class="st1" d="M16.7,109.5h2.6c-0.2-0.2-0.3-0.4-0.3-0.6c0-0.1,0-0.4,0-0.8v-1.3c0-0.3,0-0.5,0-0.6
			c-0.1-0.2-0.2-0.3-0.5-0.3v-0.1c0.6-0.1,1.1-0.2,1.6-0.3c0,0.6-0.1,1.1-0.1,1.7v0.7c0,0.6,0,0.9,0,1.1c0.1,0.4,0.3,0.7,0.6,0.8
			l0,0h-3.9V109.5z M16.8,111.1c0-0.2,0.1-0.3,0.2-0.4c0.1-0.1,0.3-0.2,0.4-0.2c0.2,0,0.3,0.1,0.4,0.2c0.1,0.1,0.2,0.3,0.2,0.4
			c0,0.2-0.1,0.3-0.2,0.4c-0.1,0.1-0.3,0.2-0.4,0.2c-0.2,0-0.3-0.1-0.4-0.2C16.8,111.4,16.8,111.2,16.8,111.1 M18.2,111.1
			c0-0.2,0.1-0.3,0.2-0.4c0.1-0.1,0.3-0.2,0.4-0.2c0.2,0,0.3,0.1,0.4,0.2c0.1,0.1,0.2,0.3,0.2,0.4c0,0.2-0.1,0.3-0.2,0.4
			c-0.1,0.1-0.3,0.2-0.4,0.2c-0.2,0-0.3-0.1-0.4-0.2C18.3,111.4,18.2,111.2,18.2,111.1"/>
		<path id="XMLID_172_" class="st1" d="M22.8,109.6v-1.9c0-0.3,0-0.5-0.1-0.6c-0.1-0.2-0.2-0.3-0.4-0.3v-0.1c0.4,0,0.9-0.1,1.4-0.3
			c0,0.6,0,1.2,0,2c0,0.8,0,1.2,0,1.4c0,0.5-0.1,1-0.4,1.3c-0.4,0.5-0.8,0.7-1.3,0.7c-0.4,0-0.8-0.2-1-0.5l0.3-0.9h0.1
			c0.2,0.8,0.4,1.2,0.8,1.2C22.6,111.5,22.8,110.9,22.8,109.6"/>
		<path id="XMLID_171_" class="st1" d="M24.6,110L24.6,110c0.3-0.1,0.5-0.4,0.5-0.8c0-0.1,0-0.5,0-1v-4.5c0-0.3,0-0.5,0-0.6
			c-0.1-0.2-0.2-0.3-0.5-0.3v-0.1c0.4,0,0.9-0.1,1.4-0.3c0,0.5,0,1,0,1.7v5.4h2v0.4h-2.4H24.6z"/>
		<path id="XMLID_442_" class="st1" d="M37.1,109.5v0.4h-0.3c-0.6,0-1-0.2-1.3-0.5c-0.3,0.4-0.7,0.5-1.3,0.5c-0.7,0-1.2-0.4-1.4-1.2
			c-0.1,0.3-0.2,0.5-0.3,0.7c-0.3,0.4-0.7,0.5-1.3,0.5c-0.7,0-1.2-0.4-1.4-1.2c-0.1,0.3-0.2,0.5-0.3,0.7c-0.3,0.3-0.7,0.5-1.3,0.5
			h-0.5v-0.4h0.5c0.4-0.1,0.7-0.3,0.8-0.7c0-0.1,0.1-0.6,0.1-1.4c0-0.7-0.2-1.1-0.5-1.2v-0.1c0.3,0,0.6,0,0.9,0c0.4,0,0.7,0,1,0
			l0,0.1c-0.2,0.1-0.4,0.2-0.5,0.5c0,0.2-0.1,0.4-0.1,0.8v0.5c0,0.4,0.1,0.7,0.2,1c0.2,0.3,0.5,0.5,0.8,0.5c0.1,0,0.1,0,0.2,0
			c0.4-0.1,0.7-0.3,0.8-0.6c0-0.1,0.1-0.6,0.1-1.4c0-0.7-0.2-1.1-0.5-1.2v-0.1c0.3,0,0.6,0,0.9,0c0.4,0,0.7,0,1,0l0,0.1
			c-0.2,0.1-0.4,0.2-0.5,0.5c0,0.2-0.1,0.4-0.1,0.8v0.5c0,0.4,0.1,0.7,0.2,1c0.2,0.3,0.5,0.5,0.8,0.5c0.1,0,0.1,0,0.2,0
			c0.4-0.1,0.7-0.3,0.8-0.6c0-0.1,0.1-0.6,0.1-1.4c0-0.7-0.2-1.1-0.5-1.2l0-0.1c0.3,0,0.7,0,1,0c0.3,0,0.6,0,0.9,0l0,0.1
			c-0.4,0.1-0.5,0.5-0.5,1.2v0.3c0,0.6,0,1,0.1,1.1c0.1,0.4,0.4,0.6,0.8,0.7H37.1z M31.1,104.9c0-0.2,0.1-0.3,0.2-0.4
			c0.1-0.1,0.3-0.2,0.4-0.2c0.2,0,0.3,0.1,0.4,0.2c0.1,0.1,0.2,0.3,0.2,0.4c0,0.2-0.1,0.3-0.2,0.4c-0.1,0.1-0.3,0.2-0.4,0.2
			c-0.2,0-0.3-0.1-0.4-0.2C31.2,105.2,31.1,105,31.1,104.9 M31.9,103.5c0-0.2,0.1-0.3,0.2-0.4c0.1-0.1,0.3-0.2,0.4-0.2
			c0.2,0,0.3,0.1,0.4,0.2c0.1,0.1,0.2,0.3,0.2,0.4c0,0.2-0.1,0.3-0.2,0.4c-0.1,0.1-0.3,0.2-0.4,0.2c-0.2,0-0.3-0.1-0.4-0.2
			C31.9,103.8,31.9,103.7,31.9,103.5 M32.7,104.9c0-0.2,0.1-0.3,0.2-0.4c0.1-0.1,0.3-0.2,0.4-0.2c0.2,0,0.3,0.1,0.4,0.2
			c0.1,0.1,0.2,0.3,0.2,0.4c0,0.2-0.1,0.3-0.2,0.4c-0.1,0.1-0.3,0.2-0.4,0.2c-0.2,0-0.3-0.1-0.4-0.2C32.8,105.2,32.7,105,32.7,104.9
			"/>
		<path id="XMLID_439_" class="st1" d="M42.1,109.5H43v0.4h-1.1c-0.1,0.1-0.1,0.2-0.2,0.2c-0.4,0.4-1,0.6-1.7,0.6
			c-0.7,0-1.2-0.2-1.6-0.6c-0.1-0.1-0.1-0.1-0.2-0.2h-1.2v-0.4h1c-0.1-0.3-0.2-0.6-0.2-0.9c0-0.6,0.2-1.2,0.7-1.6
			c0.4-0.4,1-0.6,1.6-0.6c0.7,0,1.2,0.2,1.6,0.6c0.4,0.4,0.6,0.9,0.6,1.6C42.3,109,42.2,109.3,42.1,109.5 M38.7,108.6
			c0,0.6,0.1,1,0.3,1.3c0.2,0.5,0.6,0.7,1.1,0.7c0.5,0,0.8-0.2,1.1-0.7c0.2-0.3,0.3-0.8,0.3-1.3c0-0.6-0.1-1-0.3-1.3
			c-0.2-0.5-0.6-0.7-1.1-0.7c-0.5,0-0.8,0.2-1.1,0.7C38.8,107.7,38.7,108.1,38.7,108.6"/>
		<path id="XMLID_164_" class="st1" d="M42.9,109.5h1.2c-0.3-0.1-0.4-0.5-0.4-0.9v-4.9c0-0.3,0-0.5,0-0.6c-0.1-0.2-0.2-0.3-0.4-0.3
			v-0.1c0.4,0,0.9-0.1,1.4-0.3c0,0.5,0,1.1,0,1.7v4.1c0,0.4,0,0.7,0.1,1c0.1,0.4,0.2,0.7,0.5,0.8h-2.2V109.5z"/>
		<path id="XMLID_163_" class="st1" d="M45.7,110L45.7,110c0.3-0.2,0.5-0.4,0.5-0.8c0-0.1,0-0.5,0-1v-4.5c0-0.3,0-0.5-0.1-0.6
			c-0.1-0.2-0.2-0.3-0.5-0.3v-0.1c0.4,0,0.9-0.1,1.4-0.3c0,0.5,0,1.1,0,1.7v4.1c0,0.6,0,0.9,0.1,1c0.1,0.4,0.2,0.7,0.5,0.7v0.1
			c-0.3,0-0.7,0-1,0C46.4,110,46,110,45.7,110"/>
		<path id="XMLID_162_" class="st1" d="M51.9,109.5h2v0.4h-2c0,0.5-0.2,0.8-0.4,1.1c-0.4,0.5-0.8,0.7-1.3,0.7c-0.4,0-0.8-0.2-1-0.5
			l0.3-0.9h0.1c0.2,0.8,0.4,1.2,0.8,1.2c0.5,0,0.7-0.6,0.7-1.9v-1.9c0-0.3,0-0.5-0.1-0.6c-0.1-0.2-0.2-0.3-0.4-0.3v-0.1
			c0.4,0,0.9-0.1,1.4-0.3C51.9,107,51.9,108.1,51.9,109.5"/>
		<path id="XMLID_432_" class="st1" d="M53.7,109.5h2.6c-0.2-0.2-0.3-0.4-0.3-0.6c0-0.1,0-0.4,0-0.8v-1.3c0-0.3,0-0.5-0.1-0.6
			c-0.1-0.2-0.2-0.3-0.5-0.3v-0.1c0.6-0.1,1.1-0.2,1.6-0.3c0,0.6-0.1,1.1-0.1,1.7v0.7c0,0.6,0,0.9,0,1.1c0.1,0.4,0.3,0.7,0.6,0.8
			l0,0h-3.9V109.5z M53.8,111.1c0-0.2,0.1-0.3,0.2-0.4c0.1-0.1,0.3-0.2,0.4-0.2c0.2,0,0.3,0.1,0.4,0.2c0.1,0.1,0.2,0.3,0.2,0.4
			c0,0.2-0.1,0.3-0.2,0.4c-0.1,0.1-0.3,0.2-0.4,0.2c-0.2,0-0.3-0.1-0.4-0.2C53.8,111.4,53.8,111.2,53.8,111.1 M55.2,111.1
			c0-0.2,0.1-0.3,0.2-0.4c0.1-0.1,0.3-0.2,0.4-0.2c0.2,0,0.3,0.1,0.4,0.2c0.1,0.1,0.2,0.3,0.2,0.4c0,0.2-0.1,0.3-0.2,0.4
			c-0.1,0.1-0.3,0.2-0.4,0.2c-0.2,0-0.3-0.1-0.4-0.2C55.3,111.4,55.2,111.2,55.2,111.1"/>
		<path id="XMLID_429_" class="st1" d="M63.4,109.5h1.9v0.4h-2c-0.1,0.5-0.3,0.9-0.7,1.2c-0.5,0.5-1.2,0.8-2.1,0.8
			c-0.7,0-1.3-0.2-2-0.6l0.4-1.1H59c0.2,1,0.7,1.5,1.6,1.5c1.2,0,1.8-1,1.8-2.9v-0.1c-0.3,0.8-0.9,1.2-1.8,1.2
			c-0.6,0-1.1-0.1-1.5-0.4c-0.5-0.3-0.7-0.8-0.7-1.3c0-0.6,0.2-1.2,0.7-1.5c0.4-0.3,1-0.5,1.7-0.5c0.8,0,1.5,0.3,2,0.8
			c0.5,0.5,0.7,1.2,0.7,2C63.4,109.2,63.4,109.4,63.4,109.5 M62.3,108.1c0-0.5-0.1-0.9-0.3-1.2c-0.2-0.3-0.6-0.5-1.1-0.5
			c-0.5,0-0.9,0.2-1.1,0.5c-0.2,0.3-0.3,0.7-0.3,1.2c0,0.5,0.1,0.8,0.3,1.1c0.3,0.3,0.6,0.5,1,0.5c0.4,0,0.8-0.2,1.1-0.5
			C62.1,109,62.3,108.6,62.3,108.1"/>
		<path id="XMLID_426_" class="st1" d="M65.2,110v-0.4h0.9v-6c0-0.3,0-0.5-0.1-0.6c-0.1-0.2-0.2-0.3-0.4-0.3v-0.1
			c0.4,0,0.8-0.2,1.3-0.3v4.7c0.3-1,0.9-1.4,1.9-1.4c0.7,0,1.2,0.2,1.4,0.6c0.3,0.3,0.4,0.9,0.4,1.6v0.4c0,0.7,0,1.2,0.1,1.4h0.6
			v0.4H65.2z M69.8,109.5c-0.1-0.1-0.2-0.3-0.2-0.4v-1.2c0-0.6-0.1-1-0.2-1.3c-0.2-0.4-0.5-0.6-1-0.6c-0.8,0-1.2,0.5-1.4,1.4
			c-0.1,0.3-0.1,1-0.1,2.1H69.8z"/>
		<path id="XMLID_423_" class="st1" d="M71,104.4c0-0.2,0.1-0.3,0.2-0.4c0.1-0.1,0.3-0.2,0.4-0.2c0.2,0,0.3,0.1,0.4,0.2
			c0.1,0.1,0.2,0.3,0.2,0.4c0,0.2-0.1,0.3-0.2,0.4c-0.1,0.1-0.3,0.2-0.4,0.2c-0.2,0-0.3-0.1-0.4-0.2C71.1,104.8,71,104.6,71,104.4
			 M72.6,104.4c0-0.2,0.1-0.3,0.2-0.4c0.1-0.1,0.3-0.2,0.4-0.2c0.2,0,0.3,0.1,0.4,0.2c0.1,0.1,0.2,0.3,0.2,0.4
			c0,0.2-0.1,0.3-0.2,0.4c-0.1,0.1-0.3,0.2-0.4,0.2c-0.2,0-0.3-0.1-0.4-0.2C72.6,104.8,72.6,104.6,72.6,104.4"/>
		<path id="XMLID_152_" class="st1" d="M76.7,109.2c0-0.3-0.1-0.6-0.1-1v-4.1c0-0.6,0-1.2,0-1.7c-0.5,0.2-1,0.3-1.4,0.3v0.1
			c0.2,0,0.4,0.1,0.4,0.3c0,0.1,0,0.3,0,0.6v4.9c0,0.5,0.1,0.8,0.4,0.9h-1v0h-0.7v-2.2c0-0.6,0-1.2,0.1-1.7c-0.5,0.1-1,0.3-1.6,0.3
			v0.1c0.2,0,0.4,0.1,0.5,0.3c0,0.1,0.1,0.3,0.1,0.6v2.6h-2.4v0h-0.6v0.4h6.7C77,109.9,76.8,109.6,76.7,109.2"/>
		<path id="XMLID_151_" class="st1" d="M134.7,117v0.8h0c0.2-0.6,0.6-0.9,1.1-0.9c0.6,0,1.2,0.3,1.2,1.3v1.3c0,0.7,0,0.8,0.2,0.9
			c0.1,0,0.1,0.1,0.1,0.1c0,0,0,0-0.1,0c-0.1,0-0.3,0-0.4,0c-0.2,0-0.4,0-0.5,0c0,0-0.1,0-0.1,0c0,0,0.1-0.1,0.1-0.1
			c0.2-0.1,0.2-0.5,0.2-1v-0.9c0-1.2-0.4-1.5-0.9-1.5c-0.6,0-1,0.7-1,1.5v1c0,0.5,0,0.7,0.2,0.9c0.1,0,0.1,0.1,0.1,0.1c0,0,0,0,0,0
			c-0.1,0-0.3,0-0.5,0c-0.2,0-0.4,0-0.5,0c0,0,0,0,0,0c0,0,0,0,0.1-0.1c0.2-0.1,0.2-0.6,0.2-1v-1.5c0-0.5-0.1-0.6-0.2-0.7
			c0,0-0.1,0-0.1-0.1c0,0,0,0,0.1,0L134.7,117z"/>
		<path id="XMLID_418_" class="st1" d="M136.8,120.5c-0.2,0-0.4,0-0.5,0c0,0-0.1,0-0.1-0.1c0-0.1,0.1-0.1,0.1-0.1
			c0.1-0.1,0.2-0.4,0.2-0.9v-0.9c0-1.1-0.4-1.4-0.8-1.4c-0.5,0-1,0.6-1,1.4v1.1c0,0.5,0,0.7,0.2,0.8c0.1,0.1,0.1,0,0.1,0.1
			c0,0.1-0.1,0.1-0.1,0.1c-0.1,0-0.3,0-0.5,0c-0.2,0-0.4,0-0.5,0c0,0-0.1,0-0.1-0.1c0-0.1,0.1-0.1,0.1-0.1c0.1-0.1,0.2-0.6,0.2-0.9
			v-1.5c0-0.5-0.1-0.6-0.1-0.6c-0.1,0-0.1-0.1-0.1-0.1c0-0.1,0.1-0.1,0.1-0.1l0.6-0.2l0.1,0v0.1l0,0.6c0.2-0.5,0.7-0.8,1.2-0.8
			c0.6,0,1.3,0.4,1.3,1.4v1.3c0,0.8,0,0.8,0.2,0.9c0.1,0,0.1,0.1,0.1,0.1c0,0.1-0.1,0.1-0.1,0.1C137.2,120.6,137,120.5,136.8,120.5
			 M136.7,118.5v0.9c0,0.5,0,0.9-0.2,1c0,0,0,0,0,0c0.1,0,0.3,0,0.4,0c0.1,0,0.3,0,0.4,0c0,0,0,0,0,0c-0.2-0.1-0.2-0.2-0.2-0.9v-1.3
			c0-1-0.6-1.3-1.2-1.3c-0.5,0-0.9,0.3-1.1,0.9l-0.1-0.1V117l-0.5,0.2h0c0,0,0,0,0,0c0.1,0.1,0.2,0.2,0.2,0.7v1.5c0,0.4,0,0.9-0.2,1
			c0,0,0,0,0,0c0.1,0,0.3,0,0.4,0c0.1,0,0.3,0,0.4,0c0,0,0,0,0,0c-0.2-0.2-0.2-0.4-0.2-0.9v-1.1c0-0.8,0.4-1.5,1.1-1.5
			C136.2,117,136.6,117.3,136.7,118.5"/>
		<path id="XMLID_148_" class="st1" d="M137.7,117.3c-0.1,0-0.1,0-0.1,0c0,0,0,0,0.1-0.1c0.3-0.2,0.6-0.5,0.7-1c0-0.1,0-0.1,0.1-0.1
			c0,0,0,0,0,0.1v0.9h0.5c0.1,0,0.1,0,0.1,0c0,0,0,0,0,0l0,0.1h-0.5v1.2c0,1,0.1,1.8,0.4,1.9c0,0,0,0,0,0c0,0,0,0-0.1,0
			c-0.1,0-0.2,0-0.4,0c-0.3,0-0.4-0.1-0.4-0.8v-2.4H137.7z"/>
		<path id="XMLID_147_" class="st1" d="M137.9,119.7l0.1-2.3h-0.3v0v-0.1l0.4,0.1v2.4c0,0.7,0.1,0.7,0.4,0.7c0.1,0,0.2,0,0.3,0
			c-0.3-0.2-0.3-1-0.4-1.9l0.1-1.2l0.5,0l0-0.1l0,0h0l-0.5,0v-0.8c-0.1,0.4-0.4,0.7-0.7,0.9c0,0-0.1,0-0.1,0c0,0,0,0,0,0v0.1v0
			c-0.1,0-0.2,0-0.2-0.1c0-0.1,0-0.1,0.1-0.1c0.3-0.2,0.5-0.5,0.6-0.9c0-0.1,0-0.1,0.1-0.1c0.1,0,0.1,0.1,0.1,0.1l-0.1,0.9h0.5
			c0.1,0,0.1,0,0.1,0.1l0,0l-0.1,0.2l-0.5,0v1.2c0,1,0.1,1.8,0.4,1.8c0,0,0.1,0,0.1,0.1c0,0.1-0.1,0.1-0.1,0.1c-0.1,0-0.2,0-0.4,0
			C138.1,120.5,137.9,120.4,137.9,119.7"/>
		<path id="XMLID_413_" class="st1" d="M98.7,117.1c0-0.6-0.1-0.7-0.2-0.8c0,0-0.1,0-0.1-0.1c0,0,0-0.1,0.2-0.1h1.7
			c1.4,0,2.1,1,2.1,2.1c0,1.2-0.7,2.2-1.8,2.3c-0.1,0-0.3,0-0.4,0c-0.1,0-0.4,0-0.6,0h-0.6c-0.2,0-0.4,0-0.5,0c0,0,0,0,0,0
			c0,0,0,0,0.1-0.1c0.3-0.2,0.3-0.4,0.3-1.1V117.1z M99.2,119.3c0,0.8,0.1,1,0.4,1.1c0.2,0,0.4,0,0.5,0c0.1,0,0.3,0,0.4,0
			c0.8-0.1,1.3-0.6,1.3-2.1c0-1.4-0.5-1.9-1.7-1.9h-0.9V119.3z"/>
		<path id="XMLID_408_" class="st1" d="M98.3,120.5c0-0.1,0.1-0.1,0.1-0.1c0.3-0.2,0.3-0.3,0.3-1v-2.3c0-0.6-0.1-0.7-0.2-0.8
			c0,0-0.1,0-0.1-0.1c0-0.1,0.1-0.1,0.2-0.1h1.7c1.4,0,2.1,1.1,2.1,2.2c0,1.3-0.7,2.2-1.9,2.3c-0.1,0-0.3,0-0.4,0
			c-0.1,0-0.4,0-0.6,0h-0.6C98.6,120.6,98.5,120.6,98.3,120.5C98.4,120.6,98.3,120.6,98.3,120.5 M98.8,119.4c0,0.7,0,0.9-0.3,1.1
			c0.1,0,0.2,0,0.4,0h0.6c0.3,0,0.5,0,0.6,0c0.1,0,0.3,0,0.4,0c1.1-0.1,1.8-1,1.8-2.2c0-1.1-0.7-2.1-2-2.1h-1.7c-0.1,0-0.1,0-0.1,0
			c0,0,0,0,0,0c0.2,0.1,0.2,0.2,0.2,0.9V119.4z M99.5,120.4c-0.3,0-0.4-0.3-0.4-1.1l0-3h0.9c1.1,0,1.7,0.5,1.7,2
			c0,1.5-0.5,2.1-1.4,2.2c-0.1,0-0.3,0-0.4,0C99.9,120.4,99.8,120.4,99.5,120.4 M99.6,120.3c0.2,0,0.4,0,0.5,0c0.1,0,0.3,0,0.4,0
			c0.8-0.1,1.3-0.5,1.3-2c0-1.4-0.5-1.9-1.6-1.9l-0.9-0.1v3C99.3,120.1,99.4,120.3,99.6,120.3"/>
		<path id="XMLID_405_" class="st1" d="M103.7,118.3c0,0.1,0,0.2,0,0.3c0,1,0.3,1.8,1.2,1.8c0.8,0,1.2-1,1.3-1.2c0,0,0-0.1,0.1-0.1
			c0,0,0,0,0,0.1c0,0.1,0,0.1,0,0.2c-0.2,0.8-0.8,1.3-1.6,1.3c-0.9,0-1.5-0.9-1.5-1.9c0-0.9,0.6-1.8,1.6-1.8c0.7,0,1.4,0.5,1.5,1.4
			H103.7z M105.6,118.1c0-0.7-0.4-1.1-0.9-1.1c-0.6,0-0.9,0.4-1,1.1H105.6z"/>
		<path id="XMLID_400_" class="st1" d="M104.6,120.7c-0.9,0-1.6-0.9-1.6-2c0-0.9,0.6-1.9,1.6-1.9c0.8,0,1.5,0.5,1.5,1.5h-2.4
			c0,0.1,0,0.2,0,0.3c0,1,0.3,1.8,1.1,1.8c0.8,0,1.2-1,1.2-1.2c0,0,0-0.1,0.1-0.1c0.1,0,0.1,0.1,0.1,0.1c0,0.1,0,0.1,0,0.2
			C106.1,120.2,105.4,120.7,104.6,120.7L104.6,120.7z M103.2,118.7c0,1,0.6,1.9,1.4,1.9c0.7,0,1.3-0.4,1.5-1.2c0,0,0-0.1,0-0.1
			c0,0,0,0,0,0c0,0.2-0.4,1.2-1.3,1.3c-0.9,0-1.2-0.9-1.2-1.9c0-0.1,0-0.2,0-0.3l0.1,0v-0.1l2.4,0.1c-0.1-0.9-0.7-1.3-1.4-1.3
			C103.8,116.9,103.2,117.8,103.2,118.7 M103.7,118.1c0.1-0.7,0.5-1.1,1.1-1.1c0.6,0,1,0.4,1,1.1h-0.1v0.1L103.7,118.1z M103.7,118
			h1.9c0-0.6-0.4-0.9-0.9-1C104.2,117.1,103.9,117.5,103.7,118"/>
		<path id="XMLID_134_" class="st1" d="M108.6,119.9l0.5-1.2c0.2-0.5,0.4-1,0.4-1.2c0-0.2,0-0.3-0.1-0.4c-0.1-0.1-0.1-0.1-0.1-0.1
			c0,0,0,0,0,0c0,0,0.3,0,0.4,0c0.2,0,0.3,0,0.4,0c0,0,0,0,0,0c0,0,0,0-0.1,0.1c-0.2,0.2-0.4,0.7-0.7,1.3l-0.8,2
			c-0.1,0.3-0.1,0.3-0.1,0.3h0c0,0-0.1-0.2-0.1-0.3l-1-2.4c-0.2-0.4-0.3-0.7-0.4-0.8c0,0-0.1-0.1-0.1-0.1c0,0,0,0,0.1,0
			c0.1,0,0.2,0,0.4,0c0.2,0,0.3,0,0.4,0c0.1,0,0.1,0,0.1,0c0,0,0,0-0.1,0.1c-0.1,0.1-0.1,0.1-0.1,0.2c0,0.1,0.1,0.4,0.2,0.7
			L108.6,119.9z"/>
		<path id="XMLID_394_" class="st1" d="M108.4,120.7c-0.1-0.1-0.1-0.2-0.2-0.3l-1-2.4c-0.2-0.4-0.3-0.7-0.4-0.8c0,0-0.1,0-0.1-0.1
			c0-0.1,0.1-0.1,0.1-0.1c0.1,0,0.2,0,0.4,0c0.2,0,0.3,0,0.4,0c0.1,0,0.1,0,0.2,0.1c0,0.1-0.1,0.1-0.1,0.1c-0.1,0-0.1,0.1-0.1,0.2
			c0,0.1,0.1,0.4,0.2,0.6l0.8,1.8l0.5-1.1c0.2-0.5,0.4-1,0.4-1.2c0-0.2,0-0.3-0.1-0.3c-0.1-0.1-0.1-0.1-0.2-0.1c0,0,0-0.1,0.1-0.1
			c0.1,0,0.3,0,0.4,0c0.2,0,0.3,0,0.4,0c0,0,0.1,0,0.1,0.1c0,0.1-0.1,0.1-0.1,0.1c-0.2,0.1-0.4,0.6-0.7,1.3l-0.8,2
			C108.5,120.6,108.5,120.6,108.4,120.7L108.4,120.7z M106.8,117c0.2,0.1,0.3,0.4,0.5,0.8l1,2.4c0,0.1,0.1,0.2,0.1,0.2
			c0,0,0-0.1,0.1-0.2l0.8-2c0.3-0.6,0.5-1.1,0.7-1.3c0,0,0,0,0,0c-0.1,0-0.2,0-0.4,0c-0.1,0-0.3,0-0.4,0c0,0,0.1,0,0.1,0.1
			c0.1,0.1,0.2,0.2,0.2,0.4c0,0.2-0.2,0.7-0.4,1.2l-0.5,1.2l-0.1,0.1l-0.9-2c-0.1-0.3-0.2-0.5-0.2-0.7c0-0.1,0-0.2,0.1-0.3
			c0,0,0.1,0,0.1,0h-0.1c-0.1,0-0.2,0-0.4,0C107,117,106.9,117,106.8,117L106.8,117C106.8,117,106.8,117,106.8,117 M108.6,119.9
			L108.6,119.9L108.6,119.9z M107.7,117C107.7,117,107.7,117,107.7,117L107.7,117z"/>
		<path id="XMLID_391_" class="st1" d="M111.1,118.3c0,0.1,0,0.2,0,0.3c0,1,0.3,1.8,1.2,1.8c0.8,0,1.2-1,1.3-1.2c0,0,0-0.1,0.1-0.1
			c0,0,0,0,0,0.1c0,0.1,0,0.1,0,0.2c-0.2,0.8-0.8,1.3-1.6,1.3c-0.9,0-1.5-0.9-1.5-1.9c0-0.9,0.6-1.8,1.6-1.8c0.7,0,1.4,0.5,1.5,1.4
			H111.1z M113.1,118.1c0-0.7-0.4-1.1-0.9-1.1c-0.6,0-0.9,0.4-1,1.1H113.1z"/>
		<path id="XMLID_386_" class="st1" d="M112.1,120.7c-0.9,0-1.6-0.9-1.6-2c0-0.9,0.6-1.9,1.6-1.9c0.7,0,1.5,0.5,1.5,1.5h-2.4
			c0,0.1,0,0.2,0,0.3c0,1,0.3,1.8,1.1,1.8c0.8,0,1.2-1,1.2-1.2c0,0,0-0.1,0.1-0.1c0.1,0,0.1,0.1,0.1,0.1c0,0.1,0,0.1,0,0.2
			C113.5,120.2,112.9,120.7,112.1,120.7L112.1,120.7z M110.6,118.7c0,1,0.6,1.9,1.4,1.9c0.7,0,1.3-0.4,1.5-1.2c0,0,0-0.1,0-0.1
			c0,0,0,0,0,0c0,0.2-0.4,1.2-1.3,1.3c-0.9,0-1.2-0.9-1.2-1.9c0-0.1,0-0.2,0-0.3l0.1,0v-0.1l2.4,0.1c-0.1-0.9-0.7-1.3-1.4-1.3
			C111.2,116.9,110.6,117.8,110.6,118.7 M111.1,118.1c0.1-0.7,0.5-1.1,1.1-1.1c0.6,0,1,0.4,1,1.1h-0.1v0.1L111.1,118.1z M111.2,118
			h1.9c0-0.6-0.4-0.9-0.9-1C111.6,117.1,111.3,117.5,111.2,118"/>
		<path id="XMLID_383_" class="st1" d="M130.9,118.3c0,0.1,0,0.2,0,0.3c0,1,0.3,1.8,1.2,1.8c0.8,0,1.2-1,1.3-1.2c0,0,0-0.1,0.1-0.1
			c0,0,0,0,0,0.1c0,0.1,0,0.1,0,0.2c-0.2,0.8-0.8,1.3-1.6,1.3c-0.9,0-1.5-0.9-1.5-1.9c0-0.9,0.6-1.8,1.6-1.8c0.7,0,1.4,0.5,1.5,1.4
			H130.9z M132.8,118.1c0-0.7-0.4-1.1-0.9-1.1c-0.6,0-0.9,0.4-1,1.1H132.8z"/>
		<path id="XMLID_378_" class="st1" d="M131.8,120.7c-0.9,0-1.6-0.9-1.6-2c0-0.9,0.6-1.9,1.6-1.9c0.7,0,1.5,0.5,1.5,1.5h-2.4
			c0,0.1,0,0.2,0,0.3c0,1,0.3,1.8,1.1,1.8c0.8,0,1.2-1,1.2-1.2c0,0,0-0.1,0.1-0.1c0.1,0,0.1,0.1,0.1,0.1c0,0.1,0,0.1,0,0.2
			C133.2,120.2,132.6,120.7,131.8,120.7L131.8,120.7z M130.4,118.7c0,1,0.6,1.9,1.4,1.9c0.7,0,1.3-0.4,1.5-1.2c0,0,0-0.1,0-0.1
			c0,0,0,0,0,0c0,0.2-0.4,1.2-1.3,1.3c-0.9,0-1.2-0.9-1.2-1.9c0-0.1,0-0.2,0-0.3l0.1,0v-0.1l2.4,0.1c-0.1-0.9-0.7-1.3-1.4-1.3
			C130.9,116.9,130.4,117.8,130.4,118.7 M130.8,118.1c0.1-0.7,0.5-1.1,1.1-1.1c0.6,0,1,0.4,1,1.1h-0.1v0.1L130.8,118.1z M130.9,118
			h1.9c0-0.6-0.4-0.9-0.9-1C131.3,117.1,131.1,117.5,130.9,118"/>
		<path id="XMLID_117_" class="st1" d="M115.1,119.5c0,0.4,0,0.8,0.2,0.9c0.1,0,0.1,0.1,0.1,0.1c0,0-0.1,0-0.1,0c-0.1,0-0.3,0-0.4,0
			c-0.2,0-0.4,0-0.5,0c-0.1,0-0.1,0-0.1,0c0,0,0.1-0.1,0.2-0.1c0.2-0.1,0.2-0.7,0.2-1.4v-2.4c0-0.5,0-0.7-0.2-0.7c0,0-0.1,0-0.1,0
			c0,0,0,0,0,0l0.6-0.2V119.5z"/>
		<path id="XMLID_374_" class="st1" d="M114.9,120.6c-0.2,0-0.4,0-0.5,0c-0.1,0-0.2,0-0.2-0.1c0-0.1,0.1-0.1,0.2-0.1
			c0.1-0.1,0.2-0.7,0.2-1.4v-2.4c0-0.5-0.1-0.6-0.2-0.7c0,0-0.1,0-0.1-0.1c0-0.1,0.1-0.1,0.1-0.1l0.7-0.2v4c0,0.4,0,0.8,0.2,0.8
			c0.1,0,0.1,0,0.1,0.1c0,0.1-0.1,0.1-0.1,0.1C115.3,120.6,115.1,120.6,114.9,120.6 M114.7,116.6v2.4c0,0.7,0,1.3-0.3,1.5
			c0,0,0,0-0.1,0h0c0.1,0,0.3,0,0.5,0c0.2,0,0.4,0,0.4,0c0,0,0,0,0,0c-0.2-0.1-0.2-0.5-0.2-0.9v-3.9l-0.5,0.2
			C114.7,115.9,114.7,116.1,114.7,116.6"/>
		<path id="XMLID_371_" class="st1" d="M117.7,116.9c0.8,0,1.6,0.7,1.6,1.9c0,1.1-0.8,1.9-1.6,1.9c-0.8,0-1.6-0.8-1.6-1.9
			C116.1,117.6,116.9,116.9,117.7,116.9 M117.7,120.4c0.8,0,1.1-0.8,1.1-1.7c0-0.9-0.3-1.7-1.1-1.7c-0.8,0-1.1,0.8-1.1,1.7
			C116.6,119.7,116.9,120.4,117.7,120.4"/>
		<path id="XMLID_368_" class="st1" d="M116,118.7c0-1.1,0.8-1.9,1.7-1.9v0.1v0.1c-0.8,0-1.6,0.7-1.6,1.8c0,1.1,0.8,1.8,1.6,1.8
			c0.8,0,1.6-0.7,1.6-1.8c0-1.1-0.8-1.8-1.6-1.8v-0.1v-0.1c0.9,0,1.7,0.8,1.7,1.9c0,1.1-0.8,1.9-1.7,1.9
			C116.8,120.7,116,119.9,116,118.7 M116.6,118.8L116.6,118.8L116.6,118.8C116.6,118.7,116.6,118.7,116.6,118.8c0-1,0.3-1.8,1.2-1.8
			c0.9,0,1.2,0.8,1.2,1.7v0v0c0,0.9-0.3,1.7-1.2,1.7v-0.1v0c0.8,0,1-0.7,1.1-1.6v0v0c0-0.9-0.3-1.6-1.1-1.6c-0.8,0-1.1,0.7-1.1,1.6
			v0v0c0,0.9,0.3,1.6,1.1,1.6v0v0.1C116.9,120.5,116.6,119.7,116.6,118.8"/>
		<path id="XMLID_365_" class="st1" d="M120.6,117.9L120.6,117.9c0.2-0.6,0.6-1,1.2-1c0.8,0,1.5,0.8,1.5,1.8c0,1.1-0.6,1.9-1.6,1.9
			c-0.5,0-1-0.4-1.1-0.7h0v1c0,0.3,0,0.6,0.2,0.8c0.1,0,0.1,0.1,0.1,0.1c0,0,0,0-0.1,0c0,0-0.1,0-0.4,0c-0.4,0-0.4,0-0.5,0
			c-0.1,0-0.1,0-0.1,0c0,0,0,0,0.1-0.1c0.1,0,0.2-0.6,0.2-1.2v-2.7c0-0.5-0.1-0.5-0.2-0.6c0,0-0.1,0-0.1,0c0,0,0,0,0.1,0
			c0.2,0,0.4-0.1,0.6-0.2V117.9z M120.6,118.7c0,1,0.3,1.8,1.1,1.8c0.8,0,1.1-0.8,1.1-1.8c0-0.9-0.3-1.6-1.1-1.6
			C121,117,120.6,117.9,120.6,118.7"/>
		<path id="XMLID_360_" class="st1" d="M120.5,121.9c-0.4,0-0.4,0-0.5,0c-0.1,0-0.1,0-0.1-0.1c0-0.1,0.1-0.1,0.2-0.1
			c0.1,0,0.2-0.5,0.1-1.2v-2.7c0-0.5-0.1-0.5-0.1-0.5c0,0-0.1,0-0.1-0.1c0-0.1,0.1-0.1,0.1-0.1c0.2,0,0.4-0.1,0.5-0.2l0.1,0v0.1v0.7
			c0.2-0.5,0.6-0.8,1.2-0.8c0.9,0,1.6,0.8,1.6,1.9c0,1.1-0.7,2-1.6,2c-0.5,0-0.9-0.3-1.1-0.6v0.9c0,0.3,0,0.6,0.2,0.7
			c0,0,0.1,0,0.1,0.1c0,0.1-0.1,0.1-0.1,0.1C120.8,121.9,120.8,121.9,120.5,121.9 M120.9,121.8C120.8,121.8,120.8,121.8,120.9,121.8
			c-0.3-0.2-0.3-0.5-0.3-0.8l0.1-1.1l0.1,0c0.1,0.3,0.6,0.6,1.1,0.7c0.9,0,1.5-0.8,1.5-1.9c0-1-0.7-1.8-1.5-1.8
			c-0.6,0-0.9,0.3-1.2,0.9v0h0c0,0,0,0,0,0.1h0v-0.1h-0.1v-0.8c-0.1,0.1-0.3,0.1-0.4,0.2c0.1,0,0.2,0.2,0.2,0.6v2.7
			c0,0.7,0,1.2-0.2,1.3c0,0,0,0,0,0c0.1,0,0.2,0,0.4,0C120.7,121.8,120.8,121.8,120.9,121.8 M120.6,118.7c0-0.8,0.3-1.7,1.2-1.7
			c0.8,0,1.1,0.8,1.1,1.7c0,0.9-0.3,1.8-1.1,1.8C120.9,120.5,120.6,119.6,120.6,118.7 M121.8,120.4c0.8,0,1-0.8,1-1.7
			c0-0.9-0.3-1.6-1-1.6c-0.8,0-1.1,0.8-1.1,1.6C120.7,119.6,121,120.4,121.8,120.4"/>
		<path id="XMLID_104_" class="st1" d="M124.6,116.9v0.8h0c0.2-0.6,0.7-0.9,1.1-0.9c0.8,0,1.1,0.4,1.3,1h0c0.2-0.7,0.6-1,1.1-1
			c1.1,0,1.4,0.7,1.4,1.5v1.2c0,0.5,0,0.8,0.2,0.9c0.1,0,0.1,0.1,0.1,0.1c0,0,0,0,0,0c-0.1,0-0.3,0-0.5,0c-0.2,0-0.4,0-0.5,0
			c0,0-0.1,0-0.1,0c0,0,0,0,0.1-0.1c0.2-0.1,0.2-0.4,0.2-0.8v-1.2c0-1.1-0.5-1.5-0.9-1.5c-0.8,0-1,0.7-1,1.8v1.1
			c0,0.2,0,0.5,0.2,0.6c0.1,0,0.1,0.1,0.1,0.1c0,0,0,0-0.1,0c-0.1,0-0.3,0-0.5,0c-0.2,0-0.4,0-0.5,0c0,0-0.1,0-0.1,0
			c0,0,0,0,0.1-0.1c0.2-0.1,0.2-0.4,0.2-1v-1.3c0-0.9-0.5-1.2-0.9-1.2c-0.6,0-1.1,0.8-1.1,1.6v1.2c0,0.3,0,0.6,0.2,0.7
			c0,0,0.1,0,0.1,0.1c0,0,0,0-0.1,0c0,0-0.1,0-0.5,0c-0.3,0-0.4,0-0.5,0c0,0-0.1,0-0.1,0c0,0,0,0,0.1-0.1c0.2-0.1,0.2-0.6,0.2-1
			v-1.7c0-0.4-0.1-0.4-0.2-0.5c-0.1,0-0.1,0-0.1-0.1c0,0,0,0,0,0L124.6,116.9z"/>
		<path id="XMLID_355_" class="st1" d="M123.8,120.5c0-0.1,0.1-0.1,0.1-0.1c0.1-0.1,0.2-0.5,0.2-1v-1.7c0-0.4-0.1-0.4-0.1-0.4
			c0,0-0.1,0-0.1-0.1c0,0,0-0.1,0.1-0.1l0.7-0.2l0.1,0v0.1l-0.1,0.7c0.2-0.5,0.7-0.9,1.1-0.9c0.8,0,1.1,0.4,1.3,0.9
			c0.2-0.6,0.6-0.9,1.1-0.9c1.1,0,1.5,0.7,1.5,1.6v1.2c0,0.5,0,0.7,0.2,0.8c0.1,0.1,0.1,0,0.1,0.1c0,0.1-0.1,0.1-0.1,0.1
			c-0.1,0-0.3,0-0.5,0c-0.2,0-0.4,0-0.5,0c0,0-0.1,0-0.1-0.1c0-0.1,0.1-0.1,0.1-0.1c0.1-0.1,0.2-0.3,0.2-0.7v-1.2
			c0-1.1-0.5-1.4-0.9-1.4c-0.7,0-0.9,0.7-0.9,1.7v1.1c0,0.2,0.1,0.5,0.2,0.5c0.1,0.1,0.1,0,0.2,0.1c0,0.1-0.1,0.1-0.1,0.1
			c-0.1,0-0.3,0-0.6,0c-0.2,0-0.4,0-0.5,0c0,0-0.1,0-0.1-0.1c0-0.1,0.1-0.1,0.1-0.1c0.2-0.1,0.2-0.3,0.2-0.9v-1.3
			c0-0.8-0.5-1.1-0.8-1.1c-0.6,0-1,0.8-1,1.5v1.2c0,0.3,0,0.5,0.2,0.7c0,0,0.1,0,0.1,0.1c0,0.1-0.1,0.1-0.1,0.1c0,0-0.1,0-0.5,0
			c-0.3,0-0.4,0-0.5,0L123.8,120.5C123.9,120.6,123.8,120.6,123.8,120.5 M128.8,120.5L128.8,120.5L128.8,120.5z M127.3,120.5
			C127.3,120.5,127.3,120.5,127.3,120.5c-0.2-0.1-0.2-0.4-0.2-0.6v-1.1c0-1,0.2-1.8,1-1.8c0.5,0,1,0.3,1,1.5v1.2
			c0,0.4-0.1,0.7-0.2,0.8c0.1,0,0.3,0,0.4,0c0.1,0,0.3,0,0.4,0c-0.2-0.2-0.2-0.4-0.2-0.9v-1.2c0-0.9-0.3-1.5-1.4-1.5
			c-0.5,0-0.9,0.3-1.1,1l-0.1,0c-0.2-0.6-0.4-0.9-1.2-0.9c-0.4,0-0.9,0.3-1.1,0.9l-0.1-0.1V117l-0.6,0.2c0,0,0,0,0,0
			c0.1,0,0.2,0.1,0.2,0.5v1.7c0,0.4,0,0.9-0.2,1.1c0.1,0,0.2,0,0.4,0c0.2,0,0.3,0,0.4,0c-0.2-0.2-0.2-0.4-0.2-0.8v-1.2
			c0-0.8,0.5-1.6,1.2-1.6c0.4,0,0.9,0.3,0.9,1.2v1.3c0,0.6,0,0.9-0.2,1c0.1,0,0.3,0,0.4,0C127,120.5,127.2,120.5,127.3,120.5"/>
		<path id="XMLID_100_" class="st1" d="M64.9,119.1c0,0.3,0,0.5,0,0.8c0,0.4,0.2,0.4,0.8,0.4c0.5,0,1.1,0,1.6-0.4
			c0.2-0.1,0.2-0.2,0.3-0.4c0,0,0,0,0.1,0c0,0,0,0,0,0c0,0,0,0,0,0.1l-0.2,0.8h-3.4c-0.1,0-0.1,0-0.1,0c0,0,0-0.1,0.1-0.1
			c0.3-0.1,0.3-0.9,0.3-1.2v-2.4c0-0.3,0-0.5-0.2-0.6c0,0,0,0,0,0c0,0,0.1,0,0.1,0h3l0.1,0.4c0,0.2,0.1,0.4,0.1,0.5c0,0,0,0,0,0
			c0,0,0,0-0.1-0.1c-0.3-0.5-0.8-0.7-1.4-0.7h-1v1.8h0.5c0.8,0,1.1,0,1.3-0.2c0.1-0.1,0.1-0.2,0.2-0.3c0,0,0,0,0,0c0,0,0,0,0,0.1v1
			c0,0,0,0.1,0,0.1c0,0,0,0,0,0c0-0.1-0.1-0.2-0.2-0.3c-0.3-0.2-0.9-0.2-1.3-0.2h-0.5V119.1z"/>
		<path id="XMLID_351_" class="st1" d="M64.2,120.5c0,0-0.1,0-0.1-0.1c0-0.1,0.1-0.1,0.1-0.1c0.2,0,0.3-0.8,0.2-1.1v-2.4
			c0-0.3,0-0.5-0.2-0.6c0,0-0.1,0-0.1-0.1c0-0.1,0.1-0.1,0.2-0.1l3,0l0.1,0.4c0.1,0.2,0.1,0.4,0.1,0.5c0,0.1-0.1,0.1-0.1,0.1
			c-0.1,0-0.1-0.1-0.1-0.1c-0.3-0.5-0.7-0.6-1.4-0.6l-1,0l-0.1,1.7h0.5c0.8,0,1.1,0,1.2-0.2c0.1-0.1,0.1-0.2,0.1-0.3
			c0,0,0-0.1,0.1-0.1c0.1,0,0.1,0.1,0.1,0.2v1c0,0,0,0.1-0.1,0.2c-0.1,0-0.1,0-0.1-0.1c0-0.1-0.1-0.2-0.2-0.3
			c-0.2-0.2-0.9-0.2-1.2-0.2l-0.5-0.1v0.9c0,0.3,0,0.5,0,0.8c0,0.3,0.1,0.3,0.7,0.4c0.5,0,1.1,0,1.6-0.4c0.2-0.1,0.2-0.2,0.3-0.4
			c0,0,0-0.1,0.1-0.1c0.1,0,0.1,0.1,0.1,0.1c0,0,0,0.1,0,0.1l-0.3,0.9H64.2z M67.5,120.5l0.2-0.8c-0.1,0.1-0.2,0.2-0.3,0.3
			c-0.5,0.3-1.1,0.4-1.7,0.4c-0.6,0-0.8-0.1-0.8-0.5c0-0.3,0-0.5,0-0.8l0.1-0.9h0.5c0.3,0,1,0,1.3,0.2c0.1,0.1,0.1,0.1,0.2,0.2v-0.9
			c0,0.1-0.1,0.1-0.1,0.2c-0.2,0.2-0.5,0.2-1.3,0.2l-0.6-0.1l0.1-1.8h1c0.6,0,1.2,0.1,1.5,0.6c0-0.1,0-0.2-0.1-0.3l0-0.4h-3
			c0,0,0,0,0,0c0.2,0.1,0.2,0.4,0.2,0.6v2.4c0,0.3,0,1.1-0.3,1.2l0,0L67.5,120.5z"/>
		<path id="XMLID_97_" class="st1" d="M69,117v0.8h0c0.2-0.6,0.6-0.9,1.1-0.9c0.6,0,1.2,0.3,1.2,1.3v1.3c0,0.7,0,0.8,0.2,0.9
			c0.1,0,0.1,0.1,0.1,0.1c0,0,0,0-0.1,0c-0.1,0-0.3,0-0.4,0c-0.2,0-0.4,0-0.5,0c0,0-0.1,0-0.1,0c0,0,0.1-0.1,0.1-0.1
			c0.2-0.1,0.2-0.5,0.2-1v-0.9c0-1.2-0.4-1.5-0.9-1.5c-0.6,0-1,0.7-1,1.5v1c0,0.5,0,0.7,0.2,0.9c0.1,0,0.1,0.1,0.1,0.1c0,0,0,0,0,0
			c-0.1,0-0.3,0-0.5,0c-0.2,0-0.4,0-0.5,0c0,0,0,0,0,0c0,0,0,0,0.1-0.1c0.2-0.1,0.2-0.6,0.2-1v-1.5c0-0.5-0.1-0.6-0.2-0.7
			c0,0-0.1,0-0.1-0.1c0,0,0,0,0.1,0L69,117z"/>
		<path id="XMLID_347_" class="st1" d="M71.1,120.5c-0.2,0-0.4,0-0.5,0c0,0-0.1,0-0.1-0.1c0-0.1,0.1-0.1,0.1-0.1
			c0.1-0.1,0.2-0.4,0.2-0.9v-0.9c0-1.1-0.4-1.4-0.8-1.4c-0.5,0-0.9,0.6-1,1.4v1.1c0,0.5,0,0.7,0.2,0.8c0.1,0.1,0.1,0,0.1,0.1
			c0,0.1-0.1,0.1-0.1,0.1c-0.1,0-0.3,0-0.5,0c-0.2,0-0.4,0-0.5,0c0,0-0.1,0-0.1-0.1c0-0.1,0.1-0.1,0.1-0.1c0.1-0.1,0.2-0.6,0.2-0.9
			v-1.5c0-0.5-0.1-0.6-0.2-0.6c-0.1,0-0.1-0.1-0.1-0.1c0-0.1,0.1-0.1,0.1-0.1l0.6-0.2l0.1,0v0.1l0,0.6c0.2-0.5,0.7-0.8,1.2-0.8
			c0.6,0,1.3,0.4,1.3,1.4v1.3c0,0.8,0,0.8,0.2,0.9c0.1,0,0.1,0.1,0.1,0.1c0,0.1-0.1,0.1-0.1,0.1C71.5,120.6,71.3,120.5,71.1,120.5
			 M70.9,118.5v0.9c0,0.5,0,0.9-0.2,1c0,0,0,0,0,0c0.1,0,0.3,0,0.4,0c0.1,0,0.3,0,0.4,0c0,0,0,0,0,0c-0.2-0.1-0.2-0.2-0.2-0.9v-1.3
			c0-1-0.6-1.3-1.2-1.3c-0.5,0-0.9,0.3-1.1,0.9l-0.1-0.1V117l-0.5,0.2h0c0,0,0,0,0,0c0.1,0.1,0.2,0.2,0.2,0.7v1.5c0,0.4,0,0.9-0.2,1
			c0,0,0,0,0,0c0.1,0,0.3,0,0.4,0c0.1,0,0.3,0,0.4,0c0,0,0,0,0,0c-0.2-0.2-0.2-0.4-0.2-0.9v-1.1c0-0.8,0.4-1.5,1.1-1.5
			C70.5,117,70.9,117.3,70.9,118.5"/>
		<path id="XMLID_94_" class="st1" d="M72.3,117.3c-0.1,0-0.1,0-0.1,0c0,0,0,0,0.1-0.1c0.3-0.2,0.6-0.5,0.7-1c0-0.1,0-0.1,0.1-0.1
			c0,0,0,0,0,0.1v0.9h0.5c0.1,0,0.1,0,0.1,0c0,0,0,0,0,0l0,0.1H73v1.2c0,1,0.1,1.8,0.4,1.9c0,0,0,0,0,0c0,0,0,0-0.1,0
			c-0.1,0-0.2,0-0.4,0c-0.3,0-0.4-0.1-0.4-0.8v-2.4H72.3z"/>
		<path id="XMLID_93_" class="st1" d="M72.6,119.7l0.1-2.3h-0.3v0v-0.1l0.4,0.1v2.4c0,0.7,0.1,0.7,0.3,0.7c0.1,0,0.2,0,0.3,0
			c-0.3-0.2-0.3-1-0.3-1.9l0.1-1.2l0.5,0l0-0.1v0h0l-0.5,0v-0.8c-0.1,0.4-0.4,0.7-0.7,0.9c0,0-0.1,0-0.1,0c0,0,0,0,0,0v0.1v0
			c-0.1,0-0.2,0-0.2-0.1c0-0.1,0-0.1,0.1-0.1c0.3-0.2,0.5-0.5,0.6-0.9c0-0.1,0-0.1,0.1-0.1c0.1,0,0.1,0.1,0.1,0.1l-0.1,0.9h0.5
			c0.1,0,0.1,0,0.1,0.1l0,0l-0.1,0.2l-0.5,0v1.2c0,1,0.1,1.8,0.4,1.8c0,0,0.1,0,0.1,0.1c0,0.1-0.1,0.1-0.1,0.1c-0.1,0-0.2,0-0.4,0
			C72.7,120.5,72.6,120.4,72.6,119.7"/>
		<path id="XMLID_342_" class="st1" d="M74.8,118.3c0,0.1,0,0.2,0,0.3c0,1,0.3,1.8,1.2,1.8c0.8,0,1.2-1,1.3-1.2c0,0,0-0.1,0.1-0.1
			c0,0,0,0,0,0.1c0,0.1,0,0.1,0,0.2c-0.2,0.8-0.8,1.3-1.6,1.3c-0.9,0-1.5-0.9-1.5-1.9c0-0.9,0.6-1.8,1.6-1.8c0.7,0,1.4,0.5,1.5,1.4
			H74.8z M76.8,118.1c0-0.7-0.4-1.1-0.9-1.1c-0.6,0-0.9,0.4-1,1.1H76.8z"/>
		<path id="XMLID_336_" class="st1" d="M74.2,118.7c0-0.9,0.6-1.9,1.6-1.9c0.7,0,1.5,0.5,1.5,1.5h-2.4c0,0.1,0,0.2,0,0.3
			c0,1,0.3,1.8,1.1,1.8c0.8,0,1.2-1,1.2-1.2c0-0.1,0-0.1,0.1-0.1c0.1,0,0.1,0.1,0.1,0.1c0,0.1,0,0.1,0,0.2c-0.2,0.8-0.9,1.3-1.6,1.3
			C74.9,120.6,74.2,119.7,74.2,118.7 M74.3,118.7c0,1,0.6,1.9,1.5,1.9c0.7,0,1.3-0.5,1.5-1.2c0,0,0-0.1,0-0.2c0,0,0,0,0,0
			c0,0.2-0.4,1.2-1.3,1.3c-0.9,0-1.2-0.9-1.2-1.9c0-0.1,0-0.2,0-0.3l0.1,0v-0.1l2.4,0.1c-0.1-0.9-0.7-1.3-1.4-1.3
			C74.9,116.9,74.3,117.8,74.3,118.7 M77.3,119.1L77.3,119.1L77.3,119.1z M74.8,118.1c0.1-0.7,0.5-1.1,1.1-1.1c0.6,0,1,0.4,1,1.1
			h-0.1v0.1L74.8,118.1z M74.9,118h1.9c0-0.6-0.4-1-0.9-1C75.3,117.1,75,117.4,74.9,118"/>
		<path id="XMLID_85_" class="st1" d="M79.7,117.5c-0.1-0.1-0.2-0.2-0.3-0.2c-0.5,0-0.6,0.7-0.6,1.8v0.4c0,0.5,0,0.8,0.3,0.9
			c0.1,0,0.1,0,0.1,0.1c0,0,0,0,0,0c-0.1,0-0.3,0-0.5,0c-0.2,0-0.4,0-0.5,0c0,0-0.1,0-0.1,0c0,0,0-0.1,0.1-0.1
			c0.2-0.1,0.2-0.3,0.2-1v-2c0-0.1-0.1-0.2-0.2-0.3c0,0-0.1,0-0.1,0c0,0,0,0,0.1,0l0.6-0.2v0.9h0c0.3-0.7,0.6-1,1.1-1L79.7,117.5z"
			/>
		<path id="XMLID_331_" class="st1" d="M78.6,120.5c-0.2,0-0.4,0-0.5,0c0,0-0.1,0-0.1-0.1c0-0.1,0.1-0.1,0.1-0.1
			c0.1-0.1,0.2-0.3,0.2-0.9v-2c0-0.1-0.1-0.2-0.1-0.2c-0.1,0-0.1,0-0.1-0.1c0-0.1,0.1-0.1,0.1-0.1l0.6-0.2v0.1l0,0.8
			c0.2-0.6,0.6-0.9,1.1-0.9h0.1l0,0.1l-0.2,0.7l0,0.1l-0.1-0.1c-0.1-0.1-0.1-0.2-0.3-0.2c-0.4,0-0.6,0.6-0.6,1.7v0.4
			c0,0.5,0.1,0.8,0.2,0.8c0.1,0,0.1,0.1,0.1,0.1c0,0.1-0.1,0.1-0.1,0.1C79,120.6,78.8,120.5,78.6,120.5 M78.2,117.1
			c0.1,0,0.2,0.2,0.2,0.3v2c0,0.6,0,0.9-0.3,1c0,0,0,0,0,0c0.1,0,0.3,0,0.5,0c0.2,0,0.4,0,0.5,0c0,0,0,0,0,0
			c-0.3-0.1-0.3-0.4-0.3-0.9v-0.4c0-1.1,0.1-1.8,0.7-1.8c0.1,0,0.2,0.1,0.3,0.1l0.1-0.5c-0.5,0-0.8,0.3-1.1,1l-0.1-0.1V117
			L78.2,117.1C78.2,117.1,78.2,117.1,78.2,117.1 M79.7,117.5L79.7,117.5L79.7,117.5z"/>
		<path id="XMLID_328_" class="st1" d="M80.9,117.8L80.9,117.8c0.2-0.6,0.6-1,1.2-1c0.8,0,1.5,0.8,1.5,1.8c0,1.1-0.6,1.9-1.6,1.9
			c-0.5,0-1-0.4-1.1-0.7h0v1c0,0.3,0,0.6,0.2,0.8c0.1,0,0.1,0.1,0.1,0.1c0,0,0,0-0.1,0c-0.1,0-0.1,0-0.4,0c-0.4,0-0.4,0-0.5,0
			c-0.1,0-0.1,0-0.1,0c0,0,0,0,0.1-0.1c0.1-0.1,0.2-0.6,0.2-1.2v-2.7c0-0.5-0.1-0.6-0.2-0.6c0,0-0.1,0-0.1,0c0,0,0,0,0.1,0
			c0.2,0,0.4-0.1,0.6-0.2V117.8z M81,118.7c0,1,0.3,1.8,1.1,1.8c0.8,0,1.1-0.8,1.1-1.8c0-0.9-0.3-1.6-1.1-1.6
			C81.3,117,81,117.8,81,118.7"/>
		<path id="XMLID_323_" class="st1" d="M80.8,121.9c-0.4,0-0.4,0-0.5,0c-0.1,0-0.1,0-0.1-0.1c0-0.1,0.1-0.1,0.2-0.1
			c0.1,0,0.2-0.5,0.2-1.2v-2.7c0-0.5-0.1-0.5-0.2-0.5c0,0-0.1,0-0.1-0.1c0-0.1,0.1-0.1,0.1-0.1c0.2,0,0.4-0.1,0.5-0.2l0.1,0v0.1v0.7
			c0.2-0.5,0.6-0.8,1.2-0.8c0.9,0,1.6,0.8,1.6,1.9c0,1.1-0.7,2-1.6,2c-0.5,0-0.9-0.3-1.1-0.6v0.9c0,0.3,0,0.6,0.2,0.7
			c0.1,0,0.1,0,0.1,0.1c0,0.1-0.1,0.1-0.1,0.1C81.2,121.9,81.1,121.9,80.8,121.9 M80.6,117.8v2.7c0,0.7-0.1,1.2-0.2,1.3
			c0,0-0.1,0-0.1,0c0,0,0.1,0,0.5,0c0.2,0,0.3,0,0.4,0c0,0,0,0,0,0c-0.2-0.2-0.2-0.5-0.2-0.8l0.1-1.1l0.1,0c0.1,0.3,0.6,0.6,1.1,0.7
			c0.9,0,1.5-0.8,1.5-1.9c0-1-0.7-1.8-1.5-1.8c-0.6,0-0.9,0.3-1.2,0.9v0h0c0,0,0,0,0,0.1h0v-0.1h-0.1V117c-0.1,0.1-0.3,0.1-0.5,0.2
			C80.5,117.2,80.6,117.4,80.6,117.8 M80.9,118.7c0-0.8,0.3-1.7,1.2-1.7c0.8,0,1.1,0.8,1.1,1.7c0,0.9-0.3,1.8-1.1,1.8
			C81.2,120.5,80.9,119.6,80.9,118.7 M82.1,120.4c0.8,0,1-0.8,1-1.7c0-0.9-0.3-1.6-1-1.6c-0.8,0-1.1,0.8-1.1,1.6
			C81,119.6,81.3,120.4,82.1,120.4"/>
		<path id="XMLID_75_" class="st1" d="M86,117.5c-0.1-0.1-0.2-0.2-0.3-0.2c-0.5,0-0.6,0.7-0.6,1.8v0.4c0,0.5,0,0.8,0.3,0.9
			c0.1,0,0.1,0,0.1,0.1c0,0,0,0,0,0c-0.1,0-0.3,0-0.5,0c-0.2,0-0.4,0-0.5,0c0,0-0.1,0-0.1,0c0,0,0-0.1,0.1-0.1
			c0.2-0.1,0.2-0.3,0.2-1v-2c0-0.1-0.1-0.2-0.2-0.3c0,0-0.1,0-0.1,0c0,0,0,0,0.1,0l0.6-0.2v0.9h0c0.3-0.7,0.6-1,1.1-1L86,117.5z"/>
		<path id="XMLID_318_" class="st1" d="M84.9,120.5c-0.2,0-0.4,0-0.5,0c0,0-0.1,0-0.1-0.1c0-0.1,0.1-0.1,0.1-0.1
			c0.1-0.1,0.2-0.3,0.2-0.9v-2c0-0.1-0.1-0.2-0.2-0.2c-0.1,0-0.1,0-0.1-0.1c0-0.1,0.1-0.1,0.1-0.1l0.6-0.2v0.1l0,0.8
			c0.2-0.6,0.6-0.9,1.1-0.9h0.1l0,0.1l-0.2,0.7l0,0.1l-0.1-0.1c-0.1-0.1-0.1-0.2-0.3-0.2c-0.4,0-0.6,0.6-0.6,1.7v0.4
			c0,0.5,0.1,0.8,0.2,0.8c0.1,0,0.1,0.1,0.1,0.1c0,0.1-0.1,0.1-0.1,0.1C85.3,120.6,85.1,120.5,84.9,120.5 M84.5,117.1
			c0.1,0,0.2,0.2,0.2,0.3v2c0,0.6,0,0.9-0.3,1c0,0,0,0,0,0c0.1,0,0.3,0,0.5,0c0.2,0,0.4,0,0.5,0c0,0,0,0,0,0
			c-0.3-0.1-0.3-0.4-0.3-0.9v-0.4c0-1.1,0.1-1.8,0.7-1.8c0.1,0,0.2,0.1,0.3,0.1l0.1-0.5c-0.5,0-0.8,0.3-1.1,1l-0.1-0.1l0-0.9
			L84.5,117.1L84.5,117.1z M86,117.5L86,117.5L86,117.5z"/>
		<path id="XMLID_315_" class="st1" d="M87.4,119.3c0,0.8,0.1,1.1,0.2,1.1c0,0,0.1,0,0.1,0.1c0,0,0,0-0.1,0c-0.1,0-0.3,0-0.5,0
			c-0.3,0-0.4,0-0.5,0c0,0,0,0,0,0c0,0,0-0.1,0.1-0.1c0.2-0.1,0.2-0.4,0.2-1v-2c0-0.1-0.1-0.2-0.2-0.2c0,0,0,0,0,0c0,0,0,0,0,0
			l0.6-0.2V119.3z M87.5,116.1c0,0.2-0.1,0.3-0.3,0.3c-0.1,0-0.3-0.1-0.3-0.3c0-0.2,0.1-0.3,0.3-0.3
			C87.4,115.8,87.5,115.9,87.5,116.1"/>
		<path id="XMLID_309_" class="st1" d="M87.2,120.5c-0.3,0-0.4,0-0.5,0c0,0-0.1,0-0.1-0.1c0-0.1,0.1-0.1,0.1-0.1
			c0.1-0.1,0.2-0.3,0.2-0.9v-2c0-0.1-0.1-0.1-0.2-0.2c0,0-0.1,0-0.1-0.1c0-0.1,0.1-0.1,0.1-0.1l0.7-0.2v2.4c0,0.8,0.1,1.1,0.2,1.1
			c0,0,0.1,0,0.1,0.1c0,0.1-0.1,0.1-0.1,0.1C87.6,120.6,87.4,120.5,87.2,120.5 M87.7,120.5L87.7,120.5L87.7,120.5z M87.6,120.5
			c-0.2-0.1-0.2-0.5-0.2-1.2V117l-0.5,0.2c0.1,0.1,0.2,0.1,0.2,0.3v2c0,0.6,0,0.9-0.2,1c0,0,0,0,0,0c0.1,0,0.2,0,0.4,0
			C87.4,120.4,87.5,120.5,87.6,120.5 M86.9,116.1c0-0.2,0.2-0.4,0.3-0.4c0.2,0,0.3,0.2,0.3,0.4c0,0.2-0.2,0.4-0.3,0.4
			C87.1,116.5,86.9,116.4,86.9,116.1 M87,116.1c0,0.2,0.1,0.3,0.2,0.3c0.1,0,0.2-0.1,0.2-0.3c0-0.2-0.1-0.3-0.2-0.3
			C87.2,115.9,87,115.9,87,116.1"/>
		<path id="XMLID_64_" class="st1" d="M90.9,117.7C90.9,117.8,90.8,117.8,90.9,117.7c-0.1,0.1-0.1,0-0.1-0.1
			c-0.1-0.4-0.6-0.6-0.9-0.6c-0.4,0-0.8,0.2-0.8,0.7c0,0.7,0.6,0.7,1,0.7c0.5,0.1,1.1,0.1,1.1,0.9c0,0.9-0.8,1.2-1.4,1.2
			c-0.5,0-1-0.1-1.4-0.4l0.1-0.4c0-0.2,0.1-0.2,0.1-0.2c0,0,0,0.1,0.1,0.1c0.2,0.6,0.7,0.7,1.1,0.7c0.4,0,1-0.2,1-0.8
			c0-0.7-0.6-0.7-1.1-0.7c-0.5-0.1-1.1-0.3-1.1-1c0-0.8,0.8-1.1,1.3-1.1c0.4,0,0.8,0.1,1.1,0.3L90.9,117.7z"/>
		<path id="XMLID_305_" class="st1" d="M88.3,120.2l0.1-0.4c0.1-0.2,0-0.2,0.2-0.3c0.1,0,0.1,0.1,0.1,0.2c0.1,0.5,0.7,0.7,1.1,0.7
			c0.4,0,0.9-0.1,0.9-0.7c0-0.6-0.6-0.6-1-0.7c-0.5-0.1-1.1-0.3-1.1-1c0-0.9,0.8-1.1,1.4-1.1c0.4,0,0.8,0.1,1.2,0.4l-0.1,0.5
			c0,0.1,0,0.1-0.1,0.1c-0.1,0-0.1-0.1-0.1-0.2c-0.1-0.4-0.5-0.6-0.9-0.6c-0.4,0-0.7,0.2-0.7,0.7c0,0.6,0.6,0.6,1,0.7
			c0.5,0.1,1.1,0.1,1.1,0.9c0,0.9-0.8,1.3-1.4,1.3C89.3,120.7,88.8,120.6,88.3,120.2 M88.5,119.8l-0.1,0.4c0.4,0.3,0.9,0.4,1.4,0.4
			c0.6,0,1.3-0.4,1.3-1.2c0-0.7-0.6-0.8-1-0.8c-0.4,0-1.1-0.1-1.1-0.8c0-0.5,0.5-0.8,0.9-0.8c0.4,0,0.9,0.2,1,0.6c0,0,0,0,0,0.1
			l0.2-0.5c-0.3-0.2-0.7-0.3-1.1-0.3c-0.5,0-1.3,0.3-1.3,1c0,0.6,0.6,0.9,1,0.9c0.4,0,1.1,0,1.1,0.8c0,0.7-0.6,0.8-1,0.8
			C89.3,120.5,88.7,120.3,88.5,119.8c0.1-0.1,0-0.1,0-0.1C88.5,119.7,88.5,119.7,88.5,119.8"/>
		<path id="XMLID_302_" class="st1" d="M92.5,118.3c0,0.1,0,0.2,0,0.3c0,1,0.3,1.8,1.2,1.8c0.8,0,1.2-1,1.3-1.2c0,0,0-0.1,0.1-0.1
			c0,0,0,0,0,0.1c0,0.1,0,0.1,0,0.2c-0.2,0.8-0.8,1.3-1.6,1.3c-0.9,0-1.5-0.9-1.5-1.9c0-0.9,0.6-1.8,1.6-1.8c0.7,0,1.4,0.5,1.5,1.4
			H92.5z M94.4,118.1c0-0.7-0.4-1.1-0.9-1.1c-0.6,0-0.9,0.4-1,1.1H94.4z"/>
		<path id="XMLID_297_" class="st1" d="M91.8,118.7c0-0.9,0.6-1.9,1.6-1.9c0.7,0,1.5,0.5,1.5,1.5h-2.4c0,0.1,0,0.2,0,0.3
			c0,1,0.3,1.8,1.1,1.8c0.8,0,1.2-1,1.2-1.2c0,0,0-0.1,0.1-0.1c0.1,0,0.1,0.1,0.1,0.1c0,0.1,0,0.1,0,0.2c-0.2,0.8-0.9,1.3-1.6,1.3
			C92.5,120.6,91.8,119.7,91.8,118.7 M91.9,118.7c0,1,0.6,1.9,1.4,1.9c0.7,0,1.3-0.5,1.5-1.2c0,0,0-0.1,0-0.1c0,0,0,0,0,0
			c0,0.2-0.4,1.2-1.3,1.3c-0.9,0-1.2-0.9-1.2-1.9c0-0.1,0-0.2,0-0.3l0.1,0v-0.1l2.4,0.1c-0.1-0.9-0.7-1.3-1.4-1.3
			C92.5,116.9,91.9,117.8,91.9,118.7 M92.4,118.1c0.1-0.7,0.5-1.1,1.1-1.1c0.6,0,1,0.4,1,1.1h-0.1v0.1L92.4,118.1z M92.5,118h1.9
			c0-0.6-0.4-1-0.9-1C92.9,117.1,92.6,117.4,92.5,118"/>
		<path id="XMLID_294_" class="st1" d="M56.7,116.9c0.8,0,1.6,0.7,1.6,1.9c0,1.1-0.8,1.9-1.6,1.9c-0.8,0-1.6-0.8-1.6-1.9
			C55.1,117.6,55.9,116.9,56.7,116.9 M56.7,120.4c0.8,0,1.1-0.8,1.1-1.7c0-0.9-0.3-1.7-1.1-1.7c-0.8,0-1.1,0.8-1.1,1.7
			C55.6,119.7,55.9,120.4,56.7,120.4"/>
		<path id="XMLID_291_" class="st1" d="M55,118.7c0-1.1,0.8-1.9,1.7-1.9v0.1v0c-0.8,0-1.6,0.7-1.6,1.8c0,1.1,0.8,1.8,1.6,1.8
			c0.8,0,1.6-0.7,1.6-1.8c0-1.1-0.8-1.8-1.6-1.8v0v-0.1c0.9,0,1.7,0.8,1.7,1.9c0,1.1-0.8,1.9-1.7,1.9C55.9,120.7,55,119.9,55,118.7
			 M55.6,118.8L55.6,118.8L55.6,118.8c0-1,0.3-1.8,1.2-1.8c0.9,0,1.2,0.8,1.2,1.7v0v0c0,0.9-0.3,1.7-1.2,1.7v-0.1v0
			c0.8,0,1.1-0.7,1.1-1.6v0v0c0-0.9-0.3-1.6-1.1-1.6c-0.8,0-1.1,0.7-1.1,1.6v0v0c0,0.9,0.3,1.6,1.1,1.6v0v0.1
			C55.9,120.5,55.6,119.7,55.6,118.8"/>
		<path id="XMLID_51_" class="st1" d="M60.5,117.5c-0.1-0.1-0.2-0.2-0.3-0.2c-0.5,0-0.6,0.7-0.6,1.8v0.4c0,0.5,0,0.8,0.3,0.9
			c0.1,0,0.1,0,0.1,0.1c0,0,0,0,0,0c-0.1,0-0.3,0-0.5,0c-0.2,0-0.4,0-0.5,0c0,0-0.1,0-0.1,0c0,0,0-0.1,0.1-0.1
			c0.2-0.1,0.2-0.3,0.2-1v-2c0-0.1-0.1-0.2-0.2-0.3c0,0-0.1,0-0.1,0c0,0,0,0,0.1,0l0.6-0.2v0.9h0c0.2-0.7,0.6-1,1.1-1L60.5,117.5z"
			/>
		<path id="XMLID_286_" class="st1" d="M59.4,120.5c-0.2,0-0.4,0-0.5,0c0,0-0.1,0-0.1-0.1c0-0.1,0.1-0.1,0.1-0.1
			c0.1-0.1,0.2-0.3,0.2-0.9v-2c0-0.1-0.1-0.2-0.1-0.2c-0.1,0-0.1,0-0.1-0.1c0-0.1,0.1-0.1,0.1-0.1l0.7-0.2v0.1l0,0.8
			c0.2-0.6,0.6-0.9,1.1-0.9h0.1l0,0.1l-0.2,0.7l0,0.1l-0.1-0.1c-0.1-0.1-0.1-0.2-0.3-0.2c-0.4,0-0.6,0.6-0.6,1.7v0.4
			c0,0.5,0.1,0.8,0.2,0.8c0.1,0,0.1,0.1,0.1,0.1c0,0.1-0.1,0.1-0.1,0.1C59.8,120.6,59.6,120.5,59.4,120.5 M59,117.1
			c0.1,0,0.2,0.2,0.2,0.3v2c0,0.6,0,0.9-0.3,1c0,0,0,0,0,0c0.1,0,0.3,0,0.5,0c0.2,0,0.4,0,0.5,0c0,0,0,0,0,0
			c-0.3-0.1-0.3-0.4-0.3-0.9v-0.4c0-1.1,0.1-1.8,0.7-1.8c0.1,0,0.2,0.1,0.3,0.1l0.1-0.5c-0.5,0-0.8,0.3-1.1,1l-0.1-0.1V117L59,117.1
			C59,117.1,59,117.1,59,117.1 M60.5,117.5L60.5,117.5L60.5,117.5z"/>
		<path id="XMLID_47_" class="st1" d="M53,117.2h0.4v-0.3c0-0.9,0.6-1.2,1.3-1.3l-0.1,0.6c-0.1-0.1-0.2-0.3-0.4-0.3
			c-0.2,0-0.3,0.2-0.3,0.4v0.8h0.5l0,0.2h-0.5v1.6c0,0.7,0.1,1.2,0.2,1.4c0.1,0.1,0.1,0.1,0.1,0.1c0,0,0,0-0.1,0c0,0-0.1,0-0.5,0
			c-0.2,0-0.3,0-0.4,0c0,0-0.1,0-0.1,0c0,0,0,0,0.1-0.1c0.1-0.1,0.2-0.4,0.2-0.6v-2.5H53L53,117.2z"/>
		<path id="XMLID_282_" class="st1" d="M53.7,120.6c-0.2,0-0.3,0-0.4,0c0,0-0.1,0-0.1-0.1c0-0.1,0.1-0.1,0.1-0.1
			c0.1-0.1,0.2-0.3,0.2-0.6l0.1-2.4h-0.5l0-0.1l0-0.2l0.1,0v-0.1l0.4,0.1v-0.3c0-0.9,0.7-1.2,1.3-1.3l0.1,0l0,0.1l-0.2,0.7l-0.1-0.1
			c-0.1-0.1-0.2-0.2-0.3-0.2c-0.1,0-0.3,0.1-0.3,0.4l-0.1,0.8h0.6l0,0.1l-0.1,0.2l-0.4-0.1v1.6c0,0.7,0.1,1.2,0.2,1.4
			c0,0.1,0.1,0,0.1,0.1c0,0.1-0.1,0.1-0.1,0.1C54.1,120.6,54,120.6,53.7,120.6 M53.1,117.3l0.4,0v2.5c0,0.2,0,0.5-0.2,0.6
			c0,0,0,0,0,0v0c0.1,0,0.2,0,0.3,0c0.2,0,0.4,0,0.4,0c0,0,0,0-0.1-0.1c-0.2-0.2-0.2-0.7-0.2-1.4l0.1-1.7l0.4,0l0-0.1l-0.5,0v-0.8
			c0-0.3,0.2-0.5,0.4-0.5c0.2,0,0.3,0.1,0.4,0.2l0.1-0.4c-0.6,0.1-1.1,0.4-1.1,1.2l-0.1,0.4L53.1,117.3L53.1,117.3z"/>
		<path id="XMLID_44_" class="st1" d="M37.9,116.6c0,0.2,0.1,0.4,0.1,0.5c0,0,0,0,0,0c0,0,0,0-0.1-0.1c-0.3-0.5-0.9-0.6-1.6-0.6
			h-0.9v1.8h0.9c0.7,0,0.8-0.1,1-0.2c0.1-0.1,0.1-0.2,0.1-0.2c0,0,0-0.1,0-0.1c0,0,0,0,0,0.1v1.2c0,0,0,0,0,0c0,0,0,0-0.1-0.1
			c-0.1-0.3-0.3-0.5-1.1-0.5h-0.9v1.1c0,0.6,0,1,0.3,1.1c0,0,0.1,0,0.1,0.1c0,0,0,0-0.1,0c-0.1,0-0.2,0-0.5,0c-0.3,0-0.5,0-0.6,0
			c0,0,0,0,0,0c0,0,0,0,0,0c0.3-0.1,0.3-0.5,0.3-1.1v-2.7c0-0.2-0.1-0.3-0.2-0.4c0,0-0.1,0-0.1-0.1c0,0,0,0,0.1,0h3L37.9,116.6z"/>
		<path id="XMLID_278_" class="st1" d="M35.2,120.6c-0.3,0-0.5,0-0.6,0c0,0-0.1,0-0.1-0.1c0-0.1,0.1-0.1,0.1-0.1
			c0.2-0.1,0.3-0.5,0.3-1.1v-2.7c0-0.2,0-0.3-0.2-0.4c0,0-0.1,0-0.1-0.1c0-0.1,0.1-0.1,0.2-0.1l3.1,0l0.1,0.4l-0.1,0l0.1,0
			c0,0.2,0.1,0.4,0.1,0.5c0,0.1-0.1,0.1-0.1,0.1c-0.1,0-0.1-0.1-0.1-0.1c-0.3-0.5-0.9-0.6-1.6-0.6l-0.8-0.1l-0.1,1.7h0.9
			c0.7,0,0.8-0.1,0.9-0.2c0.1-0.1,0.1-0.1,0.1-0.2c0,0,0-0.1,0.1-0.1c0.1,0,0.1,0.1,0.1,0.2v1.2c0,0,0,0.1-0.1,0.1
			c-0.1,0-0.1-0.1-0.1-0.1c-0.1-0.2-0.3-0.5-1-0.5l-0.9-0.1v1.1c0,0.6,0.1,0.9,0.3,1.1c0,0,0.1,0,0.1,0.1c0,0.1-0.1,0.1-0.1,0.1
			C35.6,120.6,35.5,120.6,35.2,120.6 M35.7,120.5c-0.3-0.2-0.3-0.6-0.3-1.1l0.1-1.1h0.9c0.7,0,1,0.2,1.1,0.5v-0.9
			c0,0-0.1,0.1-0.1,0.1c-0.1,0.2-0.3,0.2-1,0.2l-0.9,0l0.1-1.8h0.9c0.7,0,1.3,0.1,1.7,0.6c0-0.1-0.1-0.2-0.1-0.3l0-0.4h-3h0
			c0.2,0.1,0.2,0.2,0.2,0.5v2.7c0,0.5,0,0.9-0.3,1.1c0.1,0,0.3,0,0.5,0C35.4,120.5,35.6,120.5,35.7,120.5"/>
		<path id="XMLID_41_" class="st1" d="M39.2,117v2.3c0,0.6,0.2,1.2,0.9,1.2c0.7,0,1-0.8,1-1.8V118c0-0.5,0-0.6-0.2-0.7
			c0,0-0.1,0-0.1-0.1c0,0,0,0,0,0l0.6-0.2v2.3c0,0.3,0,1,0.2,1.2c0,0,0.1,0.1,0.1,0.1c0,0,0,0-0.1,0h-0.4l-0.2-0.7
			c-0.3,0.6-0.6,0.8-1.2,0.8c-0.7,0-1.1-0.5-1.1-1.3v-1.5c0-0.4-0.1-0.5-0.2-0.5c-0.1,0-0.1,0-0.1-0.1c0,0,0,0,0.1,0L39.2,117z"/>
		<path id="XMLID_274_" class="st1" d="M39.9,120.7c-0.7,0-1.2-0.6-1.2-1.3v-1.5c0-0.4,0-0.4-0.1-0.5c-0.1,0-0.1,0-0.1-0.1
			c0-0.1,0.1-0.1,0.1-0.1l0.6-0.2l0.1,0v2.3c0,0.6,0.2,1.1,0.8,1.1c0.6,0,0.9-0.8,0.9-1.7V118c0-0.5,0-0.6-0.1-0.7
			c0,0-0.1,0-0.1-0.1c0-0.1,0.1-0.1,0.1-0.1l0.7-0.2v2.3c0,0.3,0,1,0.2,1.1c0,0,0.1,0,0.1,0.1c0,0.1-0.1,0.1-0.1,0.1l-0.5,0
			l-0.1-0.6C40.8,120.4,40.5,120.7,39.9,120.7L39.9,120.7z M38.6,117.3c0.1,0,0.2,0.2,0.2,0.6v1.5c0,0.7,0.4,1.2,1.1,1.2
			c0.6,0,0.8-0.2,1.1-0.8l0.1-0.1l0,0.1l0.1,0.7h0.4h0c0,0,0,0,0,0c-0.2-0.2-0.2-0.9-0.2-1.2l0-2.2l-0.5,0.2c0,0,0,0,0,0
			c0.2,0.1,0.2,0.2,0.2,0.7v0.7c0,1-0.3,1.8-1,1.8c-0.7,0-0.9-0.6-0.9-1.2V117L38.6,117.3C38.6,117.2,38.6,117.2,38.6,117.3"/>
		<path id="XMLID_38_" class="st1" d="M43,117v0.8h0c0.2-0.6,0.6-0.9,1.1-0.9c0.6,0,1.2,0.3,1.2,1.3v1.3c0,0.7,0,0.8,0.2,0.9
			c0.1,0,0.1,0.1,0.1,0.1c0,0,0,0-0.1,0c-0.1,0-0.3,0-0.4,0c-0.2,0-0.4,0-0.5,0c0,0-0.1,0-0.1,0c0,0,0.1-0.1,0.1-0.1
			c0.2-0.1,0.2-0.5,0.2-1v-0.9c0-1.2-0.4-1.5-0.9-1.5c-0.6,0-1,0.7-1,1.5v1c0,0.5,0,0.7,0.2,0.9c0.1,0,0.1,0.1,0.1,0.1c0,0,0,0,0,0
			c-0.1,0-0.3,0-0.5,0c-0.2,0-0.4,0-0.5,0c0,0,0,0,0,0c0,0,0,0,0.1-0.1c0.2-0.1,0.2-0.6,0.2-1v-1.5c0-0.5-0.1-0.6-0.2-0.7
			c0,0-0.1-0.1-0.1-0.1c0,0,0,0,0.1,0L43,117z"/>
		<path id="XMLID_270_" class="st1" d="M45.1,120.6c-0.2,0-0.4,0-0.5,0c0,0-0.1,0-0.1-0.1c0-0.1,0.1-0.1,0.1-0.1
			c0.1-0.1,0.2-0.4,0.2-1v-0.9c0-1.1-0.4-1.4-0.8-1.4c-0.5,0-1,0.6-1,1.4v1c0,0.5,0,0.7,0.2,0.8c0.1,0.1,0.1,0,0.1,0.1
			c0,0.1-0.1,0.1-0.1,0.1c-0.1,0-0.3,0-0.5,0c-0.2,0-0.4,0-0.5,0c0,0-0.1,0-0.1-0.1c0-0.1,0.1-0.1,0.1-0.1c0.1-0.1,0.2-0.6,0.2-0.9
			v-1.5c0-0.5-0.1-0.6-0.2-0.6c-0.1,0-0.1-0.1-0.1-0.1c0-0.1,0.1-0.1,0.1-0.1l0.6-0.2l0.1,0v0.1l0,0.6c0.2-0.5,0.7-0.8,1.2-0.8
			c0.6,0,1.3,0.4,1.3,1.4v1.3c0,0.8,0,0.8,0.2,0.9c0.1,0,0.1,0.1,0.1,0.1c0,0.1-0.1,0.1-0.1,0.1C45.5,120.6,45.3,120.6,45.1,120.6
			 M45,118.5v0.9c0,0.5,0,0.9-0.2,1c0,0,0,0,0,0c0.1,0,0.3,0,0.4,0c0.1,0,0.3,0,0.4,0c0,0,0,0,0,0c-0.2-0.1-0.2-0.2-0.2-0.9v-1.3
			c0-1-0.6-1.2-1.2-1.3c-0.5,0-0.9,0.3-1.1,0.9l-0.1-0.1V117l-0.5,0.2c0,0,0,0,0,0c0,0,0,0,0,0c0.1,0.1,0.2,0.2,0.2,0.7v1.5
			c0,0.4,0,0.9-0.2,1c0,0,0,0,0,0c0.1,0,0.3,0,0.4,0c0.1,0,0.3,0,0.4,0c0,0,0,0,0,0c-0.2-0.2-0.2-0.4-0.2-0.9v-1
			c0-0.8,0.4-1.5,1.1-1.5C44.5,117,45,117.3,45,118.5"/>
		<path id="XMLID_267_" class="st1" d="M49.4,115.6v3.4c0,0.9,0.1,1.3,0.2,1.4c0,0,0.1,0.1,0.1,0.1c0,0,0,0,0,0c-0.1,0-0.2,0-0.2,0
			c-0.1,0-0.2,0-0.3,0l-0.1-0.7c-0.3,0.5-0.7,0.9-1.2,0.9c-0.9,0-1.5-0.8-1.5-1.8c0-1.2,0.7-1.9,1.6-1.9c0.5,0,0.9,0.3,1.1,0.6v-0.9
			c0-0.2,0-0.6-0.2-0.6c-0.1,0-0.1,0-0.1-0.1c0,0,0,0,0-0.1L49.4,115.6z M46.8,118.8c0,0.8,0.3,1.7,1,1.7c0.9,0,1.1-0.8,1.1-1.8
			c0-0.9-0.3-1.7-1.1-1.7C47.1,117,46.8,118,46.8,118.8"/>
		<path id="XMLID_262_" class="st1" d="M47.8,120.7c-0.9,0-1.6-0.8-1.6-1.9c0-1.2,0.7-2,1.7-2c0.4,0,0.8,0.3,1,0.5v-0.8
			c0-0.2,0-0.5-0.2-0.6c-0.1,0-0.1,0-0.1-0.1c0-0.1,0.1-0.1,0.1-0.1l0.6-0.2l0.1,0v3.5c0,0.9,0.1,1.3,0.2,1.3c0,0,0.1,0.1,0.1,0.1
			c0,0-0.1,0.1-0.1,0.1c-0.1,0-0.2,0-0.2,0c-0.1,0-0.2,0-0.3,0l-0.1-0.6C48.7,120.4,48.3,120.7,47.8,120.7L47.8,120.7z M47.9,116.9
			c-0.9,0-1.6,0.7-1.6,1.9c0,1,0.7,1.8,1.5,1.8c0.5,0,0.9-0.3,1.1-0.8l0.1-0.1l0,0.2l0.1,0.7c0.1,0,0.2,0,0.3,0c0.1,0,0.2,0,0.2,0
			c0,0,0,0,0,0c-0.2-0.1-0.2-0.5-0.2-1.4v-3.4l-0.6,0.2h0c0,0,0,0,0,0c0.2,0.1,0.2,0.4,0.2,0.7v1.1l-0.1-0.1
			C48.7,117.2,48.3,116.9,47.9,116.9L47.9,116.9z M46.8,118.8c0-0.8,0.2-1.8,1.1-1.8c0.9,0,1.2,0.8,1.2,1.7c0,0.9-0.3,1.8-1.2,1.8
			C47.1,120.5,46.8,119.6,46.8,118.8 M47.8,120.4c0.8,0,1.1-0.8,1.1-1.7c0-0.9-0.3-1.6-1.1-1.6c-0.7,0-1,0.9-1,1.7
			C46.9,119.6,47.2,120.4,47.8,120.4"/>
		<path id="XMLID_29_" class="st1" d="M13,119.1c-0.2-0.3-0.5-0.8-0.9-0.8c-0.2,0-0.4,0.1-0.4,0.4v0.8c0,0.4,0,0.8,0.2,0.9
			c0.1,0,0.1,0.1,0.1,0.1c0,0,0,0-0.1,0c-0.1,0-0.3,0-0.5,0c-0.3,0-0.4,0-0.5,0c-0.1,0-0.1,0-0.1,0c0,0,0,0,0.1-0.1
			c0.1-0.1,0.2-0.6,0.2-0.9V117c0-0.5,0-0.7-0.2-0.8c0,0,0,0,0-0.1c0,0,0,0,0.1,0c0,0,0.2,0,0.4,0c0.1,0,0.3,0,0.4,0
			c0,0,0.1,0,0.1,0c0,0,0,0.1-0.1,0.1c-0.1,0.1-0.1,0.3-0.1,0.6v1.4l1-0.9c0.4-0.4,0.8-0.8,0.8-0.9c0-0.1,0-0.1-0.1-0.1
			c0,0-0.1,0-0.1-0.1c0,0,0-0.1,0.1-0.1c0.1,0,0.2,0,0.3,0c0.1,0,0.3,0,0.4,0c0.1,0,0.2,0,0.2,0.1c0,0-0.1,0.1-0.3,0.2
			c-0.3,0.1-0.4,0.2-0.6,0.5l-1.4,1.3v0c0.9,0,1.1,0.2,1.6,1.1c0.2,0.4,0.5,0.9,0.9,1.2c0.1,0.1,0.2,0.1,0.2,0.1c0,0,0,0-0.1,0
			c-0.1,0-0.1,0-0.5,0c-0.1,0-0.4,0-0.4,0L13,119.1z"/>
		<path id="XMLID_258_" class="st1" d="M14.2,120.6c-0.1,0-0.3,0-0.5,0l-0.8-1.5l0.1,0l0,0l0.8,1.4c0.1,0,0.3,0,0.4,0
			c0.2,0,0.3,0,0.4,0c0,0-0.1,0-0.1-0.1c-0.4-0.3-0.7-0.8-0.9-1.2c-0.5-0.9-0.6-1-1.6-1.1l0-0.1l1.4-1.3c0.2-0.2,0.4-0.3,0.6-0.5
			c0.1-0.1,0.2-0.1,0.2-0.1c0,0-0.1,0-0.1,0c-0.1,0-0.3,0-0.4,0c-0.1,0-0.2,0-0.3,0l0,0c0,0,0,0,0,0c0.1,0,0.1,0.1,0.1,0.2
			c0,0.2-0.4,0.6-0.8,0.9l-1.1,1v-1.5c0-0.2,0-0.5,0.1-0.6c0,0,0,0,0,0c-0.1,0-0.2,0-0.4,0c-0.2,0-0.4,0-0.4,0
			c0.2,0.1,0.2,0.4,0.2,0.9v2.5c0,0.4,0,0.8-0.2,1c0,0,0,0,0,0c0.1,0,0.2,0,0.4,0c0.2,0,0.4,0,0.5,0c0,0,0,0,0,0
			c-0.2-0.1-0.2-0.6-0.2-1v-0.8c0-0.3,0.2-0.5,0.5-0.5c0.4,0,0.7,0.5,0.9,0.8l0,0l-0.1,0c-0.2-0.3-0.5-0.8-0.8-0.8
			c-0.2,0-0.3,0.1-0.4,0.4v0.8c0,0.4,0.1,0.8,0.2,0.9c0.1,0,0.1,0,0.2,0.1c0,0.1-0.1,0.1-0.1,0.1c-0.1,0-0.3,0-0.5,0
			c-0.3,0-0.4,0-0.5,0c-0.1,0-0.1,0-0.1-0.1c0-0.1,0.1-0.1,0.1-0.1c0.1,0,0.2-0.5,0.2-0.9V117c0-0.5,0-0.7-0.2-0.8
			c0,0-0.1-0.1-0.1-0.1c0-0.1,0.1-0.1,0.1-0.1c0.1,0,0.2,0,0.4,0c0.1,0,0.2,0,0.4,0c0.1,0,0.1,0,0.1,0.1c0,0.1-0.1,0.1-0.1,0.1
			c-0.1,0-0.1,0.3-0.1,0.5v1.3l0.9-0.8c0.4-0.4,0.8-0.8,0.7-0.9c0-0.1,0-0.1,0-0.1c0,0-0.1,0-0.1-0.1c0-0.1,0.1-0.1,0.2-0.1
			c0.1,0,0.2,0,0.3,0c0.1,0,0.3,0,0.4,0c0.1,0,0.2,0,0.3,0.1c0,0.1-0.2,0.1-0.3,0.2c-0.3,0.1-0.4,0.2-0.6,0.5l-1.3,1.2
			c0.9,0,1.1,0.3,1.6,1.1c0.2,0.4,0.5,0.9,0.8,1.1c0.1,0.1,0.2,0.1,0.2,0.2c0,0.1-0.1,0.1-0.1,0.1C14.6,120.6,14.6,120.6,14.2,120.6
			 M11.9,116.2L11.9,116.2L11.9,116.2z"/>
		<path id="XMLID_26_" class="st1" d="M15.8,117.8L15.8,117.8c0.2-0.6,0.6-0.9,1.1-0.9c0.6,0,1.2,0.3,1.2,1.3v1.3
			c0,0.5,0,0.8,0.2,0.9c0.1,0,0.1,0.1,0.1,0.1c0,0,0,0-0.1,0c-0.1,0-0.3,0-0.4,0c-0.2,0-0.4,0-0.5,0c0,0,0,0,0,0c0,0,0,0,0.1-0.1
			c0.2-0.1,0.2-0.4,0.2-0.6v-1.3c0-1.2-0.4-1.5-0.9-1.5c-0.6,0-1,0.7-1,1.5v1c0,0.5,0,0.7,0.2,0.9c0.1,0,0.1,0.1,0.1,0.1
			c0,0,0,0,0,0c-0.1,0-0.3,0-0.5,0c-0.2,0-0.4,0-0.5,0c0,0,0,0,0,0c0,0,0,0,0.1-0.1c0.2-0.1,0.2-0.4,0.2-0.6v-3.6
			c0-0.2,0-0.3-0.2-0.4c0,0-0.1,0-0.1,0c0,0,0,0,0.1,0l0.6-0.2V117.8z"/>
		<path id="XMLID_253_" class="st1" d="M17.9,120.6c-0.2,0-0.4,0-0.5,0c0,0-0.1,0-0.1-0.1c0-0.1,0.1-0.1,0.1-0.1
			c0.1-0.1,0.2-0.3,0.2-0.6v-1.3c0-1.1-0.4-1.4-0.8-1.4c-0.5,0-0.9,0.6-0.9,1.4v1c0,0.5,0,0.7,0.2,0.8c0.1,0.1,0.1,0,0.1,0.1
			c0,0.1-0.1,0.1-0.1,0.1c-0.1,0-0.3,0-0.5,0c-0.2,0-0.4,0-0.5,0c0,0-0.1,0-0.1-0.1c0-0.1,0.1-0.1,0.1-0.1c0.2-0.1,0.2-0.3,0.2-0.5
			v-3.6c0-0.2,0-0.3-0.2-0.3c0,0-0.1,0-0.1-0.1c0-0.1,0-0.1,0.1-0.1l0.7-0.2v2c0.2-0.4,0.6-0.7,1.1-0.7c0.6,0,1.3,0.4,1.3,1.4v1.3
			c0,0.5,0.1,0.8,0.1,0.9c0.1,0.1,0.1,0,0.1,0.1c0,0.1-0.1,0.1-0.1,0.1C18.3,120.6,18.1,120.6,17.9,120.6 M16,120.5L16,120.5
			L16,120.5L16,120.5z M15.4,116.2v3.6c0,0.2,0,0.5-0.2,0.6c0,0,0,0,0,0c0.1,0,0.3,0,0.4,0c0.1,0,0.3,0,0.4,0c0,0,0,0,0,0
			c-0.2-0.2-0.2-0.4-0.2-0.9v-1c0-0.8,0.4-1.5,1.1-1.5c0.5,0,0.9,0.3,0.9,1.5v1.3c0,0.2,0,0.5-0.2,0.6c0,0,0,0,0,0
			c0.1,0,0.3,0,0.4,0c0.1,0,0.3,0,0.4,0c0,0,0,0,0,0c-0.2-0.1-0.2-0.4-0.2-0.9v-1.3c0-1-0.6-1.3-1.2-1.3c-0.4,0-0.8,0.3-1.1,0.8v0h0
			c0,0,0,0,0,0.1h0v-0.1h-0.1v-2.1l-0.5,0.2C15.4,115.9,15.4,116.1,15.4,116.2"/>
		<path id="XMLID_250_" class="st1" d="M21.8,119.5c0,0.4,0,0.9,0.2,0.9c0,0,0,0,0,0.1c0,0,0,0-0.1,0c0,0-0.2,0-0.2,0
			c-0.1,0-0.1,0-0.2,0c0,0-0.1,0-0.1-0.1c0-0.2-0.1-0.4-0.1-0.6h0c-0.2,0.6-0.7,0.8-1.2,0.8c-0.5,0-1.2-0.3-1.2-1.1
			c0-1,1.3-1.2,1.9-1.2h0.4c0-0.8-0.2-1.3-0.9-1.3c-0.4,0-1,0.3-1.1,0.8c0,0,0,0,0,0c0,0,0,0,0,0l-0.2-0.6c0.4-0.2,0.9-0.3,1.3-0.3
			c1,0,1.4,0.5,1.4,1.3V119.5z M20.9,118.5c-0.6,0-1.4,0.1-1.4,1c0,0.6,0.4,0.9,0.8,0.9c0.8,0,1-0.8,1-1.6v-0.3H20.9z"/>
		<path id="XMLID_246_" class="st1" d="M20.2,120.7c-0.6,0-1.2-0.4-1.2-1.1c0-1.1,1.3-1.2,1.9-1.2l0.4,0.1c0-0.8-0.2-1.2-0.8-1.2
			c-0.4,0-1,0.3-1,0.7c0,0-0.1,0.1-0.1,0.1c0,0-0.1,0-0.1-0.1l-0.1-0.7c0.4-0.2,0.9-0.3,1.3-0.3c1,0,1.4,0.6,1.4,1.4v1.3
			c0,0.4,0.1,0.9,0.2,0.9c0,0,0.1,0,0.1,0.1c0,0.1-0.1,0.1-0.1,0.1c0,0-0.2,0-0.2,0c-0.1,0-0.1,0-0.2,0c-0.1,0-0.1-0.1-0.1-0.1
			c0-0.1-0.1-0.4,0-0.5C21.1,120.5,20.7,120.7,20.2,120.7L20.2,120.7z M19.1,119.5c0,0.7,0.6,1,1.1,1c0.5,0,0.9-0.2,1.2-0.8l0.1,0
			c0,0.2,0.1,0.5,0.1,0.6l0,0c0,0,0.1,0,0.2,0c0.1,0,0.2,0,0.2,0c0,0,0,0,0,0c-0.2-0.1-0.2-0.5-0.2-1v-1.3c0-0.8-0.3-1.3-1.3-1.3
			c-0.4,0-0.8,0.1-1.2,0.3l0.1,0.5c0.1-0.5,0.7-0.7,1.1-0.7c0.7,0,0.9,0.5,0.9,1.4h-0.4C20.3,118.4,19.1,118.5,19.1,119.5
			 M19.5,119.5c0-0.9,0.8-1.1,1.4-1.1v0.1v0.1c-0.6,0-1.3,0.1-1.3,1c0,0.6,0.4,0.9,0.8,0.9c0.8,0,0.9-0.8,0.9-1.6l0.1-0.3h-0.4v-0.1
			v-0.1l0.5,0.1v0.3c0,0.8-0.1,1.7-1,1.7C19.9,120.5,19.5,120.2,19.5,119.5"/>
		<path id="XMLID_17_" class="st1" d="M23.5,119.5c0,0.4,0,0.8,0.2,0.9c0.1,0,0.1,0.1,0.1,0.1c0,0-0.1,0-0.1,0c-0.1,0-0.3,0-0.4,0
			c-0.2,0-0.4,0-0.5,0c-0.1,0-0.1,0-0.1,0c0,0,0.1-0.1,0.1-0.1c0.2-0.1,0.2-0.7,0.2-1.4v-2.4c0-0.5,0-0.7-0.2-0.7c0,0-0.1,0-0.1,0
			c0,0,0,0,0.1,0l0.6-0.2V119.5z"/>
		<path id="XMLID_242_" class="st1" d="M23.2,120.6c-0.2,0-0.4,0-0.5,0c-0.1,0-0.2,0-0.2-0.1c0-0.1,0.1-0.1,0.2-0.1
			c0.2-0.1,0.2-0.7,0.2-1.4v-2.4c0-0.5,0-0.6-0.2-0.7c0,0-0.1,0-0.1-0.1c0-0.1,0.1-0.1,0.1-0.1l0.7-0.2v4c0,0.4,0,0.8,0.2,0.8
			c0,0,0.1,0,0.1,0.1c0,0.1-0.1,0.1-0.2,0.1C23.6,120.6,23.4,120.6,23.2,120.6 M23.1,116.6v2.4c0,0.7,0,1.3-0.3,1.5c0,0,0,0-0.1,0h0
			c0.1,0,0.3,0,0.5,0c0.2,0,0.4,0,0.4,0c0,0,0,0,0,0c-0.2-0.1-0.2-0.5-0.2-0.9v-3.9l-0.5,0.2C23.1,115.9,23.1,116.1,23.1,116.6"/>
		<path id="XMLID_239_" class="st1" d="M25.2,119.3c0,0.8,0.1,1.1,0.2,1.1c0.1,0,0.1,0,0.1,0.1c0,0,0,0-0.1,0c-0.1,0-0.3,0-0.5,0
			c-0.3,0-0.4,0-0.5,0c0,0,0,0,0,0c0,0,0-0.1,0.1-0.1c0.2-0.1,0.2-0.4,0.2-1v-2c0-0.1-0.1-0.2-0.2-0.2c0,0-0.1,0-0.1,0c0,0,0,0,0,0
			l0.6-0.2V119.3z M25.2,116.2c0,0.2-0.1,0.3-0.3,0.3c-0.1,0-0.3-0.1-0.3-0.3c0-0.2,0.1-0.3,0.3-0.3
			C25.1,115.8,25.2,115.9,25.2,116.2"/>
		<path id="XMLID_234_" class="st1" d="M25,120.6c-0.3,0-0.4,0-0.5,0c0,0-0.1,0-0.1-0.1c0-0.1,0.1-0.1,0.1-0.1
			c0.2-0.1,0.2-0.3,0.2-0.9v-2c0-0.1-0.1-0.1-0.2-0.2c0,0-0.1,0-0.1-0.1c0-0.1,0.1-0.1,0.1-0.1l0.7-0.2v2.4c0,0.8,0.1,1.1,0.2,1.1
			c0,0,0.1,0,0.1,0.1c0,0.1-0.1,0.1-0.1,0.1C25.3,120.6,25.1,120.6,25,120.6 M25.3,120.5c-0.2-0.1-0.2-0.5-0.2-1.2V117l-0.5,0.2
			c0.1,0.1,0.2,0.1,0.2,0.3v2c0,0.6,0,0.9-0.2,1c0,0,0,0,0,0c0.1,0,0.2,0,0.4,0C25.1,120.5,25.2,120.5,25.3,120.5 M24.6,116.1
			c0-0.2,0.2-0.4,0.3-0.4c0.2,0,0.3,0.1,0.3,0.4c0,0.2-0.2,0.4-0.3,0.4C24.8,116.5,24.6,116.4,24.6,116.1 M24.8,116.1
			c0,0.2,0.1,0.3,0.2,0.3c0.1,0,0.2-0.1,0.2-0.3c0-0.2-0.1-0.3-0.2-0.3C24.9,115.9,24.8,116,24.8,116.1"/>
		<path id="XMLID_8_" class="st1" d="M26.1,117.2h0.4v-0.3c0-0.9,0.7-1.2,1.3-1.3l-0.1,0.6c-0.1-0.1-0.2-0.3-0.4-0.3
			c-0.2,0-0.3,0.2-0.3,0.4v0.8h0.5l0,0.2h-0.5v1.6c0,0.7,0.1,1.2,0.2,1.4c0.1,0.1,0.1,0.1,0.1,0.1c0,0,0,0-0.1,0c0,0-0.1,0-0.5,0
			c-0.2,0-0.3,0-0.4,0c0,0-0.1,0-0.1,0c0,0,0,0,0.1-0.1c0.1-0.1,0.2-0.4,0.2-0.6v-2.5H26L26.1,117.2z"/>
		<path id="XMLID_230_" class="st1" d="M26.7,120.6c-0.2,0-0.3,0-0.4,0c0,0-0.1,0-0.1-0.1c0-0.1,0.1-0.1,0.1-0.1
			c0.1-0.1,0.2-0.3,0.2-0.6l0.1-2.4H26l0-0.1l0-0.2l0.1,0v-0.1l0.4,0.1v-0.3c0-0.9,0.7-1.2,1.3-1.3l0.1,0l0,0.1l-0.2,0.7l-0.1-0.1
			c-0.1-0.1-0.2-0.2-0.3-0.2c-0.1,0-0.3,0.1-0.3,0.4l-0.1,0.8h0.6l0,0.1l-0.1,0.2l-0.4-0.1v1.6c0,0.7,0.1,1.2,0.2,1.4
			c0,0.1,0.1,0,0.1,0.1c0,0.1-0.1,0.1-0.1,0.1C27.2,120.6,27.1,120.6,26.7,120.6 M26.1,117.3l0.4,0v2.5c0,0.2,0,0.5-0.2,0.6
			c0,0,0,0,0,0c0.1,0,0.2,0,0.3,0c0.2,0,0.4,0,0.4,0c0,0,0,0-0.1-0.1c-0.2-0.2-0.2-0.7-0.2-1.4l0.1-1.7l0.4,0l0-0.1l-0.5,0v-0.8
			c0-0.3,0.2-0.5,0.4-0.5c0.2,0,0.3,0.1,0.3,0.2l0.1-0.4c-0.6,0.1-1.1,0.4-1.1,1.2l-0.1,0.4L26.1,117.3L26.1,117.3z"/>
		<path id="XMLID_227_" class="st1" d="M30.9,119.5c0,0.4,0,0.9,0.2,0.9c0,0,0,0,0,0.1c0,0,0,0,0,0c0,0-0.2,0-0.2,0
			c-0.1,0-0.1,0-0.2,0c0,0-0.1,0-0.1-0.1c0-0.2-0.1-0.4-0.1-0.6h0c-0.2,0.6-0.7,0.8-1.2,0.8c-0.5,0-1.2-0.3-1.2-1.1
			c0-1,1.3-1.2,1.9-1.2h0.4c0-0.8-0.2-1.3-0.9-1.3c-0.4,0-1,0.3-1.1,0.8c0,0,0,0,0,0c0,0,0,0,0,0l-0.2-0.6c0.4-0.2,0.9-0.3,1.3-0.3
			c1,0,1.3,0.5,1.3,1.3V119.5z M30.1,118.5c-0.6,0-1.4,0.1-1.4,1c0,0.6,0.4,0.9,0.8,0.9c0.8,0,1-0.8,1-1.6v-0.3H30.1z"/>
		<path id="XMLID_223_" class="st1" d="M29.4,120.7c-0.6,0-1.2-0.4-1.2-1.1c0-1.1,1.3-1.2,2-1.2l0.4,0.1c0-0.8-0.2-1.2-0.8-1.2
			c-0.4,0-1,0.3-1,0.7c0,0-0.1,0.1-0.1,0.1c0,0-0.1,0-0.1-0.1l-0.1-0.7c0.4-0.2,0.9-0.3,1.3-0.3c1,0,1.4,0.6,1.4,1.4v1.3
			c0,0.4,0.1,0.9,0.2,0.9c0,0,0.1,0,0.1,0.1c0,0.1,0,0.1-0.1,0.1c0,0-0.2,0-0.2,0c-0.1,0-0.1,0-0.2,0c-0.1,0-0.1-0.1-0.1-0.1
			c0-0.1-0.1-0.4-0.1-0.5C30.3,120.5,29.8,120.7,29.4,120.7L29.4,120.7z M28.2,119.5c0,0.7,0.6,1,1.1,1c0.5,0,0.9-0.2,1.2-0.8l0.1,0
			c0,0.2,0.1,0.5,0.1,0.6l0,0c0.1,0,0.1,0,0.2,0c0.1,0,0.2,0,0.2,0c0,0,0,0,0,0c-0.2-0.1-0.2-0.5-0.2-1v-1.3c0-0.8-0.3-1.3-1.3-1.3
			c-0.4,0-0.8,0.1-1.2,0.3l0.1,0.5c0.1-0.5,0.7-0.7,1.1-0.7c0.7,0,0.9,0.5,0.9,1.4h-0.4C29.4,118.4,28.2,118.5,28.2,119.5
			 M28.6,119.5c0-0.9,0.8-1.1,1.4-1.1v0.1v0.1c-0.6,0-1.3,0.1-1.3,1c0,0.6,0.4,0.9,0.8,0.9c0.8,0,0.9-0.8,0.9-1.6l0.1-0.3h-0.4v-0.1
			v-0.1l0.5,0.1v0.3c0,0.8-0.1,1.7-1,1.7C29.1,120.5,28.6,120.2,28.6,119.5"/>
	</g>
</g>
</svg>
